<svg width="33" height="31" viewBox="0 0 33 31" fill="none" xmlns="http://www.w3.org/2000/svg">
<path d="M16.25 6.92043C16.25 3.80195 14 1.25 11.2505 1.25H1.25V21.6656H11.312C16.25 21.6656 16.25 27.3377 16.25 27.3377M16.25 6.92043C16.25 3.80025 18.5 1.25 21.2495 1.25H31.25V21.6656H21.2495C16.25 21.6656 16.25 27.3377 16.25 27.3377M16.25 6.92043V27.3377M19.0625 29.25C19.3755 28.5148 19.863 27.8932 20.4704 27.455C21.0777 27.0168 21.7807 26.7794 22.5005 26.7695H29.75M13.4375 29.25C13.1302 28.5098 12.644 27.8838 12.0354 27.4447C11.4268 27.0056 10.7208 26.7714 9.9995 26.7695H2.75" stroke="white" stroke-width="2.5" stroke-miterlimit="10" stroke-linecap="round" stroke-linejoin="round"/>
</svg>
