<svg width="27" height="28" viewBox="0 0 27 28" fill="none" xmlns="http://www.w3.org/2000/svg">
<path d="M9.90059 0.933265C9.90059 0.685747 9.80576 0.448368 9.63697 0.273347C9.46818 0.0983258 9.23925 0 9.00054 0C8.76183 0 8.5329 0.0983258 8.3641 0.273347C8.19531 0.448368 8.10048 0.685747 8.10048 0.933265V1.86653H4.50027C3.78414 1.86653 3.09734 2.16151 2.59097 2.68657C2.08459 3.21163 1.80011 3.92377 1.80011 4.66632V10.2659C1.80011 11.0085 2.08459 11.7206 2.59097 12.2457C3.09734 12.7707 3.78414 13.0657 4.50027 13.0657H9.15895C9.23575 12.8517 9.33896 12.6495 9.46856 12.4591C9.77458 12.0111 10.2066 11.6751 10.7106 11.4866L11.5747 11.1992H4.50027C4.26156 11.1992 4.03263 11.1008 3.86383 10.9258C3.69504 10.7508 3.60021 10.5134 3.60021 10.2659V4.66632C3.60021 4.41881 3.69504 4.18143 3.86383 4.00641C4.03263 3.83138 4.26156 3.73306 4.50027 3.73306H13.5008C13.7395 3.73306 13.9684 3.83138 14.1372 4.00641C14.306 4.18143 14.4009 4.41881 14.4009 4.66632V8.1698L14.6403 7.41012C14.8383 6.85016 15.1623 6.4022 15.5943 6.08489C15.7851 5.94303 15.9874 5.8329 16.201 5.75451V4.66632C16.201 3.92377 15.9165 3.21163 15.4101 2.68657C14.9037 2.16151 14.2169 1.86653 13.5008 1.86653H9.90059V0.933265ZM2.70016 15.8655H9.74398C10.0243 16.1616 10.3686 16.3843 10.7484 16.515L12.6566 17.1683C12.9284 17.2635 13.1804 17.4129 13.5044 17.7115L13.5224 17.732H2.70016C2.46145 17.732 2.23252 17.8304 2.06373 18.0054C1.89493 18.1804 1.80011 18.4178 1.80011 18.6653V19.3186C1.80011 21.0824 2.53455 22.2584 3.74782 23.0404C5.0151 23.858 6.84941 24.2649 9.00054 24.2649C11.1661 24.2649 13.0004 23.8561 14.2623 23.0404C14.7699 22.7138 15.1929 22.3162 15.5133 21.8347L15.6123 21.9187C15.8643 22.1053 16.1344 22.236 16.4224 22.3106C16.2143 22.775 16.1531 23.2957 16.2478 23.7982C15.9319 24.1102 15.5856 24.3873 15.2145 24.6251C13.5512 25.7021 11.3353 26.1314 9.00054 26.1314C6.6784 26.1314 4.46247 25.6984 2.79737 24.6251C1.07826 23.5183 0 21.7544 0 19.3186V18.6653C0 17.9227 0.284481 17.2106 0.790859 16.6855C1.29724 16.1605 1.98403 15.8655 2.70016 15.8655ZM7.65046 7.46612C7.65046 7.83739 7.50822 8.19346 7.25503 8.45599C7.00184 8.71852 6.65844 8.86601 6.30038 8.86601C5.94231 8.86601 5.59891 8.71852 5.34572 8.45599C5.09254 8.19346 4.9503 7.83739 4.9503 7.46612C4.9503 7.09484 5.09254 6.73877 5.34572 6.47624C5.59891 6.21371 5.94231 6.06622 6.30038 6.06622C6.65844 6.06622 7.00184 6.21371 7.25503 6.47624C7.50822 6.73877 7.65046 7.09484 7.65046 7.46612ZM11.7007 8.86601C12.0588 8.86601 12.4022 8.71852 12.6553 8.45599C12.9085 8.19346 13.0508 7.83739 13.0508 7.46612C13.0508 7.09484 12.9085 6.73877 12.6553 6.47624C12.4022 6.21371 12.0588 6.06622 11.7007 6.06622C11.3426 6.06622 10.9992 6.21371 10.746 6.47624C10.4929 6.73877 10.3506 7.09484 10.3506 7.46612C10.3506 7.83739 10.4929 8.19346 10.746 8.45599C10.9992 8.71852 11.3426 8.86601 11.7007 8.86601ZM17.7815 7.99248L18.4079 9.99153C18.6022 10.5996 18.9309 11.152 19.3679 11.6048C19.8049 12.0576 20.3379 12.3981 20.9244 12.5991L22.8542 13.2486L22.892 13.2598C23.0407 13.3141 23.1694 13.4149 23.2605 13.5483C23.3516 13.6817 23.4006 13.8411 23.4006 14.0046C23.4006 14.168 23.3516 14.3275 23.2605 14.4609C23.1694 14.5942 23.0407 14.695 22.892 14.7493L20.9641 15.3989C20.3772 15.5996 19.8438 15.94 19.4065 16.3928C18.9692 16.8456 18.6402 17.3982 18.4457 18.0064L17.8193 20.0036C17.7669 20.1578 17.6697 20.2913 17.5411 20.3858C17.4124 20.4802 17.2587 20.531 17.101 20.531C16.9434 20.531 16.7896 20.4802 16.661 20.3858C16.5323 20.2913 16.4351 20.1578 16.3828 20.0036L15.7563 18.0064C15.5312 17.2993 15.1249 16.6689 14.5809 16.1828C14.1875 15.8286 13.7305 15.5584 13.2362 15.3877L11.3065 14.7381C11.1578 14.6838 11.029 14.583 10.9379 14.4497C10.8468 14.3163 10.7979 14.1568 10.7979 13.9934C10.7979 13.8299 10.8468 13.6705 10.9379 13.5371C11.029 13.4037 11.1578 13.3029 11.3065 13.2486L13.2362 12.5991C13.8157 12.3929 14.3412 12.0501 14.7713 11.5976C15.2015 11.1451 15.5245 10.5954 15.7149 9.99153L16.3414 7.99434C16.3933 7.83951 16.4905 7.70529 16.6194 7.61031C16.7482 7.51533 16.9024 7.4643 17.0605 7.4643C17.2186 7.4643 17.3728 7.51533 17.5017 7.61031C17.6305 7.70529 17.7277 7.83951 17.7797 7.99434M26.6092 22.7978L25.2321 22.3349C24.8132 22.1905 24.4325 21.9471 24.1201 21.6237C23.8076 21.3004 23.5721 20.9061 23.432 20.4721L22.9856 19.0442C22.9483 18.9339 22.8789 18.8384 22.787 18.7708C22.6951 18.7033 22.5852 18.667 22.4725 18.667C22.3599 18.667 22.25 18.7033 22.1581 18.7708C22.0662 18.8384 21.9968 18.9339 21.9595 19.0442L21.5095 20.4721C21.3725 20.9028 21.1416 21.2949 20.8347 21.6179C20.5278 21.941 20.1532 22.1864 19.74 22.3349L18.3629 22.7978C18.2836 22.8271 18.212 22.8749 18.1536 22.9377C18.0951 23.0004 18.0515 23.0763 18.026 23.1595C18.0006 23.2426 17.994 23.3307 18.0069 23.4169C18.0197 23.5031 18.0516 23.5851 18.1001 23.6564C18.1649 23.7497 18.2567 23.8244 18.3629 23.8617L19.74 24.3265C20.1596 24.4716 20.5408 24.7162 20.8533 25.0409C21.1658 25.3655 21.401 25.7613 21.5401 26.1967L21.9865 27.6228C22.0238 27.733 22.0932 27.8285 22.1851 27.8961C22.277 27.9637 22.3869 28 22.4995 28C22.6122 28 22.7221 27.9637 22.814 27.8961C22.9059 27.8285 22.9753 27.733 23.0126 27.6228L23.4608 26.1967C23.6004 25.7625 23.8356 25.368 24.1478 25.0444C24.4599 24.7207 24.8404 24.4769 25.2591 24.3321L26.6362 23.8692C26.7425 23.8305 26.8346 23.7586 26.8998 23.6633C26.965 23.568 27 23.454 27 23.3372C27 23.2204 26.965 23.1064 26.8998 23.0111C26.8346 22.9158 26.7425 22.8439 26.6362 22.8053L26.6092 22.7978Z" fill="white"/>
</svg>
