<svg width="763" height="763" viewBox="0 0 763 763" fill="none" xmlns="http://www.w3.org/2000/svg">
<path d="M246.098 238.712C203.522 242.115 162.458 249.379 126.047 260.763C83.1211 274.177 39.2791 295.083 52.2348 322.413C76.1472 372.878 190.857 373.794 167.951 407.732C142.009 446.172 159.406 491.25 275.824 503.794C496.942 527.615 764.221 388.26 689.157 311.701C642.415 264.029 472.19 220.614 246.113 238.712H246.098Z" fill="#33B0CC"/>
<path opacity="0.9" d="M246.098 238.712C203.522 242.115 162.458 249.379 126.047 260.763C83.1211 274.177 39.2791 295.083 52.2348 322.413C76.1472 372.878 190.857 373.794 167.951 407.732C142.009 446.172 159.406 491.25 275.824 503.794C496.942 527.615 764.221 388.26 689.157 311.701C642.415 264.029 472.19 220.614 246.113 238.712H246.098Z" fill="white"/>
<path d="M700.251 671.074C700.251 676.247 557.539 680.428 381.5 680.428C205.461 680.428 62.749 676.232 62.749 671.074C62.749 665.916 205.461 661.719 381.5 661.719C557.539 661.719 700.251 665.916 700.251 671.074Z" fill="#F5F5F5"/>
<path d="M546.964 109.048H182.052V667.091H546.964V109.048Z" fill="#33B0CC"/>
<path opacity="0.8" d="M546.964 109.048H182.052V667.091H546.964V109.048Z" fill="white"/>
<path opacity="0.5" d="M217.043 122.675C217.043 124.46 215.608 125.91 213.823 125.91C212.037 125.91 210.603 124.46 210.603 122.675C210.603 120.89 212.037 119.44 213.823 119.44C215.608 119.44 217.043 120.89 217.043 122.675Z" fill="black"/>
<path opacity="0.5" d="M250.691 122.675C250.691 124.46 249.257 125.91 247.471 125.91C245.686 125.91 244.251 124.46 244.251 122.675C244.251 120.89 245.686 119.44 247.471 119.44C249.257 119.44 250.691 120.89 250.691 122.675Z" fill="black"/>
<path opacity="0.5" d="M284.34 122.675C284.34 124.46 282.905 125.91 281.12 125.91C279.334 125.91 277.9 124.46 277.9 122.675C277.9 120.89 279.334 119.44 281.12 119.44C282.905 119.44 284.34 120.89 284.34 122.675Z" fill="black"/>
<path opacity="0.5" d="M318.003 122.675C318.003 124.46 316.569 125.91 314.783 125.91C312.998 125.91 311.563 124.46 311.563 122.675C311.563 120.89 312.998 119.44 314.783 119.44C316.569 119.44 318.003 120.89 318.003 122.675Z" fill="black"/>
<path opacity="0.5" d="M351.652 122.675C351.652 124.46 350.217 125.91 348.432 125.91C346.646 125.91 345.212 124.46 345.212 122.675C345.212 120.89 346.646 119.44 348.432 119.44C350.217 119.44 351.652 120.89 351.652 122.675Z" fill="black"/>
<path opacity="0.5" d="M385.3 122.675C385.3 124.46 383.865 125.91 382.08 125.91C380.294 125.91 378.86 124.46 378.86 122.675C378.86 120.89 380.294 119.44 382.08 119.44C383.865 119.44 385.3 120.89 385.3 122.675Z" fill="black"/>
<path opacity="0.5" d="M418.963 122.675C418.963 124.46 417.529 125.91 415.743 125.91C413.958 125.91 412.523 124.46 412.523 122.675C412.523 120.89 413.958 119.44 415.743 119.44C417.529 119.44 418.963 120.89 418.963 122.675Z" fill="black"/>
<path opacity="0.5" d="M452.612 122.675C452.612 124.46 451.177 125.91 449.392 125.91C447.606 125.91 446.172 124.46 446.172 122.675C446.172 120.89 447.606 119.44 449.392 119.44C451.177 119.44 452.612 120.89 452.612 122.675Z" fill="black"/>
<path opacity="0.5" d="M486.26 122.675C486.26 124.46 484.826 125.91 483.04 125.91C481.255 125.91 479.82 124.46 479.82 122.675C479.82 120.89 481.255 119.44 483.04 119.44C484.826 119.44 486.26 120.89 486.26 122.675Z" fill="black"/>
<path opacity="0.5" d="M519.924 122.675C519.924 124.46 518.489 125.91 516.704 125.91C514.918 125.91 513.484 124.46 513.484 122.675C513.484 120.89 514.918 119.44 516.704 119.44C518.489 119.44 519.924 120.89 519.924 122.675Z" fill="black"/>
<path d="M214.098 124.201C205.582 124.201 198.639 117.242 198.639 108.682C198.639 100.121 205.567 93.1621 214.098 93.1621C222.628 93.1621 229.556 100.121 229.556 108.682H226.504C226.504 101.815 220.934 96.2141 214.098 96.2141C207.261 96.2141 201.691 101.799 201.691 108.682C201.691 115.564 207.261 121.149 214.098 121.149V124.201Z" fill="#263238"/>
<path d="M248.005 124.201C239.49 124.201 232.547 117.242 232.547 108.682C232.547 100.121 239.475 93.1621 248.005 93.1621C256.536 93.1621 263.464 100.121 263.464 108.682H260.412C260.412 101.815 254.842 96.2141 248.005 96.2141C241.169 96.2141 235.599 101.799 235.599 108.682C235.599 115.564 241.169 121.149 248.005 121.149V124.201Z" fill="#263238"/>
<path d="M281.898 124.201C273.383 124.201 266.439 117.242 266.439 108.682C266.439 100.121 273.367 93.1621 281.898 93.1621C290.428 93.1621 297.356 100.121 297.356 108.682H294.304C294.304 101.815 288.734 96.2141 281.898 96.2141C275.061 96.2141 269.491 101.799 269.491 108.682C269.491 115.564 275.061 121.149 281.898 121.149V124.201Z" fill="#263238"/>
<path d="M315.806 124.201C307.29 124.201 300.347 117.242 300.347 108.682C300.347 100.121 307.275 93.1621 315.806 93.1621C324.336 93.1621 331.264 100.121 331.264 108.682H328.212C328.212 101.815 322.642 96.2141 315.806 96.2141C308.969 96.2141 303.399 101.799 303.399 108.682C303.399 115.564 308.969 121.149 315.806 121.149V124.201Z" fill="#263238"/>
<path d="M349.698 124.201C341.183 124.201 334.24 117.242 334.24 108.682C334.24 100.121 341.168 93.1621 349.698 93.1621C358.228 93.1621 365.156 100.121 365.156 108.682H362.104C362.104 101.815 356.535 96.2141 349.698 96.2141C342.862 96.2141 337.292 101.799 337.292 108.682C337.292 115.564 342.862 121.149 349.698 121.149V124.201Z" fill="#263238"/>
<path d="M383.606 124.201C375.091 124.201 368.147 117.242 368.147 108.682C368.147 100.121 375.076 93.1621 383.606 93.1621C392.136 93.1621 399.064 100.121 399.064 108.682H396.012C396.012 101.815 390.442 96.2141 383.606 96.2141C376.769 96.2141 371.199 101.799 371.199 108.682C371.199 115.564 376.769 121.149 383.606 121.149V124.201Z" fill="#263238"/>
<path d="M417.498 124.201C408.983 124.201 402.04 117.242 402.04 108.682C402.04 100.121 408.968 93.1621 417.498 93.1621C426.029 93.1621 432.957 100.121 432.957 108.682H429.905C429.905 101.815 424.335 96.2141 417.498 96.2141C410.662 96.2141 405.092 101.799 405.092 108.682C405.092 115.564 410.662 121.149 417.498 121.149V124.201Z" fill="#263238"/>
<path d="M451.406 124.201C442.891 124.201 435.948 117.242 435.948 108.682C435.948 100.121 442.876 93.1621 451.406 93.1621C459.936 93.1621 466.865 100.121 466.865 108.682H463.813C463.813 101.815 458.243 96.2141 451.406 96.2141C444.57 96.2141 439 101.799 439 108.682C439 115.564 444.57 121.149 451.406 121.149V124.201Z" fill="#263238"/>
<path d="M485.299 124.201C476.784 124.201 469.84 117.242 469.84 108.682C469.84 100.121 476.768 93.1621 485.299 93.1621C493.829 93.1621 500.757 100.121 500.757 108.682H497.705C497.705 101.815 492.135 96.2141 485.299 96.2141C478.462 96.2141 472.892 101.799 472.892 108.682C472.892 115.564 478.462 121.149 485.299 121.149V124.201Z" fill="#263238"/>
<path d="M519.206 124.201C510.691 124.201 503.748 117.242 503.748 108.682C503.748 100.121 510.676 93.1621 519.206 93.1621C527.737 93.1621 534.665 100.121 534.665 108.682H531.613C531.613 101.815 526.043 96.2141 519.206 96.2141C512.37 96.2141 506.8 101.799 506.8 108.682C506.8 115.564 512.37 121.149 519.206 121.149V124.201Z" fill="#263238"/>
<path d="M578.079 667.091H546.964V109.048H562.514L578.079 667.091Z" fill="#33B0CC"/>
<path d="M498.742 222.811H303.811C302.972 222.811 302.285 222.125 302.285 221.285C302.285 220.446 302.972 219.759 303.811 219.759H498.742C499.582 219.759 500.268 220.446 500.268 221.285C500.268 222.125 499.582 222.811 498.742 222.811Z" fill="#263238"/>
<path d="M498.269 235.065H303.338C302.499 235.065 301.812 234.378 301.812 233.539C301.812 232.7 302.499 232.013 303.338 232.013H498.269C499.109 232.013 499.795 232.7 499.795 233.539C499.795 234.378 499.109 235.065 498.269 235.065Z" fill="#263238"/>
<path d="M397.111 247.517H303.338C302.499 247.517 301.812 246.831 301.812 245.991C301.812 245.152 302.499 244.465 303.338 244.465H397.111C397.95 244.465 398.637 245.152 398.637 245.991C398.637 246.831 397.95 247.517 397.111 247.517Z" fill="#263238"/>
<path d="M285.545 247.288H252.187V213.792H285.545V247.288ZM253.713 245.762H284.019V215.318H253.713V245.762Z" fill="#263238"/>
<path d="M272.955 243.229L255.528 230.197L260.061 224.093L271.75 232.837L287.803 213.594L293.602 218.493L272.955 243.229Z" fill="#33B0CC"/>
<path d="M500.497 286.186H305.566C304.727 286.186 304.04 285.499 304.04 284.66C304.04 283.82 304.727 283.134 305.566 283.134H500.497C501.337 283.134 502.023 283.82 502.023 284.66C502.023 285.499 501.337 286.186 500.497 286.186Z" fill="#263238"/>
<path d="M500.024 298.44H305.093C304.254 298.44 303.567 297.753 303.567 296.914C303.567 296.074 304.254 295.388 305.093 295.388H500.024C500.863 295.388 501.55 296.074 501.55 296.914C501.55 297.753 500.863 298.44 500.024 298.44Z" fill="#263238"/>
<path d="M398.866 310.891H305.093C304.254 310.891 303.567 310.205 303.567 309.365C303.567 308.526 304.254 307.839 305.093 307.839H398.866C399.705 307.839 400.392 308.526 400.392 309.365C400.392 310.205 399.705 310.891 398.866 310.891Z" fill="#263238"/>
<path d="M285.545 313.76H252.187V280.265H285.545V313.76ZM253.713 312.234H284.019V281.791H253.713V312.234Z" fill="#263238"/>
<path d="M272.955 309.701L255.528 296.669L260.061 290.565L271.75 299.309L287.803 280.066L293.602 284.965L272.955 309.701Z" fill="#33B0CC"/>
<path d="M498.971 350.522H304.04C303.201 350.522 302.514 349.835 302.514 348.996C302.514 348.156 303.201 347.47 304.04 347.47H498.971C499.811 347.47 500.497 348.156 500.497 348.996C500.497 349.835 499.811 350.522 498.971 350.522Z" fill="#263238"/>
<path d="M498.498 362.791H303.567C302.728 362.791 302.041 362.104 302.041 361.265C302.041 360.425 302.728 359.739 303.567 359.739H498.498C499.338 359.739 500.024 360.425 500.024 361.265C500.024 362.104 499.338 362.791 498.498 362.791Z" fill="#263238"/>
<path d="M397.34 375.243H303.567C302.728 375.243 302.041 374.556 302.041 373.717C302.041 372.878 302.728 372.191 303.567 372.191H397.34C398.179 372.191 398.866 372.878 398.866 373.717C398.866 374.556 398.179 375.243 397.34 375.243Z" fill="#263238"/>
<path d="M285.545 380.233H252.187V346.737H285.545V380.233ZM253.713 378.707H284.019V348.263H253.713V378.707Z" fill="#263238"/>
<path d="M272.955 376.174L255.528 363.142L260.061 357.038L271.75 365.767L287.803 346.539L293.602 351.422L272.955 376.174Z" fill="#33B0CC"/>
<path d="M498.971 416.521H304.04C303.201 416.521 302.514 415.835 302.514 414.995C302.514 414.156 303.201 413.469 304.04 413.469H498.971C499.811 413.469 500.497 414.156 500.497 414.995C500.497 415.835 499.811 416.521 498.971 416.521Z" fill="#263238"/>
<path d="M498.498 428.79H303.567C302.728 428.79 302.041 428.104 302.041 427.264C302.041 426.425 302.728 425.738 303.567 425.738H498.498C499.338 425.738 500.024 426.425 500.024 427.264C500.024 428.104 499.338 428.79 498.498 428.79Z" fill="#263238"/>
<path d="M397.34 441.227H303.567C302.728 441.227 302.041 440.541 302.041 439.701C302.041 438.862 302.728 438.175 303.567 438.175H397.34C398.179 438.175 398.866 438.862 398.866 439.701C398.866 440.541 398.179 441.227 397.34 441.227Z" fill="#263238"/>
<path d="M285.545 446.217H252.187V412.722H285.545V446.217ZM253.713 444.691H284.019V414.248H253.713V444.691Z" fill="#263238"/>
<path d="M498.971 482.994H304.04C303.201 482.994 302.514 482.307 302.514 481.468C302.514 480.629 303.201 479.942 304.04 479.942H498.971C499.811 479.942 500.497 480.629 500.497 481.468C500.497 482.307 499.811 482.994 498.971 482.994Z" fill="#263238"/>
<path d="M498.498 495.248H303.567C302.728 495.248 302.041 494.561 302.041 493.722C302.041 492.883 302.728 492.196 303.567 492.196H498.498C499.338 492.196 500.024 492.883 500.024 493.722C500.024 494.561 499.338 495.248 498.498 495.248Z" fill="#263238"/>
<path d="M397.34 507.7H303.567C302.728 507.7 302.041 507.013 302.041 506.174C302.041 505.335 302.728 504.648 303.567 504.648H397.34C398.179 504.648 398.866 505.335 398.866 506.174C398.866 507.013 398.179 507.7 397.34 507.7Z" fill="#263238"/>
<path d="M285.545 512.69H252.187V479.194H285.545V512.69ZM253.713 511.164H284.019V480.72H253.713V511.164Z" fill="#263238"/>
<path d="M498.971 549.467H304.04C303.201 549.467 302.514 548.78 302.514 547.941C302.514 547.101 303.201 546.415 304.04 546.415H498.971C499.811 546.415 500.497 547.101 500.497 547.941C500.497 548.78 499.811 549.467 498.971 549.467Z" fill="#263238"/>
<path d="M498.498 561.72H303.567C302.728 561.72 302.041 561.034 302.041 560.194C302.041 559.355 302.728 558.668 303.567 558.668H498.498C499.338 558.668 500.024 559.355 500.024 560.194C500.024 561.034 499.338 561.72 498.498 561.72Z" fill="#263238"/>
<path d="M397.34 574.173H303.567C302.728 574.173 302.041 573.486 302.041 572.647C302.041 571.807 302.728 571.121 303.567 571.121H397.34C398.179 571.121 398.866 571.807 398.866 572.647C398.866 573.486 398.179 574.173 397.34 574.173Z" fill="#263238"/>
<path d="M285.545 579.163H252.187V545.667H285.545V579.163ZM253.713 577.637H284.019V547.193H253.713V577.637Z" fill="#263238"/>
<path d="M222.689 109.048H221.163V667.472H222.689V109.048Z" fill="#33B0CC"/>
<path opacity="0.6" d="M578.079 667.091H546.964V109.048H562.514L578.079 667.091Z" fill="white"/>
<path opacity="0.1" d="M547.468 166.853H182.052V168.379H547.468V166.853Z" fill="black"/>
<path opacity="0.1" d="M547.468 196.564H182.052V198.09H547.468V196.564Z" fill="black"/>
<path opacity="0.1" d="M547.468 226.26H182.052V227.786H547.468V226.26Z" fill="black"/>
<path opacity="0.1" d="M547.468 255.971H182.052V257.497H547.468V255.971Z" fill="black"/>
<path opacity="0.1" d="M547.468 285.667H182.052V287.193H547.468V285.667Z" fill="black"/>
<path opacity="0.1" d="M547.468 315.378H182.052V316.904H547.468V315.378Z" fill="black"/>
<path opacity="0.1" d="M547.468 345.074H182.052V346.6H547.468V345.074Z" fill="black"/>
<path opacity="0.1" d="M547.468 374.785H182.052V376.311H547.468V374.785Z" fill="black"/>
<path opacity="0.1" d="M547.468 404.481H182.052V406.007H547.468V404.481Z" fill="black"/>
<path opacity="0.1" d="M547.468 434.192H182.052V435.718H547.468V434.192Z" fill="black"/>
<path opacity="0.1" d="M547.468 463.889H182.052V465.415H547.468V463.889Z" fill="black"/>
<path opacity="0.1" d="M547.468 493.584H182.052V495.11H547.468V493.584Z" fill="black"/>
<path opacity="0.1" d="M547.468 523.296H182.052V524.822H547.468V523.296Z" fill="black"/>
<path opacity="0.1" d="M547.468 552.992H182.052V554.518H547.468V552.992Z" fill="black"/>
<path opacity="0.1" d="M547.468 582.703H182.052V584.229H547.468V582.703Z" fill="black"/>
<path opacity="0.1" d="M547.468 612.399H182.052V613.925H547.468V612.399Z" fill="black"/>
<path opacity="0.1" d="M547.468 642.11H182.052V643.636H547.468V642.11Z" fill="black"/>
<path d="M498.27 164.854H267.569V175.719H498.27V164.854Z" fill="#33B0CC"/>
<path d="M153.806 417.422L123.21 554.274L98.2899 658.118L85.1053 653.906C85.1053 653.906 78.2383 618.137 87.1196 578.247C89.1644 569.045 94.2002 559.172 95.2532 551.741C96.1993 545.225 92.4759 530.361 93.1778 515.162C94.0171 496.789 91.3008 477.791 97.4201 460.272C97.4201 460.272 92.9032 440.587 104.76 415.881L153.806 417.437V417.422Z" fill="#EEC1BB"/>
<path d="M121.119 663.856C109.567 661.17 103.829 658.82 101.937 654.059C100.548 650.58 105.309 638.692 105.676 634.053C105.752 633.168 105.096 632.421 104.256 632.405L82.0836 632.649C82.0836 633.031 82.5567 642.156 83.045 648.81C83.2281 651.312 82.7551 653.907 82.7093 654.09L80.5271 668.251C80.2067 669.426 80.8628 670.662 81.9768 670.998C82.1752 671.059 82.3888 671.089 82.5872 671.089H116.174C122.416 671.089 123.698 664.482 121.134 663.871L121.119 663.856Z" fill="#33B0CC"/>
<path d="M170.988 415.713L127.299 426.349C122.278 451.91 141.872 470.664 141.872 470.664C140.728 488.167 145.382 510.63 149.884 527.401C153.622 541.211 156.262 545.041 157.193 551.176C158.261 558.15 155.972 568.465 156.537 577.301C159.04 615.665 168.638 658.118 168.638 658.118L181.655 657.157L190.536 544.507L170.988 415.713Z" fill="#EEC1BB"/>
<path d="M203.339 663.856C191.788 661.17 186.05 658.82 184.158 654.059C182.769 650.58 185.974 638.311 186.34 633.671C186.416 632.786 185.76 632.039 184.921 632.023L162.656 632.405C162.656 632.786 164.777 642.156 165.266 648.809C165.449 651.312 164.976 653.906 164.93 654.089L162.748 668.251C162.427 669.426 163.084 670.662 164.198 670.997C164.396 671.058 164.61 671.089 164.808 671.089H198.395C204.637 671.089 205.918 664.481 203.355 663.871L203.339 663.856Z" fill="#33B0CC"/>
<path d="M176.681 423.297C173.98 413.729 171.05 398.957 168.913 390.549H111.719C111.719 390.549 93.4373 402.94 91.9723 440.327C91.3619 455.663 85.8378 475.12 85.1206 492.241L136.165 502.115L146.191 456.152L176.681 423.297Z" fill="#33B0CC"/>
<path d="M176.681 423.297L190.079 491.982L143.933 502.13L139.034 474.403L139.446 448.903L176.681 423.297Z" fill="#33B0CC"/>
<path opacity="0.3" d="M140.637 483.467L148.282 448.415L159.819 438.511L152.036 455.084L143.933 502.13L140.637 483.467Z" fill="black"/>
<path d="M178.008 342.694L183.227 372.298L210.13 361.815L216.906 371.337C216.906 371.337 187.103 402.406 170.637 397.859C161.298 395.28 163.206 348.737 163.206 348.737L178.008 342.679V342.694Z" fill="#EEC1BB"/>
<path d="M163.404 312.891C163.404 312.891 166.502 313.914 169.508 317.591C172.515 321.269 187.103 343.732 187.103 343.732L164.213 354.459L163.404 312.891Z" fill="#263238"/>
<path opacity="0.3" d="M172.606 350.522C172.606 350.522 172.988 343.716 172.606 338.711C172.225 333.706 169.936 328.838 169.936 328.838C169.936 328.838 174.514 334.774 175.795 339.672C177.077 344.571 177.993 347.974 177.993 347.974L172.591 350.507L172.606 350.522Z" fill="black"/>
<path d="M157.01 310.739L163.404 312.891C163.404 312.891 172.606 332.576 172.606 340.725C172.606 348.874 168.714 392.701 168.714 392.701L111.352 391.617L108.224 371.535L103.966 344.296C103.966 344.296 112.298 328.716 108.865 314.31L112.298 312.448L157.01 310.755V310.739Z" fill="#263238"/>
<path d="M210.344 371.627C215.288 376.266 225.268 368.59 225.268 368.59L231.387 365.355C233.447 364.271 234.424 361.86 233.707 359.632L231.799 354.078V354.032C230.883 351.529 228.137 350.217 225.619 351.102L219.347 353.36C218.08 353.818 216.921 354.52 215.913 355.42L206.864 363.539L210.359 371.627H210.344Z" fill="#EEC1BB"/>
<path d="M220.385 352.933C221.636 352.201 227.877 350.415 231.051 349.21C234.21 348.004 238.346 346.89 239.643 346.509C240.94 346.127 241.779 348.325 240.787 349.759C239.795 351.193 233.676 353.177 231.494 354.154C229.312 355.131 225.726 356.855 225.863 358.03C225.863 358.03 219.133 353.65 220.4 352.933H220.385Z" fill="#EEC1BB"/>
<path d="M108.941 259.908C107.461 265.203 106.729 270.682 106.759 276.175C106.683 282.462 108.941 288.246 107.309 294.426C105.401 301.644 103.143 314.508 111.795 318.522C114.053 319.422 116.51 319.651 118.906 319.193C127.345 318.125 135.204 314.432 143.582 313.028C153.989 311.349 166.273 316.111 176.101 311.96C179.809 310.388 183.319 303.155 183.578 298.79C183.914 293.846 179.32 290.306 176.925 286.537C175.154 283.698 170.5 280.082 169.768 276.816C169.661 270.163 173.11 265.737 170.18 254.445C168.44 249.043 163.343 241.764 157.575 239.551C145.016 234.653 132.549 242.435 132.549 242.435C121.424 241.443 112.146 249.47 108.941 259.923V259.908Z" fill="#263238"/>
<path d="M145.642 306.1C143.78 304.269 143.383 302.819 143.719 300.134C143.948 298.074 144.604 295.922 145.382 293.831L142.62 290.856L128.23 277.488C128.963 286.781 131.48 301.766 124.415 307.123C124.415 307.123 115.793 311.075 112.024 312.22C114.45 314.051 137.706 339.306 151.608 337.597C164.244 336.04 158.811 312.25 156.629 308.664C152.982 307.687 149.06 306.726 145.642 306.1Z" fill="#EEC1BB"/>
<path opacity="0.2" d="M143.749 301.324C139.797 300.423 134.105 297.799 133.128 293.297C132.732 291.451 132.671 289.604 132.778 288.383L144.573 295.708C144.436 297.463 143.475 298.806 143.749 301.339V301.324Z" fill="black"/>
<path d="M122.416 262.762C124.369 276.893 124.903 282.89 132.564 289.986C144.085 300.668 160.856 296.12 163.13 281.928C165.175 269.156 161.634 248.204 147.427 242.878C133.434 237.644 120.463 248.631 122.416 262.762Z" fill="#EEC1BB"/>
<path d="M140.53 267.553C140.56 268.881 141.323 270.01 142.269 270.056C143.2 270.117 143.933 269.079 143.917 267.752C143.887 266.424 143.124 265.295 142.178 265.249C141.247 265.188 140.514 266.226 140.53 267.569V267.553Z" fill="#263238"/>
<path d="M138.302 262.609C138.485 262.609 138.668 262.564 138.79 262.426C140.866 260.275 143.353 260.854 143.383 260.854C143.75 260.946 144.116 260.717 144.177 260.336C144.238 259.954 143.979 259.588 143.612 259.496C143.475 259.466 140.347 258.749 137.768 261.404C137.508 261.663 137.539 262.106 137.814 262.396C137.951 262.533 138.119 262.609 138.287 262.609H138.302Z" fill="#263238"/>
<path d="M158.903 258.566C159.071 258.505 159.208 258.398 159.284 258.23C159.437 257.894 159.284 257.497 158.918 257.314C155.317 255.62 152.539 257.146 152.433 257.207C152.097 257.391 152.005 257.803 152.219 258.123C152.433 258.444 152.875 258.55 153.196 258.367C153.302 258.306 155.469 257.146 158.338 258.505C158.521 258.596 158.72 258.596 158.903 258.535V258.566Z" fill="#263238"/>
<path d="M151.15 265.326C151.15 265.326 153.607 270.529 156.278 273.734C156.736 274.299 156.507 275.153 155.835 275.428C154.111 276.16 152.035 275.672 152.035 275.672L151.15 265.341V265.326Z" fill="#D8847C"/>
<path d="M141.888 265.203L145.169 264.562C145.169 264.562 142.849 266.928 141.888 265.203Z" fill="#263238"/>
<path d="M155.195 266.638C155.225 267.965 155.988 269.095 156.934 269.141C157.865 269.202 158.598 268.164 158.582 266.836C158.552 265.509 157.789 264.379 156.843 264.334C155.912 264.273 155.179 265.31 155.195 266.653V266.638Z" fill="#263238"/>
<path d="M156.553 264.288L159.834 263.647C159.834 263.647 157.514 266.012 156.553 264.288Z" fill="#263238"/>
<path d="M149.274 282.172C146.695 282.172 144.177 280.738 142.88 278.495C142.773 278.312 142.834 278.083 143.017 277.976C143.2 277.869 143.429 277.93 143.536 278.113C144.772 280.25 147.244 281.562 149.701 281.394C149.899 281.394 150.098 281.531 150.113 281.745C150.113 281.959 149.976 282.142 149.762 282.157C149.594 282.157 149.442 282.172 149.274 282.172Z" fill="#263238"/>
<path d="M117.655 241.581C115.854 239.628 114.527 237.247 113.794 234.699C116.205 237.14 119.547 238.62 122.981 238.788C120.173 236.194 119.974 231.357 122.386 228.396C124.797 225.436 129.39 224.612 132.793 226.382C136.196 228.152 138.241 233.127 137.768 236.911C137.295 240.711 135.906 246.785 127.681 246.968C120.905 248.204 113.52 244.328 110.681 238.041C112.68 239.765 115.107 240.986 117.67 241.581H117.655Z" fill="#263238"/>
<path d="M126.963 285.698C113.123 276.694 113.565 242.222 138.347 240.223C163.13 238.208 163.206 267.996 163.206 267.996C158.918 240.421 134.609 250.279 134.609 250.279C139.37 261.251 129.71 268.454 129.71 268.454C126.277 275.962 126.963 285.698 126.963 285.698Z" fill="#263238"/>
<path d="M118.662 274.528C120.478 277.366 123.286 279.06 125.804 279.579C129.604 280.342 131.267 274.222 129.802 270.514C128.49 267.187 124.705 265.112 121.073 266.012C117.502 266.913 116.587 271.292 118.647 274.528H118.662Z" fill="#EEC1BB"/>
<path opacity="0.2" d="M124.903 276.084C124.903 276.084 124.842 276.084 124.812 276.084C122.492 275.55 121.424 274.344 120.936 273.429C120.447 272.528 120.34 271.491 120.63 270.743C121.088 269.553 122.523 268.637 123.957 269.171C124.155 269.247 124.262 269.461 124.186 269.659C124.11 269.858 123.896 269.965 123.698 269.888C122.721 269.522 121.668 270.193 121.348 271.018C121.195 271.43 121.164 272.208 121.622 273.078C122.034 273.856 122.965 274.894 124.995 275.351C125.193 275.397 125.33 275.596 125.285 275.809C125.239 275.992 125.086 276.099 124.918 276.099L124.903 276.084Z" fill="black"/>
<path d="M124.232 287.254C121.805 287.254 119.669 285.454 119.333 282.982C118.952 280.281 120.859 277.778 123.56 277.396C124.873 277.213 126.17 277.549 127.223 278.358C128.276 279.151 128.962 280.311 129.145 281.623C129.329 282.936 128.993 284.233 128.184 285.286C127.391 286.339 126.231 287.025 124.918 287.209C124.69 287.239 124.461 287.254 124.232 287.254ZM119.715 282.936C120.066 285.438 122.37 287.193 124.873 286.827C126.078 286.659 127.146 286.034 127.894 285.057C128.627 284.08 128.947 282.875 128.779 281.669C128.611 280.464 127.986 279.395 127.009 278.648C126.032 277.915 124.842 277.595 123.621 277.763C121.119 278.114 119.379 280.418 119.715 282.92V282.936Z" fill="#33B0CC"/>
<path d="M164.122 418.292C164.122 418.292 172.271 392.502 152.127 386.139C139.812 382.278 135.463 387.192 135.463 387.192L138.393 411.745C146.634 421.405 161.176 426.166 171.691 427.829C179.336 429.111 164.137 418.292 164.137 418.292H164.122Z" fill="#E0E0E0"/>
<path d="M141.994 350.247C141.247 359.525 160.368 363.737 166.563 362.547C166.563 362.547 173.201 370.131 177.855 367.491C179.885 366.347 174.315 362.745 171.782 358.976C169.249 355.207 159.406 353.528 157.316 348.874C153.638 340.664 142.895 339.489 141.979 350.263L141.994 350.247Z" fill="white"/>
<path d="M127.909 352.109C119.745 377.258 114.313 403.444 123.408 413.439C132.503 423.419 143.124 432.743 154.34 434.208C162.458 435.246 146.176 421.054 146.176 421.054C146.176 421.054 176.879 408.083 153.561 390.015C159.315 381.698 154.874 359.709 156.644 351.011C158.414 342.312 135.494 328.685 127.909 352.109Z" fill="white"/>
<path d="M149.777 321.101C149.136 318.827 155.622 318.171 159.406 313.99C161.68 317.942 156.079 326.671 156.079 326.671C156.079 326.671 150.937 325.221 149.777 321.101Z" fill="#263238"/>
<path d="M133.937 342.19C133.754 337.688 129.756 332.942 132.594 325.801C135.295 319.239 142.071 315.317 149.106 316.217C155.851 317.102 161.008 322.672 161.359 329.463C161.863 335.781 153.058 341.793 154.218 347.821C155.377 353.864 133.952 342.19 133.952 342.19H133.937Z" fill="white"/>
<path d="M151.059 316.645C149.121 318.72 155.683 322.199 158.903 322.26C157.056 319.498 154.264 317.514 151.059 316.645Z" fill="#E0E0E0"/>
<path d="M124.11 471.839H123.911C120.051 471.763 116.754 469.275 114.816 465.048C114.374 464.026 114.832 462.851 115.854 462.408C116.877 461.966 118.052 462.424 118.494 463.446C119.776 466.269 121.744 467.826 124.018 467.826C126.857 467.627 129.344 465.842 130.458 463.217C133.22 457.693 131.404 449.972 125.605 442.555C115.061 429.081 115.091 419.162 116.983 413.317C118.754 407.762 122.675 404.298 125.544 403.444C126.597 403.123 127.711 403.734 128.016 404.787C128.322 405.84 127.726 406.954 126.673 407.259C125.132 407.732 122.172 410.097 120.829 414.568C119.242 419.558 119.364 428.043 128.795 440.144C135.57 448.781 137.569 458.09 134.075 465.003C132.32 469.001 128.459 471.641 124.11 471.824V471.839Z" fill="white"/>
<path d="M124.095 471.839C120.28 471.839 116.785 469.382 114.862 465.048C114.527 463.995 115.122 462.866 116.175 462.545C117.06 462.271 118.021 462.637 118.494 463.446C120.081 466.971 122.813 468.527 125.727 467.642C126.78 467.322 127.894 467.902 128.215 468.955C128.535 470.008 127.955 471.122 126.903 471.442C125.987 471.717 125.041 471.854 124.095 471.854V471.839Z" fill="#E0E0E0"/>
<path d="M139.217 320.643C139.843 318.369 133.373 317.713 129.588 313.532C127.299 317.484 132.9 326.213 132.9 326.213C132.9 326.213 138.058 324.763 139.217 320.643Z" fill="#263238"/>
<path d="M151.12 320.063C152.631 319.407 154.355 319.483 155.79 320.292C156.614 320.841 155.225 322.138 154.325 322.093C153.44 322.047 149.869 320.658 151.12 320.063Z" fill="#263238"/>
<path d="M152.249 325.16C150.8 325.084 149.365 324.672 148.099 323.954C147.977 323.893 147.931 323.741 147.992 323.619C148.053 323.497 148.205 323.451 148.327 323.512C151.471 325.099 153.363 324.794 154.081 324C154.599 323.329 154.599 322.383 154.081 321.711C153.989 321.604 153.989 321.467 154.081 321.36C154.187 321.284 154.325 321.314 154.401 321.421C155.088 322.291 155.088 323.512 154.401 324.366C153.821 324.931 153.028 325.221 152.219 325.175L152.249 325.16Z" fill="#263238"/>
<path d="M157.834 325.343C156.598 325.083 155.454 324.519 154.477 323.725C154.37 323.634 154.355 323.481 154.431 323.374C154.523 323.267 154.676 323.252 154.782 323.328C155.851 324.122 157.575 325.099 158.079 324.793C158.277 324.671 158.262 324.275 158.216 323.969C158.185 323.847 158.277 323.725 158.399 323.695H158.414C158.536 323.664 158.658 323.725 158.689 323.847C158.689 323.863 158.689 323.878 158.689 323.893C158.811 324.549 158.689 324.992 158.338 325.205C158.185 325.297 158.002 325.343 157.819 325.343H157.834Z" fill="#263238"/>
<path d="M146.817 317.591C145.779 316.752 143.231 317.484 143.154 318.675C143.063 319.865 148.679 319.071 146.817 317.591Z" fill="#263238"/>
<path d="M154.172 318.018C155.195 317.591 157.102 318.797 156.873 319.758C156.659 320.719 152.326 318.72 154.172 318.018Z" fill="#263238"/>
<path d="M151.532 321.986C151.578 322.077 151.532 322.199 151.425 322.23C151.395 322.23 151.364 322.245 151.334 322.23C151.166 322.23 151.028 322.123 150.952 321.97C150.906 321.894 150.937 321.772 151.013 321.726C151.044 321.711 151.09 321.696 151.12 321.711C151.288 321.711 151.44 321.818 151.517 321.97L151.532 321.986Z" fill="#263238"/>
<path d="M149.594 321.299C149.64 321.391 149.594 321.513 149.487 321.543C149.457 321.543 149.426 321.558 149.396 321.543C149.228 321.543 149.09 321.436 149.014 321.299C148.968 321.223 148.999 321.101 149.075 321.055C149.106 321.04 149.152 321.024 149.182 321.04C149.35 321.04 149.502 321.146 149.579 321.284L149.594 321.299Z" fill="#263238"/>
<path d="M150.372 322.718C150.418 322.795 150.387 322.917 150.311 322.963C150.281 322.978 150.235 322.993 150.204 322.978C150.036 322.978 149.884 322.871 149.823 322.718C149.777 322.642 149.808 322.52 149.884 322.474C149.914 322.459 149.96 322.444 149.991 322.459C150.158 322.459 150.311 322.566 150.372 322.718Z" fill="#263238"/>
<path d="M157.819 321.925C157.865 322.016 157.819 322.123 157.743 322.153C157.712 322.169 157.666 322.169 157.636 322.153C157.468 322.153 157.331 322.047 157.254 321.909C157.209 321.833 157.239 321.711 157.315 321.665C157.346 321.65 157.392 321.635 157.422 321.65C157.59 321.65 157.743 321.757 157.819 321.909V321.925Z" fill="#263238"/>
<path d="M156.675 322.657C156.675 322.795 156.675 322.902 156.507 322.902C156.339 322.902 156.202 322.795 156.126 322.657C156.08 322.581 156.11 322.459 156.187 322.413C156.217 322.398 156.263 322.383 156.293 322.398C156.461 322.398 156.599 322.505 156.675 322.657Z" fill="#263238"/>
<path d="M94.612 323.13C94.612 323.13 77.0935 381.439 89.6373 391.633C102.181 401.841 110.299 391.48 117.441 388.092C124.155 384.903 140.926 374.541 140.926 374.541L134.639 363.386L107.064 371.81L116.556 335.033L111.184 312.311C103.493 312.647 97.664 315.806 94.5968 323.115L94.612 323.13Z" fill="#EEC1BB"/>
<path d="M160.962 365.416C161.329 364.103 159.91 363.005 159.91 363.005C159.91 363.005 159.971 361.158 157.209 359.266C154.462 357.374 148.831 356.855 148.831 356.855C148.831 356.855 150.296 355.695 150.082 354.291C149.868 352.887 145.245 354.978 145.245 354.978C145.245 354.978 139.797 357.16 138.134 358.64C136.485 360.12 133.693 365.767 133.693 365.767L138.744 375.747C140.682 375.67 142.452 373.732 143.78 372.13C145.107 370.528 149.411 368.193 151.196 368.239C152.982 368.285 154.233 368.605 156.14 369.353C157.636 369.933 157.804 369.2 157.804 368.849C157.88 368.956 158.124 369.063 158.918 368.987C160.306 368.834 159.91 366.804 159.91 366.804C159.91 366.804 160.566 366.835 160.947 365.431L160.962 365.416Z" fill="#EEC1BB"/>
<path opacity="0.2" d="M140.377 360.075C140.27 360.075 140.163 360.029 140.087 359.952C139.949 359.8 139.965 359.556 140.117 359.418C143.108 356.733 145.977 356.473 148.678 356.473H148.816C149.029 356.473 149.197 356.641 149.197 356.855C149.197 357.068 149.029 357.236 148.816 357.236C148.785 357.236 148.724 357.236 148.678 357.236C146.023 357.236 143.414 357.48 140.636 359.983C140.56 360.044 140.468 360.075 140.377 360.075Z" fill="black"/>
<path opacity="0.2" d="M157.804 369.231C157.804 369.231 157.773 369.231 157.743 369.231C157.529 369.2 157.392 369.017 157.422 368.804C157.422 368.758 157.483 367.857 155.85 367.186C154.34 366.545 151.944 365.553 148.922 365.981C148.709 365.996 148.526 365.858 148.495 365.66C148.465 365.462 148.617 365.263 148.816 365.233C152.035 364.775 154.645 365.874 156.049 366.469C158.353 367.43 158.185 368.865 158.17 368.926C158.139 369.109 157.987 369.261 157.788 369.261L157.804 369.231Z" fill="black"/>
<path opacity="0.2" d="M159.894 366.942H159.864C159.65 366.927 159.498 366.743 159.513 366.53C159.543 366.194 159.376 365.828 159.07 365.492C158.628 365.019 157.468 364.332 156.98 364.103C154.935 363.142 153.043 362.669 150.845 362.577C150.632 362.577 150.464 362.394 150.479 362.181C150.479 361.967 150.662 361.799 150.876 361.814C153.18 361.906 155.164 362.41 157.3 363.417C157.697 363.6 159.025 364.348 159.62 364.973C160.093 365.477 160.322 366.057 160.276 366.606C160.261 366.804 160.093 366.957 159.894 366.957V366.942Z" fill="black"/>
<path opacity="0.2" d="M159.894 363.386C159.787 363.386 159.696 363.34 159.619 363.264C156.903 360.349 151.12 359.892 151.059 359.892C150.845 359.876 150.692 359.693 150.708 359.48C150.723 359.266 150.891 359.098 151.12 359.129C151.364 359.144 157.269 359.602 160.184 362.745C160.321 362.898 160.321 363.142 160.169 363.279C160.092 363.34 160.001 363.386 159.909 363.386H159.894Z" fill="black"/>
<path d="M105.187 312.708C105.187 312.708 97.3131 314.661 93.8796 324.137C90.6598 333.049 86.4785 351.346 86.4785 351.346L112.009 364.531L116.831 333.69L112.1 311.716L105.187 312.723V312.708Z" fill="#263238"/>
<path d="M132.686 347.119C127.452 354.81 140.209 368.285 145.184 372.161C145.184 372.161 143.887 382.141 148.938 383.85C151.135 384.628 150.159 378.006 151.334 373.611C152.509 369.231 147.839 359.449 147.946 354.353C148.083 345.471 138.729 338.177 132.686 347.104V347.119Z" fill="#263238"/>
</svg>
