<svg width="408" height="408" viewBox="0 0 408 408" fill="none" xmlns="http://www.w3.org/2000/svg">
<path d="M131.596 127.647C108.83 129.467 86.8715 133.351 67.4017 139.438C44.4476 146.611 21.0039 157.79 27.9318 172.405C40.7185 199.39 102.057 199.879 89.8091 218.027C75.9371 238.582 85.2395 262.687 147.492 269.394C265.73 282.132 408.653 207.615 368.514 166.676C343.52 141.184 252.495 117.969 131.605 127.647H131.596Z" fill="#33B0CC"/>
<path opacity="0.9" d="M131.596 127.647C108.83 129.467 86.8715 133.351 67.4017 139.438C44.4476 146.611 21.0039 157.79 27.9318 172.405C40.7185 199.39 102.057 199.879 89.8091 218.027C75.9371 238.582 85.2395 262.687 147.492 269.394C265.73 282.132 408.653 207.615 368.514 166.676C343.52 141.184 252.495 117.969 131.605 127.647H131.596Z" fill="white"/>
<path d="M374.446 358.844C374.446 361.61 298.134 363.846 204 363.846C109.866 363.846 33.5537 361.602 33.5537 358.844C33.5537 356.086 109.866 353.842 204 353.842C298.134 353.842 374.446 356.086 374.446 358.844Z" fill="#F5F5F5"/>
<path d="M292.479 58.3105H97.3486V356.714H292.479V58.3105Z" fill="#33B0CC"/>
<path opacity="0.8" d="M292.479 58.3105H97.3486V356.714H292.479V58.3105Z" fill="white"/>
<path opacity="0.5" d="M116.06 65.5981C116.06 66.5528 115.293 67.328 114.338 67.328C113.383 67.328 112.616 66.5528 112.616 65.5981C112.616 64.6434 113.383 63.8682 114.338 63.8682C115.293 63.8682 116.06 64.6434 116.06 65.5981Z" fill="black"/>
<path opacity="0.5" d="M134.052 65.5981C134.052 66.5528 133.285 67.328 132.33 67.328C131.375 67.328 130.608 66.5528 130.608 65.5981C130.608 64.6434 131.375 63.8682 132.33 63.8682C133.285 63.8682 134.052 64.6434 134.052 65.5981Z" fill="black"/>
<path opacity="0.5" d="M152.045 65.5981C152.045 66.5528 151.278 67.328 150.323 67.328C149.369 67.328 148.602 66.5528 148.602 65.5981C148.602 64.6434 149.369 63.8682 150.323 63.8682C151.278 63.8682 152.045 64.6434 152.045 65.5981Z" fill="black"/>
<path opacity="0.5" d="M170.046 65.5981C170.046 66.5528 169.279 67.328 168.324 67.328C167.37 67.328 166.603 66.5528 166.603 65.5981C166.603 64.6434 167.37 63.8682 168.324 63.8682C169.279 63.8682 170.046 64.6434 170.046 65.5981Z" fill="black"/>
<path opacity="0.5" d="M188.039 65.5981C188.039 66.5528 187.272 67.328 186.317 67.328C185.363 67.328 184.596 66.5528 184.596 65.5981C184.596 64.6434 185.363 63.8682 186.317 63.8682C187.272 63.8682 188.039 64.6434 188.039 65.5981Z" fill="black"/>
<path opacity="0.5" d="M206.031 65.5981C206.031 66.5528 205.264 67.328 204.31 67.328C203.355 67.328 202.588 66.5528 202.588 65.5981C202.588 64.6434 203.355 63.8682 204.31 63.8682C205.264 63.8682 206.031 64.6434 206.031 65.5981Z" fill="black"/>
<path opacity="0.5" d="M224.032 65.5981C224.032 66.5528 223.265 67.328 222.311 67.328C221.356 67.328 220.589 66.5528 220.589 65.5981C220.589 64.6434 221.356 63.8682 222.311 63.8682C223.265 63.8682 224.032 64.6434 224.032 65.5981Z" fill="black"/>
<path opacity="0.5" d="M242.026 65.5981C242.026 66.5528 241.258 67.328 240.304 67.328C239.349 67.328 238.582 66.5528 238.582 65.5981C238.582 64.6434 239.349 63.8682 240.304 63.8682C241.258 63.8682 242.026 64.6434 242.026 65.5981Z" fill="black"/>
<path opacity="0.5" d="M260.018 65.5981C260.018 66.5528 259.251 67.328 258.296 67.328C257.341 67.328 256.574 66.5528 256.574 65.5981C256.574 64.6434 257.341 63.8682 258.296 63.8682C259.251 63.8682 260.018 64.6434 260.018 65.5981Z" fill="black"/>
<path opacity="0.5" d="M278.019 65.5981C278.019 66.5528 277.252 67.328 276.297 67.328C275.342 67.328 274.575 66.5528 274.575 65.5981C274.575 64.6434 275.342 63.8682 276.297 63.8682C277.252 63.8682 278.019 64.6434 278.019 65.5981Z" fill="black"/>
<path d="M114.485 66.4138C109.932 66.4138 106.219 62.6929 106.219 58.1151C106.219 53.5374 109.923 49.8164 114.485 49.8164C119.046 49.8164 122.751 53.5374 122.751 58.1151H121.119C121.119 54.4431 118.141 51.4484 114.485 51.4484C110.829 51.4484 107.851 54.435 107.851 58.1151C107.851 61.7953 110.829 64.7818 114.485 64.7818V66.4138Z" fill="#263238"/>
<path d="M132.616 66.4138C128.062 66.4138 124.35 62.6929 124.35 58.1151C124.35 53.5374 128.054 49.8164 132.616 49.8164C137.177 49.8164 140.882 53.5374 140.882 58.1151H139.25C139.25 54.4431 136.271 51.4484 132.616 51.4484C128.96 51.4484 125.982 54.435 125.982 58.1151C125.982 61.7953 128.96 64.7818 132.616 64.7818V66.4138Z" fill="#263238"/>
<path d="M150.74 66.4138C146.186 66.4138 142.474 62.6929 142.474 58.1151C142.474 53.5374 146.178 49.8164 150.74 49.8164C155.301 49.8164 159.006 53.5374 159.006 58.1151H157.374C157.374 54.4431 154.395 51.4484 150.74 51.4484C147.084 51.4484 144.106 54.435 144.106 58.1151C144.106 61.7953 147.084 64.7818 150.74 64.7818V66.4138Z" fill="#263238"/>
<path d="M168.871 66.4138C164.317 66.4138 160.604 62.6929 160.604 58.1151C160.604 53.5374 164.309 49.8164 168.871 49.8164C173.432 49.8164 177.137 53.5374 177.137 58.1151H175.505C175.505 54.4431 172.526 51.4484 168.871 51.4484C165.215 51.4484 162.236 54.435 162.236 58.1151C162.236 61.7953 165.215 64.7818 168.871 64.7818V66.4138Z" fill="#263238"/>
<path d="M186.995 66.4138C182.441 66.4138 178.729 62.6929 178.729 58.1151C178.729 53.5374 182.433 49.8164 186.995 49.8164C191.556 49.8164 195.261 53.5374 195.261 58.1151H193.629C193.629 54.4431 190.65 51.4484 186.995 51.4484C183.339 51.4484 180.361 54.435 180.361 58.1151C180.361 61.7953 183.339 64.7818 186.995 64.7818V66.4138Z" fill="#263238"/>
<path d="M205.125 66.4138C200.572 66.4138 196.859 62.6929 196.859 58.1151C196.859 53.5374 200.564 49.8164 205.125 49.8164C209.687 49.8164 213.392 53.5374 213.392 58.1151H211.76C211.76 54.4431 208.781 51.4484 205.125 51.4484C201.47 51.4484 198.491 54.435 198.491 58.1151C198.491 61.7953 201.47 64.7818 205.125 64.7818V66.4138Z" fill="#263238"/>
<path d="M223.249 66.4138C218.696 66.4138 214.983 62.6929 214.983 58.1151C214.983 53.5374 218.688 49.8164 223.249 49.8164C227.811 49.8164 231.516 53.5374 231.516 58.1151H229.884C229.884 54.4431 226.905 51.4484 223.249 51.4484C219.594 51.4484 216.615 54.435 216.615 58.1151C216.615 61.7953 219.594 64.7818 223.249 64.7818V66.4138Z" fill="#263238"/>
<path d="M241.38 66.4138C236.827 66.4138 233.114 62.6929 233.114 58.1151C233.114 53.5374 236.819 49.8164 241.38 49.8164C245.942 49.8164 249.646 53.5374 249.646 58.1151H248.014C248.014 54.4431 245.036 51.4484 241.38 51.4484C237.725 51.4484 234.746 54.435 234.746 58.1151C234.746 61.7953 237.725 64.7818 241.38 64.7818V66.4138Z" fill="#263238"/>
<path d="M259.504 66.4138C254.951 66.4138 251.238 62.6929 251.238 58.1151C251.238 53.5374 254.943 49.8164 259.504 49.8164C264.066 49.8164 267.77 53.5374 267.77 58.1151H266.138C266.138 54.4431 263.16 51.4484 259.504 51.4484C255.849 51.4484 252.87 54.435 252.87 58.1151C252.87 61.7953 255.849 64.7818 259.504 64.7818V66.4138Z" fill="#263238"/>
<path d="M277.635 66.4138C273.082 66.4138 269.369 62.6929 269.369 58.1151C269.369 53.5374 273.074 49.8164 277.635 49.8164C282.197 49.8164 285.901 53.5374 285.901 58.1151H284.269C284.269 54.4431 281.291 51.4484 277.635 51.4484C273.98 51.4484 271.001 54.435 271.001 58.1151C271.001 61.7953 273.98 64.7818 277.635 64.7818V66.4138Z" fill="#263238"/>
<path d="M309.117 356.714H292.479V58.3105H300.794L309.117 356.714Z" fill="#33B0CC"/>
<path d="M266.692 119.144H162.457C162.008 119.144 161.641 118.777 161.641 118.328C161.641 117.879 162.008 117.512 162.457 117.512H266.692C267.141 117.512 267.508 117.879 267.508 118.328C267.508 118.777 267.141 119.144 266.692 119.144Z" fill="#263238"/>
<path d="M266.44 125.695H162.204C161.755 125.695 161.388 125.328 161.388 124.879C161.388 124.431 161.755 124.063 162.204 124.063H266.44C266.888 124.063 267.256 124.431 267.256 124.879C267.256 125.328 266.888 125.695 266.44 125.695Z" fill="#263238"/>
<path d="M212.347 132.355H162.204C161.755 132.355 161.388 131.987 161.388 131.539C161.388 131.09 161.755 130.723 162.204 130.723H212.347C212.796 130.723 213.163 131.09 213.163 131.539C213.163 131.987 212.796 132.355 212.347 132.355Z" fill="#263238"/>
<path d="M152.689 132.232H134.852V114.321H152.689V132.232ZM135.668 131.416H151.873V115.137H135.668V131.416Z" fill="#263238"/>
<path d="M145.957 130.062L136.639 123.093L139.062 119.829L145.313 124.505L153.897 114.215L156.998 116.834L145.957 130.062Z" fill="#33B0CC"/>
<path d="M267.631 153.032H163.395C162.946 153.032 162.579 152.665 162.579 152.216C162.579 151.768 162.946 151.4 163.395 151.4H267.631C268.08 151.4 268.447 151.768 268.447 152.216C268.447 152.665 268.08 153.032 267.631 153.032Z" fill="#263238"/>
<path d="M267.378 159.584H163.142C162.693 159.584 162.326 159.217 162.326 158.768C162.326 158.319 162.693 157.952 163.142 157.952H267.378C267.827 157.952 268.194 158.319 268.194 158.768C268.194 159.217 267.827 159.584 267.378 159.584Z" fill="#263238"/>
<path d="M213.285 166.243H163.142C162.693 166.243 162.326 165.876 162.326 165.427C162.326 164.979 162.693 164.611 163.142 164.611H213.285C213.734 164.611 214.101 164.979 214.101 165.427C214.101 165.876 213.734 166.243 213.285 166.243Z" fill="#263238"/>
<path d="M152.689 167.777H134.852V149.866H152.689V167.777ZM135.668 166.961H151.873V150.682H135.668V166.961Z" fill="#263238"/>
<path d="M145.957 165.606L136.639 158.638L139.062 155.374L145.313 160.05L153.897 149.76L156.998 152.379L145.957 165.606Z" fill="#33B0CC"/>
<path d="M266.816 187.435H162.58C162.131 187.435 161.764 187.068 161.764 186.619C161.764 186.17 162.131 185.803 162.58 185.803H266.816C267.264 185.803 267.632 186.17 267.632 186.619C267.632 187.068 267.264 187.435 266.816 187.435Z" fill="#263238"/>
<path d="M266.563 193.995H162.327C161.878 193.995 161.511 193.628 161.511 193.179C161.511 192.73 161.878 192.363 162.327 192.363H266.563C267.011 192.363 267.379 192.73 267.379 193.179C267.379 193.628 267.011 193.995 266.563 193.995Z" fill="#263238"/>
<path d="M212.47 200.653H162.327C161.878 200.653 161.511 200.286 161.511 199.837C161.511 199.389 161.878 199.021 162.327 199.021H212.47C212.919 199.021 213.286 199.389 213.286 199.837C213.286 200.286 212.919 200.653 212.47 200.653Z" fill="#263238"/>
<path d="M152.689 203.322H134.852V185.411H152.689V203.322ZM135.668 202.506H151.873V186.227H135.668V202.506Z" fill="#263238"/>
<path d="M145.957 201.151L136.639 194.183L139.062 190.919L145.313 195.586L153.897 185.305L156.998 187.916L145.957 201.151Z" fill="#33B0CC"/>
<path d="M266.816 222.727H162.58C162.131 222.727 161.764 222.36 161.764 221.911C161.764 221.462 162.131 221.095 162.58 221.095H266.816C267.264 221.095 267.632 221.462 267.632 221.911C267.632 222.36 267.264 222.727 266.816 222.727Z" fill="#263238"/>
<path d="M266.563 229.288H162.327C161.878 229.288 161.511 228.921 161.511 228.472C161.511 228.023 161.878 227.656 162.327 227.656H266.563C267.011 227.656 267.379 228.023 267.379 228.472C267.379 228.921 267.011 229.288 266.563 229.288Z" fill="#263238"/>
<path d="M212.47 235.939H162.327C161.878 235.939 161.511 235.571 161.511 235.123C161.511 234.674 161.878 234.307 162.327 234.307H212.47C212.919 234.307 213.286 234.674 213.286 235.123C213.286 235.571 212.919 235.939 212.47 235.939Z" fill="#263238"/>
<path d="M152.689 238.607H134.852V220.695H152.689V238.607ZM135.668 237.791H151.873V221.511H135.668V237.791Z" fill="#263238"/>
<path d="M266.816 258.272H162.58C162.131 258.272 161.764 257.904 161.764 257.456C161.764 257.007 162.131 256.64 162.58 256.64H266.816C267.264 256.64 267.632 257.007 267.632 257.456C267.632 257.904 267.264 258.272 266.816 258.272Z" fill="#263238"/>
<path d="M266.563 264.824H162.327C161.878 264.824 161.511 264.457 161.511 264.008C161.511 263.56 161.878 263.192 162.327 263.192H266.563C267.011 263.192 267.379 263.56 267.379 264.008C267.379 264.457 267.011 264.824 266.563 264.824Z" fill="#263238"/>
<path d="M212.47 271.484H162.327C161.878 271.484 161.511 271.116 161.511 270.668C161.511 270.219 161.878 269.852 162.327 269.852H212.47C212.919 269.852 213.286 270.219 213.286 270.668C213.286 271.116 212.919 271.484 212.47 271.484Z" fill="#263238"/>
<path d="M152.689 274.151H134.852V256.24H152.689V274.151ZM135.668 273.335H151.873V257.056H135.668V273.335Z" fill="#263238"/>
<path d="M266.816 293.817H162.58C162.131 293.817 161.764 293.449 161.764 293.001C161.764 292.552 162.131 292.185 162.58 292.185H266.816C267.264 292.185 267.632 292.552 267.632 293.001C267.632 293.449 267.264 293.817 266.816 293.817Z" fill="#263238"/>
<path d="M266.563 300.369H162.327C161.878 300.369 161.511 300.002 161.511 299.553C161.511 299.105 161.878 298.737 162.327 298.737H266.563C267.011 298.737 267.379 299.105 267.379 299.553C267.379 300.002 267.011 300.369 266.563 300.369Z" fill="#263238"/>
<path d="M212.47 307.028H162.327C161.878 307.028 161.511 306.661 161.511 306.212C161.511 305.764 161.878 305.396 162.327 305.396H212.47C212.919 305.396 213.286 305.764 213.286 306.212C213.286 306.661 212.919 307.028 212.47 307.028Z" fill="#263238"/>
<path d="M152.689 309.696H134.852V291.785H152.689V309.696ZM135.668 308.88H151.873V292.601H135.668V308.88Z" fill="#263238"/>
<path d="M119.079 58.3105H118.263V356.918H119.079V58.3105Z" fill="#33B0CC"/>
<path opacity="0.6" d="M309.117 356.714H292.479V58.3105H300.794L309.117 356.714Z" fill="white"/>
<path opacity="0.1" d="M292.748 89.2207H97.3486V90.0367H292.748V89.2207Z" fill="black"/>
<path opacity="0.1" d="M292.748 105.108H97.3486V105.924H292.748V105.108Z" fill="black"/>
<path opacity="0.1" d="M292.748 120.988H97.3486V121.804H292.748V120.988Z" fill="black"/>
<path opacity="0.1" d="M292.748 136.875H97.3486V137.691H292.748V136.875Z" fill="black"/>
<path opacity="0.1" d="M292.748 152.755H97.3486V153.571H292.748V152.755Z" fill="black"/>
<path opacity="0.1" d="M292.748 168.643H97.3486V169.459H292.748V168.643Z" fill="black"/>
<path opacity="0.1" d="M292.748 184.521H97.3486V185.337H292.748V184.521Z" fill="black"/>
<path opacity="0.1" d="M292.748 200.409H97.3486V201.225H292.748V200.409Z" fill="black"/>
<path opacity="0.1" d="M292.748 216.288H97.3486V217.104H292.748V216.288Z" fill="black"/>
<path opacity="0.1" d="M292.748 232.176H97.3486V232.992H292.748V232.176Z" fill="black"/>
<path opacity="0.1" d="M292.748 248.056H97.3486V248.872H292.748V248.056Z" fill="black"/>
<path opacity="0.1" d="M292.748 263.935H97.3486V264.751H292.748V263.935Z" fill="black"/>
<path opacity="0.1" d="M292.748 279.822H97.3486V280.638H292.748V279.822Z" fill="black"/>
<path opacity="0.1" d="M292.748 295.702H97.3486V296.518H292.748V295.702Z" fill="black"/>
<path opacity="0.1" d="M292.748 311.589H97.3486V312.405H292.748V311.589Z" fill="black"/>
<path opacity="0.1" d="M292.748 327.469H97.3486V328.285H292.748V327.469Z" fill="black"/>
<path opacity="0.1" d="M292.748 343.356H97.3486V344.172H292.748V343.356Z" fill="black"/>
<path d="M266.44 88.1523H143.077V93.9623H266.44V88.1523Z" fill="#33B0CC"/>
<path d="M82.2448 223.208L65.884 296.387L52.5588 351.916L45.5085 349.663C45.5085 349.663 41.8365 330.536 46.5856 309.206C47.6791 304.286 50.3719 299.006 50.9349 295.032C51.4408 291.548 49.4498 283.6 49.8252 275.473C50.274 265.648 48.8215 255.489 52.0936 246.121C52.0936 246.121 49.6783 235.595 56.0186 222.384L82.2448 223.216V223.208Z" fill="#EEC1BB"/>
<path d="M64.7657 354.984C58.5886 353.548 55.5204 352.291 54.5086 349.745C53.766 347.885 56.3119 341.528 56.5078 339.047C56.5486 338.574 56.1977 338.174 55.7489 338.166L43.8924 338.297C43.8924 338.501 44.1454 343.38 44.4065 346.938C44.5044 348.276 44.2514 349.663 44.227 349.761L43.0601 357.334C42.8887 357.962 43.2396 358.623 43.8353 358.803C43.9414 358.835 44.0556 358.852 44.1617 358.852H62.1218C65.4593 358.852 66.1447 355.318 64.7738 354.992L64.7657 354.984Z" fill="#33B0CC"/>
<path d="M91.433 222.294L68.0709 227.981C65.3862 241.649 75.8637 251.678 75.8637 251.678C75.2517 261.038 77.7405 273.049 80.1477 282.017C82.1469 289.402 83.5586 291.45 84.0563 294.73C84.6275 298.459 83.4035 303.976 83.7054 308.7C85.0437 329.214 90.1763 351.916 90.1763 351.916L97.1368 351.401L101.886 291.164L91.433 222.294Z" fill="#EEC1BB"/>
<path d="M108.732 354.984C102.555 353.548 99.4868 352.291 98.475 349.745C97.7324 347.884 99.446 341.324 99.6419 338.843C99.6827 338.37 99.3318 337.97 98.883 337.962L86.9775 338.166C86.9775 338.37 88.1118 343.38 88.3729 346.938C88.4708 348.276 88.2179 349.663 88.1934 349.761L87.0265 357.334C86.8551 357.962 87.206 358.623 87.8017 358.803C87.9078 358.835 88.022 358.851 88.1281 358.851H106.088C109.426 358.851 110.111 355.318 108.74 354.992L108.732 354.984Z" fill="#33B0CC"/>
<path d="M94.4766 226.35C93.0323 221.234 91.4656 213.335 90.3232 208.839H59.7395C59.7395 208.839 49.9638 215.465 49.1804 235.457C48.854 243.658 45.9001 254.062 45.5166 263.217L72.8118 268.497L78.1729 243.919L94.4766 226.35Z" fill="#33B0CC"/>
<path d="M94.4764 226.351L101.641 263.079L76.9651 268.505L74.3457 253.678L74.566 240.043L94.4764 226.351Z" fill="#33B0CC"/>
<path opacity="0.3" d="M75.2031 258.525L79.2913 239.781L85.4602 234.485L81.2986 243.347L76.9657 268.504L75.2031 258.525Z" fill="black"/>
<path d="M95.1865 183.249L97.9773 199.08L112.363 193.474L115.986 198.566C115.986 198.566 100.05 215.179 91.2453 212.748C86.2513 211.369 87.2713 186.481 87.2713 186.481L95.1865 183.241V183.249Z" fill="#EEC1BB"/>
<path d="M87.377 167.312C87.377 167.312 89.0334 167.859 90.641 169.826C92.2485 171.792 100.049 183.804 100.049 183.804L87.8094 189.54L87.377 167.312Z" fill="#263238"/>
<path opacity="0.3" d="M92.2981 187.435C92.2981 187.435 92.5021 183.796 92.2981 181.119C92.0941 178.443 90.8701 175.84 90.8701 175.84C90.8701 175.84 93.3181 179.014 94.0036 181.633C94.689 184.253 95.1786 186.072 95.1786 186.072L92.29 187.427L92.2981 187.435Z" fill="black"/>
<path d="M83.9579 166.162L87.377 167.313C87.377 167.313 92.2974 177.839 92.2974 182.197C92.2974 186.554 90.2166 209.989 90.2166 209.989L59.5432 209.41L57.8704 198.672L55.5938 184.106C55.5938 184.106 60.0491 175.775 58.2131 168.072L60.0491 167.076L83.9579 166.17V166.162Z" fill="#263238"/>
<path d="M112.477 198.721C115.121 201.201 120.457 197.097 120.457 197.097L123.729 195.367C124.831 194.787 125.353 193.498 124.97 192.307L123.95 189.337V189.312C123.46 187.974 121.991 187.272 120.645 187.745L117.291 188.953C116.614 189.198 115.994 189.573 115.455 190.055L110.616 194.396L112.485 198.721H112.477Z" fill="#EEC1BB"/>
<path d="M117.846 188.724C118.515 188.333 121.853 187.378 123.55 186.733C125.239 186.089 127.451 185.493 128.144 185.289C128.838 185.085 129.287 186.26 128.756 187.027C128.226 187.794 124.954 188.855 123.787 189.377C122.62 189.899 120.702 190.822 120.776 191.45C120.776 191.45 117.177 189.108 117.854 188.724H117.846Z" fill="#EEC1BB"/>
<path d="M58.2541 138.98C57.4626 141.812 57.0709 144.741 57.0872 147.679C57.0464 151.041 58.2541 154.134 57.381 157.438C56.361 161.298 55.1533 168.177 59.7801 170.323C60.9877 170.804 62.3015 170.927 63.5826 170.682C68.0951 170.111 72.2975 168.136 76.7773 167.385C82.3424 166.488 88.9113 169.034 94.1663 166.814C96.1492 165.974 98.026 162.106 98.1647 159.772C98.3442 157.128 95.8881 155.235 94.6069 153.22C93.6604 151.702 91.1716 149.768 90.7799 148.022C90.7228 144.464 92.5669 142.098 91.0002 136.059C90.07 133.17 87.3445 129.278 84.2601 128.095C77.5444 125.476 70.8777 129.637 70.8777 129.637C64.929 129.107 59.9677 133.399 58.2541 138.989V138.98Z" fill="#263238"/>
<path d="M77.8788 163.681C76.8833 162.702 76.6711 161.926 76.8507 160.49C76.9731 159.389 77.3239 158.238 77.7401 157.12L76.2631 155.529L68.5683 148.381C68.9599 153.35 70.3063 161.363 66.5283 164.228C66.5283 164.228 61.9179 166.341 59.9023 166.953C61.1998 167.932 73.6356 181.437 81.0694 180.523C87.8259 179.691 84.9209 166.969 83.754 165.052C81.8038 164.53 79.7067 164.015 77.8788 163.681Z" fill="#EEC1BB"/>
<path opacity="0.2" d="M76.8665 161.127C74.7531 160.645 71.7094 159.242 71.1872 156.835C70.975 155.847 70.9424 154.86 70.9995 154.207L77.3072 158.124C77.2337 159.062 76.7197 159.78 76.8665 161.135V161.127Z" fill="black"/>
<path d="M65.4592 140.507C66.5037 148.063 66.7893 151.27 70.8856 155.064C77.0464 160.776 86.0142 158.344 87.2301 150.756C88.3235 143.926 86.4304 132.722 78.8334 129.874C71.3507 127.075 64.4147 132.95 65.4592 140.507Z" fill="#EEC1BB"/>
<path d="M75.1456 143.068C75.162 143.778 75.57 144.382 76.0759 144.407C76.5736 144.439 76.9653 143.884 76.9572 143.175C76.9408 142.465 76.5328 141.861 76.0269 141.836C75.5292 141.804 75.1375 142.359 75.1456 143.077V143.068Z" fill="#263238"/>
<path d="M73.9542 140.425C74.0522 140.425 74.1501 140.4 74.2154 140.327C75.3251 139.176 76.6552 139.487 76.6715 139.487C76.8674 139.535 77.0632 139.413 77.0959 139.209C77.1285 139.005 76.9898 138.809 76.7939 138.76C76.7205 138.744 75.0477 138.36 73.6686 139.78C73.5299 139.919 73.5462 140.156 73.6931 140.311C73.7666 140.384 73.8563 140.425 73.9461 140.425H73.9542Z" fill="#263238"/>
<path d="M84.9695 138.263C85.0593 138.23 85.1327 138.173 85.1735 138.083C85.2551 137.904 85.1735 137.692 84.9777 137.594C83.0519 136.688 81.5668 137.504 81.5097 137.537C81.3302 137.635 81.2812 137.855 81.3954 138.026C81.5097 138.198 81.7463 138.255 81.9177 138.157C81.9748 138.124 83.1335 137.504 84.6676 138.23C84.7655 138.279 84.8716 138.279 84.9695 138.247V138.263Z" fill="#263238"/>
<path d="M80.8242 141.877C80.8242 141.877 82.138 144.66 83.566 146.373C83.8108 146.675 83.6884 147.132 83.3293 147.279C82.4073 147.671 81.2975 147.409 81.2975 147.409L80.8242 141.885V141.877Z" fill="#D8847C"/>
<path d="M75.8711 141.812L77.6255 141.47C77.6255 141.47 76.3852 142.735 75.8711 141.812Z" fill="#263238"/>
<path d="M82.9874 142.579C83.0037 143.289 83.4117 143.893 83.9177 143.917C84.4154 143.95 84.8071 143.395 84.799 142.685C84.7826 141.975 84.3746 141.372 83.8687 141.347C83.371 141.314 82.9793 141.869 82.9874 142.587V142.579Z" fill="#263238"/>
<path d="M83.7129 141.322L85.4673 140.979C85.4673 140.979 84.227 142.244 83.7129 141.322Z" fill="#263238"/>
<path d="M79.8212 150.886C78.4421 150.886 77.0957 150.119 76.4021 148.92C76.345 148.822 76.3777 148.699 76.4756 148.642C76.5735 148.585 76.6959 148.618 76.753 148.716C77.414 149.858 78.7359 150.56 80.0497 150.47C80.1557 150.47 80.2618 150.544 80.27 150.658C80.27 150.772 80.1965 150.87 80.0823 150.878C79.9925 150.878 79.9109 150.886 79.8212 150.886Z" fill="#263238"/>
<path d="M62.9137 129.181C61.9508 128.136 61.2409 126.863 60.8492 125.5C62.1385 126.806 63.9255 127.598 65.7615 127.687C64.2601 126.3 64.154 123.713 65.4433 122.13C66.7326 120.547 69.1887 120.107 71.0084 121.053C72.8281 122 73.9215 124.66 73.6686 126.684C73.4156 128.715 72.673 131.963 68.2748 132.061C64.6518 132.722 60.7023 130.649 59.1846 127.287C60.2535 128.21 61.551 128.862 62.9219 129.181H62.9137Z" fill="#263238"/>
<path d="M67.8911 152.771C60.4899 147.957 60.7266 129.524 73.9784 128.455C87.2303 127.377 87.2711 143.306 87.2711 143.306C84.9781 128.561 71.9792 133.832 71.9792 133.832C74.5251 139.699 69.3599 143.551 69.3599 143.551C67.5239 147.565 67.8911 152.771 67.8911 152.771Z" fill="#263238"/>
<path d="M63.4517 146.798C64.4228 148.316 65.9242 149.221 67.2706 149.499C69.3024 149.907 70.1919 146.635 69.4085 144.652C68.7068 142.873 66.6831 141.763 64.741 142.245C62.8316 142.726 62.342 145.068 63.4436 146.798H63.4517Z" fill="#EEC1BB"/>
<path opacity="0.2" d="M66.7891 147.63C66.7891 147.63 66.7565 147.63 66.7402 147.63C65.4998 147.345 64.9286 146.7 64.6675 146.211C64.4064 145.729 64.3493 145.174 64.5043 144.774C64.7491 144.138 65.5162 143.648 66.2832 143.934C66.3893 143.975 66.4464 144.089 66.4056 144.195C66.3648 144.301 66.2506 144.358 66.1445 144.317C65.6222 144.122 65.0592 144.481 64.8878 144.921C64.8062 145.142 64.7899 145.558 65.0347 146.023C65.255 146.439 65.7528 146.994 66.8381 147.239C66.9442 147.263 67.0176 147.369 66.9931 147.484C66.9686 147.581 66.887 147.639 66.7973 147.639L66.7891 147.63Z" fill="black"/>
<path d="M66.4305 153.603C65.1331 153.603 63.9907 152.64 63.8111 151.318C63.6071 149.874 64.6271 148.536 66.0715 148.332C66.7732 148.234 67.4668 148.413 68.0299 148.846C68.5929 149.27 68.9601 149.89 69.058 150.592C69.1559 151.294 68.9764 151.987 68.5439 152.55C68.1196 153.113 67.4995 153.481 66.7977 153.579C66.6753 153.595 66.5529 153.603 66.4305 153.603ZM64.0151 151.294C64.2028 152.632 65.435 153.57 66.7732 153.375C67.4179 153.285 67.9891 152.95 68.3889 152.428C68.7806 151.906 68.9519 151.261 68.8622 150.617C68.7724 149.972 68.4379 149.401 67.9156 149.001C67.3934 148.609 66.7569 148.438 66.1041 148.528C64.7659 148.715 63.8356 149.947 64.0151 151.286V151.294Z" fill="#33B0CC"/>
<path d="M87.761 223.673C87.761 223.673 92.1184 209.883 81.3472 206.48C74.7621 204.415 72.4365 207.043 72.4365 207.043L74.0032 220.172C78.4096 225.338 86.1861 227.883 91.8084 228.773C95.8965 229.458 87.7692 223.673 87.7692 223.673H87.761Z" fill="#E0E0E0"/>
<path d="M75.9284 187.287C75.5286 192.248 85.753 194.501 89.066 193.864C89.066 193.864 92.6156 197.92 95.1044 196.508C96.1897 195.896 93.2113 193.97 91.8567 191.955C90.5022 189.939 85.239 189.041 84.121 186.553C82.1545 182.163 76.4098 181.534 75.9202 187.295L75.9284 187.287Z" fill="white"/>
<path d="M68.3966 188.283C64.031 201.73 61.126 215.733 65.9894 221.078C70.8527 226.414 76.5321 231.4 82.5297 232.184C86.8708 232.738 78.1641 225.15 78.1641 225.15C78.1641 225.15 94.582 218.214 82.1135 208.552C85.1898 204.105 82.8153 192.346 83.7618 187.695C84.7084 183.044 72.4521 175.757 68.3966 188.283Z" fill="white"/>
<path d="M80.09 171.702C79.7473 170.486 83.2153 170.135 85.239 167.899C86.4548 170.013 83.4601 174.68 83.4601 174.68C83.4601 174.68 80.7102 173.905 80.09 171.702Z" fill="#263238"/>
<path d="M71.62 182.979C71.5221 180.572 69.3842 178.034 70.902 174.215C72.3463 170.707 75.9693 168.609 79.7311 169.091C83.3378 169.564 86.0959 172.543 86.2836 176.174C86.5528 179.552 81.8445 182.767 82.4647 185.99C83.0848 189.222 71.6282 182.979 71.6282 182.979H71.62Z" fill="white"/>
<path d="M80.7758 169.319C79.7395 170.429 83.2483 172.29 84.9701 172.322C83.9827 170.845 82.4894 169.784 80.7758 169.319Z" fill="#E0E0E0"/>
<path d="M66.3652 252.306H66.2591C64.1946 252.266 62.4321 250.935 61.3958 248.675C61.1591 248.128 61.4039 247.5 61.9506 247.263C62.4974 247.027 63.1257 247.272 63.3623 247.818C64.0478 249.328 65.1004 250.16 66.3162 250.16C67.834 250.054 69.1641 249.099 69.7598 247.696C71.2367 244.742 70.2657 240.613 67.1649 236.647C61.5263 229.442 61.5427 224.138 62.5545 221.013C63.5011 218.042 65.5982 216.19 67.1322 215.733C67.6953 215.562 68.291 215.888 68.4542 216.451C68.6174 217.014 68.2991 217.61 67.7361 217.773C66.9119 218.026 65.3289 219.291 64.6108 221.682C63.7622 224.35 63.8275 228.887 68.8703 235.358C72.4934 239.977 73.5623 244.954 71.6937 248.651C70.7553 250.789 68.6908 252.2 66.3652 252.298V252.306Z" fill="white"/>
<path d="M66.3571 252.306C64.3171 252.306 62.4484 250.992 61.4203 248.675C61.2408 248.112 61.559 247.508 62.122 247.336C62.5953 247.19 63.1094 247.385 63.3624 247.818C64.211 249.703 65.6716 250.535 67.2302 250.062C67.7932 249.89 68.3889 250.201 68.5603 250.764C68.7316 251.327 68.4216 251.922 67.8585 252.094C67.3689 252.241 66.863 252.314 66.3571 252.314V252.306Z" fill="#E0E0E0"/>
<path d="M74.4439 171.457C74.7784 170.241 71.3186 169.89 69.2949 167.654C68.0709 169.768 71.0656 174.435 71.0656 174.435C71.0656 174.435 73.8237 173.66 74.4439 171.457Z" fill="#263238"/>
<path d="M80.8086 171.147C81.6165 170.796 82.5386 170.837 83.3056 171.269C83.7462 171.563 83.0037 172.257 82.5222 172.232C82.049 172.208 80.1395 171.465 80.8086 171.147Z" fill="#263238"/>
<path d="M81.4121 173.872C80.6369 173.831 79.8699 173.611 79.1926 173.227C79.1273 173.195 79.1028 173.113 79.1355 173.048C79.1681 172.982 79.2497 172.958 79.315 172.991C80.996 173.839 82.0078 173.676 82.3913 173.252C82.6688 172.893 82.6688 172.387 82.3913 172.028C82.3424 171.971 82.3424 171.897 82.3913 171.84C82.4484 171.799 82.5219 171.816 82.5627 171.873C82.9299 172.338 82.9299 172.991 82.5627 173.448C82.2526 173.749 81.8283 173.905 81.3958 173.88L81.4121 173.872Z" fill="#263238"/>
<path d="M84.3989 173.97C83.7379 173.831 83.1259 173.529 82.6037 173.105C82.5466 173.056 82.5384 172.974 82.5792 172.917C82.6282 172.86 82.7098 172.852 82.7669 172.893C83.3381 173.317 84.2602 173.839 84.5294 173.676C84.6355 173.611 84.6274 173.399 84.6029 173.235C84.5866 173.17 84.6355 173.105 84.7008 173.089H84.709C84.7742 173.072 84.8395 173.105 84.8558 173.17C84.8558 173.178 84.8558 173.186 84.8558 173.195C84.9211 173.545 84.8559 173.782 84.6682 173.896C84.5866 173.945 84.4886 173.97 84.3907 173.97H84.3989Z" fill="#263238"/>
<path d="M78.5068 169.825C77.952 169.376 76.5892 169.768 76.5484 170.404C76.4995 171.041 79.5024 170.616 78.5068 169.825Z" fill="#263238"/>
<path d="M82.4405 170.053C82.9873 169.825 84.0073 170.469 83.8849 170.983C83.7706 171.498 81.4532 170.429 82.4405 170.053Z" fill="#263238"/>
<path d="M81.0286 172.175C81.0531 172.224 81.0286 172.289 80.9715 172.305C80.9552 172.305 80.9389 172.313 80.9225 172.305C80.8328 172.305 80.7593 172.248 80.7185 172.167C80.6941 172.126 80.7104 172.06 80.7512 172.036C80.7675 172.028 80.792 172.02 80.8083 172.028C80.8981 172.028 80.9797 172.085 81.0205 172.167L81.0286 172.175Z" fill="#263238"/>
<path d="M79.9925 171.808C80.017 171.857 79.9925 171.922 79.9354 171.939C79.919 171.939 79.9027 171.947 79.8864 171.939C79.7966 171.939 79.7232 171.882 79.6824 171.808C79.6579 171.767 79.6742 171.702 79.715 171.678C79.7314 171.669 79.7558 171.661 79.7722 171.669C79.8619 171.669 79.9435 171.727 79.9843 171.8L79.9925 171.808Z" fill="#263238"/>
<path d="M80.4088 172.567C80.4333 172.608 80.4169 172.673 80.3761 172.697C80.3598 172.706 80.3353 172.714 80.319 172.706C80.2293 172.706 80.1477 172.649 80.115 172.567C80.0905 172.526 80.1069 172.461 80.1477 172.436C80.164 172.428 80.1885 172.42 80.2048 172.428C80.2945 172.428 80.3761 172.485 80.4088 172.567Z" fill="#263238"/>
<path d="M84.3906 172.142C84.415 172.191 84.3906 172.249 84.3498 172.265C84.3335 172.273 84.309 172.273 84.2927 172.265C84.2029 172.265 84.1295 172.208 84.0887 172.134C84.0642 172.093 84.0805 172.028 84.1213 172.004C84.1376 171.996 84.1621 171.987 84.1784 171.996C84.2682 171.996 84.3498 172.053 84.3906 172.134V172.142Z" fill="#263238"/>
<path d="M83.7789 172.534C83.7789 172.607 83.7789 172.664 83.6891 172.664C83.5994 172.664 83.5259 172.607 83.4851 172.534C83.4607 172.493 83.477 172.428 83.5178 172.403C83.5341 172.395 83.5586 172.387 83.5749 172.395C83.6647 172.395 83.7381 172.452 83.7789 172.534Z" fill="#263238"/>
<path d="M50.5922 172.787C50.5922 172.787 41.2245 203.967 47.9321 209.418C54.6396 214.877 58.9807 209.336 62.7996 207.525C66.39 205.819 75.3578 200.278 75.3578 200.278L71.9959 194.313L57.2508 198.818L62.3263 179.152L59.454 167.002C55.3413 167.181 52.2242 168.871 50.5841 172.779L50.5922 172.787Z" fill="#EEC1BB"/>
<path d="M86.0722 195.398C86.268 194.697 85.5091 194.109 85.5091 194.109C85.5091 194.109 85.5418 193.122 84.0648 192.11C82.596 191.098 79.585 190.821 79.585 190.821C79.585 190.821 80.3683 190.2 80.2541 189.45C80.1398 188.699 77.6674 189.817 77.6674 189.817C77.6674 189.817 74.7542 190.984 73.8648 191.775C72.9835 192.567 71.4902 195.586 71.4902 195.586L74.1912 200.923C75.2275 200.882 76.1741 199.846 76.884 198.989C77.5939 198.132 79.895 196.884 80.8498 196.908C81.8045 196.932 82.4736 197.104 83.4936 197.504C84.2933 197.814 84.383 197.422 84.383 197.234C84.4238 197.292 84.5544 197.349 84.9787 197.308C85.7213 197.226 85.5091 196.141 85.5091 196.141C85.5091 196.141 85.86 196.157 86.064 195.407L86.0722 195.398Z" fill="#EEC1BB"/>
<path opacity="0.2" d="M75.0648 192.542C75.0076 192.542 74.9505 192.517 74.9097 192.477C74.8363 192.395 74.8444 192.265 74.926 192.191C76.5254 190.755 78.0595 190.616 79.5038 190.616H79.5772C79.6915 190.616 79.7812 190.706 79.7812 190.82C79.7812 190.934 79.6915 191.024 79.5772 191.024C79.5609 191.024 79.5283 191.024 79.5038 191.024C78.084 191.024 76.6886 191.155 75.2035 192.493C75.1627 192.526 75.1137 192.542 75.0648 192.542Z" fill="black"/>
<path opacity="0.2" d="M84.383 197.438C84.383 197.438 84.3667 197.438 84.3504 197.438C84.2361 197.422 84.1627 197.324 84.179 197.21C84.179 197.185 84.2116 196.704 83.3385 196.345C82.5307 196.002 81.2496 195.472 79.6339 195.7C79.5196 195.708 79.4217 195.635 79.4054 195.529C79.3891 195.423 79.4707 195.317 79.5768 195.3C81.2985 195.056 82.6939 195.643 83.4446 195.961C84.6768 196.475 84.587 197.242 84.5788 197.275C84.5625 197.373 84.4809 197.455 84.3748 197.455L84.383 197.438Z" fill="black"/>
<path opacity="0.2" d="M85.5011 196.214H85.4847C85.3705 196.206 85.2889 196.108 85.2971 195.994C85.3134 195.814 85.2236 195.618 85.0604 195.439C84.8238 195.186 84.2036 194.819 83.9425 194.696C82.8491 194.182 81.8372 193.929 80.6622 193.88C80.5479 193.88 80.4582 193.782 80.4663 193.668C80.4663 193.554 80.5643 193.464 80.6785 193.472C81.9107 193.521 82.9715 193.79 84.1139 194.329C84.326 194.427 85.0359 194.827 85.3542 195.161C85.6071 195.431 85.7295 195.741 85.7051 196.034C85.6969 196.141 85.6071 196.222 85.5011 196.222V196.214Z" fill="black"/>
<path opacity="0.2" d="M85.5008 194.313C85.4436 194.313 85.3947 194.288 85.3539 194.247C83.9014 192.689 80.8088 192.444 80.7761 192.444C80.6619 192.436 80.5803 192.338 80.5885 192.224C80.5966 192.11 80.6864 192.02 80.8088 192.036C80.9393 192.044 84.0973 192.289 85.6558 193.97C85.7293 194.052 85.7292 194.182 85.6476 194.256C85.6068 194.288 85.5579 194.313 85.5089 194.313H85.5008Z" fill="black"/>
<path d="M56.2473 167.214C56.2473 167.214 52.0368 168.258 50.2008 173.326C48.479 178.091 46.2432 187.875 46.2432 187.875L59.8948 194.925L62.4734 178.434L59.9438 166.684L56.2473 167.222V167.214Z" fill="#263238"/>
<path d="M70.9507 185.615C68.1518 189.728 74.9735 196.933 77.6337 199.006C77.6337 199.006 76.9401 204.342 79.6411 205.256C80.8161 205.673 80.2939 202.131 80.9222 199.781C81.5505 197.439 79.0535 192.209 79.1107 189.483C79.1841 184.734 74.182 180.833 70.9507 185.607V185.615Z" fill="#263238"/>
</svg>
