<svg width="750" height="500" viewBox="0 0 750 500" fill="none" xmlns="http://www.w3.org/2000/svg">
<path d="M270.11 55.5502C241.76 57.2102 214.41 60.7302 190.16 66.2602C161.58 72.7802 132.37 82.9302 141 96.2002C156.92 120.71 233.32 121.16 218.06 137.64C200.78 156.31 212.37 178.2 289.89 184.29C437.14 195.86 615.14 128.18 565.14 91.0002C534.02 67.8502 420.66 46.7602 270.1 55.5502H270.11Z" fill="#3362CC"/>
<path opacity="0.9" d="M270.11 55.5502C241.76 57.2102 214.41 60.7302 190.16 66.2602C161.58 72.7802 132.37 82.9302 141 96.2002C156.92 120.71 233.32 121.16 218.06 137.64C200.78 156.31 212.37 178.2 289.89 184.29C437.14 195.86 615.14 128.18 565.14 91.0002C534.02 67.8502 420.66 46.7602 270.1 55.5502H270.11Z" fill="white"/>
<path d="M716.1 448.39C716.1 451.78 560.06 454.52 367.58 454.52C175.1 454.52 19.0596 451.77 19.0596 448.39C19.0596 445.01 175.1 442.26 367.58 442.26C560.06 442.26 716.1 445.01 716.1 448.39Z" fill="#F5F5F5"/>
<path d="M668.21 437.77V296.07H655.65V437.77L647.66 440.52V444.79H676.2V440.52L668.21 437.77Z" fill="#263238"/>
<path d="M508.38 296.07H495.82V437.77L487.83 440.52V444.79H516.37V440.52L508.38 437.77V296.07Z" fill="#263238"/>
<g opacity="0.2">
<path d="M668.21 312.74H655.65V437.77L647.66 440.52V444.79H676.2V440.52L668.21 437.77V312.74Z" fill="white"/>
<path d="M508.38 312.74H495.82V437.77L487.83 440.52V444.79H516.37V440.52L508.38 437.77V312.74Z" fill="white"/>
</g>
<path d="M707.03 97.4199H457V300.64H707.03V97.4199Z" fill="#263238"/>
<path d="M701.47 103.06H462.56V294.88H701.47V103.06Z" fill="#3362CC"/>
<path d="M574.06 172.7H489.04V119.35L574.06 172.7ZM490.04 171.7H570.58L490.04 121.16V171.7Z" fill="#263238"/>
<path d="M494.09 172.339H493.3V168.489H489.45V167.689H494.09V172.339Z" fill="#263238"/>
<path d="M531.659 139.04H530.77V131.26H531.729V134.04C532.129 133.53 532.65 133.28 533.27 133.28C533.62 133.28 533.94 133.35 534.25 133.49C534.56 133.63 534.81 133.83 535.01 134.08C535.21 134.33 535.369 134.64 535.479 134.99C535.589 135.35 535.65 135.73 535.65 136.14C535.65 137.11 535.41 137.85 534.93 138.38C534.45 138.91 533.88 139.17 533.21 139.17C532.54 139.17 532.02 138.89 531.64 138.34V139.05L531.659 139.04ZM531.65 136.18C531.65 136.86 531.74 137.34 531.93 137.64C532.23 138.13 532.64 138.38 533.15 138.38C533.57 138.38 533.929 138.2 534.229 137.84C534.529 137.48 534.69 136.94 534.69 136.22C534.69 135.5 534.54 134.94 534.25 134.59C533.96 134.24 533.61 134.06 533.19 134.06C532.77 134.06 532.409 134.24 532.109 134.6C531.809 134.96 531.65 135.49 531.65 136.17V136.18Z" fill="#263238"/>
<path d="M491.5 217.49H490.61V209.71H491.57V212.49C491.97 211.98 492.49 211.73 493.11 211.73C493.46 211.73 493.78 211.8 494.09 211.94C494.4 212.08 494.65 212.28 494.85 212.53C495.05 212.78 495.21 213.09 495.32 213.44C495.43 213.8 495.49 214.18 495.49 214.59C495.49 215.56 495.25 216.3 494.77 216.83C494.29 217.36 493.72 217.62 493.05 217.62C492.38 217.62 491.86 217.34 491.48 216.79V217.5L491.5 217.49ZM491.49 214.63C491.49 215.31 491.58 215.79 491.77 216.09C492.07 216.58 492.48 216.83 492.99 216.83C493.41 216.83 493.77 216.65 494.07 216.29C494.37 215.93 494.53 215.39 494.53 214.67C494.53 213.95 494.38 213.39 494.09 213.04C493.8 212.69 493.45 212.51 493.03 212.51C492.61 212.51 492.25 212.69 491.95 213.05C491.65 213.41 491.49 213.94 491.49 214.62V214.63Z" fill="#263238"/>
<path d="M523.06 180.74L524 180.86C523.9 181.51 523.63 182.01 523.21 182.38C522.79 182.75 522.27 182.93 521.65 182.93C520.88 182.93 520.26 182.68 519.79 182.17C519.32 181.67 519.09 180.94 519.09 180C519.09 179.39 519.19 178.86 519.39 178.4C519.59 177.94 519.9 177.6 520.31 177.37C520.72 177.14 521.17 177.03 521.66 177.03C522.27 177.03 522.77 177.18 523.16 177.49C523.55 177.8 523.8 178.24 523.91 178.81L522.98 178.95C522.89 178.57 522.73 178.29 522.51 178.1C522.29 177.91 522.01 177.81 521.7 177.81C521.22 177.81 520.83 177.98 520.53 178.33C520.23 178.68 520.08 179.22 520.08 179.97C520.08 180.72 520.23 181.28 520.52 181.62C520.81 181.96 521.19 182.13 521.66 182.13C522.03 182.13 522.35 182.02 522.6 181.79C522.85 181.56 523.01 181.21 523.08 180.73L523.06 180.74Z" fill="#263238"/>
<path d="M494.3 231.38L495.24 231.5C495.14 232.15 494.87 232.65 494.45 233.02C494.03 233.39 493.51 233.57 492.89 233.57C492.12 233.57 491.5 233.32 491.03 232.81C490.56 232.31 490.33 231.58 490.33 230.64C490.33 230.03 490.43 229.5 490.63 229.04C490.83 228.58 491.14 228.24 491.55 228.01C491.96 227.78 492.41 227.67 492.9 227.67C493.51 227.67 494.01 227.82 494.4 228.13C494.79 228.44 495.04 228.88 495.15 229.45L494.22 229.59C494.13 229.21 493.97 228.93 493.75 228.74C493.53 228.55 493.25 228.45 492.94 228.45C492.46 228.45 492.07 228.62 491.77 228.97C491.47 229.32 491.32 229.86 491.32 230.61C491.32 231.36 491.47 231.92 491.76 232.26C492.05 232.6 492.43 232.77 492.9 232.77C493.27 232.77 493.59 232.66 493.84 232.43C494.09 232.2 494.25 231.85 494.32 231.37L494.3 231.38Z" fill="#263238"/>
<path d="M484.73 150.73C484.38 151.03 484.04 151.24 483.71 151.37C483.38 151.49 483.03 151.56 482.66 151.56C482.04 151.56 481.56 151.41 481.23 151.11C480.9 150.81 480.73 150.42 480.73 149.95C480.73 149.67 480.79 149.42 480.92 149.19C481.05 148.96 481.21 148.78 481.41 148.64C481.61 148.5 481.84 148.4 482.1 148.33C482.29 148.28 482.57 148.23 482.95 148.19C483.72 148.1 484.29 147.99 484.65 147.86C484.65 147.73 484.65 147.65 484.65 147.61C484.65 147.22 484.56 146.95 484.38 146.79C484.14 146.57 483.77 146.47 483.29 146.47C482.84 146.47 482.51 146.55 482.29 146.71C482.08 146.87 481.92 147.15 481.82 147.55L480.89 147.42C480.97 147.02 481.11 146.7 481.31 146.45C481.5 146.2 481.79 146.02 482.15 145.88C482.52 145.75 482.94 145.68 483.43 145.68C483.92 145.68 484.3 145.74 484.6 145.85C484.9 145.96 485.12 146.11 485.26 146.28C485.4 146.45 485.5 146.67 485.56 146.93C485.59 147.09 485.61 147.39 485.61 147.81V149.08C485.61 149.97 485.63 150.53 485.67 150.76C485.71 151 485.79 151.22 485.91 151.44H484.91C484.81 151.24 484.75 151.01 484.72 150.74L484.73 150.73ZM484.65 148.6C484.3 148.74 483.78 148.86 483.09 148.96C482.7 149.02 482.42 149.08 482.26 149.15C482.1 149.22 481.97 149.32 481.88 149.46C481.79 149.6 481.75 149.75 481.75 149.91C481.75 150.16 481.85 150.38 482.04 150.55C482.23 150.72 482.51 150.8 482.89 150.8C483.27 150.8 483.59 150.72 483.87 150.56C484.16 150.4 484.37 150.18 484.5 149.9C484.6 149.68 484.65 149.37 484.65 148.94V148.59V148.6Z" fill="#263238"/>
<path d="M494.3 200.83C493.95 201.13 493.61 201.34 493.28 201.47C492.95 201.59 492.6 201.66 492.23 201.66C491.61 201.66 491.13 201.51 490.8 201.21C490.47 200.91 490.3 200.52 490.3 200.05C490.3 199.77 490.36 199.52 490.49 199.29C490.62 199.06 490.78 198.88 490.98 198.74C491.18 198.6 491.41 198.5 491.67 198.43C491.86 198.38 492.14 198.33 492.52 198.29C493.29 198.2 493.86 198.09 494.22 197.96C494.22 197.83 494.22 197.75 494.22 197.71C494.22 197.32 494.13 197.05 493.95 196.89C493.71 196.67 493.34 196.57 492.86 196.57C492.41 196.57 492.08 196.65 491.86 196.81C491.65 196.97 491.49 197.25 491.39 197.65L490.46 197.52C490.54 197.12 490.68 196.8 490.88 196.55C491.07 196.3 491.36 196.12 491.72 195.98C492.09 195.85 492.51 195.78 493 195.78C493.49 195.78 493.87 195.84 494.17 195.95C494.47 196.06 494.69 196.21 494.83 196.38C494.97 196.55 495.07 196.77 495.13 197.03C495.16 197.19 495.18 197.49 495.18 197.91V199.18C495.18 200.07 495.2 200.63 495.24 200.86C495.28 201.1 495.36 201.32 495.48 201.54H494.48C494.38 201.34 494.32 201.11 494.29 200.84L494.3 200.83ZM494.22 198.7C493.87 198.84 493.35 198.96 492.66 199.06C492.27 199.12 491.99 199.18 491.83 199.25C491.67 199.32 491.54 199.42 491.45 199.56C491.36 199.7 491.32 199.85 491.32 200.01C491.32 200.26 491.42 200.48 491.61 200.65C491.8 200.82 492.08 200.9 492.46 200.9C492.84 200.9 493.16 200.82 493.44 200.66C493.73 200.5 493.94 200.28 494.07 200C494.17 199.78 494.22 199.47 494.22 199.04V198.69V198.7Z" fill="#263238"/>
<path d="M637.39 120.32H591.72V121.32H637.39V120.32Z" fill="#263238"/>
<path d="M616.84 129.46H591.72V130.46H616.84V129.46Z" fill="#263238"/>
<path d="M627.11 136.31H591.72V137.31H627.11V136.31Z" fill="#263238"/>
<path d="M621.4 144.3H591.72V145.3H621.4V144.3Z" fill="#263238"/>
<path d="M636.25 153.43H591.72V154.43H636.25V153.43Z" fill="#263238"/>
<path d="M635.1 161.42H591.72V162.42H635.1V161.42Z" fill="#263238"/>
<path d="M621.4 169.42H591.72V170.42H621.4V169.42Z" fill="#263238"/>
<path d="M673.93 239.06H643.1V240.06H673.93V239.06Z" fill="#263238"/>
<path d="M660.22 248.189H643.1V249.189H660.22V248.189Z" fill="#263238"/>
<path d="M667.08 255.04H643.1V256.04H667.08V255.04Z" fill="#263238"/>
<path d="M663.65 263.03H643.1V264.03H663.65V263.03Z" fill="#263238"/>
<path d="M517.52 253.9H486.69V254.9H517.52V253.9Z" fill="#263238"/>
<path d="M503.81 263.03H486.69V264.03H503.81V263.03Z" fill="#263238"/>
<path d="M510.66 269.88H486.69V270.88H510.66V269.88Z" fill="#263238"/>
<path d="M507.24 277.88H486.69V278.88H507.24V277.88Z" fill="#263238"/>
<path d="M681.909 136.31H652.229V137.31H681.909V136.31Z" fill="#263238"/>
<path d="M681.909 144.3H652.229V145.3H681.909V144.3Z" fill="#263238"/>
<path d="M672.78 152.29H652.229V153.29H672.78V152.29Z" fill="#263238"/>
<path d="M594 253.9H564.32V254.9H594V253.9Z" fill="#263238"/>
<path d="M594 261.89H564.32V262.89H594V261.89Z" fill="#263238"/>
<path d="M584.87 269.88H564.32V270.88H584.87V269.88Z" fill="#263238"/>
<path d="M574.6 201.38H508.38V202.38H574.6V201.38Z" fill="#263238"/>
<path d="M574.6 216.22H508.38V217.22H574.6V216.22Z" fill="#263238"/>
<path d="M574.6 231.07H508.38V232.07H574.6V231.07Z" fill="#263238"/>
<path d="M618.52 240.02C606.81 240.02 597.29 230.5 597.29 218.79C597.29 207.08 606.81 197.56 618.52 197.56C630.23 197.56 639.75 207.08 639.75 218.79C639.75 230.5 630.23 240.02 618.52 240.02ZM618.52 198.35C607.25 198.35 598.08 207.52 598.08 218.79C598.08 230.06 607.25 239.23 618.52 239.23C629.79 239.23 638.96 230.06 638.96 218.79C638.96 207.52 629.79 198.35 618.52 198.35Z" fill="#263238"/>
<path d="M639.67 219.51H618.05V197.89H619.05V218.51H639.67V219.51Z" fill="#263238"/>
<path opacity="0.6" d="M701.47 103.06H462.56V294.88H701.47V103.06Z" fill="white"/>
<path d="M608.86 110.67H578.16C575.24 110.67 572.87 113.04 572.87 115.96V138.36C572.87 141.28 575.24 143.65 578.16 143.65H600.94L608.31 151.02V143.65H608.86C611.78 143.65 614.15 141.28 614.15 138.36V115.96C614.15 113.04 611.78 110.67 608.86 110.67Z" fill="#3362CC"/>
<path d="M581.01 127.15C581.01 128.69 582.25 129.93 583.79 129.93C585.33 129.93 586.57 128.68 586.57 127.15C586.57 125.62 585.33 124.37 583.79 124.37C582.25 124.37 581.01 125.61 581.01 127.15Z" fill="white"/>
<path d="M590.55 127.15C590.55 128.69 591.79 129.93 593.33 129.93C594.87 129.93 596.11 128.68 596.11 127.15C596.11 125.62 594.87 124.37 593.33 124.37C591.79 124.37 590.55 125.61 590.55 127.15Z" fill="white"/>
<path d="M600.09 127.15C600.09 128.69 601.33 129.93 602.87 129.93C604.41 129.93 605.65 128.68 605.65 127.15C605.65 125.62 604.41 124.37 602.87 124.37C601.33 124.37 600.09 125.61 600.09 127.15Z" fill="white"/>
<path d="M583.01 109.21H600.02C600.5 109.21 600.5 108.46 600.02 108.46H583.01C582.53 108.46 582.53 109.21 583.01 109.21Z" fill="#3362CC"/>
<path d="M602.06 109.16H603.22C603.42 109.16 603.6 108.99 603.6 108.78C603.6 108.57 603.44 108.4 603.22 108.4H602.06C601.86 108.4 601.68 108.57 601.68 108.78C601.68 108.99 601.84 109.16 602.06 109.16Z" fill="#3362CC"/>
<path d="M249.659 119.11C243.969 109.32 247.289 96.7603 257.089 91.0703C266.879 85.3803 279.439 88.7103 285.129 98.5003C289.519 106.06 288.519 115.25 283.339 121.68L284.339 127.76L277.979 126.36C277.879 126.42 277.789 126.49 277.689 126.55C267.899 132.24 255.339 128.91 249.649 119.12L249.659 119.11Z" fill="#3362CC"/>
<path d="M244.39 108.72C244.26 108.72 244.15 108.62 244.14 108.49C243.66 101.78 246.83 94.8499 252.22 90.8299C252.33 90.7499 252.49 90.7699 252.57 90.8799C252.65 90.9899 252.63 91.1499 252.52 91.2299C247.26 95.1499 244.17 101.91 244.64 108.45C244.64 108.59 244.55 108.71 244.41 108.72H244.39Z" fill="#3362CC"/>
<path d="M245.33 114.731C245.23 114.731 245.14 114.671 245.1 114.581C244.68 113.621 244.46 112.561 244.46 111.511C244.46 111.371 244.57 111.261 244.71 111.261C244.85 111.261 244.96 111.371 244.96 111.511C244.96 112.491 245.16 113.481 245.55 114.381C245.61 114.511 245.55 114.651 245.42 114.711C245.39 114.721 245.35 114.731 245.32 114.731H245.33Z" fill="#3362CC"/>
<path d="M267.39 119.55C266.62 119.55 265.98 119.3 265.46 118.8C264.94 118.3 264.68 117.7 264.68 116.98C264.68 116.26 264.93 115.67 265.44 115.19C265.95 114.71 266.6 114.47 267.39 114.47C268.18 114.47 268.83 114.71 269.34 115.19C269.85 115.67 270.1 116.27 270.1 116.98C270.1 117.69 269.84 118.3 269.32 118.8C268.8 119.3 268.16 119.55 267.39 119.55ZM269.14 112.47H265.64L264.77 99.5801H270.02L269.15 112.47H269.14Z" fill="white"/>
<path d="M625.221 256.14C625.221 256.14 608.151 320.14 604.881 345.97C600.611 379.67 589.121 428.22 589.121 428.22L596.511 428.42C596.511 428.42 619.571 387.72 624.341 350.02C643.891 311.5 645.461 264.06 645.461 264.06L625.221 256.13V256.14Z" fill="#E9B376"/>
<path d="M578.591 444.37C579.641 443.73 580.801 443.28 582.021 443.04C582.021 443.04 585.931 440.06 588.831 430.14L593.571 429.52C595.211 429.33 596.811 430.14 597.561 431.56C597.671 431.75 597.741 431.96 597.781 432.18C597.881 433.27 597.921 434.37 597.881 435.46C597.691 439.2 597.271 442.92 596.631 446.62L595.791 446.52L596.301 439.52C596.451 437.14 594.251 439.7 593.401 442.2C592.551 444.7 591.091 447.27 585.701 446.8C579.401 446.21 576.821 445.68 578.581 444.37H578.591Z" fill="#263238"/>
<path d="M589.331 427.58C589.331 427.58 585.101 440.29 582.011 443.05C582.011 443.05 586.951 445.07 590.881 438.59C595.971 430.23 597.781 432.19 597.781 432.19C597.471 430.9 597.041 429.65 596.501 428.43C595.221 426.08 589.331 427.58 589.331 427.58Z" fill="#E9B376"/>
<path d="M637.971 255.141C637.971 255.141 630.771 320.631 633.121 346.561C636.171 380.381 638.391 430.591 638.391 430.591L645.601 430.901C645.601 430.901 661.041 362.881 654.381 346.861C665.241 305.271 659.561 258.861 659.561 258.861L637.981 255.151L637.971 255.141Z" fill="#E9B376"/>
<path d="M627.181 445.231C628.251 444.611 629.421 444.191 630.651 443.981C630.651 443.981 634.651 441.121 637.811 431.271L642.571 430.751C644.231 430.601 645.801 431.471 646.501 432.931C646.601 433.131 646.671 433.331 646.701 433.551C646.771 434.661 646.771 435.781 646.701 436.891C646.411 440.611 645.891 444.311 645.141 447.971L644.301 447.851L645.001 440.861C645.231 438.491 642.941 441.001 642.031 443.461C641.111 445.921 639.591 448.471 634.201 447.871C627.941 447.091 625.381 446.501 627.171 445.231H627.181Z" fill="#263238"/>
<path d="M639.12 427.74C639.12 427.74 637.43 432.21 635.17 437.11C634.14 439.65 632.6 441.97 630.65 443.95C630.65 443.95 634.58 445.18 636.7 442.81C638.81 440.44 642.44 431.92 646.51 432.86C646.29 432.16 645.99 431.49 645.61 430.87C645 429.93 639.14 427.76 639.14 427.76L639.12 427.74Z" fill="#E9B376"/>
<path d="M559.21 180.741C559.21 180.741 556.03 173.661 554.58 173.181C553.13 172.701 551.86 173.031 551.86 173.031C551.86 173.031 542.52 165.661 541.63 167.141C541.15 167.941 543.15 170.131 547.61 173.551C547.61 173.551 544.68 174.201 545.58 175.981C545.58 175.981 543.4 176.641 544.22 178.831C544.22 178.831 543.03 180.501 544.06 181.811C545.09 183.121 550.23 187.061 553.4 187.971C554.36 188.251 556.01 188.821 556.83 188.191C556.83 188.191 565.2 193.611 565.4 193.871L569.9 185.051L559.22 180.731L559.21 180.741Z" fill="#E9B376"/>
<path opacity="0.3" d="M554.47 182.141C554.47 182.141 554.45 182.141 554.44 182.141C553.45 182.011 552.53 181.281 552.04 180.241C551.66 179.441 551.46 178.121 551.45 177.131C550.25 177.791 548.33 177.971 547.36 177.221C546.71 176.721 546.58 176.161 546.95 175.471C547.13 175.131 547.66 174.901 548.28 174.651C548.4 174.601 548.5 174.561 548.58 174.521C549.09 174.291 549.59 174.011 550.07 173.751C550.56 173.481 551.07 173.211 551.59 172.971C551.71 172.911 551.86 172.971 551.92 173.091C551.98 173.221 551.92 173.361 551.8 173.421C551.3 173.651 550.8 173.921 550.31 174.191C549.82 174.461 549.31 174.731 548.79 174.971C548.7 175.011 548.59 175.061 548.46 175.111C548.12 175.241 547.5 175.491 547.39 175.701C547.13 176.171 547.2 176.471 547.66 176.821C548.55 177.511 550.61 177.201 551.55 176.461C551.63 176.401 551.74 176.391 551.82 176.441C551.91 176.491 551.96 176.581 551.95 176.681C551.88 177.611 552.08 179.181 552.48 180.031C552.9 180.921 553.67 181.541 554.49 181.651C554.63 181.671 554.72 181.791 554.7 181.931C554.68 182.061 554.58 182.151 554.45 182.151L554.47 182.141Z" fill="#263238"/>
<path opacity="0.3" d="M547 183.561C546.8 183.561 546.59 183.521 546.39 183.441C546.01 183.291 545.7 183.041 545.4 182.791C545.29 182.701 545.28 182.541 545.37 182.441C545.46 182.341 545.62 182.321 545.72 182.411C545.99 182.631 546.26 182.861 546.57 182.981C546.88 183.101 547.2 183.091 547.41 182.961C547.79 182.721 547.83 182.121 547.67 181.651C547.5 181.151 547.18 180.711 546.76 180.401C546.55 180.311 546.35 180.201 546.14 180.061C546.03 179.991 546 179.851 546.05 179.741C546.11 179.631 546.24 179.571 546.36 179.621C546.59 179.711 546.8 179.821 547 179.961C547.3 180.091 547.65 180.191 548.03 180.171C548.61 180.151 549.14 179.861 549.37 179.421C549.62 178.961 549.49 178.331 549.09 178.081C548.97 178.001 548.94 177.851 549.02 177.731C549.1 177.611 549.25 177.581 549.37 177.661C549.98 178.061 550.18 178.971 549.81 179.661C549.49 180.261 548.8 180.651 548.04 180.681C547.93 180.681 547.82 180.681 547.71 180.671C547.9 180.921 548.04 181.201 548.14 181.501C548.35 182.131 548.29 182.991 547.67 183.391C547.48 183.511 547.24 183.581 546.99 183.581L547 183.561Z" fill="#263238"/>
<path d="M622.85 179.02V199.36L619.84 201.99C613.71 204.95 599.94 210.81 596.01 210.67C588.67 210.31 562.15 194.5 562.15 194.5L567.77 183.8C567.77 183.8 590.7 193.66 594.09 192.99C597.48 192.32 622.86 179 622.86 179L622.85 179.02Z" fill="#3362CC"/>
<path d="M660.461 136.88C660.461 136.88 664.041 137.07 667.061 142.96C670.081 148.85 666.301 155.39 665.551 158.52C664.791 161.65 661.031 164.42 667.241 169.15C673.451 173.88 677.181 178.91 672.141 184.03C667.101 189.15 672.641 193.07 665.361 196.87C658.081 200.67 631.271 194.98 627.881 187.64C624.491 180.3 628.581 174.71 628.801 172.52C629.021 170.33 624.491 168.08 623.361 160.9C622.231 153.72 628.021 152.19 628.801 148.91C629.581 145.63 625.951 141.5 628.801 134.53C631.651 127.56 660.081 126.06 660.461 136.88Z" fill="#263238"/>
<path opacity="0.4" d="M660.461 136.88C660.461 136.88 664.041 137.07 667.061 142.96C670.081 148.85 666.301 155.39 665.551 158.52C664.791 161.65 661.031 164.42 667.241 169.15C673.451 173.88 677.181 178.91 672.141 184.03C667.101 189.15 672.641 193.07 665.361 196.87C658.081 200.67 631.271 194.98 627.881 187.64C624.491 180.3 628.581 174.71 628.801 172.52C629.021 170.33 624.491 168.08 623.361 160.9C622.231 153.72 628.021 152.19 628.801 148.91C629.581 145.63 625.951 141.5 628.801 134.53C631.651 127.56 660.081 126.06 660.461 136.88Z" fill="white"/>
<path d="M615.28 255.441C615.95 255.651 653.47 256.701 674.86 255.151C674.86 255.151 668.1 211.581 656.8 206.831C650.79 204.311 629.86 205.751 622.15 216.351C615.36 225.691 615.28 244.761 615.28 255.431V255.441Z" fill="#3362CC"/>
<path opacity="0.2" d="M615.28 255.441C615.95 255.651 653.47 256.701 674.86 255.151C674.86 255.151 668.1 211.581 656.8 206.831C650.79 204.311 629.86 205.751 622.15 216.351C615.36 225.691 615.28 244.761 615.28 255.431V255.441Z" fill="black"/>
<path d="M623.04 234.931L660.33 238.151C660.69 228.911 662.02 219.731 664.3 210.761C665.19 207.191 666.31 203.201 667.75 198.591C668.52 196.131 669.37 193.481 670.31 190.681C671.02 188.521 671.79 186.231 672.64 183.811C667.58 182.191 662.4 180.941 657.16 180.071C651.63 179.091 646.03 178.501 640.41 178.311C633.16 178.311 624.82 179.071 624.82 179.071C624.82 179.071 623.63 179.351 622.89 187.051C622.22 194.231 621.56 208.671 623.05 234.941L623.04 234.931Z" fill="#3362CC"/>
<path d="M623.22 240.521L660.51 243.591C661.1 234.321 661.54 221.801 664.33 210.751C665.22 207.181 666.34 203.191 667.78 198.581C668.55 196.121 669.4 193.471 670.34 190.671C671.05 188.511 671.82 186.221 672.67 183.801C667.61 182.181 662.43 180.931 657.19 180.061C651.66 179.081 646.06 178.491 640.44 178.301C633.19 178.301 624.85 179.061 624.85 179.061C624.85 179.061 623.66 179.341 622.92 187.041C622.22 194.221 621.72 214.251 623.23 240.521H623.22Z" fill="#263238"/>
<path d="M663.06 180.771C663.06 180.771 656.22 228.041 674.86 255.161C674.86 255.161 666.52 206.161 672.65 183.771L663.06 180.781V180.771Z" fill="#3362CC"/>
<path d="M630.55 178.26C630.55 178.26 628.31 200.18 627.16 209.05C624.34 230.87 615.28 256.01 615.28 256.01C615.28 256.01 616.71 195.62 622.83 179.01L630.55 178.25V178.26Z" fill="#3362CC"/>
<path d="M623.221 240.521L587.221 380.551C587.221 380.551 656.601 385.381 675.881 381.431C675.881 381.431 680.611 282.581 660.491 243.581L623.221 240.531V240.521Z" fill="#3362CC"/>
<path opacity="0.4" d="M623.221 240.521L587.221 380.551C587.221 380.551 656.601 385.381 675.881 381.431C675.881 381.431 680.611 282.581 660.491 243.581L623.221 240.531V240.521Z" fill="white"/>
<path d="M641.22 138.58C641.22 138.58 633.631 152.27 633.271 156.52C630.361 159 628.3 153.98 628.41 147.25C628.5 141.74 631.37 135.8 636.13 133.66C642.81 130.65 641.23 138.57 641.23 138.57L641.22 138.58Z" fill="#263238"/>
<path opacity="0.4" d="M641.22 138.58C641.22 138.58 633.631 152.27 633.271 156.52C630.361 159 628.3 153.98 628.41 147.25C628.5 141.74 631.37 135.8 636.13 133.66C642.81 130.65 641.23 138.57 641.23 138.57L641.22 138.58Z" fill="white"/>
<path d="M642.65 177.33C643.92 176.06 643.62 175.34 643.38 173.49C643.21 172.07 642.75 170.59 642.21 169.15L644.11 167.09L653.98 157.82C653.51 164.23 653.67 176.63 658.56 180.3L645.07 187.7L637.51 178.3C637.51 178.3 640.78 178.37 642.65 177.33Z" fill="#E9B376"/>
<path opacity="0.2" d="M643.431 174.041C646.111 172.581 649.081 169.991 648.841 166.891C648.731 165.591 648.501 164.351 648.221 163.551L642.641 170.401C643.041 171.551 643.171 172.311 643.421 174.041H643.431Z" fill="black"/>
<path d="M657.04 147.61C655.79 157.36 655.47 161.51 650.23 166.45C642.36 173.89 630.76 170.87 629.1 161.1C627.61 152.3 629.9 137.83 639.66 134.07C649.27 130.36 658.29 137.85 657.04 147.61Z" fill="#E9B376"/>
<path d="M643.771 151.05C643.771 151.97 643.241 152.75 642.591 152.79C641.951 152.83 641.431 152.13 641.441 151.21C641.441 150.29 641.971 149.51 642.621 149.47C643.261 149.43 643.781 150.13 643.771 151.05Z" fill="#263238"/>
<path d="M634.461 150.341C634.501 151.231 634.021 152.021 633.391 152.101C632.751 152.181 632.201 151.531 632.161 150.641C632.121 149.751 632.601 148.961 633.231 148.881C633.871 148.801 634.421 149.451 634.461 150.341Z" fill="#263238"/>
<path d="M646.381 147.9C646.251 147.9 646.13 147.87 646.04 147.77C644.6 146.31 642.88 146.72 642.86 146.72C642.61 146.78 642.361 146.63 642.311 146.37C642.271 146.11 642.441 145.85 642.701 145.78C642.791 145.76 644.951 145.24 646.741 147.06C646.921 147.24 646.91 147.55 646.72 147.74C646.63 147.83 646.511 147.89 646.391 147.89L646.381 147.9Z" fill="#263238"/>
<path opacity="0.4" d="M646.381 147.9C646.251 147.9 646.13 147.87 646.04 147.77C644.6 146.31 642.88 146.72 642.86 146.72C642.61 146.78 642.361 146.63 642.311 146.37C642.271 146.11 642.441 145.85 642.701 145.78C642.791 145.76 644.951 145.24 646.741 147.06C646.921 147.24 646.91 147.55 646.72 147.74C646.63 147.83 646.511 147.89 646.391 147.89L646.381 147.9Z" fill="white"/>
<path d="M631.21 145.9C631.1 145.86 631 145.79 630.95 145.67C630.84 145.44 630.95 145.16 631.19 145.04C633.66 143.85 635.58 144.88 635.67 144.93C635.9 145.06 635.97 145.34 635.82 145.56C635.68 145.78 635.37 145.86 635.14 145.74C635.07 145.7 633.56 144.92 631.6 145.87C631.47 145.93 631.33 145.94 631.21 145.9Z" fill="#263238"/>
<path opacity="0.4" d="M631.21 145.9C631.1 145.86 631 145.79 630.95 145.67C630.84 145.44 630.95 145.16 631.19 145.04C633.66 143.85 635.58 144.88 635.67 144.93C635.9 145.06 635.97 145.34 635.82 145.56C635.68 145.78 635.37 145.86 635.14 145.74C635.07 145.7 633.56 144.92 631.6 145.87C631.47 145.93 631.33 145.94 631.21 145.9Z" fill="white"/>
<path d="M659.71 155.691C658.48 157.651 656.56 158.851 654.82 159.221C652.21 159.781 651.02 155.561 652 153.001C652.88 150.691 655.48 149.241 657.98 149.841C660.45 150.431 661.11 153.451 659.71 155.691Z" fill="#E9B376"/>
<path d="M637.251 149.58C637.251 149.58 635.591 153.19 633.781 155.41C633.461 155.8 633.631 156.39 634.091 156.58C635.281 157.07 636.711 156.72 636.711 156.72L637.251 149.59V149.58Z" fill="#D58745"/>
<path d="M642.82 149.441L640.55 149.021C640.55 149.021 641.86 150.641 642.82 149.441Z" fill="#263238"/>
<path d="M633.56 148.891L631.271 148.601C632.381 149.821 633.27 149.291 633.56 148.891Z" fill="#263238"/>
<path d="M659.68 142.27C661.01 144.19 658.36 149.76 658.36 149.76C658.36 149.76 653.67 148.36 653.41 155.43C651.68 155.72 649.74 149.12 650.02 142.48C650.37 138.73 657.33 138.88 659.68 142.27Z" fill="#263238"/>
<g opacity="0.4">
<path d="M659.68 142.27C661.01 144.19 658.36 149.76 658.36 149.76C658.36 149.76 653.67 148.36 653.41 155.43C651.68 155.72 649.74 149.12 650.02 142.48C650.37 138.73 657.33 138.88 659.68 142.27Z" fill="white"/>
</g>
<path opacity="0.2" d="M655.41 156.8C655.3 156.8 655.19 156.72 655.17 156.61C655.14 156.48 655.22 156.34 655.36 156.31C656.76 155.98 657.39 155.26 657.68 154.71C657.99 154.11 657.97 153.57 657.86 153.28C657.63 152.7 656.9 152.24 656.22 152.51C656.09 152.56 655.95 152.5 655.9 152.37C655.85 152.24 655.91 152.1 656.04 152.05C657.01 151.68 658 152.3 658.33 153.11C658.49 153.51 658.52 154.21 658.13 154.95C657.8 155.59 657.07 156.42 655.48 156.8C655.46 156.8 655.44 156.8 655.42 156.8H655.41Z" fill="#263238"/>
<path d="M635.811 159.911C636.541 160.991 637.441 163.091 637.441 163.091C637.651 163.041 637.851 163.001 638.051 162.941C640.821 162.231 641.871 160.991 642.191 159.821C642.361 159.181 642.311 158.561 642.211 158.081C642.091 157.511 641.881 157.141 641.881 157.141C640.641 158.391 638.111 159.251 636.741 159.661C636.171 159.831 635.801 159.921 635.801 159.921L635.811 159.911Z" fill="#263238"/>
<path d="M636.751 159.651L637.261 160.581C639.861 159.901 641.611 159.081 642.221 158.081C642.101 157.511 641.891 157.141 641.891 157.141C640.651 158.391 638.121 159.251 636.751 159.661V159.651Z" fill="white"/>
<path d="M638.051 162.94C640.821 162.23 641.871 160.99 642.191 159.82C641.261 160.1 640.161 160.54 639.271 161.22C638.591 161.74 638.241 162.36 638.051 162.94Z" fill="#DC5753"/>
<path d="M631.41 136.83C633.48 132.53 641.91 128.53 651.61 132.68C660.37 136.42 662.9 149.17 656.57 149.65C650.24 150.13 642.77 143.93 642.77 143.93L631.41 136.82V136.83Z" fill="#263238"/>
<path d="M685.63 216.65L686.701 237.33C682.421 237.88 673.2 227.38 669.62 219.59C666.56 212.98 664.98 207.27 664.98 207.27L667.24 200.9L672.63 183.81C672.63 183.81 679.42 194.76 685.62 216.66" fill="#3362CC"/>
<path d="M720.15 168.95L716.61 166.92L703.59 170.48L686.01 165.92L681.95 179.26C681.95 179.26 681.11 194.13 681.95 194.31C682.79 194.49 702.07 195.49 702.07 195.49L711.87 189.24L720.14 168.95H720.15Z" fill="#E0E0E0"/>
<path d="M681.28 166.92L673.5 197.7L697.5 200.39L714.06 195.82L722.51 166.92L703.58 171.83L681.28 166.92Z" fill="#3362CC"/>
<path opacity="0.4" d="M703.58 171.83L697.5 200.39L673.5 197.7L681.28 166.92L703.58 171.83Z" fill="white"/>
<path opacity="0.2" d="M703.58 171.83L697.5 200.39L714.06 195.82L722.51 166.92L703.58 171.83Z" fill="white"/>
<path d="M684.56 236.29C690.49 241.34 695.61 233.15 699.68 209.39L689.34 207.36L680.9 229.28L684.56 236.29Z" fill="#3362CC"/>
<path opacity="0.2" d="M671.01 222.27L670.4 206.3C670.4 206.3 673.87 214.9 671.01 222.27Z" fill="black"/>
<path d="M690.04 207.49L692.32 201.249L699.68 199.729L699.1 209.27L690.04 207.49Z" fill="#E9B376"/>
<path d="M690.57 200.229C690.8 201.819 692.15 203.009 693.75 203.009C696.73 203.009 700.88 202.599 701.68 201.329C702.82 199.519 702.56 193.389 701.86 192.959C701.16 192.529 700.65 194.019 700.65 194.019C700.65 194.019 700.58 191.129 699.52 191.089C698.49 191.049 698.18 193.219 698.18 193.219C698.18 193.219 698.3 190.669 696.92 190.709C695.77 190.739 695.49 193.419 695.49 193.419C695.49 193.419 695.6 190.979 694.05 191.709C692.51 192.439 690.58 200.229 690.58 200.229H690.57Z" fill="#E9B376"/>
<path opacity="0.2" d="M695.621 193.419L694.911 198.069C694.911 198.129 694.841 198.179 694.761 198.169C694.691 198.169 694.641 198.099 694.651 198.039L695.361 193.399C695.361 193.339 695.431 193.289 695.511 193.299C695.581 193.299 695.621 193.359 695.621 193.419Z" fill="black"/>
<path opacity="0.2" d="M698.3 193.359L697.97 197.869C697.97 197.929 697.9 197.979 697.83 197.979C697.76 197.979 697.72 197.929 697.71 197.859L698.04 193.349C698.04 193.289 698.11 193.239 698.18 193.239C698.25 193.239 698.3 193.299 698.3 193.359Z" fill="black"/>
<path opacity="0.2" d="M700.78 194.17L700.63 197.53C700.63 197.59 700.57 197.64 700.5 197.64C700.43 197.64 700.37 197.58 700.38 197.52L700.53 194.16C700.53 194.1 700.59 194.05 700.66 194.05C700.73 194.05 700.79 194.11 700.78 194.17Z" fill="black"/>
<path d="M701.461 198.479L704.001 197.749C704.001 197.749 704.161 200.869 701.141 201.799L701.461 198.479Z" fill="#E9B376"/>
<path opacity="0.4" d="M631.41 136.83C633.48 132.53 641.91 128.53 651.61 132.68C660.37 136.42 662.9 149.17 656.57 149.65C650.24 150.13 642.77 143.93 642.77 143.93L631.41 136.82V136.83Z" fill="white"/>
<path d="M347.141 156.24C347.671 156.77 374.701 136.64 374.701 136.64L370.641 104.86L378.331 103.99C378.331 103.99 394.461 138.92 387.581 144.92C380.701 150.92 355.081 169.82 354.551 169.65C354.021 169.48 347.141 156.24 347.141 156.24Z" fill="#FFB573"/>
<path d="M370.641 105.95C370.641 105.95 367.241 104.9 365.901 102.28C364.561 99.6598 362.791 97.9298 361.921 95.9098C361.061 93.8898 363.721 95.1898 364.991 96.1698C366.271 97.1498 367.721 98.2398 368.301 97.1598C368.881 96.0798 368.591 85.5698 369.561 84.1698C370.531 82.7698 371.111 84.4497 371.111 84.4497C371.111 84.4497 371.111 81.8998 372.121 81.6198C372.381 81.5498 373.111 81.8098 373.291 82.9698C373.701 85.5898 374.281 91.1298 374.281 91.1298C374.241 90.8098 374.011 83.9198 374.111 82.8898C374.241 81.5398 374.991 80.9598 375.781 81.0698C376.891 81.2098 377.471 89.7497 377.751 90.0897C377.751 90.0897 377.251 85.1898 378.451 84.3698C379.651 83.5498 380.131 86.6198 380.041 89.3998C379.961 91.9498 380.461 96.9898 380.131 99.5698C379.721 102.76 378.721 104.81 375.841 105.69C372.961 106.57 370.641 105.95 370.641 105.95Z" fill="#EBB373"/>
<path opacity="0.3" d="M371.491 91.17C371.371 91.17 371.261 91.08 371.241 90.95C371.001 88.92 370.851 86.85 370.801 84.8C370.801 84.66 370.911 84.55 371.041 84.54C371.211 84.54 371.291 84.65 371.301 84.78C371.351 86.82 371.501 88.87 371.741 90.88C371.761 91.02 371.661 91.14 371.521 91.16H371.491V91.17Z" fill="#263238"/>
<path opacity="0.3" d="M370.211 92.6598C370.111 92.6598 370.011 92.5998 369.981 92.4898C369.931 92.3598 370.001 92.2198 370.131 92.1698C372.651 91.2598 375.481 91.0998 378.091 91.7398C378.221 91.7698 378.311 91.9098 378.271 92.0398C378.241 92.1698 378.101 92.2598 377.971 92.2198C375.461 91.6098 372.741 91.7498 370.301 92.6298C370.271 92.6398 370.241 92.6498 370.221 92.6498L370.211 92.6598Z" fill="#263238"/>
<path opacity="0.3" d="M373.48 102.51C373.35 102.51 373.24 102.41 373.23 102.28C373.17 101.27 372.73 100.27 372.04 99.5295C371.34 98.7895 370.37 98.2995 369.36 98.1695C369.22 98.1495 369.13 98.0295 369.14 97.8895C369.15 97.7495 369.29 97.6495 369.42 97.6695C370.56 97.8095 371.61 98.3495 372.4 99.1795C373.17 99.9995 373.66 101.12 373.73 102.24C373.73 102.38 373.63 102.5 373.5 102.51H373.48Z" fill="#263238"/>
<path d="M298.451 261.01L291.631 260.25C290.391 266.3 289.931 272.49 290.261 278.66C290.501 282.67 296.971 287.2 296.971 287.2C296.971 287.2 299.241 291.95 300.511 290.48C301.781 289.01 298.331 282.45 298.191 280.93C297.781 276.2 297.331 271.43 297.721 270.8C298.111 270.16 298.211 276.72 300.221 278.13C302.231 279.54 300.641 271.37 301.341 268.6C302.051 265.82 300.031 261.33 298.441 261.02L298.451 261.01Z" fill="#FFB573"/>
<path opacity="0.2" d="M314.301 236.419C314.201 236.419 314.101 236.359 314.071 236.259C314.021 236.129 314.091 235.989 314.221 235.939C325.271 231.849 334.891 224.159 341.311 214.289C341.391 214.169 341.541 214.139 341.661 214.219C341.781 214.299 341.811 214.449 341.731 214.569C335.251 224.529 325.541 232.289 314.391 236.419C314.361 236.429 314.331 236.439 314.301 236.439V236.419Z" fill="#263238"/>
<path d="M361.37 145.24C361.37 145.24 347.06 155.16 346.61 155.33L350.29 179.4C350 179.06 373.98 162.32 374.51 162.24C375.04 162.16 361.36 145.24 361.36 145.24H361.37Z" fill="#3362CC"/>
<path opacity="0.2" d="M350.291 179.4L348.131 165.24L352.731 177.46L350.291 179.4Z" fill="black"/>
<path opacity="0.3" d="M361.37 145.24C361.37 145.24 347.06 155.16 346.61 155.33L350.29 179.4C350 179.06 373.98 162.32 374.51 162.24C375.04 162.16 361.36 145.24 361.36 145.24H361.37Z" fill="white"/>
<path d="M298.921 156.76C298.921 156.76 287.791 155.84 285.601 168.89C283.421 181.93 279.841 204.1 279.841 204.1L301.411 205.97C302.501 205.17 298.921 156.76 298.921 156.76Z" fill="#3362CC"/>
<path opacity="0.3" d="M298.921 156.76C298.921 156.76 287.791 155.84 285.601 168.89C283.421 181.93 279.841 204.1 279.841 204.1L301.411 205.97C302.501 205.17 298.921 156.76 298.921 156.76Z" fill="white"/>
<path d="M364.911 249.601L353.811 202.411L346.611 155.341L330.581 155.191L316.631 154.851L298.921 156.771L292.891 179.441C292.891 179.441 297.841 212.711 297.991 214.441C298.171 216.561 300.531 254.811 300.531 254.811C325.331 256.441 365.591 251.411 364.911 249.611V249.601Z" fill="#3362CC"/>
<path opacity="0.3" d="M364.911 249.601L353.811 202.411L346.611 155.341L330.581 155.191L316.631 154.851L298.921 156.771L292.891 179.441C292.891 179.441 297.841 212.711 297.991 214.441C298.171 216.561 300.531 254.811 300.531 254.811C325.331 256.441 365.591 251.411 364.911 249.611V249.601Z" fill="white"/>
<path opacity="0.2" d="M297.66 205.65L301.42 205.97L301.2 177.46L305.08 212.41L297.87 213.42L297.15 208.36L297.66 205.65Z" fill="black"/>
<path d="M281.98 204.29L282.04 223.96L291.32 264.13L299.7 262.61L295.94 222.59L298.55 205.73L281.98 204.29Z" fill="#FFB573"/>
<path d="M314.471 155.119C314.471 155.119 315.371 148.679 311.601 137.519C311.601 137.509 312.181 137.219 312.181 137.209C311.661 135.649 311.121 134.209 310.611 132.959C310.601 132.919 310.601 132.909 310.601 132.909L326.481 141.789C326.271 145.419 327.881 152.349 328.781 155.269C328.781 155.269 332.141 161.679 325.041 162.229C319.851 162.629 314.471 155.129 314.471 155.129V155.119Z" fill="#FFB573"/>
<path opacity="0.2" d="M326.961 146.859L317.971 145.239C318.901 147.969 321.491 151.149 327.701 151.149C327.701 151.149 326.951 148.079 326.961 146.859Z" fill="black"/>
<path d="M336.001 114.6C337.981 118.1 338.961 125.94 333.191 124.55C327.421 123.16 332.601 108.59 336.001 114.6Z" fill="#263238"/>
<path d="M310.151 125.4C311.621 135.16 312.251 140.69 317.661 145.25C325.791 152.1 337.251 146.67 338.731 136.64C340.061 127.61 337.431 113.17 327.471 110.21C317.661 107.29 308.681 115.65 310.151 125.41V125.4Z" fill="#FFB573"/>
<path d="M307.081 112.589C307.951 107.059 314.681 103.459 318.711 105.889C319.311 106.249 315.171 108.099 315.641 107.879L316.051 115.879C315.461 115.799 314.371 116.579 313.941 118.439C313.941 118.439 316.301 128.699 312.421 133.429C301.371 129.469 300.011 115.499 307.091 112.579L307.081 112.589Z" fill="#263238"/>
<path d="M307.001 133.92C308.011 136.38 310.061 138.13 312.091 138.92C315.151 140.12 317.031 137.45 316.481 134.38C315.981 131.62 313.801 127.67 310.591 127.79C307.431 127.9 305.851 131.11 307.001 133.92Z" fill="#FFB573"/>
<path d="M324.441 126.989C324.531 127.989 325.131 128.759 325.791 128.689C326.451 128.629 326.911 127.759 326.821 126.759C326.731 125.759 326.131 124.989 325.471 125.059C324.811 125.119 324.351 125.989 324.441 126.999V126.989Z" fill="#263238"/>
<path d="M334.311 126.31C334.401 127.31 335.001 128.08 335.661 128.01C336.321 127.95 336.781 127.08 336.691 126.07C336.601 125.07 336.001 124.3 335.341 124.37C334.681 124.43 334.221 125.3 334.311 126.3V126.31Z" fill="#263238"/>
<path d="M331.061 126.04C331.061 126.04 334.681 130.75 335.881 132.69C334.591 134.08 332.141 133.71 332.141 133.71L331.071 126.04H331.061Z" fill="#D58745"/>
<path d="M321.891 123.68C322.051 123.72 322.231 123.68 322.351 123.54C323.801 122.01 325.521 122.29 325.541 122.29C325.801 122.34 326.041 122.16 326.091 121.91C326.141 121.65 325.971 121.41 325.711 121.36C325.621 121.34 323.471 120.99 321.671 122.89C321.491 123.08 321.501 123.38 321.691 123.56C321.751 123.62 321.821 123.66 321.901 123.67L321.891 123.68Z" fill="#263238"/>
<path d="M338.2 121.86C338.29 121.84 338.37 121.8 338.44 121.73C338.62 121.54 338.62 121.24 338.44 121.06C336.58 119.24 334.47 119.71 334.37 119.72C334.12 119.78 333.96 120.03 334.01 120.29C334.07 120.54 334.31 120.7 334.57 120.65C334.66 120.63 336.29 120.28 337.78 121.74C337.9 121.85 338.06 121.89 338.21 121.86H338.2Z" fill="#263238"/>
<path d="M342.79 109.78C342.31 107.27 339.6 105.29 337.13 105.95C337.93 104.31 337.21 102.11 335.61 101.25C334 100.39 331.77 101.02 330.85 102.59C330.76 101.06 329.13 99.9396 327.6 100.06C326.08 100.18 324.77 101.28 323.99 102.6C323.52 103.41 323.17 104.35 322.41 104.9C321.22 105.76 319.59 105.32 318.12 105.21C315.66 105.02 313.14 105.96 311.39 107.7C309.65 109.45 308.71 111.97 308.9 114.43C307.54 114.8 306.87 115.9 305.98 116.99L313.5 118.19C315.61 114.25 321.3 117.3 324.15 118.38C326.2 119.16 328.22 119.22 329.77 119.16C331.33 119.1 332.03 117.96 332.05 116.41C334.43 117.33 337.23 117.39 339.48 116.17C341.72 114.94 343.24 112.3 342.76 109.79L342.79 109.78Z" fill="#263238"/>
<path d="M307.531 113.049C307.531 113.049 307.431 113.039 307.391 113.009C305.921 112.009 304.181 111.369 302.851 111.349C302.711 111.349 302.601 111.229 302.601 111.099C302.601 110.969 302.751 110.839 302.851 110.849C304.301 110.879 306.101 111.529 307.661 112.599C307.771 112.679 307.801 112.829 307.731 112.949C307.681 113.019 307.601 113.059 307.521 113.059L307.531 113.049Z" fill="#263238"/>
<path d="M307.351 112.95C307.271 112.95 307.191 112.91 307.141 112.84C306.031 111.2 305.561 109.13 305.841 107.17C305.861 107.03 305.991 106.94 306.121 106.96C306.261 106.98 306.351 107.11 306.331 107.24C306.061 109.08 306.511 111.02 307.551 112.56C307.631 112.67 307.601 112.83 307.481 112.91C307.441 112.94 307.391 112.95 307.341 112.95H307.351Z" fill="#263238"/>
<path opacity="0.2" d="M313.74 133.799C313.62 133.799 313.52 133.719 313.5 133.599C313.34 132.809 312.97 132.059 312.43 131.449C312.08 131.059 311.52 130.559 310.8 130.449C310.16 130.349 309.5 130.629 309.22 131.119C309.15 131.239 309.001 131.279 308.881 131.219C308.761 131.149 308.72 130.999 308.78 130.879C309.16 130.199 310.01 129.819 310.87 129.959C311.74 130.089 312.4 130.669 312.8 131.119C313.39 131.789 313.801 132.619 313.981 133.499C314.011 133.639 313.92 133.769 313.78 133.789C313.76 133.789 313.751 133.789 313.731 133.789L313.74 133.799Z" fill="#263238"/>
<path d="M329.021 137C327.611 137 326.201 136.47 325.151 135.52C325.051 135.43 325.041 135.27 325.131 135.17C325.221 135.07 325.381 135.06 325.481 135.15C326.581 136.15 328.121 136.64 329.591 136.47C329.721 136.46 329.851 136.55 329.871 136.69C329.891 136.83 329.791 136.95 329.651 136.97C329.441 136.99 329.231 137.01 329.011 137.01L329.021 137Z" fill="#263238"/>
<path opacity="0.2" d="M134.38 217.01L131.94 255.39L109.98 252.77V248.83L134.38 217.01Z" fill="black"/>
<path d="M123.761 217.97C122.901 208.07 119.441 189.92 113.491 170.87C111.551 164.67 118.471 157.82 118.471 157.82C118.471 157.82 122.941 157.46 123.761 157.37C124.661 157.26 128.011 155.89 128.931 155.81C135.881 155.22 138.911 155.25 145.121 155.61C146.681 155.7 148.761 155.88 150.331 156.01C150.841 156.06 153.891 156.9 154.381 156.95C154.381 156.95 163.301 167.56 163.781 175.05C164.041 179.23 166.031 181.04 165.811 191.04C165.771 197.84 160.921 207.74 160.481 217.29L123.771 217.96L123.761 217.97Z" fill="white"/>
<path d="M135.921 185.24C135.451 169.96 129.301 163.35 128.481 159.64C128.261 158.67 128.741 156.46 129.211 155.77L125.061 156.24C118.611 157.51 114.621 157.47 111.401 161.77C110.781 162.6 111.551 168.54 111.601 169.41C111.681 170.98 112.771 175.81 114.231 181.62C115.231 185.66 116.411 190.19 117.541 194.46C118.991 199.91 120.201 201.33 120.671 203.07L105.701 247.24C105.281 248.42 106.071 249.68 107.321 249.82L128.811 252.07C129.861 252.18 130.811 251.43 130.931 250.38C132.001 241.41 136.461 202.81 135.921 185.24Z" fill="#3362CC"/>
<path d="M155.851 156.3C155.851 156.3 161.131 155.26 166.851 163.58C172.561 171.9 174.181 208.31 174.181 208.31L161.761 208.95L163.571 173.47L155.861 156.3H155.851Z" fill="#3362CC"/>
<path d="M164.161 215.18C164.161 215.18 168.671 187.23 167.471 180.24C166.271 173.25 155.851 156.29 155.851 156.29L151.091 155.96L147.541 155.77C147.541 155.77 158.721 160.96 161.911 172.28C164.011 179.72 159.561 211.64 160.041 217.31L162.461 229.05L168.441 228.78L164.161 215.18Z" fill="#3362CC"/>
<path opacity="0.3" d="M165.251 208.24L167.591 186.69L168.451 208.94C168.451 208.94 166.211 208.83 165.251 208.24Z" fill="black"/>
<path opacity="0.3" d="M124.021 202.49L122.181 181.9L120.771 204.32L142.051 212.97L124.021 202.49Z" fill="black"/>
<path d="M115.601 158.49C115.601 158.49 108.841 160.15 107.551 167.53C106.251 174.91 104.531 211.79 106.001 214.13C107.471 216.47 148.571 229.68 148.571 229.68L152.971 218.26L121.921 203.24C121.921 203.24 122.171 192.7 122.431 184.49C122.561 180.15 122.701 176.46 122.791 175.32C123.071 172.03 115.601 158.49 115.601 158.49Z" fill="#3362CC"/>
<path d="M152.291 220.04C152.291 220.04 165.211 223.14 168.211 225.72C169.541 226.86 169.501 228.74 169.501 228.74L148.581 229.67L152.291 220.04Z" fill="#B97964"/>
<path opacity="0.3" d="M115.48 218.37C115.89 218.52 133.67 224.85 133.67 224.85V227.08L114.57 221.05L115.48 218.37Z" fill="black"/>
<path d="M152.631 109.64C158.561 113.6 160.251 119.28 160.171 123.4C159.441 128.96 157.51 132.9 156.01 138.3L141.271 105.76C144.711 106.44 146.261 105.74 152.631 109.64Z" fill="#263238"/>
<path d="M145.241 106.77C139.471 104.08 133.801 107.25 130.491 109.46C126.871 112.53 124.741 116.99 124.631 121.73C124.631 126.16 124.631 131.53 127.321 133.84C128.831 135.18 130.821 135.82 132.831 135.61L154.751 115.39C152.371 111.75 149.091 108.79 145.241 106.77Z" fill="#263238"/>
<path d="M145.611 166.68C143.921 168.42 142.391 167.84 140.141 166.92C126.761 162.11 130.721 155.65 130.721 155.65C133.261 152.67 133.371 149.11 132.441 143.68C132.421 143.52 132.421 143.36 132.421 143.2C132.421 142.48 132.661 141.77 133.091 141.18C134.211 139.54 136.441 139.12 138.081 140.24L144.071 141.96C144.091 142.04 144.101 142.12 144.121 142.22C144.141 145.19 144.051 147.5 144.071 149.31C144.111 149.53 144.071 149.76 144.081 149.97C144.121 150.19 144.111 150.42 144.111 150.64C144.251 153.13 148.461 156.78 150.171 157.64C151.211 158.23 151.321 160.83 145.601 166.69L145.611 166.68Z" fill="#B97964"/>
<path opacity="0.2" d="M144.071 141.93C144.071 142.02 144.091 142.11 144.121 142.2C144.141 145.17 144.051 147.48 144.071 149.29C144.061 149.51 144.071 149.73 144.081 149.95C144.091 150.18 144.121 150.41 144.161 150.64C139.611 149.4 135.541 146.8 132.521 143.18C132.521 142.47 132.741 141.77 133.141 141.17C134.241 139.52 136.47 139.08 138.12 140.17L144.071 141.92V141.93Z" fill="black"/>
<path d="M127.921 123.02C128.151 133.27 128.021 137.59 132.891 143.16C140.221 151.52 152.491 149.29 155.321 139.23C157.791 130.18 157.051 114.97 147.391 110.27C137.731 105.57 127.701 112.76 127.921 123.02Z" fill="#B97964"/>
<path d="M123.381 131.8C124.421 134.01 126.281 135.5 128.051 136.11C130.711 137.02 132.491 132.77 131.791 129.96C131.161 127.43 128.621 125.58 125.931 125.89C123.281 126.2 122.191 129.27 123.381 131.8Z" fill="#B97964"/>
<path opacity="0.2" d="M129.181 131.99C129.041 131.99 128.931 131.87 128.931 131.74C128.951 130.82 128.591 129.91 127.951 129.25C127.311 128.59 126.421 128.2 125.501 128.18C125.361 128.18 125.251 128.06 125.261 127.92C125.261 127.78 125.371 127.68 125.511 127.68C126.561 127.7 127.581 128.15 128.311 128.91C129.041 129.67 129.441 130.7 129.431 131.75C129.431 131.89 129.321 132 129.181 132V131.99Z" fill="#263238"/>
<path d="M141.271 127.44C141.231 128.53 141.741 129.48 142.421 129.55C143.101 129.62 143.681 128.79 143.721 127.7C143.761 126.61 143.251 125.66 142.571 125.59C141.891 125.52 141.311 126.35 141.271 127.44Z" fill="#263238"/>
<path d="M151.411 128.26C151.371 129.32 151.891 130.23 152.561 130.31C153.231 130.38 153.811 129.58 153.851 128.52C153.891 127.46 153.371 126.55 152.701 126.47C152.031 126.4 151.451 127.2 151.411 128.26Z" fill="#263238"/>
<path d="M139.44 123.46C139.57 123.49 139.71 123.46 139.82 123.37C141.53 122.04 143.27 122.7 143.29 122.71C143.55 122.81 143.83 122.68 143.91 122.42C143.99 122.16 143.85 121.86 143.59 121.75C143.5 121.71 141.32 120.88 139.2 122.53C138.99 122.69 138.96 123.02 139.13 123.25C139.21 123.36 139.33 123.43 139.45 123.45L139.44 123.46Z" fill="#263238"/>
<path d="M155.261 123.39C155.371 123.36 155.461 123.29 155.511 123.19C155.621 122.96 155.531 122.66 155.311 122.51C153.071 120.99 151.241 121.85 151.171 121.89C150.951 122 150.881 122.28 151.001 122.53C151.121 122.78 151.401 122.9 151.621 122.79C151.691 122.76 153.121 122.11 154.901 123.32C155.021 123.4 155.141 123.42 155.261 123.39Z" fill="#263238"/>
<path d="M148.691 127.53C148.691 127.53 149.971 131.52 151.591 134.07C151.871 134.52 151.621 135.11 151.111 135.25C149.801 135.61 148.351 135.06 148.351 135.06L148.691 127.53Z" fill="#A24E3F"/>
<path d="M142.171 125.6L144.581 125.24C144.581 125.24 143.141 126.89 142.171 125.6Z" fill="#263238"/>
<path d="M152.451 126.48L154.861 126.12C154.861 126.12 153.421 127.77 152.451 126.48Z" fill="#263238"/>
<path d="M147.691 137.87C146.841 138.82 145.701 140.75 145.701 140.75C145.511 140.68 145.311 140.61 145.131 140.52C142.541 139.48 141.681 138.14 141.511 136.97C141.421 136.33 141.551 135.74 141.711 135.28C141.891 134.75 142.151 134.41 142.151 134.41C143.191 135.78 145.541 136.94 146.811 137.51C147.341 137.75 147.691 137.88 147.691 137.88V137.87Z" fill="#263238"/>
<path d="M146.811 137.5L146.201 138.33C143.761 137.34 142.181 136.32 141.711 135.27C141.891 134.74 142.151 134.4 142.151 134.4C143.191 135.77 145.541 136.93 146.811 137.5Z" fill="white"/>
<path d="M145.121 140.52C142.531 139.48 141.671 138.14 141.501 136.97C142.371 137.36 143.381 137.92 144.151 138.7C144.741 139.29 145.011 139.93 145.121 140.52Z" fill="#DE5753"/>
<path d="M131.471 125.52C131.471 125.52 137.321 118.83 137.511 113.11C137.511 113.11 158.451 108.46 156.521 126.54C156.521 126.54 161.051 110.91 143.941 108.36C126.831 105.81 123.301 128.15 131.051 135.94C131.081 135.86 127.851 129.71 131.471 125.52Z" fill="#263238"/>
<path d="M113.211 111.91C113.611 116.57 117.711 120.03 122.381 119.63C127.041 119.23 130.501 115.13 130.101 110.46C129.721 106.08 126.061 102.71 121.661 102.71C116.801 102.94 113.031 107.04 113.221 111.91H113.211Z" fill="#263238"/>
<path d="M151.711 110.6C153.961 112.76 155.471 115.58 156.011 118.66C156.011 120.89 152.981 122.5 152.981 122.5L149.271 117.64V121.91C143.201 121.24 139.691 118.02 137.611 113.37L140.991 107.33C140.991 107.33 149.691 108.86 151.711 110.61V110.6Z" fill="#263238"/>
<path d="M122.781 116.79C122.261 119.21 120.831 121.42 118.841 122.88C119.911 122.97 121.011 122.7 121.921 122.14C121.881 123.01 121.681 123.88 121.351 124.69C123.811 122.65 125.261 119.44 125.171 116.25L122.781 116.79Z" fill="#263238"/>
<path d="M236.351 202.81H178.341V209.02H236.351V202.81Z" fill="#3362CC"/>
<path d="M198.271 203.46H178.341V208.37H198.271V203.46Z" fill="white"/>
<path opacity="0.3" d="M205.14 202.81H203.36V209.02H205.14V202.81Z" fill="white"/>
<path opacity="0.3" d="M232.281 202.81H230.501V209.02H232.281V202.81Z" fill="white"/>
<path opacity="0.2" d="M199.401 202.81H178.341V209.02H199.401V202.81Z" fill="black"/>
<path d="M428.68 223.08H47.6904V448.48H428.68V223.08Z" fill="#263238"/>
<path opacity="0.3" d="M118.9 223.08H47.6904V448.48H118.9V223.08Z" fill="black"/>
<path opacity="0.3" d="M428.68 223.08H47.6904V228.11H428.68V223.08Z" fill="black"/>
<path d="M429.871 208.7H41.6006V223.08H429.871V208.7Z" fill="#263238"/>
<path opacity="0.3" d="M429.871 208.7H41.6006V223.08H429.871V208.7Z" fill="black"/>
<path opacity="0.3" d="M123.57 208.7H40.9805V223.08H123.57V208.7Z" fill="black"/>
<path opacity="0.3" d="M269.711 252.601H147.801V343.461H269.711V252.601Z" fill="black"/>
<path d="M264.471 258.221H153.031V337.831H264.471V258.221Z" fill="#263238"/>
<path opacity="0.3" d="M147.801 343.461L153.031 337.841H264.471L269.711 343.461H147.801Z" fill="white"/>
<path opacity="0.3" d="M147.801 252.601L153.071 258.181L264.471 258.221L269.711 252.601H147.801Z" fill="black"/>
<path opacity="0.3" d="M413.221 252.601H291.311V343.461H413.221V252.601Z" fill="black"/>
<path d="M407.991 258.221H296.551V337.831H407.991V258.221Z" fill="#263238"/>
<path opacity="0.3" d="M291.311 343.461L296.551 337.841H407.991L413.221 343.461H291.311Z" fill="white"/>
<path opacity="0.3" d="M291.311 252.601L296.581 258.181L407.991 258.221L413.221 252.601H291.311Z" fill="black"/>
<path opacity="0.3" d="M428.801 223.08H47.8105V448.48H428.801V223.08Z" fill="black"/>
<path d="M379.44 206.411C378.77 213.161 378.02 220.341 373.93 226.011C370.13 231.271 363.52 233.951 357.12 232.881C356.65 232.801 356.44 233.521 356.92 233.601C363.33 234.671 369.98 232.221 374.03 227.111C378.66 221.261 379.48 213.581 380.19 206.411C380.24 205.931 379.49 205.931 379.44 206.411Z" fill="#263238"/>
<path d="M353.23 240.16C353.7 237.72 355.59 236.06 357.53 235.4C359.47 234.75 361.52 234.88 363.53 234.73C368.36 234.38 373.32 232.18 376.39 227.53C379.51 222.81 378.69 216.85 379.01 210.75C379.33 204.71 379.55 199.28 381.51 191.8C382.72 187.18 390.14 178.5 397.95 181.72L410.86 188.15C416.41 196.15 417.72 201.11 419.38 211.48C421.04 221.85 418.6 236.02 414.16 245.03C410.91 251.64 406.06 256.8 401.03 261.35C397.19 264.82 392.91 268.13 388.17 268.19C385.33 268.23 382.58 267.09 379.9 265.97C375.64 264.19 371.39 262.42 367.13 260.64C365.13 259.8 363.05 258.91 361.56 257.05C360.07 255.19 359.38 252.04 360.59 249.89C358.73 249.09 356.81 248.25 355.31 246.66C353.8 245.07 352.77 242.55 353.23 240.15V240.16Z" fill="#263238"/>
<path d="M385.529 230.611C385.529 230.611 389.409 232.521 394.189 236.641C395.189 237.501 396.279 238.241 397.449 238.861C400.589 240.531 403.439 241.481 404.219 239.971C404.389 239.641 404.519 239.281 404.619 238.901C405.279 236.371 403.669 232.891 401.599 230.681C399.589 228.531 399.539 227.781 399.959 225.291C400.179 223.881 400.689 222.431 401.279 221.011L398.619 219.411L389.129 209.831C390.219 215.711 390.539 227.141 385.539 230.611H385.529Z" fill="#E9B376"/>
<path opacity="0.2" d="M399.879 225.84C397.269 224.29 394.399 221.6 394.749 218.53C394.899 217.24 395.179 216.01 395.489 215.23L400.789 222.25C400.349 223.38 400.199 224.13 399.879 225.84Z" fill="black"/>
<path d="M387.289 199.031C388.179 208.791 388.359 212.921 393.389 218.041C400.959 225.731 412.609 223.151 414.619 213.481C416.429 204.781 414.659 190.291 405.079 186.191C395.639 182.151 386.399 189.281 387.289 199.041V199.031Z" fill="#E9B376"/>
<path d="M399.92 202.2C399.97 203.23 400.53 204.08 401.17 204.09C401.81 204.1 402.29 203.28 402.24 202.25C402.19 201.22 401.63 200.37 400.99 200.36C400.35 200.35 399.87 201.17 399.92 202.2Z" fill="#263238"/>
<path d="M409.54 202.171C409.59 203.171 410.15 203.991 410.79 204.011C411.43 204.021 411.91 203.221 411.86 202.221C411.81 201.221 411.25 200.401 410.61 200.391C409.97 200.381 409.49 201.181 409.54 202.181V202.171Z" fill="#263238"/>
<path d="M397.889 198.61C398.009 198.62 398.139 198.59 398.239 198.5C399.739 197.11 401.439 197.6 401.449 197.6C401.699 197.67 401.949 197.53 402.009 197.28C402.069 197.02 401.909 196.76 401.649 196.68C401.559 196.65 399.439 196.04 397.569 197.77C397.379 197.94 397.379 198.25 397.569 198.45C397.659 198.55 397.769 198.6 397.889 198.62V198.61Z" fill="#263238"/>
<path d="M412.779 197.281C412.879 197.251 412.959 197.171 412.999 197.071C413.089 196.851 412.979 196.571 412.759 196.441C410.529 195.191 408.879 196.141 408.809 196.181C408.609 196.301 408.569 196.571 408.699 196.801C408.839 197.031 409.109 197.111 409.299 197.001C409.359 196.961 410.659 196.241 412.429 197.241C412.539 197.301 412.669 197.311 412.769 197.281H412.779Z" fill="#263238"/>
<path d="M406.93 201.7C406.93 201.7 408.46 205.35 410.18 207.63C410.48 208.03 410.29 208.61 409.83 208.78C408.63 209.22 407.22 208.82 407.22 208.82L406.94 201.7H406.93Z" fill="#D58745"/>
<path d="M400.629 200.4L402.869 199.87C402.869 199.87 401.649 201.54 400.629 200.4Z" fill="#263238"/>
<path d="M410.379 200.411L412.619 199.881C412.619 199.881 411.399 201.551 410.379 200.411Z" fill="#263238"/>
<path d="M415.309 201.45C415.309 201.45 410.899 189.16 403.409 187.32C403.069 187.24 398.419 197.95 393.879 200.03C393.879 200.03 392.859 207.49 391.359 208.01C389.859 208.53 386.099 200.38 386.099 200.38C386.099 200.38 379.949 186.93 388.589 183.28C397.229 179.63 406.219 180 411.569 187.31C416.929 194.62 416.039 199.43 415.309 201.44V201.45Z" fill="#263238"/>
<path d="M384.609 206.981C385.759 208.981 387.629 210.241 389.349 210.671C391.929 211.321 393.269 207.171 392.379 204.581C391.589 202.251 389.049 200.711 386.539 201.221C384.059 201.721 383.289 204.701 384.609 206.991V206.981Z" fill="#E9B376"/>
<path opacity="0.2" d="M390.619 206.88C390.489 206.88 390.379 206.78 390.369 206.65C390.309 205.79 389.909 204.96 389.259 204.39C388.599 203.81 387.449 203.55 386.879 203.58C386.749 203.58 386.619 203.48 386.619 203.35C386.619 203.21 386.719 203.09 386.849 203.08C387.499 203.03 388.819 203.34 389.589 204.01C390.339 204.67 390.809 205.61 390.869 206.61C390.869 206.75 390.779 206.87 390.639 206.88H390.619Z" fill="#263238"/>
<path d="M401.85 230.19C401.85 230.19 408.4 231.49 414.04 235.24C419.68 238.99 425.67 259.97 425.67 259.97L414.25 260.93L401.85 230.19Z" fill="#3362CC"/>
<path opacity="0.7" d="M401.85 230.19C401.85 230.19 408.4 231.49 414.04 235.24C419.68 238.99 425.67 259.97 425.67 259.97L414.25 260.93L401.85 230.19Z" fill="white"/>
<path d="M373.39 258.24L369.51 233.09C373.49 229.68 387.39 228.63 387.39 228.63C396.02 232.52 402.02 235.54 400.94 229.22L411.87 240.73C411.87 240.73 417.49 246.67 417.25 254.73C417.06 260.91 414.54 279.49 415.41 287.08L417.5 303.69C395.03 321.28 374.34 305.11 374.34 305.11C375.42 301.91 379.69 297.17 380.22 294.03C380.01 290 381.78 287.01 379.45 278.63C377.7 272.32 373.38 259.14 373.4 258.24H373.39Z" fill="#3362CC"/>
<g opacity="0.7">
<path d="M373.39 258.24L369.51 233.09C373.49 229.68 387.39 228.63 387.39 228.63C396.02 232.52 402.02 235.54 400.94 229.22L411.87 240.73C411.87 240.73 417.49 246.67 417.25 254.73C417.06 260.91 414.54 279.49 415.41 287.08L417.5 303.69C395.03 321.28 374.34 305.11 374.34 305.11C375.42 301.91 379.69 297.17 380.22 294.03C380.01 290 381.78 287.01 379.45 278.63C377.7 272.32 373.38 259.14 373.4 258.24H373.39Z" fill="white"/>
</g>
<path d="M372.95 231.28C372.95 231.28 368.35 231.52 365.68 235.97C363.97 238.82 358 257.44 354.23 269.45C352.31 275.56 353.92 280.82 359.01 282.3H393.09L394.04 274.71L368.56 271.5C368.56 271.5 376.07 249.8 377.19 243.24C378.31 236.69 372.95 231.28 372.95 231.28Z" fill="#E9B376"/>
<path opacity="0.2" d="M368.53 271.511C368.53 271.511 365.46 271.501 363.56 272.741C363.56 272.741 364.63 269.291 369.49 268.641L368.52 271.511H368.53Z" fill="black"/>
<path d="M356.669 255.831L373.389 261.211L378.769 242.091C378.769 242.091 374.489 231.241 373.999 231.001C373.509 230.761 367.029 231.321 364.679 237.551C362.329 243.781 356.649 255.831 356.649 255.831H356.669Z" fill="#3362CC"/>
<path opacity="0.7" d="M356.669 255.831L373.389 261.211L378.769 242.091C378.769 242.091 374.489 231.241 373.999 231.001C373.509 230.761 367.029 231.321 364.679 237.551C362.329 243.781 356.649 255.831 356.649 255.831H356.669Z" fill="white"/>
<path d="M423.429 260.16C423.429 260.16 427.139 269.49 427.909 271.91C428.679 274.32 431.129 279.79 426.779 281.4C422.439 283.01 393.489 281.4 393.489 281.4V273.68C393.489 273.68 415.449 271.08 415.889 270.69C416.319 270.3 416.799 260.72 416.799 260.72L423.429 260.16Z" fill="#E9B376"/>
<g opacity="0.2">
<path d="M408.42 277.06C408.17 276.53 407.52 276.19 406.97 276.39C407.53 275.73 408.11 275.04 408.35 274.2C408.59 273.36 408.39 272.34 407.66 271.87L402.38 272.73C402.98 275.36 403.7 278.44 404.3 281.06C404.35 281.28 404.41 281.51 404.55 281.69C404.98 282.24 405.85 281.99 406.48 281.69C406.9 281.5 407.35 281.27 407.53 280.85C407.72 280.43 407.42 279.8 406.96 279.88C407.47 279.59 407.95 279.22 408.25 278.72C408.56 278.22 408.66 277.58 408.42 277.05V277.06Z" fill="black"/>
</g>
<path d="M406.13 212C404.47 212 403.19 211.18 402.69 210.42C402.61 210.3 402.65 210.15 402.76 210.07C402.87 210 403.03 210.03 403.11 210.14C403.46 210.68 404.56 211.49 406.13 211.49C406.27 211.49 406.38 211.6 406.38 211.74C406.38 211.88 406.27 211.99 406.13 211.99V212Z" fill="#263238"/>
<path opacity="0.2" d="M373.75 259.78L377.1 248.04L375.31 265L373.75 259.78Z" fill="black"/>
<path opacity="0.2" d="M416.8 260.72C416.8 260.72 417.61 253.86 416.99 251.29C416.99 251.29 418.26 255.8 418.37 260.58L416.8 260.71V260.72Z" fill="black"/>
<path opacity="0.2" d="M415.899 270.68C415.899 270.68 419.669 270.82 421.669 272.75C421.669 272.75 421.049 268.97 416.219 269L415.899 270.69V270.68Z" fill="black"/>
<path d="M396.704 259.942L396.571 259.986C396.12 260.136 395.877 260.623 396.027 261.074L399.626 271.88C399.776 272.331 400.263 272.574 400.713 272.424L400.846 272.38C401.297 272.23 401.54 271.743 401.39 271.292L397.791 260.486C397.641 260.035 397.154 259.792 396.704 259.942Z" fill="#263238"/>
<path d="M391.109 274.34C391.109 274.34 396.949 268.99 397.969 269.49C398.989 269.99 399.809 270.51 399.809 270.51C399.809 270.51 404.849 268.86 405.349 270.25C405.839 271.64 405.019 272.35 405.019 272.35C405.019 272.35 407.139 272.81 406.549 274.36C405.969 275.91 405.509 276.49 405.509 276.49C405.509 276.49 406.759 277.38 406.279 278.61C405.799 279.84 404.729 279.96 404.729 279.96C404.729 279.96 406.739 281.61 405.119 282.11C404.249 282.38 392.549 282.2 391.669 281.89C389.819 281.22 391.099 274.34 391.099 274.34H391.109Z" fill="#EBB373"/>
<path d="M423.04 280.13H385.26V282.33H423.04V280.13Z" fill="white"/>
<path d="M290.34 250.07L278.8 257.41C278.8 257.41 286.12 284.44 288.42 288.07L302.8 281.23L290.33 250.07H290.34Z" fill="#E4897B"/>
<path d="M256.079 214.671C255.869 216.631 255.959 218.371 256.619 219.241C257.299 220.141 258.47 220.761 259.73 221.191C258.61 223.351 255.779 225.081 255.779 225.081H247.859C247.859 225.081 244.279 225.881 242.919 225.111C241.799 224.481 240.609 223.881 239.539 223.161C238.999 222.791 238.489 222.361 237.979 221.911C239.649 220.941 241.17 219.611 241.71 217.881C243.09 213.401 241.609 198.101 241.609 198.101L258.329 204.971C258.329 204.971 258.2 205.341 258.01 205.981C257.48 207.751 256.409 211.521 256.079 214.681V214.671Z" fill="#E4897B"/>
<path d="M266.119 172.95C265.659 172.37 266.929 159.27 244.369 165.79C227.619 170.63 233.949 183.76 233.949 183.76L253.099 169.93L266.119 172.96V172.95Z" fill="#263238"/>
<path opacity="0.2" d="M244.379 205.86C244.379 205.86 247.969 213.33 256.229 213.07C256.549 209.92 257.629 206.14 258.159 204.37C257.539 204.14 257.139 204 257.139 204L244.389 205.86H244.379Z" fill="black"/>
<path d="M265.679 170.271C265.679 170.271 270.549 184.041 264.059 190.931C257.579 197.821 252.529 171.421 252.529 171.421L265.679 170.261V170.271Z" fill="#263238"/>
<path d="M244.359 206.38C249.459 210.23 255.239 211.17 260.089 208.54C263.209 206.86 265.769 203.98 266.999 200.31C267.169 199.83 267.299 199.33 267.419 198.82C269.469 189.45 267.749 174.06 257.499 170.13C250.209 167.28 241.969 170.87 239.119 178.18C238.299 180.25 237.989 182.49 238.199 184.72C239.009 195.07 238.409 201.88 244.359 206.38Z" fill="#E4897B"/>
<path d="M252.229 187.41C252.179 188.49 252.839 189.37 253.559 189.35C254.279 189.33 254.829 188.43 254.809 187.35C254.799 186.27 254.189 185.39 253.479 185.41C252.769 185.43 252.209 186.31 252.229 187.41Z" fill="#263238"/>
<path d="M262.62 187.41C262.57 188.49 263.24 189.37 263.95 189.35C264.66 189.33 265.22 188.43 265.2 187.35C265.19 186.27 264.58 185.39 263.87 185.41C263.16 185.43 262.6 186.38 262.62 187.41Z" fill="#263238"/>
<path d="M260.529 187.601C261.589 190.161 262.989 192.571 264.709 194.751C263.549 195.611 262.069 195.921 260.659 195.591L260.529 187.601Z" fill="#DE5753"/>
<path d="M267.02 182.97C266.86 183.06 266.66 183.06 266.5 182.97C265.43 182.3 264.11 182.17 262.93 182.62C262.69 182.74 262.39 182.64 262.27 182.4C262.15 182.16 262.25 181.86 262.49 181.74C263.96 181.13 265.64 181.27 266.99 182.12C267.23 182.25 267.31 182.55 267.18 182.79C267.13 182.87 267.08 182.92 267.01 182.97H267.02Z" fill="#263238"/>
<path d="M252.04 183.53C251.94 183.53 251.84 183.5 251.76 183.44C251.58 183.24 251.59 182.93 251.79 182.74C252.96 181.64 254.59 181.19 256.16 181.52C256.42 181.59 256.58 181.86 256.51 182.13C256.43 182.39 256.17 182.54 255.9 182.48C254.66 182.25 253.38 182.63 252.46 183.49C252.33 183.57 252.18 183.58 252.04 183.53Z" fill="#263238"/>
<path d="M245.56 171.631L246.43 176.161C244.99 177.061 244.2 178.811 245.01 180.561C246.74 184.301 244.97 190.401 242.18 192.971C242.18 192.971 241.98 191.311 240.6 191.801C239.22 192.291 240.55 199.261 242.01 203.551C242.01 203.551 238.82 201.421 235.87 192.481C233.14 184.221 232.4 177.231 233.91 173.861L245.57 171.631H245.56Z" fill="#263238"/>
<path d="M233.839 193.32C235.039 195.64 237.109 197.4 239.599 198.2C242.899 199.24 244.659 196.3 243.849 193.12C243.099 190.3 240.479 186.27 237.119 186.65C233.749 187.03 232.419 190.44 233.849 193.31L233.839 193.32Z" fill="#E4897B"/>
<path d="M265.679 170.27C266.259 171.35 264.419 175.32 260.249 177.23C256.069 179.14 260.519 174.91 260.519 174.91C260.519 174.91 252.129 177.79 251.899 176.71C251.669 175.63 254.259 174.07 254.259 174.07C254.259 174.07 247.269 177.36 241.609 175.96C235.939 174.56 246.269 165.18 252.849 165.37C259.429 165.56 263.939 167 265.679 170.27Z" fill="#263238"/>
<path opacity="0.1" d="M241.379 193.91C241.069 192.23 240.009 190.74 238.519 189.9C237.939 189.58 237.159 189.37 236.699 189.78L236.369 189.4C236.929 188.91 237.829 188.94 238.769 189.46C240.379 190.37 241.539 191.99 241.879 193.81L241.389 193.9L241.379 193.91Z" fill="#263238"/>
<path d="M257.149 198.481C256.449 198.491 255.749 198.371 255.129 198.021C254.359 197.591 253.789 196.911 253.339 196.161C253.089 195.751 252.439 196.121 252.689 196.541C253.199 197.391 253.869 198.181 254.749 198.671C255.479 199.081 256.309 199.251 257.139 199.231C257.619 199.221 257.619 198.471 257.139 198.481H257.149Z" fill="#263238"/>
<path d="M274.84 219.54C268.14 222.6 264.84 235.96 277.6 265.38L296.59 252.78C294.22 245.47 291.66 241.61 287.74 232.7C282.48 220.24 274.83 219.54 274.83 219.54H274.84Z" fill="#3362CC"/>
<path d="M271.149 218.71C266.409 218.37 247.459 216.26 228.159 220.16L230.029 288.52C230.029 288.52 229.069 313.67 230.029 315.95C250.299 324.24 275.599 312.17 288.419 303.9C288.279 304.23 284.889 295.18 284.889 295.18C282.529 273.39 278.749 239.41 275.169 219.8C275.079 219.32 271.619 218.74 271.149 218.71Z" fill="#3362CC"/>
<path opacity="0.2" d="M230.289 261.69L231.349 261.83L234.929 242.68L236.469 264.19L230.029 264.68L230.289 261.69Z" fill="black"/>
<path d="M228.159 220.16C228.159 220.16 220.559 221.57 218.729 231.09C217.049 239.86 212.939 259.8 212.939 259.8L233.739 260.23L235.179 239.01L228.159 220.16Z" fill="#3362CC"/>
<path d="M216.699 259.891L216.499 273.261C216.929 278.411 219.399 282.151 224.129 282.171L269.959 279.521L271.999 271.151L233.269 267.751L233.759 260.261L216.719 259.911L216.699 259.891Z" fill="#E4897B"/>
<path d="M292.629 270.831C291.289 269.701 283.599 266.511 280.609 265.871C277.629 265.221 266.269 270.721 266.269 270.721L265.279 277.751C265.279 277.751 267.179 279.691 270.199 279.491C271.939 279.381 275.949 277.081 275.949 277.081C275.949 277.081 276.649 278.331 277.729 279.451C278.919 280.691 280.649 281.961 281.619 280.921C282.579 279.891 279.779 276.271 279.369 275.751C279.789 276.271 282.759 279.881 284.219 278.671C285.629 277.511 282.459 273.821 282.459 273.821C282.459 273.821 284.109 275.371 284.959 276.161C285.809 276.951 287.339 276.861 287.209 275.191C287.059 273.261 285.339 271.341 285.339 271.341C285.339 271.341 287.089 271.731 290.439 273.051C292.849 274.001 293.769 271.771 292.639 270.821L292.629 270.831Z" fill="#E4897B"/>
<path opacity="0.1" d="M279.799 276.531C279.729 276.531 279.659 276.501 279.609 276.451C279.049 275.811 278.469 275.161 277.789 274.631C277.059 274.061 276.279 273.721 275.539 273.651C275.399 273.641 275.299 273.511 275.319 273.381C275.329 273.241 275.459 273.141 275.589 273.161C276.429 273.241 277.269 273.611 278.089 274.251C278.799 274.801 279.399 275.481 279.979 276.131C280.069 276.231 280.059 276.391 279.959 276.481C279.909 276.521 279.849 276.541 279.789 276.541L279.799 276.531Z" fill="#263238"/>
<path opacity="0.1" d="M282.869 274.391C282.799 274.391 282.729 274.361 282.679 274.311C282.119 273.671 281.529 273.011 280.859 272.491C280.109 271.911 279.359 271.581 278.609 271.511C278.469 271.501 278.369 271.371 278.389 271.241C278.399 271.101 278.529 271.001 278.659 271.021C279.499 271.101 280.339 271.471 281.159 272.111C281.869 272.661 282.469 273.341 283.049 273.991C283.139 274.091 283.129 274.251 283.029 274.341C282.979 274.381 282.919 274.401 282.859 274.401L282.869 274.391Z" fill="#263238"/>
<path opacity="0.1" d="M285.279 271.59C285.209 271.59 285.139 271.56 285.089 271.51C284.529 270.87 283.949 270.22 283.269 269.69C282.539 269.12 281.759 268.78 281.019 268.71C280.879 268.7 280.779 268.57 280.799 268.44C280.809 268.3 280.949 268.2 281.069 268.22C281.909 268.3 282.749 268.67 283.569 269.31C284.279 269.86 284.879 270.54 285.459 271.19C285.549 271.29 285.539 271.45 285.439 271.54C285.389 271.58 285.329 271.6 285.269 271.6L285.279 271.59Z" fill="#263238"/>
<path d="M325.409 282.261H286.689C286.019 282.261 285.479 281.821 285.489 281.281C285.489 281.181 285.509 281.081 285.549 280.981L302.769 241.491C303.199 240.361 304.499 239.591 305.969 239.591H344.709C345.369 239.591 345.899 240.021 345.899 240.541C345.899 240.651 345.879 240.761 345.829 240.861L328.609 280.351C328.169 281.471 326.879 282.241 325.409 282.251V282.261Z" fill="#263238"/>
<path opacity="0.7" d="M344.73 239.601H305.99C304.52 239.601 303.22 240.381 302.79 241.501L285.57 280.991C285.53 281.091 285.51 281.191 285.51 281.291C285.51 281.831 286.04 282.261 286.71 282.271H325.43C326.9 282.261 328.19 281.491 328.63 280.371L345.85 240.881C345.9 240.781 345.92 240.671 345.92 240.561C345.92 240.031 345.39 239.611 344.73 239.611V239.601Z" fill="white"/>
<path d="M320.73 261.811C319.89 263.711 318.2 265.011 316.93 264.741C315.67 264.481 315.33 262.751 316.14 260.851C316.95 258.951 318.67 257.681 319.93 257.941C321.19 258.201 321.57 259.861 320.72 261.811H320.73Z" fill="white"/>
<path opacity="0.3" d="M306.209 239.601H305.979C304.509 239.601 303.209 240.381 302.779 241.501L285.559 280.991C285.519 281.091 285.499 281.191 285.499 281.291C285.499 281.831 286.029 282.261 286.699 282.271H287.939L306.219 239.601H306.209Z" fill="black"/>
<path d="M248.789 282.261H289.099V279.541H251.509C250.009 279.541 248.789 280.761 248.789 282.261Z" fill="#263238"/>
<path opacity="0.7" d="M248.789 282.261H289.099V279.541H251.509C250.009 279.541 248.789 280.761 248.789 282.261Z" fill="white"/>
<path opacity="0.2" d="M278.749 240.731C278.319 240.371 281.259 262.961 281.259 262.961L285.259 260.311C285.259 260.311 279.189 241.091 278.759 240.731H278.749Z" fill="black"/>
<path d="M472.87 296.69H144.67V448.47H472.87V296.69Z" fill="#263238"/>
<path opacity="0.4" d="M206.01 296.69H144.67V448.47H206.01V296.69Z" fill="black"/>
<path opacity="0.3" d="M472.87 296.69H144.67V301.71H472.87V296.69Z" fill="black"/>
<path d="M475.48 282.33H141.01V296.7H475.48V282.33Z" fill="#263238"/>
<path opacity="0.4" d="M212.15 282.33H141.01V296.7H212.15V282.33Z" fill="black"/>
<path opacity="0.3" d="M332.999 321.131H227.979V411.891H332.999V321.131Z" fill="black"/>
<path d="M328.489 326.751H232.489V406.271H328.489V326.751Z" fill="#263238"/>
<path opacity="0.3" d="M227.979 411.891L232.49 406.271H328.489L332.999 411.891H227.979Z" fill="white"/>
<path opacity="0.3" d="M227.979 321.131L232.52 326.711L328.489 326.751L332.999 321.131H227.979Z" fill="black"/>
<path opacity="0.3" d="M456.629 321.131H351.609V411.891H456.629V321.131Z" fill="black"/>
<path d="M452.119 326.751H356.119V406.271H452.119V326.751Z" fill="#263238"/>
<path opacity="0.3" d="M351.609 411.891L356.119 406.271H452.119L456.629 411.891H351.609Z" fill="white"/>
<path opacity="0.3" d="M351.609 321.131L356.149 326.711L452.119 326.751L456.629 321.131H351.609Z" fill="black"/>
</svg>
