<svg width="500" height="333" viewBox="0 0 500 333" fill="none" xmlns="http://www.w3.org/2000/svg">
<path d="M180.074 36.9963C161.174 38.1019 142.94 40.4462 126.774 44.1292C107.72 48.4715 88.2472 55.2314 94.0005 64.0692C104.614 80.3929 155.547 80.6926 145.374 91.6682C133.854 104.102 141.581 118.681 193.261 122.737C291.427 130.443 410.094 85.3679 376.761 60.606C356.014 45.1881 280.44 31.1422 180.067 36.9963H180.074Z" fill="#3362CC"/>
<path opacity="0.9" d="M180.074 36.9963C161.174 38.1019 142.94 40.4462 126.774 44.1292C107.72 48.4715 88.2472 55.2314 94.0005 64.0692C104.614 80.3929 155.547 80.6926 145.374 91.6682C133.854 104.102 141.581 118.681 193.261 122.737C291.427 130.443 410.094 85.3679 376.761 60.606C356.014 45.1881 280.44 31.1422 180.067 36.9963H180.074Z" fill="white"/>
<path d="M477.4 298.628C477.4 300.885 373.374 302.71 245.054 302.71C116.734 302.71 12.707 300.879 12.707 298.628C12.707 296.376 116.734 294.545 245.054 294.545C373.374 294.545 477.4 296.376 477.4 298.628Z" fill="#F5F5F5"/>
<path d="M445.473 291.555V197.183H437.1V291.555L431.773 293.386V296.23H450.8V293.386L445.473 291.555Z" fill="#263238"/>
<path d="M338.921 197.183H330.547V291.555L325.221 293.386V296.23H344.247V293.386L338.921 291.555V197.183Z" fill="#263238"/>
<g opacity="0.2">
<path d="M445.474 208.285H437.101V291.555L431.774 293.387V296.23H450.801V293.387L445.474 291.555V208.285Z" fill="white"/>
<path d="M338.921 208.285H330.547V291.555L325.221 293.387V296.23H344.247V293.387L338.921 291.555V208.285Z" fill="white"/>
</g>
<path d="M471.354 64.8818H304.667V200.226H471.354V64.8818Z" fill="#263238"/>
<path d="M467.647 68.6377H308.374V196.39H467.647V68.6377Z" fill="#3362CC"/>
<path d="M382.707 115.018H326.027V79.4873L382.707 115.018ZM326.694 114.352H380.387L326.694 80.6928V114.352Z" fill="#263238"/>
<path d="M329.394 114.779H328.867V112.214H326.301V111.682H329.394V114.779Z" fill="#263238"/>
<path d="M354.44 92.6004H353.847V87.4189H354.487V89.2704C354.753 88.9308 355.1 88.7643 355.513 88.7643C355.747 88.7643 355.96 88.8109 356.167 88.9041C356.373 88.9974 356.54 89.1306 356.673 89.2971C356.807 89.4636 356.913 89.67 356.987 89.9031C357.06 90.1429 357.1 90.396 357.1 90.669C357.1 91.315 356.94 91.8079 356.62 92.1609C356.3 92.5139 355.92 92.687 355.473 92.687C355.027 92.687 354.68 92.5005 354.427 92.1342V92.6071L354.44 92.6004ZM354.433 90.6957C354.433 91.1485 354.493 91.4682 354.62 91.668C354.82 91.9944 355.093 92.1609 355.433 92.1609C355.713 92.1609 355.953 92.041 356.153 91.8012C356.353 91.5615 356.46 91.2018 356.46 90.7223C356.46 90.2428 356.36 89.8698 356.167 89.6367C355.973 89.4036 355.74 89.2837 355.46 89.2837C355.18 89.2837 354.94 89.4036 354.74 89.6434C354.54 89.8832 354.433 90.2361 354.433 90.689V90.6957Z" fill="#263238"/>
<path d="M327.667 144.848H327.073V139.667H327.713V141.518C327.98 141.179 328.327 141.012 328.74 141.012C328.973 141.012 329.187 141.059 329.393 141.152C329.6 141.245 329.767 141.379 329.9 141.545C330.033 141.712 330.14 141.918 330.213 142.151C330.287 142.391 330.327 142.644 330.327 142.917C330.327 143.563 330.167 144.056 329.847 144.409C329.527 144.762 329.147 144.935 328.7 144.935C328.253 144.935 327.907 144.749 327.653 144.382V144.855L327.667 144.848ZM327.66 142.944C327.66 143.397 327.72 143.716 327.847 143.916C328.047 144.242 328.32 144.409 328.66 144.409C328.94 144.409 329.18 144.289 329.38 144.049C329.58 143.81 329.687 143.45 329.687 142.97C329.687 142.491 329.587 142.118 329.393 141.885C329.2 141.652 328.967 141.532 328.687 141.532C328.407 141.532 328.167 141.652 327.967 141.891C327.767 142.131 327.66 142.484 327.66 142.937V142.944Z" fill="#263238"/>
<path d="M348.707 120.373L349.334 120.453C349.267 120.886 349.087 121.219 348.807 121.465C348.527 121.712 348.181 121.832 347.767 121.832C347.254 121.832 346.841 121.665 346.527 121.326C346.214 120.993 346.061 120.506 346.061 119.88C346.061 119.474 346.127 119.121 346.261 118.815C346.394 118.508 346.601 118.282 346.874 118.129C347.147 117.976 347.447 117.902 347.774 117.902C348.181 117.902 348.514 118.002 348.774 118.209C349.034 118.415 349.201 118.708 349.274 119.088L348.654 119.181C348.594 118.928 348.487 118.742 348.341 118.615C348.194 118.488 348.007 118.422 347.801 118.422C347.481 118.422 347.221 118.535 347.021 118.768C346.821 119.001 346.721 119.361 346.721 119.86C346.721 120.36 346.821 120.733 347.014 120.959C347.207 121.186 347.461 121.299 347.774 121.299C348.021 121.299 348.234 121.226 348.401 121.073C348.567 120.919 348.674 120.686 348.721 120.367L348.707 120.373Z" fill="#263238"/>
<path d="M329.533 154.099L330.16 154.179C330.093 154.612 329.913 154.945 329.633 155.191C329.353 155.437 329.007 155.557 328.593 155.557C328.08 155.557 327.667 155.391 327.353 155.051C327.04 154.718 326.887 154.232 326.887 153.606C326.887 153.2 326.953 152.847 327.087 152.54C327.22 152.234 327.427 152.008 327.7 151.854C327.973 151.701 328.273 151.628 328.6 151.628C329.007 151.628 329.34 151.728 329.6 151.934C329.86 152.141 330.027 152.434 330.1 152.813L329.48 152.907C329.42 152.654 329.313 152.467 329.167 152.341C329.02 152.214 328.833 152.147 328.627 152.147C328.307 152.147 328.047 152.261 327.847 152.494C327.647 152.727 327.547 153.086 327.547 153.586C327.547 154.085 327.647 154.458 327.84 154.685C328.033 154.911 328.287 155.025 328.6 155.025C328.847 155.025 329.06 154.951 329.227 154.798C329.393 154.645 329.5 154.412 329.547 154.092L329.533 154.099Z" fill="#263238"/>
<path d="M323.154 100.387C322.921 100.587 322.694 100.726 322.474 100.813C322.254 100.893 322.021 100.94 321.774 100.94C321.361 100.94 321.041 100.84 320.821 100.64C320.601 100.44 320.487 100.18 320.487 99.8673C320.487 99.6808 320.527 99.5143 320.614 99.3611C320.701 99.2079 320.807 99.088 320.941 98.9948C321.074 98.9016 321.227 98.835 321.401 98.7883C321.527 98.755 321.714 98.7217 321.967 98.6951C322.481 98.6352 322.861 98.5619 323.101 98.4753C323.101 98.3887 323.101 98.3355 323.101 98.3088C323.101 98.0491 323.041 97.8693 322.921 97.7627C322.761 97.6162 322.514 97.5496 322.194 97.5496C321.894 97.5496 321.674 97.6029 321.527 97.7094C321.387 97.816 321.281 98.0025 321.214 98.2689L320.594 98.1823C320.647 97.9159 320.741 97.7028 320.874 97.5363C321.001 97.3698 321.194 97.2499 321.434 97.1566C321.681 97.0701 321.961 97.0234 322.287 97.0234C322.614 97.0234 322.867 97.0634 323.067 97.1367C323.267 97.2099 323.414 97.3098 323.507 97.423C323.601 97.5363 323.667 97.6828 323.707 97.8559C323.727 97.9625 323.741 98.1623 323.741 98.442V99.2878C323.741 99.8806 323.754 100.254 323.781 100.407C323.807 100.567 323.861 100.713 323.941 100.86H323.274C323.207 100.726 323.167 100.573 323.147 100.393L323.154 100.387ZM323.101 98.9682C322.867 99.0614 322.521 99.1413 322.061 99.2079C321.801 99.2479 321.614 99.2878 321.507 99.3345C321.401 99.3811 321.314 99.4477 321.254 99.5409C321.194 99.6342 321.167 99.7341 321.167 99.8406C321.167 100.007 321.234 100.154 321.361 100.267C321.487 100.38 321.674 100.433 321.927 100.433C322.181 100.433 322.394 100.38 322.581 100.274C322.774 100.167 322.914 100.02 323.001 99.834C323.067 99.6874 323.101 99.481 323.101 99.1946V98.9615V98.9682Z" fill="#263238"/>
<path d="M329.534 133.753C329.301 133.953 329.074 134.093 328.854 134.179C328.634 134.259 328.401 134.306 328.154 134.306C327.741 134.306 327.421 134.206 327.201 134.006C326.981 133.806 326.867 133.546 326.867 133.233C326.867 133.047 326.907 132.88 326.994 132.727C327.081 132.574 327.187 132.454 327.321 132.361C327.454 132.268 327.607 132.201 327.781 132.155C327.907 132.121 328.094 132.088 328.347 132.061C328.861 132.001 329.241 131.928 329.481 131.842C329.481 131.755 329.481 131.702 329.481 131.675C329.481 131.415 329.421 131.235 329.301 131.129C329.141 130.982 328.894 130.916 328.574 130.916C328.274 130.916 328.054 130.969 327.907 131.076C327.767 131.182 327.661 131.369 327.594 131.635L326.974 131.548C327.027 131.282 327.121 131.069 327.254 130.902C327.381 130.736 327.574 130.616 327.814 130.523C328.061 130.436 328.341 130.39 328.667 130.39C328.994 130.39 329.247 130.43 329.447 130.503C329.647 130.576 329.794 130.676 329.887 130.789C329.981 130.902 330.047 131.049 330.087 131.222C330.107 131.329 330.121 131.529 330.121 131.808V132.654C330.121 133.247 330.134 133.62 330.161 133.773C330.187 133.933 330.241 134.079 330.321 134.226H329.654C329.587 134.093 329.547 133.939 329.527 133.76L329.534 133.753ZM329.481 132.334C329.247 132.428 328.901 132.508 328.441 132.574C328.181 132.614 327.994 132.654 327.887 132.701C327.781 132.747 327.694 132.814 327.634 132.907C327.574 133 327.547 133.1 327.547 133.207C327.547 133.373 327.614 133.52 327.741 133.633C327.867 133.746 328.054 133.8 328.307 133.8C328.561 133.8 328.774 133.746 328.961 133.64C329.154 133.533 329.294 133.387 329.381 133.2C329.447 133.054 329.481 132.847 329.481 132.561V132.328V132.334Z" fill="#263238"/>
<path d="M424.927 80.1328H394.48V80.7988H424.927V80.1328Z" fill="#263238"/>
<path d="M411.227 86.2207H394.48V86.8867H411.227V86.2207Z" fill="#263238"/>
<path d="M418.074 90.7822H394.48V91.4482H418.074V90.7822Z" fill="#263238"/>
<path d="M414.267 96.1035H394.48V96.7695H414.267V96.1035Z" fill="#263238"/>
<path d="M424.167 102.185H394.48V102.851H424.167V102.185Z" fill="#263238"/>
<path d="M423.4 107.506H394.48V108.172H423.4V107.506Z" fill="#263238"/>
<path d="M414.267 112.834H394.48V113.5H414.267V112.834Z" fill="#263238"/>
<path d="M449.287 159.214H428.733V159.88H449.287V159.214Z" fill="#263238"/>
<path d="M440.147 165.295H428.733V165.961H440.147V165.295Z" fill="#263238"/>
<path d="M444.72 169.856H428.733V170.522H444.72V169.856Z" fill="#263238"/>
<path d="M442.433 175.178H428.733V175.844H442.433V175.178Z" fill="#263238"/>
<path d="M345.013 169.098H324.46V169.764H345.013V169.098Z" fill="#263238"/>
<path d="M335.873 175.178H324.46V175.844H335.873V175.178Z" fill="#263238"/>
<path d="M340.44 179.74H324.46V180.406H340.44V179.74Z" fill="#263238"/>
<path d="M338.16 185.068H324.46V185.734H338.16V185.068Z" fill="#263238"/>
<path d="M454.607 90.7822H434.82V91.4482H454.607V90.7822Z" fill="#263238"/>
<path d="M454.607 96.1035H434.82V96.7695H454.607V96.1035Z" fill="#263238"/>
<path d="M448.52 101.425H434.82V102.091H448.52V101.425Z" fill="#263238"/>
<path d="M396.001 169.098H376.214V169.764H396.001V169.098Z" fill="#263238"/>
<path d="M396.001 174.419H376.214V175.085H396.001V174.419Z" fill="#263238"/>
<path d="M389.914 179.74H376.214V180.406H389.914V179.74Z" fill="#263238"/>
<path d="M383.067 134.119H338.92V134.785H383.067V134.119Z" fill="#263238"/>
<path d="M383.067 144.003H338.92V144.669H383.067V144.003Z" fill="#263238"/>
<path d="M383.067 153.893H338.92V154.559H383.067V153.893Z" fill="#263238"/>
<path d="M412.347 159.854C404.54 159.854 398.193 153.513 398.193 145.714C398.193 137.916 404.54 131.575 412.347 131.575C420.153 131.575 426.5 137.916 426.5 145.714C426.5 153.513 420.153 159.854 412.347 159.854ZM412.347 132.101C404.833 132.101 398.72 138.209 398.72 145.714C398.72 153.22 404.833 159.327 412.347 159.327C419.86 159.327 425.973 153.22 425.973 145.714C425.973 138.209 419.86 132.101 412.347 132.101Z" fill="#263238"/>
<path d="M426.447 146.194H412.033V131.795H412.7V145.528H426.447V146.194Z" fill="#263238"/>
<path opacity="0.6" d="M467.647 68.6377H308.374V196.39H467.647V68.6377Z" fill="white"/>
<path d="M405.906 73.7061H385.44C383.493 73.7061 381.913 75.2845 381.913 77.2292V92.1476C381.913 94.0923 383.493 95.6707 385.44 95.6707H400.626L405.54 100.579V95.6707H405.906C407.853 95.6707 409.433 94.0923 409.433 92.1476V77.2292C409.433 75.2845 407.853 73.7061 405.906 73.7061Z" fill="#3362CC"/>
<path d="M387.34 84.6816C387.34 85.7072 388.166 86.533 389.193 86.533C390.22 86.533 391.047 85.7005 391.047 84.6816C391.047 83.6626 390.22 82.8301 389.193 82.8301C388.166 82.8301 387.34 83.6559 387.34 84.6816Z" fill="white"/>
<path d="M393.7 84.6816C393.7 85.7072 394.527 86.533 395.554 86.533C396.58 86.533 397.407 85.7005 397.407 84.6816C397.407 83.6626 396.58 82.8301 395.554 82.8301C394.527 82.8301 393.7 83.6559 393.7 84.6816Z" fill="white"/>
<path d="M400.06 84.6816C400.06 85.7072 400.886 86.533 401.913 86.533C402.94 86.533 403.766 85.7005 403.766 84.6816C403.766 83.6626 402.94 82.8301 401.913 82.8301C400.886 82.8301 400.06 83.6559 400.06 84.6816Z" fill="white"/>
<path d="M388.673 72.7339H400.013C400.333 72.7339 400.333 72.2344 400.013 72.2344H388.673C388.353 72.2344 388.353 72.7339 388.673 72.7339Z" fill="#3362CC"/>
<path d="M401.373 72.7005H402.147C402.28 72.7005 402.4 72.5873 402.4 72.4474C402.4 72.3076 402.293 72.1943 402.147 72.1943H401.373C401.24 72.1943 401.12 72.3076 401.12 72.4474C401.12 72.5873 401.227 72.7005 401.373 72.7005Z" fill="#3362CC"/>
<path d="M166.441 79.3277C162.647 72.8076 164.861 64.4426 171.394 60.6531C177.921 56.8635 186.294 59.0813 190.087 65.6015C193.014 70.6364 192.347 76.757 188.894 81.0393L189.561 85.0886L185.321 84.1562C185.254 84.1962 185.194 84.2428 185.127 84.2828C178.601 88.0723 170.227 85.8545 166.434 79.3344L166.441 79.3277Z" fill="#3362CC"/>
<path d="M162.927 72.4081C162.84 72.4081 162.767 72.3415 162.76 72.2549C162.44 67.786 164.554 63.1707 168.147 60.4933C168.22 60.4401 168.327 60.4534 168.38 60.5266C168.434 60.5999 168.42 60.7065 168.347 60.7597C164.84 63.3705 162.78 67.8726 163.094 72.2283C163.094 72.3215 163.034 72.4014 162.94 72.4081H162.927Z" fill="#3362CC"/>
<path d="M163.554 76.4106C163.487 76.4106 163.427 76.3707 163.4 76.3107C163.12 75.6714 162.974 74.9654 162.974 74.2661C162.974 74.1729 163.047 74.0996 163.14 74.0996C163.234 74.0996 163.307 74.1729 163.307 74.2661C163.307 74.9188 163.44 75.5781 163.7 76.1775C163.74 76.2641 163.7 76.3573 163.614 76.3973C163.594 76.404 163.567 76.4106 163.547 76.4106H163.554Z" fill="#3362CC"/>
<path d="M178.261 79.6203C177.747 79.6203 177.321 79.4538 176.974 79.1208C176.627 78.7878 176.454 78.3882 176.454 77.9087C176.454 77.4292 176.621 77.0363 176.961 76.7166C177.301 76.3969 177.734 76.2371 178.261 76.2371C178.787 76.2371 179.221 76.3969 179.561 76.7166C179.901 77.0363 180.067 77.4359 180.067 77.9087C180.067 78.3816 179.894 78.7878 179.547 79.1208C179.201 79.4538 178.774 79.6203 178.261 79.6203ZM179.427 74.9051H177.094L176.514 66.3203H180.014L179.434 74.9051H179.427Z" fill="white"/>
<path d="M416.813 170.589C416.813 170.589 405.433 213.213 403.253 230.415C400.406 252.86 392.746 285.194 392.746 285.194L397.673 285.327C397.673 285.327 413.046 258.221 416.226 233.113C429.259 207.458 430.306 175.863 430.306 175.863L416.813 170.582V170.589Z" fill="#E9B376"/>
<path d="M385.726 295.949C386.426 295.523 387.2 295.223 388.013 295.064C388.013 295.064 390.62 293.079 392.553 286.472L395.713 286.059C396.806 285.933 397.873 286.472 398.373 287.418C398.446 287.544 398.493 287.684 398.52 287.831C398.586 288.557 398.613 289.289 398.586 290.015C398.46 292.506 398.18 294.984 397.753 297.448L397.193 297.381L397.533 292.719C397.633 291.134 396.166 292.839 395.6 294.504C395.033 296.169 394.06 297.881 390.466 297.568C386.266 297.175 384.546 296.822 385.72 295.949H385.726Z" fill="#263238"/>
<path d="M392.887 284.767C392.887 284.767 390.067 293.232 388.007 295.07C388.007 295.07 391.3 296.416 393.92 292.1C397.313 286.532 398.52 287.838 398.52 287.838C398.314 286.978 398.027 286.146 397.667 285.333C396.813 283.768 392.887 284.767 392.887 284.767Z" fill="#E9B376"/>
<path d="M425.313 169.923C425.313 169.923 420.513 213.539 422.08 230.809C424.113 253.333 425.593 286.773 425.593 286.773L430.4 286.979C430.4 286.979 440.693 241.678 436.253 231.008C443.493 203.309 439.707 172.4 439.707 172.4L425.32 169.93L425.313 169.923Z" fill="#E9B376"/>
<path d="M418.12 296.523C418.833 296.11 419.613 295.83 420.433 295.69C420.433 295.69 423.1 293.786 425.207 287.226L428.38 286.879C429.487 286.779 430.533 287.359 431 288.331C431.067 288.464 431.113 288.598 431.133 288.744C431.18 289.483 431.18 290.229 431.133 290.969C430.94 293.446 430.593 295.91 430.093 298.348L429.533 298.268L430 293.613C430.153 292.034 428.627 293.706 428.02 295.344C427.407 296.983 426.393 298.681 422.8 298.281C418.627 297.762 416.92 297.369 418.113 296.523H418.12Z" fill="#263238"/>
<path d="M426.08 284.874C426.08 284.874 424.954 287.851 423.447 291.114C422.76 292.806 421.734 294.351 420.434 295.67C420.434 295.67 423.054 296.489 424.467 294.911C425.874 293.332 428.294 287.658 431.007 288.284C430.86 287.818 430.66 287.372 430.407 286.959C430 286.333 426.094 284.887 426.094 284.887L426.08 284.874Z" fill="#E9B376"/>
<path d="M372.807 120.372C372.807 120.372 370.687 115.657 369.72 115.337C368.753 115.017 367.906 115.237 367.906 115.237C367.906 115.237 361.68 110.329 361.087 111.314C360.767 111.847 362.1 113.306 365.073 115.583C365.073 115.583 363.12 116.016 363.72 117.202C363.72 117.202 362.266 117.641 362.813 119.1C362.813 119.1 362.02 120.212 362.706 121.085C363.393 121.957 366.82 124.581 368.933 125.187C369.573 125.374 370.673 125.753 371.22 125.334C371.22 125.334 376.8 128.943 376.933 129.117L379.933 123.242L372.813 120.365L372.807 120.372Z" fill="#E9B376"/>
<path opacity="0.3" d="M369.647 121.305C369.647 121.305 369.633 121.305 369.627 121.305C368.967 121.218 368.353 120.732 368.027 120.039C367.773 119.506 367.64 118.627 367.633 117.968C366.833 118.407 365.553 118.527 364.907 118.028C364.473 117.695 364.387 117.322 364.633 116.862C364.753 116.636 365.107 116.483 365.52 116.316C365.6 116.283 365.667 116.256 365.72 116.23C366.06 116.076 366.393 115.89 366.713 115.717C367.04 115.537 367.38 115.357 367.727 115.197C367.807 115.157 367.907 115.197 367.947 115.277C367.987 115.364 367.947 115.457 367.867 115.497C367.533 115.65 367.2 115.83 366.873 116.01C366.547 116.19 366.207 116.369 365.86 116.529C365.8 116.556 365.727 116.589 365.64 116.623C365.413 116.709 365 116.876 364.927 117.015C364.753 117.329 364.8 117.528 365.107 117.761C365.7 118.221 367.073 118.015 367.7 117.522C367.753 117.482 367.827 117.475 367.88 117.508C367.94 117.542 367.973 117.602 367.967 117.668C367.92 118.288 368.053 119.333 368.32 119.899C368.6 120.492 369.113 120.905 369.66 120.978C369.753 120.992 369.813 121.071 369.8 121.165C369.787 121.251 369.72 121.311 369.633 121.311L369.647 121.305Z" fill="#263238"/>
<path opacity="0.3" d="M364.666 122.25C364.533 122.25 364.393 122.224 364.26 122.17C364.006 122.07 363.8 121.904 363.6 121.737C363.526 121.677 363.52 121.571 363.58 121.504C363.64 121.438 363.746 121.424 363.813 121.484C363.993 121.631 364.173 121.784 364.38 121.864C364.586 121.944 364.8 121.937 364.94 121.851C365.193 121.691 365.22 121.291 365.113 120.978C365 120.645 364.786 120.352 364.506 120.146C364.366 120.086 364.233 120.012 364.093 119.919C364.02 119.873 364 119.779 364.033 119.706C364.073 119.633 364.16 119.593 364.24 119.626C364.393 119.686 364.533 119.759 364.666 119.853C364.866 119.939 365.1 120.006 365.353 119.992C365.74 119.979 366.093 119.786 366.246 119.493C366.413 119.187 366.326 118.767 366.06 118.6C365.98 118.547 365.96 118.447 366.013 118.367C366.066 118.287 366.166 118.267 366.246 118.321C366.653 118.587 366.786 119.193 366.54 119.653C366.326 120.052 365.866 120.312 365.36 120.332C365.286 120.332 365.213 120.332 365.14 120.325C365.266 120.492 365.36 120.678 365.426 120.878C365.566 121.298 365.526 121.871 365.113 122.137C364.986 122.217 364.826 122.263 364.66 122.263L364.666 122.25Z" fill="#263238"/>
<path d="M415.233 119.227V132.774L413.227 134.525C409.14 136.497 399.96 140.399 397.34 140.306C392.447 140.066 374.767 129.537 374.767 129.537L378.513 122.411C378.513 122.411 393.8 128.977 396.06 128.531C398.32 128.085 415.24 119.214 415.24 119.214L415.233 119.227Z" fill="#3362CC"/>
<path d="M440.306 91.1617C440.306 91.1617 442.693 91.2883 444.706 95.211C446.719 99.1338 444.199 103.489 443.699 105.574C443.193 107.659 440.686 109.503 444.826 112.654C448.966 115.804 451.453 119.154 448.093 122.564C444.733 125.974 448.426 128.584 443.573 131.115C438.719 133.646 420.846 129.856 418.586 124.968C416.326 120.079 419.053 116.357 419.199 114.898C419.346 113.439 416.326 111.941 415.573 107.159C414.819 102.377 418.679 101.358 419.199 99.1737C419.719 96.9892 417.299 94.2387 419.199 89.5966C421.099 84.9546 440.053 83.9556 440.306 91.1617Z" fill="#263238"/>
<path opacity="0.4" d="M440.306 91.1617C440.306 91.1617 442.693 91.2883 444.706 95.211C446.719 99.1338 444.199 103.489 443.699 105.574C443.193 107.659 440.686 109.503 444.826 112.654C448.966 115.804 451.453 119.154 448.093 122.564C444.733 125.974 448.426 128.584 443.573 131.115C438.719 133.646 420.846 129.856 418.586 124.968C416.326 120.079 419.053 116.357 419.199 114.898C419.346 113.439 416.326 111.941 415.573 107.159C414.819 102.377 418.679 101.358 419.199 99.1737C419.719 96.9892 417.299 94.2387 419.199 89.5966C421.099 84.9546 440.053 83.9556 440.306 91.1617Z" fill="white"/>
<path d="M410.187 170.123C410.633 170.263 435.646 170.962 449.906 169.93C449.906 169.93 445.4 140.912 437.866 137.749C433.86 136.07 419.907 137.029 414.767 144.089C410.24 150.309 410.187 163.01 410.187 170.116V170.123Z" fill="#3362CC"/>
<path opacity="0.2" d="M410.187 170.123C410.633 170.263 435.646 170.962 449.906 169.93C449.906 169.93 445.4 140.912 437.866 137.749C433.86 136.07 419.907 137.029 414.767 144.089C410.24 150.309 410.187 163.01 410.187 170.116V170.123Z" fill="black"/>
<path d="M415.36 156.463L440.22 158.607C440.46 152.454 441.347 146.34 442.867 140.366C443.46 137.988 444.207 135.331 445.167 132.26C445.68 130.622 446.247 128.857 446.874 126.992C447.347 125.554 447.86 124.029 448.427 122.417C445.054 121.338 441.6 120.505 438.107 119.926C434.42 119.273 430.687 118.88 426.94 118.754C422.107 118.754 416.547 119.26 416.547 119.26C416.547 119.26 415.754 119.447 415.26 124.575C414.814 129.357 414.374 138.974 415.367 156.469L415.36 156.463Z" fill="#3362CC"/>
<path d="M415.48 160.186L440.34 162.23C440.734 156.056 441.027 147.718 442.887 140.359C443.48 137.981 444.227 135.324 445.187 132.254C445.7 130.615 446.267 128.85 446.894 126.985C447.367 125.547 447.88 124.022 448.447 122.41C445.074 121.331 441.62 120.499 438.127 119.919C434.44 119.267 430.707 118.874 426.96 118.747C422.127 118.747 416.567 119.253 416.567 119.253C416.567 119.253 415.774 119.44 415.28 124.568C414.814 129.35 414.48 142.69 415.487 160.186H415.48Z" fill="#263238"/>
<path d="M442.04 120.393C442.04 120.393 437.48 151.874 449.906 169.936C449.906 169.936 444.346 137.302 448.433 122.391L442.04 120.399V120.393Z" fill="#3362CC"/>
<path d="M420.366 118.721C420.366 118.721 418.873 133.319 418.106 139.227C416.226 153.759 410.187 170.502 410.187 170.502C410.187 170.502 411.14 130.282 415.22 119.22L420.366 118.714V118.721Z" fill="#3362CC"/>
<path d="M415.479 160.186L391.479 253.446C391.479 253.446 437.733 256.662 450.586 254.032C450.586 254.032 453.74 188.198 440.326 162.224L415.479 160.192V160.186Z" fill="#3362CC"/>
<path opacity="0.4" d="M415.479 160.186L391.479 253.446C391.479 253.446 437.733 256.662 450.586 254.032C450.586 254.032 453.74 188.198 440.326 162.224L415.479 160.192V160.186Z" fill="white"/>
<path d="M427.479 92.2938C427.479 92.2938 422.419 101.411 422.179 104.242C420.239 105.894 418.866 102.55 418.939 98.068C418.999 94.3984 420.913 90.4423 424.086 89.0171C428.539 87.0124 427.486 92.2872 427.486 92.2872L427.479 92.2938Z" fill="#263238"/>
<path opacity="0.4" d="M427.479 92.2938C427.479 92.2938 422.419 101.411 422.179 104.242C420.239 105.894 418.866 102.55 418.939 98.068C418.999 94.3984 420.913 90.4423 424.086 89.0171C428.539 87.0124 427.486 92.2872 427.486 92.2872L427.479 92.2938Z" fill="white"/>
<path d="M428.433 118.102C429.279 117.256 429.079 116.777 428.919 115.545C428.806 114.599 428.499 113.613 428.139 112.654L429.406 111.282L435.986 105.108C435.673 109.377 435.779 117.636 439.039 120.08L430.046 125.008L425.006 118.748C425.006 118.748 427.186 118.795 428.433 118.102Z" fill="#E9B376"/>
<path opacity="0.2" d="M428.952 115.91C430.739 114.938 432.719 113.213 432.559 111.148C432.486 110.282 432.332 109.457 432.146 108.924L428.426 113.486C428.692 114.252 428.779 114.758 428.946 115.91H428.952Z" fill="black"/>
<path d="M438.026 98.3081C437.193 104.802 436.979 107.565 433.486 110.856C428.239 115.811 420.506 113.799 419.399 107.292C418.406 101.432 419.933 91.7946 426.439 89.2905C432.846 86.8196 438.859 91.8079 438.026 98.3081Z" fill="#E9B376"/>
<path d="M429.179 100.599C429.179 101.212 428.826 101.731 428.393 101.758C427.966 101.785 427.619 101.319 427.626 100.706C427.626 100.093 427.979 99.5736 428.413 99.547C428.839 99.5203 429.186 99.9865 429.179 100.599Z" fill="#263238"/>
<path d="M422.972 100.126C422.999 100.719 422.679 101.245 422.259 101.298C421.832 101.352 421.466 100.919 421.439 100.326C421.412 99.7333 421.732 99.2071 422.152 99.1538C422.579 99.1006 422.946 99.5335 422.972 100.126Z" fill="#263238"/>
<path d="M430.919 98.5009C430.833 98.5009 430.753 98.4809 430.693 98.4143C429.733 97.4419 428.586 97.715 428.573 97.715C428.406 97.7549 428.239 97.655 428.206 97.4819C428.179 97.3087 428.293 97.1356 428.466 97.0889C428.526 97.0756 429.966 96.7293 431.159 97.9414C431.279 98.0613 431.273 98.2678 431.146 98.3943C431.086 98.4543 431.006 98.4942 430.926 98.4942L430.919 98.5009Z" fill="#263238"/>
<path opacity="0.4" d="M430.919 98.5009C430.833 98.5009 430.753 98.4809 430.693 98.4143C429.733 97.4419 428.586 97.715 428.573 97.715C428.406 97.7549 428.239 97.655 428.206 97.4819C428.179 97.3087 428.293 97.1356 428.466 97.0889C428.526 97.0756 429.966 96.7293 431.159 97.9414C431.279 98.0613 431.273 98.2678 431.146 98.3943C431.086 98.4543 431.006 98.4942 430.926 98.4942L430.919 98.5009Z" fill="white"/>
<path d="M420.805 97.1691C420.732 97.1425 420.665 97.0959 420.632 97.016C420.559 96.8628 420.632 96.6763 420.792 96.5964C422.439 95.8038 423.719 96.4898 423.779 96.5231C423.932 96.6097 423.979 96.7962 423.879 96.9427C423.785 97.0892 423.579 97.1425 423.425 97.0626C423.379 97.0359 422.372 96.5164 421.065 97.1491C420.979 97.1891 420.885 97.1958 420.805 97.1691Z" fill="#263238"/>
<path opacity="0.4" d="M420.805 97.1691C420.732 97.1425 420.665 97.0959 420.632 97.016C420.559 96.8628 420.632 96.6763 420.792 96.5964C422.439 95.8038 423.719 96.4898 423.779 96.5231C423.932 96.6097 423.979 96.7962 423.879 96.9427C423.785 97.0892 423.579 97.1425 423.425 97.0626C423.379 97.0359 422.372 96.5164 421.065 97.1491C420.979 97.1891 420.885 97.1958 420.805 97.1691Z" fill="white"/>
<path d="M439.806 103.69C438.986 104.995 437.706 105.794 436.546 106.041C434.806 106.414 434.013 103.603 434.666 101.898C435.253 100.36 436.986 99.3939 438.653 99.7935C440.299 100.186 440.739 102.198 439.806 103.69Z" fill="#E9B376"/>
<path d="M424.832 99.6201C424.832 99.6201 423.726 102.024 422.519 103.503C422.306 103.763 422.419 104.156 422.726 104.282C423.519 104.608 424.472 104.375 424.472 104.375L424.832 99.6268V99.6201Z" fill="#D58745"/>
<path d="M428.546 99.5268L427.032 99.2471C427.032 99.2471 427.906 100.326 428.546 99.5268Z" fill="#263238"/>
<path d="M422.372 99.1609L420.846 98.9678C421.586 99.7803 422.179 99.4273 422.372 99.1609Z" fill="#263238"/>
<path d="M439.786 94.7514C440.673 96.0301 438.906 99.7397 438.906 99.7397C438.906 99.7397 435.78 98.8073 435.606 103.516C434.453 103.709 433.16 99.3135 433.346 94.8913C433.58 92.3938 438.22 92.4937 439.786 94.7514Z" fill="#263238"/>
<g opacity="0.4">
<path d="M439.786 94.7514C440.673 96.0301 438.906 99.7397 438.906 99.7397C438.906 99.7397 435.78 98.8073 435.606 103.516C434.453 103.709 433.16 99.3135 433.346 94.8913C433.58 92.3938 438.22 92.4937 439.786 94.7514Z" fill="white"/>
</g>
<path opacity="0.2" d="M436.94 104.428C436.866 104.428 436.793 104.375 436.78 104.301C436.76 104.215 436.813 104.122 436.906 104.102C437.84 103.882 438.26 103.402 438.453 103.036C438.66 102.636 438.646 102.277 438.573 102.084C438.42 101.697 437.933 101.391 437.48 101.571C437.393 101.604 437.3 101.564 437.266 101.478C437.233 101.391 437.273 101.298 437.36 101.264C438.006 101.018 438.666 101.431 438.886 101.97C438.993 102.237 439.013 102.703 438.753 103.196C438.533 103.622 438.046 104.175 436.986 104.428C436.973 104.428 436.96 104.428 436.946 104.428H436.94Z" fill="#263238"/>
<path d="M423.873 106.499C424.36 107.218 424.96 108.617 424.96 108.617C425.1 108.584 425.233 108.557 425.366 108.517C427.213 108.044 427.913 107.218 428.126 106.439C428.24 106.013 428.206 105.6 428.14 105.28C428.06 104.901 427.92 104.654 427.92 104.654C427.093 105.487 425.406 106.06 424.493 106.333C424.113 106.446 423.866 106.506 423.866 106.506L423.873 106.499Z" fill="#263238"/>
<path d="M424.5 106.326L424.84 106.945C426.573 106.492 427.74 105.946 428.147 105.28C428.067 104.901 427.927 104.654 427.927 104.654C427.1 105.487 425.413 106.06 424.5 106.333V106.326Z" fill="white"/>
<path d="M425.366 108.517C427.213 108.045 427.913 107.219 428.126 106.439C427.506 106.626 426.773 106.919 426.18 107.372C425.726 107.718 425.493 108.131 425.366 108.517Z" fill="#DC5753"/>
<path d="M420.939 91.1283C422.319 88.2645 427.939 85.6005 434.406 88.3644C440.246 90.8552 441.933 99.3467 437.713 99.6664C433.493 99.9861 428.513 95.8569 428.513 95.8569L420.939 91.1217V91.1283Z" fill="#263238"/>
<path d="M457.086 144.288L457.799 158.061C454.946 158.428 448.799 151.435 446.413 146.246C444.373 141.844 443.319 138.041 443.319 138.041L444.826 133.799L448.419 122.417C448.419 122.417 452.946 129.71 457.079 144.295" fill="#3362CC"/>
<path d="M480.099 112.52L477.739 111.168L469.059 113.539L457.339 110.502L454.633 119.386C454.633 119.386 454.073 129.29 454.633 129.41C455.193 129.53 468.046 130.196 468.046 130.196L474.579 126.033L480.093 112.52H480.099Z" fill="#E0E0E0"/>
<path d="M454.186 111.168L448.999 131.667L464.999 133.459L476.039 130.415L481.672 111.168L469.052 114.438L454.186 111.168Z" fill="#3362CC"/>
<path opacity="0.4" d="M469.052 114.438L464.999 133.459L448.999 131.667L454.186 111.168L469.052 114.438Z" fill="white"/>
<path opacity="0.2" d="M469.052 114.438L464.999 133.459L476.039 130.415L481.672 111.168L469.052 114.438Z" fill="white"/>
<path d="M456.373 157.368C460.326 160.731 463.739 155.277 466.453 139.453L459.559 138.101L453.933 152.699L456.373 157.368Z" fill="#3362CC"/>
<path opacity="0.2" d="M447.339 148.032L446.933 137.396C446.933 137.396 449.246 143.123 447.339 148.032Z" fill="black"/>
<path d="M460.026 138.188L461.546 134.032L466.453 133.02L466.066 139.373L460.026 138.188Z" fill="#E9B376"/>
<path d="M460.379 133.352C460.532 134.411 461.432 135.204 462.499 135.204C464.486 135.204 467.252 134.931 467.786 134.085C468.546 132.879 468.372 128.797 467.906 128.511C467.439 128.224 467.099 129.216 467.099 129.216C467.099 129.216 467.052 127.292 466.346 127.265C465.659 127.238 465.452 128.684 465.452 128.684C465.452 128.684 465.532 126.985 464.612 127.012C463.846 127.032 463.659 128.817 463.659 128.817C463.659 128.817 463.732 127.192 462.699 127.678C461.672 128.164 460.386 133.352 460.386 133.352H460.379Z" fill="#E9B376"/>
<path opacity="0.2" d="M463.745 128.817L463.272 131.914C463.272 131.954 463.225 131.987 463.172 131.981C463.125 131.981 463.092 131.934 463.099 131.894L463.572 128.804C463.572 128.764 463.618 128.731 463.672 128.737C463.718 128.737 463.745 128.777 463.745 128.817Z" fill="black"/>
<path opacity="0.2" d="M465.532 128.777L465.312 131.781C465.312 131.821 465.265 131.854 465.219 131.854C465.172 131.854 465.145 131.821 465.139 131.774L465.359 128.771C465.359 128.731 465.405 128.697 465.452 128.697C465.499 128.697 465.532 128.737 465.532 128.777Z" fill="black"/>
<path opacity="0.2" d="M467.185 129.316L467.085 131.554C467.085 131.594 467.045 131.627 466.999 131.627C466.952 131.627 466.912 131.587 466.919 131.547L467.019 129.31C467.019 129.27 467.059 129.236 467.105 129.236C467.152 129.236 467.192 129.276 467.185 129.316Z" fill="black"/>
<path d="M467.639 132.186L469.332 131.7C469.332 131.7 469.439 133.778 467.426 134.397L467.639 132.186Z" fill="#E9B376"/>
<path opacity="0.4" d="M420.939 91.1283C422.319 88.2645 427.939 85.6005 434.406 88.3644C440.246 90.8552 441.933 99.3467 437.713 99.6664C433.493 99.9861 428.513 95.8569 428.513 95.8569L420.939 91.1217V91.1283Z" fill="white"/>
<path d="M231.427 104.056C231.78 104.409 249.8 91.0027 249.8 91.0027L247.093 69.8372L252.22 69.2578C252.22 69.2578 262.973 92.5212 258.387 96.5172C253.8 100.513 236.72 113.101 236.367 112.987C236.013 112.874 231.427 104.056 231.427 104.056Z" fill="#FFB573"/>
<path d="M247.093 70.5632C247.093 70.5632 244.827 69.8639 243.933 68.119C243.04 66.374 241.86 65.2219 241.28 63.8766C240.707 62.5312 242.48 63.397 243.327 64.0497C244.18 64.7024 245.147 65.4283 245.533 64.709C245.92 63.9898 245.727 56.9901 246.373 56.0577C247.02 55.1253 247.407 56.2442 247.407 56.2442C247.407 56.2442 247.407 54.5459 248.08 54.3594C248.253 54.3128 248.74 54.4859 248.86 55.2585C249.133 57.0034 249.52 60.6931 249.52 60.6931C249.493 60.4799 249.34 55.8912 249.407 55.2052C249.493 54.3061 249.993 53.9198 250.52 53.9931C251.26 54.0863 251.647 59.774 251.833 60.0004C251.833 60.0004 251.5 56.737 252.3 56.1909C253.1 55.6448 253.42 57.6894 253.36 59.5409C253.307 61.2392 253.64 64.5958 253.42 66.3141C253.147 68.4386 252.48 69.8039 250.56 70.39C248.64 70.9761 247.093 70.5632 247.093 70.5632Z" fill="#EBB373"/>
<path opacity="0.3" d="M247.66 60.7193C247.58 60.7193 247.507 60.6593 247.494 60.5728C247.334 59.2208 247.234 57.8422 247.2 56.4769C247.2 56.3836 247.274 56.3104 247.36 56.3037C247.474 56.3037 247.527 56.377 247.534 56.4635C247.567 57.8222 247.667 59.1875 247.827 60.5261C247.84 60.6194 247.774 60.6993 247.68 60.7126H247.66V60.7193Z" fill="#263238"/>
<path opacity="0.3" d="M246.807 61.7124C246.74 61.7124 246.673 61.6725 246.653 61.5992C246.62 61.5126 246.667 61.4194 246.753 61.3861C248.433 60.78 250.32 60.6735 252.06 61.0997C252.147 61.1197 252.207 61.2129 252.18 61.2995C252.16 61.3861 252.067 61.446 251.98 61.4194C250.307 61.0131 248.493 61.1064 246.867 61.6925C246.847 61.6991 246.827 61.7058 246.813 61.7058L246.807 61.7124Z" fill="#263238"/>
<path opacity="0.3" d="M248.987 68.272C248.9 68.272 248.827 68.2054 248.82 68.1188C248.78 67.4462 248.487 66.7802 248.027 66.2873C247.56 65.7945 246.913 65.4682 246.24 65.3816C246.147 65.3683 246.087 65.2883 246.093 65.1951C246.1 65.1019 246.193 65.0353 246.28 65.0486C247.04 65.1418 247.74 65.5015 248.267 66.0542C248.78 66.6004 249.107 67.3463 249.153 68.0922C249.153 68.1854 249.087 68.2654 249 68.272H248.987Z" fill="#263238"/>
<path d="M198.967 173.833L194.421 173.327C193.594 177.356 193.287 181.479 193.507 185.588C193.667 188.259 197.981 191.276 197.981 191.276C197.981 191.276 199.494 194.439 200.341 193.46C201.187 192.481 198.887 188.112 198.794 187.1C198.521 183.95 198.221 180.773 198.481 180.353C198.741 179.927 198.807 184.296 200.147 185.235C201.487 186.174 200.427 180.733 200.894 178.888C201.367 177.037 200.021 174.046 198.961 173.84L198.967 173.833Z" fill="#FFB573"/>
<path opacity="0.2" d="M209.534 157.457C209.468 157.457 209.401 157.417 209.381 157.35C209.348 157.263 209.394 157.17 209.481 157.137C216.848 154.413 223.261 149.291 227.541 142.718C227.594 142.638 227.694 142.618 227.774 142.671C227.854 142.725 227.874 142.825 227.821 142.904C223.501 149.538 217.028 154.706 209.594 157.457C209.574 157.463 209.554 157.47 209.534 157.47V157.457Z" fill="#263238"/>
<path d="M240.914 96.7305C240.914 96.7305 231.374 103.337 231.074 103.45L233.528 119.481C233.334 119.255 249.321 108.106 249.674 108.052C250.028 107.999 240.908 96.7305 240.908 96.7305H240.914Z" fill="#3362CC"/>
<path opacity="0.2" d="M233.527 119.481L232.087 110.051L235.154 118.189L233.527 119.481Z" fill="black"/>
<path opacity="0.3" d="M240.914 96.7305C240.914 96.7305 231.374 103.337 231.074 103.45L233.528 119.481C233.334 119.255 249.321 108.106 249.674 108.052C250.028 107.999 240.908 96.7305 240.908 96.7305H240.914Z" fill="white"/>
<path d="M199.281 104.403C199.281 104.403 191.861 103.79 190.401 112.481C188.947 121.166 186.561 135.931 186.561 135.931L200.941 137.177C201.667 136.644 199.281 104.403 199.281 104.403Z" fill="#3362CC"/>
<path opacity="0.3" d="M199.281 104.403C199.281 104.403 191.861 103.79 190.401 112.481C188.947 121.166 186.561 135.931 186.561 135.931L200.941 137.177C201.667 136.644 199.281 104.403 199.281 104.403Z" fill="white"/>
<path d="M243.274 166.234L235.874 134.806L231.074 103.457L220.387 103.357L211.087 103.131L199.281 104.41L195.261 119.508C195.261 119.508 198.561 141.666 198.661 142.818C198.781 144.23 200.354 169.704 200.354 169.704C216.887 170.79 243.727 167.44 243.274 166.241V166.234Z" fill="#3362CC"/>
<path opacity="0.3" d="M243.274 166.234L235.874 134.806L231.074 103.457L220.387 103.357L211.087 103.131L199.281 104.41L195.261 119.508C195.261 119.508 198.561 141.666 198.661 142.818C198.781 144.23 200.354 169.704 200.354 169.704C216.887 170.79 243.727 167.44 243.274 166.241V166.234Z" fill="white"/>
<path opacity="0.2" d="M198.441 136.964L200.947 137.177L200.801 118.189L203.387 141.466L198.581 142.139L198.101 138.769L198.441 136.964Z" fill="black"/>
<path d="M187.987 136.058L188.027 149.158L194.214 175.911L199.801 174.899L197.294 148.245L199.034 137.017L187.987 136.058Z" fill="#FFB573"/>
<path d="M209.646 103.31C209.646 103.31 210.246 99.0214 207.733 91.5888C207.733 91.5822 208.12 91.389 208.12 91.3824C207.773 90.3434 207.413 89.3844 207.073 88.5519C207.066 88.5252 207.066 88.5186 207.066 88.5186L217.653 94.4326C217.513 96.8502 218.586 101.466 219.186 103.41C219.186 103.41 221.426 107.679 216.693 108.046C213.233 108.312 209.646 103.317 209.646 103.317V103.31Z" fill="#FFB573"/>
<path opacity="0.2" d="M217.974 97.8094L211.98 96.7305C212.6 98.5486 214.327 100.667 218.467 100.667C218.467 100.667 217.967 98.6219 217.974 97.8094Z" fill="black"/>
<path d="M224 76.3238C225.32 78.6548 225.974 83.8763 222.127 82.9505C218.28 82.0248 221.734 72.3212 224 76.3238Z" fill="#263238"/>
<path d="M206.767 83.5166C207.747 90.0167 208.167 93.6997 211.774 96.7367C217.194 101.299 224.834 97.6824 225.82 91.0024C226.707 84.9884 224.954 75.3714 218.314 73.4C211.774 71.4553 205.787 77.0231 206.767 83.5232V83.5166Z" fill="#FFB573"/>
<path d="M204.721 74.9851C205.301 71.3022 209.787 68.9046 212.474 70.5229C212.874 70.7627 210.114 71.9948 210.427 71.8483L210.701 77.1763C210.307 77.123 209.581 77.6425 209.294 78.8812C209.294 78.8812 210.867 85.7144 208.281 88.8646C200.914 86.2272 200.007 76.9232 204.727 74.9785L204.721 74.9851Z" fill="#263238"/>
<path d="M204.667 89.1918C205.34 90.8301 206.707 91.9956 208.06 92.5218C210.1 93.321 211.354 91.5428 210.987 89.4981C210.654 87.66 209.2 85.0293 207.06 85.1092C204.954 85.1825 203.9 87.3203 204.667 89.1918Z" fill="#FFB573"/>
<path d="M216.294 84.5764C216.354 85.2424 216.754 85.7552 217.194 85.7086C217.634 85.6687 217.94 85.0892 217.88 84.4232C217.82 83.7572 217.42 83.2444 216.98 83.291C216.54 83.331 216.234 83.9104 216.294 84.5831V84.5764Z" fill="#263238"/>
<path d="M222.874 84.1231C222.934 84.7891 223.334 85.3019 223.774 85.2553C224.214 85.2153 224.52 84.6359 224.46 83.9633C224.4 83.2973 224 82.7844 223.56 82.8311C223.12 82.871 222.814 83.4504 222.874 84.1164V84.1231Z" fill="#263238"/>
<path d="M220.707 83.9434C220.707 83.9434 223.12 87.0802 223.92 88.3723C223.06 89.298 221.427 89.0516 221.427 89.0516L220.714 83.9434H220.707Z" fill="#D58745"/>
<path d="M214.593 82.3711C214.7 82.3977 214.82 82.3711 214.9 82.2778C215.866 81.2589 217.013 81.4453 217.026 81.4453C217.2 81.4786 217.36 81.3588 217.393 81.1923C217.426 81.0191 217.313 80.8593 217.14 80.826C217.08 80.8126 215.646 80.5795 214.446 81.8449C214.326 81.9715 214.333 82.1713 214.46 82.2911C214.5 82.3311 214.546 82.3577 214.6 82.3644L214.593 82.3711Z" fill="#263238"/>
<path d="M225.466 81.1597C225.526 81.1464 225.58 81.1197 225.626 81.0731C225.746 80.9466 225.746 80.7468 225.626 80.6269C224.386 79.4148 222.98 79.7278 222.913 79.7344C222.746 79.7744 222.64 79.9409 222.673 80.1141C222.713 80.2806 222.873 80.3871 223.046 80.3538C223.106 80.3405 224.193 80.1074 225.186 81.0798C225.266 81.153 225.373 81.1797 225.473 81.1597H225.466Z" fill="#263238"/>
<path d="M228.526 73.1142C228.206 71.4425 226.4 70.1238 224.753 70.5634C225.286 69.4711 224.806 68.0059 223.74 67.4332C222.666 66.8604 221.18 67.28 220.566 68.3256C220.506 67.3066 219.42 66.5607 218.4 66.6406C217.386 66.7206 216.513 67.4532 215.993 68.3323C215.68 68.8717 215.446 69.4978 214.94 69.8641C214.146 70.4368 213.06 70.1438 212.08 70.0705C210.44 69.944 208.76 70.57 207.593 71.7289C206.433 72.8944 205.806 74.5727 205.933 76.2111C205.026 76.4575 204.58 77.1901 203.986 77.916L209 78.7152C210.406 76.0912 214.2 78.1225 216.1 78.8418C217.466 79.3612 218.813 79.4012 219.846 79.3612C220.886 79.3213 221.353 78.562 221.366 77.5297C222.953 78.1425 224.82 78.1824 226.32 77.3699C227.813 76.5507 228.826 74.7925 228.506 73.1208L228.526 73.1142Z" fill="#263238"/>
<path d="M205.02 75.2917C205.02 75.2917 204.953 75.2851 204.927 75.2651C203.947 74.5991 202.787 74.1729 201.9 74.1595C201.807 74.1595 201.733 74.0796 201.733 73.993C201.733 73.9065 201.833 73.8199 201.9 73.8265C202.867 73.8465 204.067 74.2794 205.107 74.992C205.18 75.0453 205.2 75.1452 205.153 75.2251C205.12 75.2718 205.067 75.2984 205.013 75.2984L205.02 75.2917Z" fill="#263238"/>
<path d="M204.9 75.2256C204.847 75.2256 204.794 75.1989 204.76 75.1523C204.02 74.0601 203.707 72.6814 203.894 71.3761C203.907 71.2828 203.994 71.2229 204.08 71.2362C204.174 71.2495 204.234 71.3361 204.22 71.4227C204.04 72.6481 204.34 73.9402 205.034 74.9658C205.087 75.0391 205.067 75.1456 204.987 75.1989C204.96 75.2189 204.927 75.2256 204.894 75.2256H204.9Z" fill="#263238"/>
<path opacity="0.2" d="M209.16 89.1118C209.08 89.1118 209.013 89.0585 209 88.9786C208.893 88.4525 208.647 87.953 208.287 87.5467C208.053 87.287 207.68 86.954 207.2 86.8807C206.773 86.8141 206.333 87.0006 206.147 87.3269C206.1 87.4068 206 87.4335 205.92 87.3935C205.84 87.3469 205.813 87.247 205.853 87.1671C206.107 86.7142 206.673 86.4611 207.247 86.5544C207.827 86.6409 208.267 87.0272 208.533 87.3269C208.927 87.7731 209.2 88.3259 209.32 88.912C209.34 89.0052 209.28 89.0918 209.187 89.1051C209.173 89.1051 209.167 89.1051 209.153 89.1051L209.16 89.1118Z" fill="#263238"/>
<path d="M219.346 91.2429C218.406 91.2429 217.466 90.8899 216.766 90.2572C216.7 90.1973 216.693 90.0907 216.753 90.0241C216.813 89.9575 216.92 89.9509 216.986 90.0108C217.72 90.6768 218.746 91.0032 219.726 90.8899C219.813 90.8833 219.9 90.9432 219.913 91.0365C219.926 91.1297 219.86 91.2096 219.766 91.2229C219.626 91.2363 219.486 91.2496 219.34 91.2496L219.346 91.2429Z" fill="#263238"/>
<path opacity="0.2" d="M89.587 144.529L87.9603 170.09L73.3203 168.345V165.721L89.587 144.529Z" fill="black"/>
<path d="M82.507 145.168C81.9337 138.575 79.627 126.487 75.6604 113.8C74.367 109.67 78.9804 105.108 78.9804 105.108C78.9804 105.108 81.9604 104.869 82.507 104.809C83.107 104.735 85.3404 103.823 85.9537 103.77C90.587 103.377 92.607 103.397 96.747 103.636C97.787 103.696 99.1737 103.816 100.22 103.903C100.56 103.936 102.594 104.496 102.92 104.529C102.92 104.529 108.867 111.595 109.187 116.583C109.36 119.367 110.687 120.573 110.54 127.233C110.514 131.762 107.28 138.355 106.987 144.715L82.5137 145.162L82.507 145.168Z" fill="white"/>
<path d="M90.614 123.37C90.3007 113.194 86.2007 108.791 85.654 106.321C85.5073 105.675 85.8274 104.203 86.1407 103.743L83.374 104.056C79.074 104.902 76.414 104.875 74.2673 107.739C73.854 108.292 74.3673 112.248 74.4007 112.827C74.454 113.873 75.1807 117.09 76.154 120.959C76.8207 123.65 77.6073 126.667 78.3607 129.511C79.3273 133.14 80.134 134.086 80.4473 135.245L70.4673 164.662C70.1873 165.448 70.714 166.287 71.5473 166.38L85.874 167.879C86.574 167.952 87.2073 167.453 87.2873 166.753C88.0007 160.779 90.974 135.072 90.614 123.37Z" fill="#3362CC"/>
<path d="M103.9 104.096C103.9 104.096 107.42 103.403 111.234 108.945C115.04 114.486 116.12 138.735 116.12 138.735L107.84 139.161L109.047 115.531L103.907 104.096H103.9Z" fill="#3362CC"/>
<path d="M109.44 143.31C109.44 143.31 112.447 124.696 111.647 120.04C110.847 115.385 103.9 104.089 103.9 104.089L100.727 103.87L98.3604 103.743C98.3604 103.743 105.814 107.2 107.94 114.739C109.34 119.694 106.374 140.953 106.694 144.729L108.307 152.548L112.294 152.368L109.44 143.31Z" fill="#3362CC"/>
<path opacity="0.3" d="M110.167 138.688L111.727 124.336L112.3 139.154C112.3 139.154 110.807 139.081 110.167 138.688Z" fill="black"/>
<path opacity="0.3" d="M82.6803 134.858L81.4537 121.146L80.5137 136.077L94.7003 141.838L82.6803 134.858Z" fill="black"/>
<path d="M77.0671 105.555C77.0671 105.555 72.5604 106.66 71.7004 111.575C70.8338 116.49 69.6871 141.052 70.6671 142.611C71.6471 144.169 99.0471 152.967 99.0471 152.967L101.98 145.361L81.2804 135.358C81.2804 135.358 81.4471 128.339 81.6204 122.871C81.7071 119.98 81.8004 117.523 81.8604 116.763C82.0471 114.572 77.0671 105.555 77.0671 105.555Z" fill="#3362CC"/>
<path d="M101.527 146.547C101.527 146.547 110.14 148.611 112.14 150.33C113.027 151.089 113 152.341 113 152.341L99.0537 152.96L101.527 146.547Z" fill="#B97964"/>
<path opacity="0.3" d="M76.9875 145.435C77.2609 145.534 89.1142 149.75 89.1142 149.75V151.235L76.3809 147.219L76.9875 145.435Z" fill="black"/>
<path d="M101.754 73.0206C105.707 75.658 106.834 79.4408 106.781 82.1848C106.294 85.8877 105.007 88.5118 104.007 92.1082L94.1807 70.4365C96.474 70.8894 97.5073 70.4232 101.754 73.0206Z" fill="#263238"/>
<path d="M96.8269 71.109C92.9803 69.3174 89.2003 71.4286 86.9936 72.9005C84.5803 74.9451 83.1602 77.9155 83.0869 81.0723C83.0869 84.0227 83.0869 87.5991 84.8802 89.1376C85.8869 90.03 87.2136 90.4563 88.5536 90.3164L103.167 76.8499C101.58 74.4256 99.3936 72.4543 96.8269 71.109Z" fill="#263238"/>
<path d="M97.0739 111.009C95.9472 112.168 94.9272 111.782 93.4272 111.169C84.5072 107.966 87.1472 103.663 87.1472 103.663C88.8406 101.679 88.9139 99.3076 88.2939 95.6912C88.2806 95.5846 88.2806 95.4781 88.2806 95.3715C88.2806 94.892 88.4406 94.4191 88.7272 94.0262C89.4739 92.934 90.9606 92.6542 92.0539 93.4002L96.0472 94.5457C96.0606 94.599 96.0672 94.6522 96.0806 94.7188C96.0939 96.6969 96.0339 98.2353 96.0472 99.4408C96.0739 99.5873 96.0472 99.7405 96.0539 99.8803C96.0806 100.027 96.0739 100.18 96.0739 100.327C96.1672 101.985 98.9739 104.416 100.114 104.989C100.807 105.382 100.881 107.113 97.0672 111.016L97.0739 111.009Z" fill="#B97964"/>
<path opacity="0.2" d="M96.0467 94.5253C96.0467 94.5853 96.06 94.6452 96.08 94.7052C96.0933 96.6832 96.0333 98.2216 96.0467 99.4271C96.04 99.5736 96.0467 99.7201 96.0533 99.8667C96.06 100.02 96.08 100.173 96.1067 100.326C93.0733 99.5004 90.36 97.7687 88.3467 95.3578C88.3467 94.885 88.4933 94.4188 88.76 94.0192C89.4933 92.9203 90.98 92.6272 92.08 93.3532L96.0467 94.5187V94.5253Z" fill="black"/>
<path d="M85.2807 81.9317C85.434 88.7582 85.3474 91.6353 88.594 95.3449C93.4807 100.913 101.661 99.4275 103.547 92.7275C105.194 86.7002 104.701 76.5704 98.2607 73.4402C91.8207 70.31 85.134 75.0985 85.2807 81.9317Z" fill="#B97964"/>
<path d="M82.2532 87.779C82.9466 89.2508 84.1866 90.2432 85.3666 90.6494C87.1399 91.2555 88.3266 88.425 87.8599 86.5535C87.4399 84.8686 85.7466 83.6365 83.9532 83.8429C82.1866 84.0494 81.4599 86.094 82.2532 87.779Z" fill="#B97964"/>
<path opacity="0.2" d="M86.1206 87.9056C86.0273 87.9056 85.9539 87.8257 85.9539 87.7391C85.9673 87.1264 85.7273 86.5203 85.3006 86.0808C84.8739 85.6412 84.2806 85.3815 83.6673 85.3682C83.5739 85.3682 83.5006 85.2882 83.5073 85.195C83.5073 85.1018 83.5806 85.0352 83.6739 85.0352C84.3739 85.0485 85.0539 85.3482 85.5406 85.8543C86.0273 86.3605 86.2939 87.0465 86.2873 87.7458C86.2873 87.839 86.2139 87.9123 86.1206 87.9123V87.9056Z" fill="#263238"/>
<path d="M94.1802 84.8755C94.1535 85.6014 94.4935 86.2341 94.9468 86.2807C95.4002 86.3274 95.7868 85.7746 95.8135 85.0486C95.8402 84.3227 95.5002 83.69 95.0468 83.6434C94.5935 83.5968 94.2068 84.1495 94.1802 84.8755Z" fill="#263238"/>
<path d="M100.94 85.4215C100.913 86.1275 101.26 86.7336 101.707 86.7868C102.153 86.8335 102.54 86.3007 102.567 85.5947C102.593 84.8887 102.247 84.2827 101.8 84.2294C101.353 84.1828 100.967 84.7156 100.94 85.4215Z" fill="#263238"/>
<path d="M92.9606 82.2251C93.0473 82.2451 93.1406 82.2251 93.214 82.1652C94.354 81.2794 95.514 81.719 95.5273 81.7256C95.7006 81.7922 95.8873 81.7056 95.9406 81.5325C95.994 81.3593 95.9006 81.1595 95.7273 81.0863C95.6673 81.0596 94.214 80.5068 92.8006 81.6057C92.6606 81.7123 92.6406 81.9321 92.754 82.0853C92.8073 82.1585 92.8873 82.2051 92.9673 82.2185L92.9606 82.2251Z" fill="#263238"/>
<path d="M103.507 82.1785C103.58 82.1585 103.64 82.1119 103.673 82.0453C103.747 81.8921 103.687 81.6923 103.54 81.5924C102.047 80.5801 100.827 81.1528 100.78 81.1795C100.633 81.2527 100.587 81.4392 100.667 81.6057C100.747 81.7722 100.933 81.8521 101.08 81.7789C101.127 81.7589 102.08 81.326 103.267 82.1319C103.347 82.1851 103.427 82.1985 103.507 82.1785Z" fill="#263238"/>
<path d="M99.1271 84.9355C99.1271 84.9355 99.9804 87.5929 101.06 89.2912C101.247 89.5909 101.08 89.9838 100.74 90.0771C99.8671 90.3168 98.9004 89.9505 98.9004 89.9505L99.1271 84.9355Z" fill="#A24E3F"/>
<path d="M94.7803 83.6499L96.3869 83.4102C96.3869 83.4102 95.4269 84.5091 94.7803 83.6499Z" fill="#263238"/>
<path d="M101.634 84.2359L103.24 83.9961C103.24 83.9961 102.28 85.095 101.634 84.2359Z" fill="#263238"/>
<path d="M98.46 91.8219C97.8933 92.4546 97.1333 93.74 97.1333 93.74C97.0066 93.6934 96.8733 93.6468 96.7533 93.5868C95.0267 92.8942 94.4533 92.0018 94.34 91.2225C94.28 90.7963 94.3667 90.4034 94.4733 90.097C94.5933 89.744 94.7666 89.5176 94.7666 89.5176C95.46 90.43 97.0266 91.2026 97.8733 91.5822C98.2266 91.742 98.46 91.8286 98.46 91.8286V91.8219Z" fill="#263238"/>
<path d="M97.8736 91.5753L97.467 92.1281C95.8403 91.4688 94.787 90.7895 94.4736 90.0902C94.5936 89.7372 94.767 89.5107 94.767 89.5107C95.4603 90.4232 97.027 91.1957 97.8736 91.5753Z" fill="white"/>
<path d="M96.7473 93.587C95.0206 92.8943 94.4473 92.0019 94.334 91.2227C94.914 91.4824 95.5873 91.8554 96.1006 92.3748C96.494 92.7678 96.674 93.194 96.7473 93.587Z" fill="#DE5753"/>
<path d="M87.6469 83.597C87.6469 83.597 91.5469 79.1415 91.6736 75.3319C91.6736 75.3319 105.634 72.235 104.347 84.2763C104.347 84.2763 107.367 73.8667 95.9602 72.1684C84.5536 70.4701 82.2002 85.3486 87.3669 90.5367C87.3869 90.4834 85.2336 86.3875 87.6469 83.597Z" fill="#263238"/>
<path d="M75.4736 74.5325C75.7403 77.636 78.4736 79.9404 81.587 79.674C84.6936 79.4076 87.0003 76.677 86.7336 73.5668C86.4803 70.6497 84.0403 68.4053 81.107 68.4053C77.867 68.5585 75.3536 71.2891 75.4803 74.5325H75.4736Z" fill="#263238"/>
<path d="M101.14 73.6602C102.64 75.0988 103.647 76.9769 104.007 79.0282C104.007 80.5134 101.987 81.5856 101.987 81.5856L99.5136 78.3489V81.1927C95.4669 80.7465 93.1269 78.602 91.7402 75.5051L93.9936 71.4824C93.9936 71.4824 99.7936 72.5014 101.14 73.6669V73.6602Z" fill="#263238"/>
<path d="M81.8532 77.7825C81.5066 79.3942 80.5532 80.8661 79.2266 81.8384C79.9399 81.8984 80.6732 81.7186 81.2799 81.3456C81.2532 81.925 81.1199 82.5044 80.8999 83.0439C82.5399 81.6853 83.5066 79.5474 83.4466 77.4229L81.8532 77.7825Z" fill="#263238"/>
<path d="M157.567 135.072H118.894V139.208H157.567V135.072Z" fill="#3362CC"/>
<path d="M132.18 135.505H118.894V138.775H132.18V135.505Z" fill="white"/>
<path opacity="0.3" d="M136.76 135.072H135.573V139.208H136.76V135.072Z" fill="white"/>
<path opacity="0.3" d="M154.854 135.072H153.667V139.208H154.854V135.072Z" fill="white"/>
<path opacity="0.2" d="M132.934 135.072H118.894V139.208H132.934V135.072Z" fill="black"/>
<path d="M285.787 148.572H31.7939V298.689H285.787V148.572Z" fill="#263238"/>
<path opacity="0.3" d="M79.2673 148.572H31.7939V298.689H79.2673V148.572Z" fill="black"/>
<path opacity="0.3" d="M285.787 148.572H31.7939V151.922H285.787V148.572Z" fill="black"/>
<path d="M286.58 138.995H27.7334V148.572H286.58V138.995Z" fill="#263238"/>
<path opacity="0.3" d="M286.58 138.995H27.7334V148.572H286.58V138.995Z" fill="black"/>
<path opacity="0.3" d="M82.3803 138.995H27.3203V148.572H82.3803V138.995Z" fill="black"/>
<path opacity="0.3" d="M179.807 168.232H98.5332V228.745H179.807V168.232Z" fill="black"/>
<path d="M176.313 171.976H102.02V224.996H176.313V171.976Z" fill="#263238"/>
<path opacity="0.3" d="M98.5332 228.745L102.02 225.002H176.313L179.807 228.745H98.5332Z" fill="white"/>
<path opacity="0.3" d="M98.5332 168.232L102.047 171.949L176.313 171.975L179.807 168.232H98.5332Z" fill="black"/>
<path opacity="0.3" d="M275.48 168.232H194.207V228.745H275.48V168.232Z" fill="black"/>
<path d="M271.994 171.976H197.7V224.996H271.994V171.976Z" fill="#263238"/>
<path opacity="0.3" d="M194.207 228.745L197.7 225.002H271.994L275.48 228.745H194.207Z" fill="white"/>
<path opacity="0.3" d="M194.207 168.232L197.72 171.949L271.994 171.975L275.48 168.232H194.207Z" fill="black"/>
<path opacity="0.3" d="M285.867 148.572H31.874V298.689H285.867V148.572Z" fill="black"/>
<path d="M252.961 137.469C252.514 141.965 252.014 146.747 249.287 150.523C246.754 154.026 242.347 155.811 238.081 155.098C237.767 155.045 237.627 155.525 237.947 155.578C242.221 156.29 246.654 154.659 249.354 151.255C252.441 147.359 252.987 142.244 253.461 137.469C253.494 137.15 252.994 137.15 252.961 137.469Z" fill="#263238"/>
<path d="M235.487 159.947C235.8 158.322 237.06 157.216 238.353 156.776C239.647 156.343 241.013 156.43 242.353 156.33C245.573 156.097 248.88 154.632 250.927 151.535C253.007 148.391 252.46 144.422 252.673 140.359C252.887 136.337 253.033 132.72 254.34 127.739C255.147 124.662 260.093 118.881 265.3 121.026L273.907 125.308C277.607 130.636 278.48 133.939 279.587 140.846C280.693 147.752 279.067 157.189 276.107 163.19C273.94 167.592 270.707 171.029 267.353 174.059C264.793 176.37 261.94 178.575 258.78 178.615C256.887 178.641 255.053 177.882 253.267 177.136C250.427 175.951 247.593 174.772 244.753 173.586C243.42 173.027 242.033 172.434 241.04 171.195C240.047 169.957 239.587 167.859 240.393 166.427C239.153 165.894 237.873 165.335 236.873 164.276C235.867 163.217 235.18 161.538 235.487 159.94V159.947Z" fill="#263238"/>
<path d="M257.02 153.586C257.02 153.586 259.606 154.858 262.793 157.602C263.46 158.174 264.186 158.667 264.966 159.08C267.06 160.192 268.96 160.825 269.48 159.819C269.593 159.6 269.68 159.36 269.746 159.107C270.186 157.422 269.113 155.104 267.733 153.632C266.393 152.2 266.36 151.701 266.64 150.042C266.786 149.103 267.126 148.138 267.52 147.192L265.746 146.126L259.42 139.746C260.146 143.662 260.36 151.275 257.026 153.586H257.02Z" fill="#E9B376"/>
<path opacity="0.2" d="M266.586 150.409C264.846 149.377 262.933 147.585 263.166 145.541C263.266 144.681 263.453 143.862 263.659 143.343L267.193 148.018C266.899 148.771 266.799 149.27 266.586 150.409Z" fill="black"/>
<path d="M258.193 132.553C258.786 139.054 258.906 141.804 262.26 145.214C267.306 150.336 275.073 148.617 276.413 142.177C277.62 136.383 276.44 126.733 270.053 124.002C263.76 121.311 257.6 126.06 258.193 132.56V132.553Z" fill="#E9B376"/>
<path d="M266.613 134.665C266.646 135.351 267.019 135.917 267.446 135.924C267.873 135.93 268.193 135.384 268.159 134.698C268.126 134.012 267.753 133.446 267.326 133.44C266.899 133.433 266.579 133.979 266.613 134.665Z" fill="#263238"/>
<path d="M273.026 134.645C273.059 135.311 273.432 135.857 273.859 135.87C274.286 135.877 274.606 135.344 274.572 134.678C274.539 134.012 274.166 133.466 273.739 133.459C273.312 133.452 272.992 133.985 273.026 134.651V134.645Z" fill="#263238"/>
<path d="M265.26 132.273C265.34 132.28 265.426 132.26 265.493 132.2C266.493 131.274 267.626 131.601 267.633 131.601C267.8 131.647 267.966 131.554 268.006 131.387C268.046 131.214 267.939 131.041 267.766 130.988C267.706 130.968 266.293 130.562 265.046 131.714C264.92 131.827 264.92 132.033 265.046 132.167C265.106 132.233 265.18 132.267 265.26 132.28V132.273Z" fill="#263238"/>
<path d="M275.186 131.388C275.253 131.368 275.306 131.315 275.333 131.248C275.393 131.102 275.319 130.915 275.173 130.829C273.686 129.996 272.586 130.629 272.539 130.656C272.406 130.735 272.379 130.915 272.466 131.068C272.559 131.222 272.739 131.275 272.866 131.202C272.906 131.175 273.773 130.696 274.953 131.362C275.026 131.401 275.113 131.408 275.179 131.388H275.186Z" fill="#263238"/>
<path d="M271.286 134.332C271.286 134.332 272.306 136.763 273.453 138.281C273.653 138.548 273.526 138.934 273.219 139.047C272.419 139.34 271.479 139.074 271.479 139.074L271.293 134.332H271.286Z" fill="#D58745"/>
<path d="M267.086 133.466L268.579 133.113C268.579 133.113 267.766 134.226 267.086 133.466Z" fill="#263238"/>
<path d="M273.586 133.472L275.079 133.119C275.079 133.119 274.266 134.231 273.586 133.472Z" fill="#263238"/>
<path d="M276.873 134.165C276.873 134.165 273.933 125.98 268.94 124.755C268.713 124.702 265.613 131.834 262.587 133.22C262.587 133.22 261.907 138.188 260.907 138.534C259.907 138.881 257.4 133.453 257.4 133.453C257.4 133.453 253.3 124.495 259.06 122.064C264.82 119.633 270.813 119.88 274.38 124.748C277.953 129.617 277.36 132.82 276.873 134.159V134.165Z" fill="#263238"/>
<path d="M256.407 137.849C257.173 139.181 258.42 140.02 259.567 140.306C261.287 140.739 262.18 137.975 261.587 136.25C261.06 134.698 259.367 133.673 257.693 134.012C256.04 134.345 255.527 136.33 256.407 137.855V137.849Z" fill="#E9B376"/>
<path opacity="0.2" d="M260.414 137.782C260.327 137.782 260.254 137.716 260.247 137.629C260.207 137.056 259.94 136.504 259.507 136.124C259.067 135.738 258.3 135.565 257.92 135.585C257.834 135.585 257.747 135.518 257.747 135.431C257.747 135.338 257.814 135.258 257.9 135.252C258.334 135.218 259.214 135.425 259.727 135.871C260.227 136.31 260.54 136.936 260.58 137.602C260.58 137.696 260.52 137.776 260.427 137.782H260.414Z" fill="#263238"/>
<path d="M267.9 153.307C267.9 153.307 272.267 154.172 276.027 156.67C279.787 159.167 283.78 173.14 283.78 173.14L276.167 173.779L267.9 153.307Z" fill="#3362CC"/>
<path opacity="0.7" d="M267.9 153.307C267.9 153.307 272.267 154.172 276.027 156.67C279.787 159.167 283.78 173.14 283.78 173.14L276.167 173.779L267.9 153.307Z" fill="white"/>
<path d="M248.927 171.988L246.34 155.238C248.993 152.967 258.26 152.268 258.26 152.268C264.013 154.858 268.013 156.87 267.293 152.661L274.58 160.326C274.58 160.326 278.327 164.282 278.167 169.65C278.04 173.766 276.36 186.14 276.94 191.195L278.333 202.258C263.353 213.972 249.56 203.203 249.56 203.203C250.28 201.072 253.127 197.915 253.48 195.824C253.34 193.14 254.52 191.149 252.967 185.568C251.8 181.365 248.92 172.587 248.933 171.988H248.927Z" fill="#3362CC"/>
<g opacity="0.7">
<path d="M248.927 171.988L246.34 155.238C248.993 152.967 258.26 152.268 258.26 152.268C264.013 154.858 268.013 156.87 267.293 152.661L274.58 160.326C274.58 160.326 278.327 164.282 278.167 169.65C278.04 173.766 276.36 186.14 276.94 191.195L278.333 202.258C263.353 213.972 249.56 203.203 249.56 203.203C250.28 201.072 253.127 197.915 253.48 195.824C253.34 193.14 254.52 191.149 252.967 185.568C251.8 181.365 248.92 172.587 248.933 171.988H248.927Z" fill="white"/>
</g>
<path d="M248.634 154.032C248.634 154.032 245.567 154.192 243.787 157.156C242.647 159.054 238.667 171.455 236.154 179.453C234.874 183.523 235.947 187.026 239.34 188.012H262.06L262.694 182.957L245.707 180.819C245.707 180.819 250.714 166.367 251.46 161.998C252.207 157.635 248.634 154.032 248.634 154.032Z" fill="#E9B376"/>
<path opacity="0.2" d="M245.687 180.825C245.687 180.825 243.641 180.819 242.374 181.645C242.374 181.645 243.087 179.347 246.327 178.914L245.681 180.825H245.687Z" fill="black"/>
<path d="M237.78 170.382L248.927 173.965L252.513 161.231C252.513 161.231 249.66 154.005 249.333 153.846C249.007 153.686 244.687 154.059 243.12 158.208C241.553 162.357 237.767 170.382 237.767 170.382H237.78Z" fill="#3362CC"/>
<path opacity="0.7" d="M237.78 170.382L248.927 173.965L252.513 161.231C252.513 161.231 249.66 154.005 249.333 153.846C249.007 153.686 244.687 154.059 243.12 158.208C241.553 162.357 237.767 170.382 237.767 170.382H237.78Z" fill="white"/>
<path d="M282.287 173.267C282.287 173.267 284.76 179.48 285.274 181.092C285.787 182.697 287.42 186.34 284.52 187.412C281.627 188.485 262.327 187.412 262.327 187.412V182.271C262.327 182.271 276.967 180.539 277.26 180.28C277.547 180.02 277.867 173.64 277.867 173.64L282.287 173.267Z" fill="#E9B376"/>
<g opacity="0.2">
<path d="M272.281 184.522C272.114 184.169 271.681 183.943 271.314 184.076C271.687 183.636 272.074 183.177 272.234 182.617C272.394 182.058 272.261 181.378 271.774 181.065L268.254 181.638C268.654 183.39 269.134 185.441 269.534 187.186C269.567 187.332 269.607 187.486 269.701 187.606C269.987 187.972 270.567 187.805 270.987 187.606C271.267 187.479 271.567 187.326 271.687 187.046C271.814 186.766 271.614 186.347 271.307 186.4C271.647 186.207 271.967 185.961 272.167 185.628C272.374 185.295 272.441 184.868 272.281 184.515V184.522Z" fill="black"/>
</g>
<path d="M270.753 141.191C269.646 141.191 268.793 140.645 268.46 140.139C268.406 140.059 268.433 139.959 268.506 139.906C268.58 139.859 268.686 139.879 268.74 139.953C268.973 140.312 269.706 140.852 270.753 140.852C270.846 140.852 270.92 140.925 270.92 141.018C270.92 141.111 270.846 141.185 270.753 141.185V141.191Z" fill="#263238"/>
<path opacity="0.2" d="M249.167 173.013L251.4 165.194L250.207 176.49L249.167 173.013Z" fill="black"/>
<path opacity="0.2" d="M277.867 173.64C277.867 173.64 278.407 169.071 277.994 167.359C277.994 167.359 278.841 170.363 278.914 173.547L277.867 173.633V173.64Z" fill="black"/>
<path opacity="0.2" d="M277.267 180.272C277.267 180.272 279.78 180.366 281.113 181.651C281.113 181.651 280.7 179.133 277.48 179.153L277.267 180.279V180.272Z" fill="black"/>
<path d="M264.469 173.122L264.381 173.151C264.08 173.251 263.918 173.575 264.018 173.875L266.417 181.073C266.517 181.373 266.842 181.535 267.143 181.435L267.231 181.406C267.532 181.306 267.694 180.981 267.594 180.681L265.195 173.484C265.095 173.184 264.77 173.022 264.469 173.122Z" fill="#263238"/>
<path d="M260.74 182.71C260.74 182.71 264.634 179.147 265.314 179.48C265.994 179.813 266.541 180.159 266.541 180.159C266.541 180.159 269.901 179.06 270.234 179.986C270.561 180.912 270.014 181.385 270.014 181.385C270.014 181.385 271.427 181.691 271.034 182.723C270.647 183.756 270.341 184.142 270.341 184.142C270.341 184.142 271.174 184.735 270.854 185.554C270.534 186.373 269.821 186.453 269.821 186.453C269.821 186.453 271.161 187.552 270.081 187.885C269.501 188.065 261.701 187.945 261.114 187.738C259.881 187.292 260.734 182.71 260.734 182.71H260.74Z" fill="#EBB373"/>
<path d="M282.027 186.566H256.84V188.032H282.027V186.566Z" fill="white"/>
<path d="M193.56 166.546L185.866 171.434C185.866 171.434 190.746 189.436 192.28 191.854L201.866 187.298L193.553 166.546H193.56Z" fill="#E4897B"/>
<path d="M170.72 142.97C170.58 144.276 170.64 145.434 171.08 146.014C171.533 146.613 172.313 147.026 173.153 147.313C172.407 148.751 170.52 149.903 170.52 149.903H165.24C165.24 149.903 162.853 150.436 161.947 149.923C161.2 149.504 160.407 149.104 159.693 148.625C159.333 148.378 158.993 148.092 158.653 147.792C159.767 147.146 160.78 146.26 161.14 145.108C162.06 142.124 161.073 131.935 161.073 131.935L172.22 136.51C172.22 136.51 172.133 136.756 172.007 137.183C171.653 138.361 170.94 140.872 170.72 142.977V142.97Z" fill="#E4897B"/>
<path d="M177.413 115.184C177.107 114.798 177.953 106.073 162.913 110.416C151.747 113.639 155.967 122.384 155.967 122.384L168.733 113.173L177.413 115.191V115.184Z" fill="#263238"/>
<path opacity="0.2" d="M162.92 137.102C162.92 137.102 165.313 142.077 170.82 141.904C171.033 139.806 171.753 137.289 172.107 136.11C171.693 135.957 171.427 135.863 171.427 135.863L162.927 137.102H162.92Z" fill="black"/>
<path d="M177.12 113.399C177.12 113.399 180.367 122.57 176.04 127.159C171.72 131.748 168.354 114.165 168.354 114.165L177.12 113.393V113.399Z" fill="#263238"/>
<path d="M162.907 137.449C166.307 140.013 170.16 140.639 173.394 138.887C175.474 137.769 177.18 135.851 178 133.406C178.114 133.087 178.2 132.754 178.28 132.414C179.647 126.174 178.5 115.924 171.667 113.306C166.807 111.408 161.314 113.799 159.414 118.668C158.867 120.046 158.66 121.538 158.8 123.023C159.34 129.916 158.94 134.452 162.907 137.449Z" fill="#E4897B"/>
<path d="M168.153 124.815C168.12 125.534 168.56 126.12 169.04 126.107C169.52 126.093 169.886 125.494 169.873 124.775C169.866 124.055 169.46 123.469 168.986 123.483C168.513 123.496 168.14 124.082 168.153 124.815Z" fill="#263238"/>
<path d="M175.08 124.815C175.047 125.534 175.493 126.12 175.967 126.107C176.44 126.093 176.813 125.494 176.8 124.775C176.793 124.055 176.387 123.469 175.913 123.483C175.44 123.496 175.067 124.129 175.08 124.815Z" fill="#263238"/>
<path d="M173.687 124.941C174.393 126.646 175.327 128.251 176.473 129.703C175.7 130.276 174.713 130.483 173.773 130.263L173.687 124.941Z" fill="#DE5753"/>
<path d="M178.013 121.858C177.906 121.918 177.773 121.918 177.666 121.858C176.953 121.412 176.073 121.325 175.286 121.625C175.126 121.705 174.926 121.638 174.846 121.478C174.766 121.318 174.833 121.119 174.993 121.039C175.973 120.632 177.093 120.726 177.993 121.292C178.153 121.378 178.206 121.578 178.12 121.738C178.086 121.791 178.053 121.825 178.006 121.858H178.013Z" fill="#263238"/>
<path d="M168.027 122.231C167.96 122.231 167.893 122.211 167.84 122.171C167.72 122.037 167.727 121.831 167.86 121.704C168.64 120.972 169.727 120.672 170.773 120.892C170.947 120.938 171.053 121.118 171.007 121.298C170.953 121.471 170.78 121.571 170.6 121.531C169.773 121.378 168.92 121.631 168.307 122.204C168.22 122.257 168.12 122.264 168.027 122.231Z" fill="#263238"/>
<path d="M163.707 114.305L164.287 117.322C163.327 117.921 162.8 119.087 163.34 120.252C164.494 122.743 163.314 126.806 161.454 128.517C161.454 128.517 161.32 127.412 160.4 127.738C159.48 128.064 160.367 132.706 161.34 135.563C161.34 135.563 159.214 134.145 157.247 128.191C155.427 122.69 154.934 118.034 155.94 115.79L163.714 114.305H163.707Z" fill="#263238"/>
<path d="M155.893 128.751C156.693 130.296 158.073 131.468 159.733 132.001C161.933 132.694 163.106 130.736 162.566 128.618C162.066 126.74 160.32 124.056 158.08 124.309C155.833 124.562 154.946 126.833 155.9 128.744L155.893 128.751Z" fill="#E4897B"/>
<path d="M177.12 113.399C177.506 114.118 176.28 116.762 173.5 118.034C170.713 119.307 173.68 116.489 173.68 116.489C173.68 116.489 168.086 118.407 167.933 117.688C167.78 116.969 169.506 115.93 169.506 115.93C169.506 115.93 164.846 118.121 161.073 117.189C157.293 116.256 164.18 110.009 168.566 110.136C172.953 110.262 175.96 111.221 177.12 113.399Z" fill="#263238"/>
<path opacity="0.1" d="M160.92 129.144C160.713 128.025 160.007 127.032 159.013 126.473C158.627 126.26 158.107 126.12 157.8 126.393L157.58 126.14C157.953 125.814 158.553 125.834 159.18 126.18C160.253 126.786 161.027 127.865 161.253 129.077L160.927 129.137L160.92 129.144Z" fill="#263238"/>
<path d="M171.434 132.187C170.967 132.194 170.5 132.114 170.087 131.881C169.574 131.594 169.194 131.142 168.894 130.642C168.727 130.369 168.294 130.615 168.46 130.895C168.8 131.461 169.247 131.987 169.834 132.314C170.32 132.587 170.874 132.7 171.427 132.687C171.747 132.68 171.747 132.181 171.427 132.187H171.434Z" fill="#263238"/>
<path d="M183.226 146.213C178.76 148.251 176.56 157.149 185.066 176.742L197.726 168.351C196.146 163.482 194.44 160.912 191.826 154.977C188.32 146.679 183.22 146.213 183.22 146.213H183.226Z" fill="#3362CC"/>
<path d="M180.766 145.66C177.606 145.434 164.973 144.029 152.106 146.626L153.353 192.154C153.353 192.154 152.713 208.904 153.353 210.422C166.866 215.943 183.733 207.905 192.28 202.397C192.186 202.617 189.926 196.589 189.926 196.589C188.353 182.077 185.833 159.447 183.446 146.386C183.386 146.067 181.08 145.68 180.766 145.66Z" fill="#3362CC"/>
<path opacity="0.2" d="M153.527 174.285L154.234 174.378L156.62 161.624L157.647 175.95L153.354 176.276L153.527 174.285Z" fill="black"/>
<path d="M152.107 146.626C152.107 146.626 147.04 147.565 145.82 153.905C144.7 159.746 141.96 173.026 141.96 173.026L155.827 173.313L156.787 159.18L152.107 146.626Z" fill="#3362CC"/>
<path d="M144.466 173.086L144.333 181.99C144.62 185.42 146.266 187.911 149.42 187.924L179.973 186.16L181.333 180.585L155.513 178.321L155.84 173.332L144.48 173.099L144.466 173.086Z" fill="#E4897B"/>
<path d="M195.087 180.372C194.194 179.62 189.067 177.495 187.074 177.069C185.087 176.636 177.514 180.299 177.514 180.299L176.854 184.981C176.854 184.981 178.12 186.273 180.134 186.14C181.294 186.066 183.967 184.535 183.967 184.535C183.967 184.535 184.434 185.367 185.154 186.113C185.947 186.939 187.1 187.785 187.747 187.092C188.387 186.406 186.52 183.995 186.247 183.649C186.527 183.995 188.507 186.399 189.48 185.594C190.42 184.821 188.307 182.363 188.307 182.363C188.307 182.363 189.407 183.396 189.974 183.922C190.54 184.448 191.56 184.388 191.474 183.276C191.374 181.991 190.227 180.712 190.227 180.712C190.227 180.712 191.394 180.972 193.627 181.851C195.234 182.483 195.847 180.998 195.094 180.365L195.087 180.372Z" fill="#E4897B"/>
<path opacity="0.1" d="M186.533 184.168C186.487 184.168 186.44 184.148 186.407 184.115C186.033 183.688 185.647 183.256 185.193 182.903C184.707 182.523 184.187 182.297 183.693 182.25C183.6 182.243 183.533 182.157 183.547 182.07C183.553 181.977 183.64 181.91 183.727 181.924C184.287 181.977 184.847 182.223 185.393 182.65C185.867 183.016 186.267 183.469 186.653 183.902C186.713 183.968 186.707 184.075 186.64 184.135C186.607 184.161 186.567 184.175 186.527 184.175L186.533 184.168Z" fill="#263238"/>
<path opacity="0.1" d="M188.58 182.743C188.533 182.743 188.487 182.723 188.453 182.69C188.08 182.264 187.687 181.824 187.24 181.478C186.74 181.092 186.24 180.872 185.74 180.825C185.647 180.818 185.58 180.732 185.593 180.645C185.6 180.552 185.687 180.485 185.773 180.499C186.333 180.552 186.893 180.798 187.44 181.225C187.913 181.591 188.313 182.044 188.7 182.477C188.76 182.543 188.753 182.65 188.687 182.71C188.653 182.737 188.613 182.75 188.573 182.75L188.58 182.743Z" fill="#263238"/>
<path opacity="0.1" d="M190.187 180.878C190.14 180.878 190.093 180.858 190.06 180.825C189.687 180.398 189.3 179.966 188.847 179.613C188.36 179.233 187.84 179.006 187.347 178.96C187.253 178.953 187.187 178.867 187.2 178.78C187.207 178.687 187.3 178.62 187.38 178.634C187.94 178.687 188.5 178.933 189.047 179.359C189.52 179.726 189.92 180.179 190.307 180.612C190.367 180.678 190.36 180.785 190.293 180.845C190.26 180.871 190.22 180.885 190.18 180.885L190.187 180.878Z" fill="#263238"/>
<path d="M216.941 187.985H191.127C190.681 187.985 190.321 187.692 190.327 187.332C190.327 187.265 190.341 187.199 190.367 187.132L201.847 160.832C202.134 160.079 203.001 159.566 203.981 159.566H229.807C230.247 159.566 230.601 159.853 230.601 160.199C230.601 160.272 230.587 160.346 230.554 160.412L219.074 186.713C218.781 187.458 217.921 187.971 216.941 187.978V187.985Z" fill="#263238"/>
<path opacity="0.7" d="M229.821 159.573H203.994C203.014 159.573 202.147 160.093 201.861 160.839L190.381 187.139C190.354 187.206 190.341 187.272 190.341 187.339C190.341 187.698 190.694 187.985 191.141 187.991H216.954C217.934 187.985 218.794 187.472 219.087 186.726L230.567 160.426C230.601 160.359 230.614 160.286 230.614 160.213C230.614 159.86 230.261 159.58 229.821 159.58V159.573Z" fill="white"/>
<path d="M213.82 174.365C213.26 175.63 212.133 176.496 211.287 176.316C210.447 176.143 210.22 174.991 210.76 173.725C211.3 172.46 212.447 171.614 213.287 171.787C214.127 171.96 214.38 173.066 213.813 174.365H213.82Z" fill="white"/>
<path opacity="0.3" d="M204.141 159.573H203.987C203.007 159.573 202.141 160.093 201.854 160.839L190.374 187.139C190.347 187.206 190.334 187.272 190.334 187.339C190.334 187.698 190.687 187.985 191.134 187.991H191.961L204.147 159.573H204.141Z" fill="black"/>
<path d="M165.86 187.984H192.734V186.173H167.674C166.674 186.173 165.86 186.985 165.86 187.984Z" fill="#263238"/>
<path opacity="0.7" d="M165.86 187.984H192.734V186.173H167.674C166.674 186.173 165.86 186.985 165.86 187.984Z" fill="white"/>
<path opacity="0.2" d="M185.833 160.326C185.547 160.086 187.507 175.131 187.507 175.131L190.173 173.366C190.173 173.366 186.127 160.566 185.84 160.326H185.833Z" fill="black"/>
<path d="M315.247 197.595H96.4473V298.68H315.247V197.595Z" fill="#263238"/>
<path opacity="0.4" d="M137.341 197.595H96.4473V298.68H137.341V197.595Z" fill="black"/>
<path opacity="0.3" d="M315.247 197.595H96.4473V200.938H315.247V197.595Z" fill="black"/>
<path d="M316.987 188.031H94.0068V197.602H316.987V188.031Z" fill="#263238"/>
<path opacity="0.4" d="M141.433 188.031H94.0068V197.602H141.433V188.031Z" fill="black"/>
<path opacity="0.3" d="M222.001 213.872H151.987V274.318H222.001V213.872Z" fill="black"/>
<path d="M218.994 217.615H154.994V270.576H218.994V217.615Z" fill="#263238"/>
<path opacity="0.3" d="M151.987 274.318L154.994 270.575H218.994L222.001 274.318H151.987Z" fill="white"/>
<path opacity="0.3" d="M151.987 213.872L155.014 217.588L218.994 217.615L222.001 213.872H151.987Z" fill="black"/>
<path opacity="0.3" d="M304.421 213.872H234.407V274.318H304.421V213.872Z" fill="black"/>
<path d="M301.414 217.615H237.414V270.576H301.414V217.615Z" fill="#263238"/>
<path opacity="0.3" d="M234.407 274.318L237.414 270.575H301.414L304.421 274.318H234.407Z" fill="white"/>
<path opacity="0.3" d="M234.407 213.872L237.434 217.588L301.414 217.615L304.421 213.872H234.407Z" fill="black"/>
</svg>
