<svg width="25" height="28" viewBox="0 0 25 28" fill="none" xmlns="http://www.w3.org/2000/svg">
<path d="M22.2222 2.8H16.4167C15.8333 1.176 14.3056 0 12.5 0C10.6944 0 9.16667 1.176 8.58333 2.8H2.77778C1.25 2.8 0 4.06 0 5.6V25.2C0 26.74 1.25 28 2.77778 28H22.2222C23.75 28 25 26.74 25 25.2V5.6C25 4.06 23.75 2.8 22.2222 2.8ZM12.5 2.8C13.2639 2.8 13.8889 3.43 13.8889 4.2C13.8889 4.97 13.2639 5.6 12.5 5.6C11.7361 5.6 11.1111 4.97 11.1111 4.2C11.1111 3.43 11.7361 2.8 12.5 2.8ZM9.72222 22.4L4.16667 16.8L6.125 14.826L9.72222 18.438L18.875 9.212L20.8333 11.2L9.72222 22.4Z" fill="white"/>
</svg>
