<svg width="800" height="800" viewBox="0 0 800 800" fill="none" xmlns="http://www.w3.org/2000/svg">
<path d="M594.432 562.048C612.624 531.328 596.032 478.256 580.464 454.304C562.544 426.752 530.976 414.992 501.504 406.064C464.32 394.864 443.04 386.384 428.992 346.16C416.624 310.752 411.616 273.088 395.68 239.232C363.104 170 309.68 99.744 227.472 124.944C152.08 148.064 106.832 225.744 148.16 299.344C183.04 361.472 265.248 311.168 276.816 395.584C287.6 474.208 198.096 541.936 249.248 616.384C300.128 690.448 369.84 579.776 424.288 549.552C459.248 530.144 464.576 576.752 492.336 592.928C525.872 612.432 571.424 600.928 594.432 562.048Z" fill="#66B8B0"/>
<path opacity="0.9" d="M594.432 562.048C612.624 531.328 596.032 478.256 580.464 454.304C562.544 426.752 530.976 414.992 501.504 406.064C464.32 394.864 443.04 386.384 428.992 346.16C416.624 310.752 411.616 273.088 395.68 239.232C363.104 170 309.68 99.744 227.472 124.944C152.08 148.064 106.832 225.744 148.16 299.344C183.04 361.472 265.248 311.168 276.816 395.584C287.6 474.208 198.096 541.936 249.248 616.384C300.128 690.448 369.84 579.776 424.288 549.552C459.248 530.144 464.576 576.752 492.336 592.928C525.872 612.432 571.424 600.928 594.432 562.048Z" fill="white"/>
<path d="M399.999 684.096C571.331 684.096 710.223 675.987 710.223 665.984C710.223 655.981 571.331 647.872 399.999 647.872C228.667 647.872 89.7754 655.981 89.7754 665.984C89.7754 675.987 228.667 684.096 399.999 684.096Z" fill="#F5F5F5"/>
<path d="M368.208 661.792C368.37 662.285 368.409 662.811 368.322 663.322C368.236 663.834 368.026 664.317 367.711 664.73C367.396 665.142 366.985 665.472 366.514 665.691C366.044 665.909 365.527 666.01 365.008 665.984H142.128C135.168 665.984 135.168 620.656 142.128 620.656H365.072C365.589 620.631 366.104 620.732 366.573 620.95C367.042 621.167 367.451 621.495 367.766 621.906C368.08 622.316 368.291 622.797 368.379 623.307C368.467 623.816 368.431 624.34 368.272 624.832C365.488 633.472 365.488 653.168 368.208 661.792Z" fill="#66B8B0"/>
<path opacity="0.8" d="M367.889 625.952H232.641C227.313 625.952 227.313 660.688 232.641 660.688H367.889C365.601 651.968 365.601 634.656 367.889 625.952Z" fill="white"/>
<path opacity="0.2" d="M225.904 661.792C226.066 662.285 226.105 662.811 226.018 663.322C225.932 663.834 225.722 664.317 225.407 664.73C225.092 665.142 224.681 665.472 224.21 665.691C223.74 665.909 223.223 666.01 222.704 665.984H142.128C135.168 665.984 135.168 620.656 142.128 620.656H222.768C223.285 620.631 223.8 620.732 224.269 620.95C224.738 621.167 225.147 621.495 225.462 621.906C225.776 622.316 225.987 622.797 226.075 623.307C226.163 623.816 226.127 624.34 225.968 624.832C223.184 633.472 223.184 653.168 225.904 661.792Z" fill="black"/>
<path d="M176.497 620.656H158.081C151.121 620.656 151.121 665.984 158.081 665.984H176.497C169.601 665.984 169.601 620.656 176.497 620.656Z" fill="#66B8B0"/>
<path d="M191.009 620.656H183.777C176.817 620.656 176.817 665.984 183.777 665.984H191.009C184.001 665.984 184.001 620.656 191.009 620.656Z" fill="#66B8B0"/>
<path d="M129.136 616.896C128.368 618.752 130.256 620.656 132.816 620.656H333.264C341.44 620.656 341.44 579.904 333.264 579.904H132.8C130.24 579.904 128.352 581.792 129.12 583.664C132.32 591.424 132.32 609.136 129.136 616.896Z" fill="#263238"/>
<path opacity="0.2" d="M129.136 616.896C128.368 618.752 130.256 620.656 132.816 620.656H231.104C239.28 620.656 239.28 579.904 231.104 579.904H132.8C130.24 579.904 128.352 581.792 129.12 583.664C132.32 591.424 132.32 609.136 129.136 616.896Z" fill="black"/>
<path opacity="0.8" d="M129.488 584.656H227.088C233.344 584.656 233.344 615.888 227.088 615.888H129.488C132.176 608 132.176 592.496 129.488 584.656Z" fill="white"/>
<path opacity="0.2" d="M259.504 588.992C258.896 587.184 260.656 585.424 263.088 585.424H319.2C325.152 585.424 325.152 615.12 319.2 615.12H263.088C260.656 615.12 258.896 613.376 259.504 611.568C261.424 604.165 261.424 596.395 259.504 588.992Z" fill="white"/>
<path d="M665.168 598.704C665.346 599.245 665.396 599.82 665.317 600.384C665.237 600.947 665.03 601.485 664.71 601.957C664.39 602.428 663.967 602.819 663.472 603.102C662.977 603.384 662.425 603.549 661.856 603.584H426.336C418.976 603.584 418.976 550.784 426.336 550.784H661.856C662.416 550.822 662.959 550.986 663.446 551.264C663.933 551.541 664.351 551.925 664.669 552.386C664.987 552.847 665.197 553.374 665.284 553.928C665.37 554.482 665.331 555.048 665.168 555.584C662.304 565.744 662.304 588.672 665.168 598.704Z" fill="#66B8B0"/>
<path opacity="0.5" d="M665.168 598.704C665.346 599.245 665.396 599.82 665.317 600.384C665.237 600.947 665.03 601.485 664.71 601.957C664.39 602.428 663.967 602.819 663.472 603.102C662.977 603.384 662.425 603.549 661.856 603.584H426.336C418.976 603.584 418.976 550.784 426.336 550.784H661.856C662.416 550.822 662.959 550.986 663.446 551.264C663.933 551.541 664.351 551.925 664.669 552.386C664.987 552.847 665.197 553.374 665.284 553.928C665.37 554.482 665.331 555.048 665.168 555.584C662.304 565.744 662.304 588.672 665.168 598.704Z" fill="white"/>
<path opacity="0.8" d="M664.849 556.992H521.953C516.321 556.992 516.321 597.408 521.953 597.408H664.849C662.401 587.28 662.401 567.136 664.849 556.992Z" fill="white"/>
<path opacity="0.6" d="M514.832 598.704C515.009 599.245 515.06 599.82 514.981 600.384C514.901 600.947 514.694 601.485 514.374 601.957C514.054 602.428 513.631 602.819 513.136 603.102C512.641 603.384 512.089 603.549 511.52 603.584H426.336C418.976 603.584 418.976 550.784 426.336 550.784H511.52C512.08 550.822 512.623 550.986 513.11 551.264C513.597 551.541 514.015 551.925 514.333 552.386C514.651 552.847 514.861 553.374 514.948 553.928C515.034 554.482 514.995 555.048 514.832 555.584C512 565.744 512 588.672 514.832 598.704Z" fill="#66B8B0"/>
<path opacity="0.5" d="M480.273 554.736C480.44 554.323 480.507 553.876 480.47 553.432C480.433 552.987 480.292 552.558 480.058 552.178C479.825 551.799 479.506 551.479 479.126 551.245C478.746 551.011 478.317 550.87 477.873 550.832H445.393C438.033 550.832 438.033 603.632 445.393 603.632H477.873C478.318 603.592 478.747 603.448 479.126 603.213C479.506 602.977 479.825 602.656 480.058 602.275C480.291 601.894 480.432 601.464 480.469 601.019C480.507 600.574 480.44 600.126 480.273 599.712C476.993 589.904 476.993 564.512 480.273 554.736Z" fill="white"/>
<path d="M648.271 660.176C648.461 660.878 648.481 661.614 648.329 662.325C648.177 663.036 647.858 663.7 647.398 664.263C646.938 664.826 646.351 665.272 645.685 665.563C645.019 665.853 644.293 665.981 643.567 665.936H398.863C388.415 665.936 388.399 603.536 398.863 603.536H643.663C644.389 603.49 645.115 603.618 645.781 603.909C646.447 604.2 647.034 604.646 647.494 605.208C647.954 605.771 648.273 606.436 648.425 607.147C648.577 607.857 648.557 608.594 648.367 609.296C644.191 621.184 644.207 648.304 648.271 660.176Z" fill="#66B8B0"/>
<path opacity="0.2" d="M648.271 660.176C648.461 660.878 648.481 661.614 648.329 662.325C648.177 663.036 647.858 663.7 647.398 664.263C646.938 664.826 646.351 665.272 645.685 665.563C645.019 665.853 644.293 665.981 643.567 665.936H398.863C388.415 665.936 388.399 603.536 398.863 603.536H643.663C644.389 603.49 645.115 603.618 645.781 603.909C646.447 604.2 647.034 604.646 647.494 605.208C647.954 605.771 648.273 606.436 648.425 607.147C648.577 607.857 648.557 608.594 648.367 609.296C644.191 621.184 644.207 648.304 648.271 660.176Z" fill="white"/>
<path opacity="0.8" d="M647.792 610.832H499.84C491.84 610.832 491.84 658.64 499.84 658.64H647.808C644.384 646.656 644.384 622.832 647.792 610.832Z" fill="white"/>
<path opacity="0.6" d="M489.727 660.208C489.92 660.909 489.943 661.645 489.793 662.356C489.643 663.067 489.326 663.732 488.867 664.296C488.409 664.859 487.822 665.305 487.156 665.596C486.49 665.887 485.765 666.014 485.039 665.968H398.863C388.415 665.968 388.399 603.568 398.863 603.568H485.039C485.765 603.523 486.491 603.651 487.157 603.941C487.823 604.232 488.41 604.678 488.87 605.241C489.33 605.804 489.649 606.468 489.801 607.179C489.953 607.89 489.933 608.626 489.743 609.328C485.663 621.216 485.663 648.32 489.727 660.208Z" fill="#66B8B0"/>
<path opacity="0.5" d="M438.111 605.744C438.245 605.515 438.313 605.255 438.308 604.99C438.303 604.725 438.225 604.467 438.082 604.244C437.94 604.021 437.739 603.841 437.502 603.725C437.264 603.608 436.999 603.56 436.735 603.584H422.095C411.663 603.584 411.663 665.984 422.095 665.984H436.799C437.063 666.008 437.328 665.96 437.566 665.843C437.803 665.727 438.004 665.547 438.146 665.324C438.289 665.101 438.367 664.843 438.372 664.578C438.377 664.313 438.309 664.053 438.175 663.824C431.823 654.176 431.823 615.376 438.111 605.744Z" fill="white"/>
<path opacity="0.5" d="M460.961 605.744C461.093 605.514 461.159 605.253 461.154 604.988C461.148 604.723 461.07 604.465 460.929 604.241C460.787 604.018 460.587 603.837 460.351 603.718C460.114 603.599 459.849 603.547 459.585 603.568H444.945C434.513 603.568 434.513 665.968 444.945 665.968H459.585C459.847 665.989 460.11 665.938 460.345 665.82C460.581 665.702 460.779 665.522 460.919 665.3C461.059 665.077 461.136 664.821 461.141 664.558C461.145 664.295 461.077 664.035 460.945 663.808C454.673 654.176 454.673 615.36 460.961 605.744Z" fill="white"/>
<path d="M645.873 517.632C645.59 513.188 644.545 508.826 642.785 504.736L644.225 504.032C646.054 508.296 647.137 512.842 647.425 517.472L645.873 517.632Z" fill="#66B8B0"/>
<path d="M635.84 497.808H596.096V499.408H635.84V497.808Z" fill="#66B8B0"/>
<path d="M376.817 546.464C376.001 548.64 378.001 550.832 380.705 550.832H635.841C644.465 550.832 644.465 503.408 635.841 503.408H380.705C378.001 503.408 376.001 505.616 376.817 507.792C380.177 516.8 380.177 537.424 376.817 546.464Z" fill="#66B8B0"/>
<path opacity="0.2" d="M376.817 546.464C376.001 548.64 378.001 550.832 380.705 550.832H527.905C536.545 550.832 536.545 503.408 527.905 503.408H380.705C378.001 503.408 376.001 505.616 376.817 507.792C380.177 516.8 380.177 537.424 376.817 546.464Z" fill="black"/>
<path opacity="0.8" d="M377.201 508.96H523.633C530.257 508.96 530.257 545.296 523.633 545.296H377.201C380.033 536.176 380.033 518.08 377.201 508.96Z" fill="white"/>
<path opacity="0.2" d="M557.904 513.984C557.264 511.888 559.12 509.856 561.68 509.856H620.976C627.264 509.856 627.264 544.4 620.976 544.4H561.68C559.12 544.4 557.264 542.368 557.904 540.256C560 533.616 560 520.64 557.904 513.984Z" fill="white"/>
<path d="M352.959 156.8C345.743 164.528 328.127 156.8 325.439 178.08C322.527 201.024 333.567 212.048 319.311 218.08C296.911 227.44 280.911 264.848 312.015 278.88C343.119 292.912 409.359 278.208 401.903 249.616C394.447 221.024 395.919 205.68 404.719 192.208C416.319 174.4 413.839 151.52 404.383 143.232C389.663 130.272 369.327 139.2 352.959 156.8Z" fill="#263238"/>
<path d="M391.456 248.848C391.334 248.853 391.215 248.811 391.123 248.73C391.031 248.65 390.973 248.538 390.96 248.416C390.949 248.352 390.951 248.286 390.966 248.222C390.981 248.159 391.009 248.099 391.048 248.046C391.087 247.994 391.136 247.95 391.192 247.917C391.249 247.885 391.312 247.864 391.376 247.856C397.552 247.008 401.232 245.488 402.96 243.056C405.104 240.032 404.176 235.536 402.96 229.84C401.072 220.576 398.464 207.888 406.784 191.856C416.88 172.416 413.184 151.104 403.728 144.128C403.623 144.051 403.552 143.936 403.531 143.807C403.51 143.678 403.541 143.546 403.616 143.44C403.696 143.334 403.814 143.262 403.946 143.241C404.077 143.22 404.212 143.252 404.32 143.328C414.176 150.544 417.984 172.432 407.664 192.32C399.52 208.032 402.08 220.528 403.936 229.648C405.152 235.568 406.112 240.256 403.712 243.632C401.824 246.304 397.936 247.952 391.472 248.848H391.456Z" fill="#263238"/>
<path d="M310.785 221.136C309.774 221.132 308.764 221.068 307.761 220.944C307.695 220.936 307.632 220.915 307.575 220.883C307.518 220.85 307.468 220.807 307.428 220.755C307.387 220.702 307.358 220.643 307.341 220.579C307.324 220.516 307.32 220.449 307.329 220.384C307.337 220.319 307.358 220.256 307.39 220.198C307.423 220.141 307.466 220.091 307.518 220.051C307.57 220.01 307.63 219.981 307.694 219.964C307.757 219.947 307.824 219.943 307.889 219.952C312.433 220.512 315.729 219.84 317.953 217.888C322.113 214.224 322.177 206.56 322.225 197.68C322.225 187.632 322.369 176.256 328.881 168.496C328.923 168.446 328.974 168.404 329.033 168.373C329.091 168.343 329.154 168.324 329.22 168.318C329.285 168.312 329.351 168.319 329.414 168.339C329.476 168.358 329.534 168.39 329.585 168.432C329.635 168.474 329.677 168.526 329.707 168.584C329.738 168.642 329.757 168.705 329.763 168.771C329.769 168.836 329.762 168.902 329.742 168.965C329.723 169.027 329.691 169.086 329.649 169.136C323.361 176.624 323.249 187.808 323.249 197.696C323.249 206.8 323.137 214.672 318.641 218.64C316.424 220.421 313.623 221.311 310.785 221.136Z" fill="#263238"/>
<path d="M467.823 503.376C457.151 503.248 452.959 502.576 448.047 502.656C443.135 502.736 441.967 503.6 436.847 503.376C433.391 503.232 433.375 499.12 434.703 496.304C435.743 494.096 437.023 491.872 438.207 489.12L451.743 490.112C453.567 495.264 462.623 497.472 470.559 499.296C473.711 500.048 472.095 503.424 467.823 503.376Z" fill="#66B8B0"/>
<path d="M397.249 306.816C397.249 306.816 433.057 337.616 469.249 370.288C484.545 384.128 452.465 489.648 452.465 489.648C451.793 491.904 439.857 488.688 438.065 486.912C438.065 486.912 436.241 405.008 444.001 388.512C363.745 368.224 351.201 328.816 351.201 328.816L356.961 304.368L397.249 306.816Z" fill="#263238"/>
<path opacity="0.2" d="M356.496 338.528C360.988 344.807 366.312 350.448 372.32 355.296C380.32 345.936 378.08 330.816 378.08 330.816L356.496 338.528Z" fill="black"/>
<path d="M455.249 485.088C455.025 486.688 454.641 489.52 454.433 491.616C454.4 491.956 454.24 492.27 453.985 492.496C453.729 492.722 453.397 492.842 453.057 492.832C447.702 492.412 442.399 491.491 437.217 490.08C436.967 490.011 436.746 489.863 436.588 489.658C436.429 489.454 436.341 489.203 436.337 488.944L436.225 483.104C436.224 482.914 436.263 482.726 436.339 482.552C436.415 482.378 436.527 482.222 436.667 482.094C436.807 481.966 436.973 481.869 437.153 481.808C437.333 481.748 437.524 481.726 437.713 481.744L454.225 483.744C454.382 483.762 454.533 483.811 454.671 483.889C454.808 483.966 454.928 484.071 455.024 484.197C455.12 484.323 455.189 484.466 455.228 484.62C455.266 484.773 455.273 484.932 455.249 485.088Z" fill="#263238"/>
<path opacity="0.3" d="M455.249 485.088C455.025 486.688 454.641 489.52 454.433 491.616C454.4 491.956 454.24 492.27 453.985 492.496C453.729 492.722 453.397 492.842 453.057 492.832C447.702 492.412 442.399 491.491 437.217 490.08C436.967 490.011 436.746 489.863 436.588 489.658C436.429 489.454 436.341 489.203 436.337 488.944L436.225 483.104C436.224 482.914 436.263 482.726 436.339 482.552C436.415 482.378 436.527 482.222 436.667 482.094C436.807 481.966 436.973 481.869 437.153 481.808C437.333 481.748 437.524 481.726 437.713 481.744L454.225 483.744C454.382 483.762 454.533 483.811 454.671 483.889C454.808 483.966 454.928 484.071 455.024 484.197C455.12 484.323 455.189 484.466 455.228 484.62C455.266 484.773 455.273 484.932 455.249 485.088Z" fill="white"/>
<path d="M311.152 579.904C300.304 579.904 296.752 575.824 290.688 574.704C285.568 573.744 284.208 574.192 280.08 573.472C276.624 572.864 276.352 570.496 278.48 566.992C279.869 564.569 281.046 562.032 282 559.408L298.448 560.496C300.16 564.896 304.112 573.84 310.144 574.896C315.824 576 315.472 579.904 311.152 579.904Z" fill="#66B8B0"/>
<path d="M394.768 306.72C394.768 306.72 356.928 374 341.696 415.616C325.696 459.328 300.224 530.816 298.384 560.496C295.664 561.792 286.736 561.296 281.936 559.408C281.936 559.408 277.488 457.008 308.288 415.984C315.632 328.128 327.824 314.08 340.784 303.376L394.768 306.72Z" fill="#263238"/>
<path d="M300.369 554.432C300.172 556.458 300.119 558.495 300.209 560.528C300.231 560.882 300.112 561.23 299.878 561.497C299.644 561.764 299.314 561.927 298.961 561.952C292.833 562.512 284.289 560.544 281.585 559.872C281.333 559.809 281.11 559.665 280.948 559.463C280.786 559.261 280.695 559.011 280.689 558.752L280.481 553.024C280.478 552.836 280.514 552.649 280.588 552.475C280.661 552.302 280.769 552.145 280.906 552.016C281.043 551.887 281.205 551.787 281.383 551.724C281.56 551.66 281.749 551.635 281.937 551.648L299.281 553.136C299.438 553.148 299.591 553.191 299.731 553.263C299.871 553.335 299.996 553.434 300.097 553.555C300.198 553.676 300.275 553.816 300.321 553.966C300.368 554.117 300.384 554.275 300.369 554.432Z" fill="#263238"/>
<path opacity="0.3" d="M300.369 554.432C300.172 556.458 300.119 558.495 300.209 560.528C300.231 560.882 300.112 561.23 299.878 561.497C299.644 561.764 299.314 561.927 298.961 561.952C292.833 562.512 284.289 560.544 281.585 559.872C281.333 559.809 281.11 559.665 280.948 559.463C280.786 559.261 280.695 559.011 280.689 558.752L280.481 553.024C280.478 552.836 280.514 552.649 280.588 552.475C280.661 552.302 280.769 552.145 280.906 552.016C281.043 551.887 281.205 551.787 281.383 551.724C281.56 551.66 281.749 551.635 281.937 551.648L299.281 553.136C299.438 553.148 299.591 553.191 299.731 553.263C299.871 553.335 299.996 553.434 300.097 553.555C300.198 553.676 300.275 553.816 300.321 553.966C300.368 554.117 300.384 554.275 300.369 554.432Z" fill="white"/>
<path d="M404.8 240.72C406.4 243.744 408.128 247.12 409.888 250.32C411.648 253.52 413.424 256.72 415.216 259.84C418.832 266.128 422.608 272.288 426.656 278.096L424.48 276.16C426.086 277.289 427.856 278.163 429.728 278.752C431.993 279.512 434.315 280.089 436.672 280.48C439.136 280.928 441.696 281.232 444.304 281.472C446.912 281.712 449.648 281.856 452.144 282.016H452.48C453.519 282.076 454.506 282.495 455.269 283.203C456.032 283.911 456.526 284.862 456.664 285.894C456.802 286.926 456.577 287.973 456.026 288.857C455.476 289.741 454.635 290.405 453.648 290.736C450.789 291.687 447.864 292.425 444.896 292.944C441.914 293.474 438.899 293.8 435.872 293.92C432.661 294.043 429.446 293.85 426.272 293.344C422.691 292.804 419.228 291.657 416.032 289.952C415.368 289.589 414.777 289.106 414.288 288.528L413.856 288.016C411.312 284.976 408.832 281.872 406.56 278.688C404.288 275.504 402.064 272.288 400 269.088C397.936 265.888 395.936 262.48 394.048 259.104C392.16 255.728 390.368 252.384 388.656 248.688C387.757 246.588 387.695 244.224 388.481 242.079C389.267 239.934 390.843 238.17 392.887 237.149C394.93 236.127 397.286 235.924 399.474 236.582C401.662 237.24 403.515 238.709 404.656 240.688L404.8 240.72Z" fill="#FFB573"/>
<path d="M395.968 227.808C406.416 231.248 408.112 235.936 413.84 253.248C410.032 263.632 394.64 268.896 394.64 268.896C394.64 268.896 376.464 239.296 395.968 227.808Z" fill="#66B8B0"/>
<path d="M410.272 250.336C409.68 256.064 408.208 262.896 405.12 276.32C402.72 287.712 402.688 309.92 398.848 311.088C391.472 314.736 373.008 313.328 340.784 303.376C341.808 286.736 343.744 275.44 338.208 237.264C337.86 235.263 337.962 233.209 338.508 231.252C339.053 229.295 340.028 227.484 341.361 225.952C342.695 224.419 344.353 223.203 346.215 222.392C348.078 221.581 350.098 221.196 352.128 221.264C354.464 221.264 356.928 221.456 359.44 221.68C368.302 222.213 377.115 223.384 385.808 225.184C388.64 225.824 391.568 226.576 394.352 227.344C399.255 228.744 403.521 231.801 406.424 235.993C409.327 240.185 410.687 245.254 410.272 250.336Z" fill="#66B8B0"/>
<path d="M297.472 316.512L300.672 313.584C301.268 313.04 301.724 312.36 302.002 311.603C302.281 310.846 302.373 310.033 302.272 309.232L301.392 301.6C301.224 300.1 300.7 298.662 299.866 297.404C299.031 296.146 297.909 295.106 296.592 294.368L294.992 293.456C289.28 297.952 286.416 307.008 286.416 307.008L285.312 309.504C285.069 310.009 284.929 310.556 284.9 311.116C284.871 311.675 284.954 312.234 285.143 312.761C285.332 313.288 285.624 313.773 286.002 314.186C286.38 314.599 286.836 314.933 287.344 315.168L292.256 317.408C293.119 317.776 294.071 317.887 294.996 317.729C295.921 317.57 296.781 317.147 297.472 316.512Z" fill="#FFB573"/>
<path d="M465.425 278.08L461.329 276.48C460.571 276.194 459.755 276.093 458.951 276.188C458.146 276.283 457.376 276.569 456.705 277.024L450.305 281.312C449.049 282.157 448.014 283.291 447.287 284.619C446.56 285.947 446.163 287.43 446.129 288.944V290.848C452.737 293.856 462.129 292.224 462.129 292.224L464.849 292.064C465.409 292.045 465.959 291.916 466.469 291.684C466.978 291.451 467.437 291.12 467.817 290.71C468.198 290.299 468.494 289.817 468.687 289.292C468.881 288.766 468.968 288.208 468.945 287.648L468.689 282.256C468.615 281.316 468.266 280.419 467.686 279.677C467.105 278.934 466.319 278.379 465.425 278.08Z" fill="#FFB573"/>
<path d="M347.744 242.416L345.696 243.36L343.456 244.384C341.968 245.104 340.496 245.856 339.024 246.624C336.064 248.224 333.184 249.824 330.352 251.504C327.52 253.184 324.784 255.056 322.128 256.96C319.472 258.864 317.008 260.944 314.608 263.072L315.664 261.728C314.884 262.876 314.199 264.085 313.616 265.344C312.912 266.8 312.256 268.384 311.616 270C310.336 273.2 309.088 276.624 307.936 280.064C306.784 283.504 305.616 286.992 304.48 290.48L301.024 300.992C300.689 302.025 299.991 302.9 299.059 303.457C298.126 304.013 297.024 304.212 295.956 304.016C294.888 303.82 293.928 303.244 293.253 302.393C292.579 301.543 292.236 300.476 292.288 299.392C292.464 295.536 292.816 291.792 293.248 288.016C293.68 284.24 294.224 280.48 294.848 276.704C295.472 272.928 296.288 269.136 297.328 265.296C297.84 263.376 298.4 261.456 299.104 259.44C299.848 257.221 300.802 255.078 301.952 253.04C302.154 252.706 302.384 252.39 302.64 252.096L303.024 251.696C305.66 248.79 308.482 246.059 311.472 243.52C314.42 241.015 317.507 238.681 320.72 236.528C323.891 234.379 327.176 232.402 330.56 230.608C332.256 229.712 333.968 228.864 335.712 228.032C336.592 227.632 337.456 227.216 338.368 226.832C339.28 226.448 340.112 226.112 341.248 225.68C343.427 224.809 345.861 224.829 348.026 225.736C350.19 226.643 351.911 228.364 352.818 230.528C353.725 232.693 353.745 235.127 352.873 237.306C352.002 239.484 350.31 241.234 348.16 242.176L347.744 242.416Z" fill="#FFB573"/>
<path d="M363.2 225.424C355.36 219.808 350.592 219.2 331.616 227.44C329.36 239.376 336.752 256.896 336.752 256.896C336.752 256.896 362 243.744 363.2 225.424Z" fill="#66B8B0"/>
<path d="M365.248 192.176C366.416 200.96 367.168 216.88 360.896 221.808C360.896 221.808 369.088 221.664 384.752 234.48C390.624 228.08 387.264 225.312 387.264 225.312C377.936 221.776 378.592 214.72 380.624 208.272L365.248 192.176Z" fill="#FFB573"/>
<path d="M381.44 231.888C375.728 231.888 372.832 240.192 372.832 240.192C372.832 240.192 359.104 229.248 357.232 221.552C359.055 220.817 360.839 219.989 362.576 219.072C362.576 219.072 378.592 228.208 381.44 231.888Z" fill="white"/>
<path d="M386.913 231.68C386.913 231.68 391.233 233.28 392.657 239.68C395.585 227.488 389.873 225.568 389.873 225.568C388.442 224.495 386.662 223.993 384.881 224.16C386.049 224.975 386.892 226.176 387.264 227.551C387.636 228.926 387.511 230.388 386.913 231.68Z" fill="white"/>
<path opacity="0.2" d="M371.52 198.736L380.608 208.336C380.113 209.837 379.754 211.379 379.536 212.944C375.952 211.936 371.216 207.28 371.056 203.344C370.926 201.793 371.083 200.23 371.52 198.736Z" fill="black"/>
<path d="M355.392 179.392C358.592 193.056 359.76 198.896 367.968 205.136C380.304 214.512 396.32 208.432 397.184 194.288C397.952 181.488 392.48 161.328 377.984 157.488C374.912 156.565 371.649 156.478 368.533 157.237C365.417 157.996 362.559 159.574 360.256 161.807C357.954 164.039 356.289 166.846 355.433 169.938C354.578 173.029 354.564 176.293 355.392 179.392Z" fill="#FFB573"/>
<path d="M358.063 189.216C363.087 186.752 368.415 174.64 361.263 168.912C367.167 170.016 373.935 168.432 380.191 163.6C388.351 157.2 400.367 173.088 396.415 163.76C390.719 150.32 373.551 146.96 358.015 158.128C342.479 169.296 343.583 182.88 358.063 189.216Z" fill="#263238"/>
<path d="M353.809 186.48C353.754 186.475 353.703 186.452 353.662 186.415C353.622 186.378 353.594 186.329 353.583 186.276C353.572 186.222 353.579 186.166 353.602 186.116C353.626 186.067 353.664 186.026 353.713 186C357.713 184.272 374.689 180.656 375.409 180.512C375.441 180.503 375.475 180.5 375.509 180.505C375.543 180.51 375.575 180.521 375.604 180.54C375.633 180.558 375.657 180.582 375.676 180.61C375.695 180.638 375.707 180.67 375.713 180.704C375.722 180.767 375.708 180.832 375.673 180.885C375.637 180.939 375.583 180.977 375.521 180.992C375.345 180.992 357.921 184.752 353.905 186.464L353.809 186.48Z" fill="white"/>
<path opacity="0.2" d="M374.4 180.8C372.685 180.046 370.741 180 368.992 180.672C370.769 181.065 372.606 181.109 374.4 180.8Z" fill="black"/>
<path opacity="0.2" d="M374.257 182.016C373.425 181.84 372.564 181.848 371.735 182.039C370.906 182.229 370.129 182.598 369.457 183.12C371.117 183.094 372.752 182.717 374.257 182.016Z" fill="black"/>
<path d="M377.376 180.608C377.6 181.776 378.384 182.64 379.136 182.544C379.888 182.448 380.304 181.44 380.08 180.272C379.856 179.104 379.056 178.256 378.32 178.336C377.584 178.416 377.152 179.456 377.376 180.608Z" fill="#263238"/>
<path d="M391.424 179.088C391.648 180.24 392.448 181.104 393.184 181.024C393.92 180.944 394.352 179.904 394.128 178.752C393.904 177.6 393.12 176.72 392.368 176.816C391.616 176.912 391.2 177.92 391.424 179.088Z" fill="#263238"/>
<path d="M392 176.928L394.592 175.776C394.592 175.776 393.6 178.128 392 176.928Z" fill="#263238"/>
<path d="M388.801 181.312C390.186 183.922 391.895 186.347 393.889 188.528C393.343 188.986 392.703 189.317 392.014 189.497C391.325 189.677 390.604 189.701 389.905 189.568L388.801 181.312Z" fill="#ED893E"/>
<path d="M383.761 194.736C384.405 194.791 385.052 194.791 385.697 194.736C385.74 194.73 385.783 194.716 385.821 194.693C385.858 194.67 385.891 194.64 385.917 194.604C385.942 194.568 385.96 194.527 385.969 194.483C385.978 194.44 385.978 194.395 385.969 194.352C385.953 194.26 385.903 194.178 385.829 194.121C385.754 194.065 385.661 194.039 385.569 194.048C384.12 194.223 382.651 194.075 381.268 193.613C379.884 193.15 378.621 192.387 377.569 191.376C377.537 191.344 377.5 191.319 377.459 191.301C377.418 191.284 377.373 191.275 377.329 191.275C377.284 191.275 377.24 191.284 377.198 191.301C377.157 191.319 377.12 191.344 377.089 191.376C377.028 191.441 376.994 191.527 376.994 191.616C376.994 191.705 377.028 191.791 377.089 191.856C378.888 193.596 381.26 194.62 383.761 194.736Z" fill="#263238"/>
<path d="M352.144 191.632C352.915 192.732 353.906 193.66 355.055 194.357C356.203 195.054 357.484 195.504 358.816 195.68C362.144 195.952 362.864 192.08 361.168 188.64C359.648 185.552 356.08 181.664 353.168 183.008C350.256 184.352 349.984 188.8 352.144 191.632Z" fill="#FFB573"/>
<path d="M372.881 171.792C372.97 171.792 373.058 171.772 373.139 171.733C373.219 171.694 373.29 171.638 373.345 171.568C373.86 170.909 374.529 170.387 375.294 170.05C376.059 169.712 376.895 169.568 377.729 169.632C377.816 169.645 377.904 169.641 377.989 169.619C378.074 169.597 378.153 169.558 378.222 169.504C378.291 169.45 378.348 169.382 378.39 169.305C378.432 169.228 378.457 169.143 378.465 169.056C378.472 168.872 378.413 168.692 378.299 168.548C378.184 168.404 378.022 168.306 377.841 168.272C376.788 168.179 375.729 168.348 374.757 168.764C373.786 169.18 372.932 169.83 372.273 170.656C372.196 170.765 372.15 170.894 372.142 171.027C372.134 171.161 372.163 171.294 372.226 171.412C372.289 171.53 372.384 171.628 372.499 171.695C372.615 171.762 372.747 171.796 372.881 171.792Z" fill="#263238"/>
<path d="M394.017 171.2C394.102 171.21 394.189 171.202 394.271 171.177C394.354 171.152 394.43 171.111 394.497 171.056C394.56 170.993 394.611 170.919 394.646 170.836C394.68 170.754 394.698 170.665 394.698 170.576C394.698 170.487 394.68 170.398 394.646 170.316C394.611 170.233 394.56 170.159 394.497 170.096C393.805 169.228 392.923 168.531 391.919 168.059C390.914 167.587 389.814 167.353 388.705 167.376C388.616 167.383 388.53 167.409 388.453 167.452C388.375 167.495 388.307 167.554 388.254 167.625C388.201 167.696 388.164 167.778 388.145 167.865C388.126 167.951 388.126 168.041 388.145 168.128C388.172 168.309 388.266 168.473 388.408 168.588C388.55 168.704 388.73 168.762 388.913 168.752C389.792 168.743 390.662 168.935 391.456 169.315C392.249 169.695 392.945 170.253 393.489 170.944C393.552 171.023 393.633 171.087 393.724 171.131C393.815 171.175 393.915 171.199 394.017 171.2Z" fill="#263238"/>
<path d="M381.712 187.856C378.336 187.856 375.408 184.272 375.088 179.68C374.894 177.517 375.393 175.349 376.512 173.488C376.954 172.699 377.578 172.028 378.332 171.529C379.086 171.031 379.949 170.721 380.848 170.624C384.384 170.384 387.488 174.048 387.824 178.8C388.16 183.552 385.552 187.6 382.048 187.84L381.712 187.856ZM381.184 171.2H380.896C380.073 171.294 379.284 171.583 378.594 172.042C377.904 172.501 377.333 173.117 376.928 173.84C375.865 175.61 375.395 177.672 375.584 179.728C375.888 184.192 378.784 187.632 381.984 187.424C385.184 187.216 387.6 183.376 387.296 178.912C386.992 174.448 384.304 171.2 381.184 171.2Z" fill="white"/>
<path d="M396.672 186.992C393.296 186.992 390.352 183.424 390.032 178.832C389.846 176.67 390.344 174.504 391.456 172.64C391.902 171.851 392.529 171.179 393.286 170.681C394.043 170.183 394.907 169.873 395.808 169.776C399.312 169.536 402.448 173.2 402.768 177.936C402.954 180.098 402.456 182.264 401.344 184.128C400.901 184.919 400.274 185.592 399.517 186.09C398.76 186.588 397.894 186.898 396.992 186.992H396.672ZM396.144 170.272H395.84C395.017 170.366 394.228 170.655 393.538 171.114C392.848 171.573 392.277 172.189 391.872 172.912C390.824 174.688 390.354 176.745 390.528 178.8C390.832 183.12 393.552 186.496 396.672 186.496H396.96C397.785 186.405 398.575 186.118 399.266 185.659C399.956 185.2 400.526 184.581 400.928 183.856C401.982 182.089 402.452 180.034 402.272 177.984C401.968 173.648 399.248 170.272 396.144 170.272Z" fill="white"/>
<path d="M390.399 179.488C390.357 179.486 390.315 179.473 390.279 179.45C390.243 179.428 390.213 179.397 390.191 179.36C389.583 178.4 387.807 179.44 387.791 179.44C387.764 179.457 387.734 179.469 387.702 179.475C387.67 179.48 387.638 179.479 387.606 179.471C387.575 179.464 387.546 179.45 387.52 179.431C387.494 179.412 387.472 179.388 387.455 179.36C387.415 179.313 387.393 179.254 387.393 179.192C387.393 179.13 387.415 179.071 387.455 179.024C387.551 179.024 389.663 177.712 390.527 179.024C390.547 179.05 390.561 179.081 390.568 179.113C390.575 179.145 390.574 179.179 390.567 179.211C390.559 179.243 390.544 179.273 390.524 179.299C390.503 179.325 390.477 179.345 390.447 179.36C390.448 179.383 390.445 179.407 390.436 179.429C390.428 179.451 390.416 179.471 390.399 179.488Z" fill="white"/>
<path d="M378 178.448L380.576 177.312C380.576 177.312 379.6 179.664 378 178.448Z" fill="#263238"/>
</svg>
