<svg width="440" height="440" viewBox="0 0 440 440" fill="none" xmlns="http://www.w3.org/2000/svg">
<path d="M326.938 309.127C336.943 292.231 327.818 263.041 319.255 249.867C309.399 234.714 292.037 228.246 275.827 223.335C255.376 217.175 243.672 212.511 235.946 190.388C229.143 170.914 226.389 150.199 217.624 131.578C199.707 93.5001 170.324 54.8593 125.11 68.7193C83.644 81.4353 58.7576 124.159 81.488 164.639C100.672 198.81 145.886 171.143 152.249 217.571C158.18 260.815 108.953 298.065 137.086 339.011C165.07 379.747 203.412 318.877 233.358 302.254C252.586 291.579 255.517 317.214 270.785 326.111C289.23 336.838 314.283 330.511 326.938 309.127Z" fill="#66B8B0"/>
<path opacity="0.9" d="M326.938 309.127C336.943 292.231 327.818 263.041 319.255 249.867C309.399 234.714 292.037 228.246 275.827 223.335C255.376 217.175 243.672 212.511 235.946 190.388C229.143 170.914 226.389 150.199 217.624 131.578C199.707 93.5001 170.324 54.8593 125.11 68.7193C83.644 81.4353 58.7576 124.159 81.488 164.639C100.672 198.81 145.886 171.143 152.249 217.571C158.18 260.815 108.953 298.065 137.086 339.011C165.07 379.747 203.412 318.877 233.358 302.254C252.586 291.579 255.517 317.214 270.785 326.111C289.23 336.838 314.283 330.511 326.938 309.127Z" fill="white"/>
<path d="M220 376.253C314.232 376.253 390.623 371.793 390.623 366.292C390.623 360.79 314.232 356.33 220 356.33C125.767 356.33 49.3767 360.79 49.3767 366.292C49.3767 371.793 125.767 376.253 220 376.253Z" fill="#F5F5F5"/>
<path d="M202.515 363.985C202.603 364.257 202.625 364.545 202.577 364.827C202.53 365.108 202.414 365.374 202.241 365.601C202.068 365.828 201.842 366.009 201.583 366.129C201.324 366.25 201.04 366.305 200.755 366.291H78.1706C74.3426 366.291 74.3426 341.36 78.1706 341.36H200.79C201.074 341.347 201.357 341.402 201.615 341.522C201.873 341.642 202.098 341.822 202.271 342.048C202.444 342.274 202.56 342.538 202.608 342.818C202.657 343.099 202.637 343.386 202.55 343.657C201.019 348.409 201.019 359.242 202.515 363.985Z" fill="#66B8B0"/>
<path opacity="0.8" d="M202.339 344.273H127.952C125.022 344.273 125.022 363.378 127.952 363.378H202.339C201.08 358.582 201.08 349.061 202.339 344.273Z" fill="white"/>
<path opacity="0.2" d="M124.247 363.985C124.336 364.257 124.358 364.545 124.31 364.827C124.262 365.108 124.147 365.374 123.974 365.601C123.801 365.828 123.575 366.009 123.316 366.129C123.057 366.25 122.772 366.305 122.487 366.291H78.1706C74.3426 366.291 74.3426 341.36 78.1706 341.36H122.523C122.807 341.347 123.09 341.402 123.348 341.522C123.606 341.642 123.831 341.822 124.004 342.048C124.177 342.274 124.293 342.538 124.341 342.818C124.39 343.099 124.37 343.386 124.283 343.657C122.751 348.409 122.751 359.242 124.247 363.985Z" fill="black"/>
<path d="M97.0728 341.36H86.944C83.116 341.36 83.116 366.291 86.944 366.291H97.0728C93.28 366.291 93.28 341.36 97.0728 341.36Z" fill="#66B8B0"/>
<path d="M105.054 341.36H101.077C97.2488 341.36 97.2488 366.291 101.077 366.291H105.054C101.2 366.291 101.2 341.36 105.054 341.36Z" fill="#66B8B0"/>
<path d="M71.0249 339.292C70.6025 340.313 71.6409 341.36 73.0489 341.36H183.295C187.792 341.36 187.792 318.946 183.295 318.946H73.0401C71.6321 318.946 70.5937 319.985 71.0161 321.014C72.7761 325.282 72.7761 335.024 71.0249 339.292Z" fill="#263238"/>
<path opacity="0.2" d="M71.0249 339.292C70.6025 340.313 71.6409 341.36 73.0489 341.36H127.107C131.604 341.36 131.604 318.946 127.107 318.946H73.0401C71.6321 318.946 70.5937 319.985 71.0161 321.014C72.7761 325.282 72.7761 335.024 71.0249 339.292Z" fill="black"/>
<path opacity="0.8" d="M71.2185 321.561H124.898C128.339 321.561 128.339 338.738 124.898 338.738H71.2185C72.6969 334.4 72.6969 325.873 71.2185 321.561Z" fill="white"/>
<path opacity="0.2" d="M142.727 323.945C142.393 322.95 143.361 321.982 144.699 321.982H175.56C178.834 321.982 178.834 338.315 175.56 338.315H144.699C143.361 338.315 142.393 337.356 142.727 336.362C143.783 332.29 143.783 328.016 142.727 323.945Z" fill="white"/>
<path d="M365.843 329.287C365.94 329.584 365.968 329.9 365.924 330.21C365.88 330.521 365.766 330.817 365.59 331.076C365.415 331.335 365.182 331.55 364.91 331.705C364.638 331.86 364.334 331.951 364.021 331.971H234.485C230.437 331.971 230.437 302.931 234.485 302.931H364.021C364.328 302.952 364.627 303.042 364.895 303.195C365.163 303.347 365.393 303.558 365.568 303.812C365.743 304.065 365.859 304.355 365.906 304.66C365.954 304.964 365.932 305.276 365.843 305.571C364.267 311.159 364.267 323.769 365.843 329.287Z" fill="#66B8B0"/>
<path opacity="0.5" d="M365.843 329.287C365.94 329.584 365.968 329.9 365.924 330.21C365.88 330.521 365.766 330.817 365.59 331.076C365.415 331.335 365.182 331.55 364.91 331.705C364.638 331.86 364.334 331.951 364.021 331.971H234.485C230.437 331.971 230.437 302.931 234.485 302.931H364.021C364.328 302.952 364.627 303.042 364.895 303.195C365.163 303.347 365.393 303.558 365.568 303.812C365.743 304.065 365.859 304.355 365.906 304.66C365.954 304.964 365.932 305.276 365.843 305.571C364.267 311.159 364.267 323.769 365.843 329.287Z" fill="white"/>
<path opacity="0.8" d="M365.666 306.345H287.074C283.976 306.345 283.976 328.574 287.074 328.574H365.666C364.32 323.003 364.32 311.924 365.666 306.345Z" fill="white"/>
<path opacity="0.6" d="M283.158 329.287C283.255 329.584 283.283 329.9 283.239 330.21C283.196 330.521 283.081 330.817 282.906 331.076C282.73 331.335 282.497 331.55 282.225 331.705C281.953 331.86 281.649 331.951 281.336 331.971H234.485C230.437 331.971 230.437 302.931 234.485 302.931H281.336C281.644 302.952 281.942 303.042 282.21 303.195C282.478 303.347 282.708 303.558 282.883 303.812C283.058 304.065 283.174 304.355 283.221 304.66C283.269 304.964 283.247 305.276 283.158 305.571C281.6 311.159 281.6 323.769 283.158 329.287Z" fill="#66B8B0"/>
<path opacity="0.5" d="M264.15 305.104C264.241 304.877 264.279 304.631 264.258 304.387C264.238 304.142 264.16 303.906 264.032 303.697C263.903 303.489 263.728 303.313 263.519 303.184C263.31 303.056 263.074 302.978 262.83 302.957H244.966C240.918 302.957 240.918 331.997 244.966 331.997H262.83C263.074 331.975 263.31 331.896 263.519 331.766C263.728 331.637 263.903 331.46 264.031 331.251C264.16 331.041 264.237 330.805 264.258 330.56C264.278 330.315 264.241 330.069 264.15 329.841C262.346 324.447 262.346 310.481 264.15 305.104Z" fill="white"/>
<path d="M356.55 363.096C356.654 363.482 356.665 363.888 356.581 364.279C356.498 364.669 356.322 365.035 356.069 365.344C355.816 365.654 355.493 365.899 355.127 366.059C354.761 366.219 354.362 366.289 353.963 366.264H219.375C213.629 366.264 213.62 331.944 219.375 331.944H354.015C354.414 331.919 354.814 331.99 355.18 332.15C355.546 332.31 355.869 332.555 356.122 332.864C356.375 333.174 356.55 333.539 356.634 333.93C356.718 334.321 356.707 334.726 356.603 335.112C354.306 341.651 354.315 356.567 356.55 363.096Z" fill="#66B8B0"/>
<path opacity="0.2" d="M356.55 363.096C356.654 363.482 356.665 363.888 356.581 364.279C356.498 364.669 356.322 365.035 356.069 365.344C355.816 365.654 355.493 365.899 355.127 366.059C354.761 366.219 354.362 366.289 353.963 366.264H219.375C213.629 366.264 213.62 331.944 219.375 331.944H354.015C354.414 331.919 354.814 331.99 355.18 332.15C355.546 332.31 355.869 332.555 356.122 332.864C356.375 333.174 356.55 333.539 356.634 333.93C356.718 334.321 356.707 334.726 356.603 335.112C354.306 341.651 354.315 356.567 356.55 363.096Z" fill="white"/>
<path opacity="0.8" d="M356.286 335.957H274.912C270.512 335.957 270.512 362.251 274.912 362.251H356.294C354.411 355.66 354.411 342.557 356.286 335.957Z" fill="white"/>
<path opacity="0.6" d="M269.351 363.114C269.457 363.499 269.469 363.904 269.387 364.295C269.304 364.687 269.13 365.052 268.878 365.362C268.625 365.672 268.303 365.917 267.936 366.077C267.57 366.237 267.171 366.307 266.772 366.282H219.375C213.629 366.282 213.62 331.962 219.375 331.962H266.772C267.171 331.937 267.57 332.007 267.937 332.167C268.303 332.327 268.626 332.572 268.879 332.882C269.132 333.192 269.307 333.557 269.391 333.948C269.474 334.339 269.464 334.744 269.359 335.13C267.115 341.668 267.115 356.576 269.351 363.114Z" fill="#66B8B0"/>
<path opacity="0.5" d="M240.962 333.159C241.035 333.033 241.072 332.89 241.07 332.744C241.067 332.599 241.024 332.457 240.946 332.334C240.867 332.211 240.757 332.113 240.626 332.049C240.496 331.985 240.35 331.958 240.205 331.971H232.153C226.415 331.971 226.415 366.291 232.153 366.291H240.24C240.385 366.305 240.531 366.278 240.661 366.214C240.792 366.15 240.903 366.051 240.981 365.928C241.059 365.805 241.102 365.663 241.105 365.518C241.108 365.372 241.07 365.229 240.997 365.103C237.503 359.797 237.503 338.457 240.962 333.159Z" fill="white"/>
<path opacity="0.5" d="M253.528 333.159C253.6 333.033 253.637 332.889 253.634 332.743C253.631 332.598 253.588 332.456 253.51 332.333C253.432 332.21 253.322 332.11 253.192 332.045C253.062 331.98 252.916 331.951 252.771 331.962H244.719C238.982 331.962 238.982 366.282 244.719 366.282H252.771C252.915 366.294 253.06 366.266 253.189 366.201C253.319 366.136 253.428 366.037 253.505 365.915C253.582 365.792 253.624 365.651 253.627 365.507C253.629 365.362 253.592 365.219 253.519 365.094C250.07 359.797 250.07 338.448 253.528 333.159Z" fill="white"/>
<path d="M355.23 284.697C355.074 282.253 354.499 279.854 353.531 277.604L354.323 277.217C355.329 279.562 355.925 282.062 356.083 284.609L355.23 284.697Z" fill="#66B8B0"/>
<path d="M349.712 273.794H327.853V274.674H349.712V273.794Z" fill="#66B8B0"/>
<path d="M207.249 300.555C206.8 301.752 207.9 302.957 209.387 302.957H349.712C354.455 302.957 354.455 276.874 349.712 276.874H209.387C207.9 276.874 206.8 278.088 207.249 279.285C209.097 284.24 209.097 295.583 207.249 300.555Z" fill="#66B8B0"/>
<path opacity="0.2" d="M207.249 300.555C206.8 301.752 207.9 302.957 209.387 302.957H290.347C295.099 302.957 295.099 276.874 290.347 276.874H209.387C207.9 276.874 206.8 278.088 207.249 279.285C209.097 284.24 209.097 295.583 207.249 300.555Z" fill="black"/>
<path opacity="0.8" d="M207.46 279.928H287.998C291.641 279.928 291.641 299.913 287.998 299.913H207.46C209.018 294.897 209.018 284.944 207.46 279.928Z" fill="white"/>
<path opacity="0.2" d="M306.847 282.69C306.495 281.538 307.516 280.42 308.924 280.42H341.537C344.995 280.42 344.995 299.419 341.537 299.419H308.924C307.516 299.419 306.495 298.302 306.847 297.14C308 293.488 308 286.351 306.847 282.69Z" fill="white"/>
<path d="M194.128 86.24C190.159 90.4904 180.47 86.24 178.992 97.944C177.39 110.563 183.462 116.626 175.622 119.944C163.302 125.092 154.502 145.666 171.609 153.384C188.716 161.102 225.148 153.014 221.047 137.289C216.946 121.563 217.756 113.124 222.596 105.714C228.976 95.92 227.612 83.336 222.411 78.7776C214.315 71.6496 203.13 76.56 194.128 86.24Z" fill="#263238"/>
<path d="M215.301 136.866C215.234 136.869 215.168 136.846 215.117 136.802C215.067 136.758 215.035 136.696 215.028 136.629C215.022 136.593 215.023 136.557 215.031 136.522C215.039 136.487 215.055 136.454 215.076 136.426C215.097 136.397 215.124 136.373 215.156 136.355C215.187 136.337 215.221 136.325 215.257 136.321C218.654 135.854 220.678 135.018 221.628 133.681C222.807 132.018 222.297 129.545 221.628 126.412C220.59 121.317 219.155 114.338 223.731 105.521C229.284 94.8289 227.251 83.1073 222.05 79.2705C221.992 79.2282 221.953 79.1647 221.942 79.0939C221.93 79.0231 221.947 78.9505 221.989 78.892C222.033 78.8335 222.098 78.7943 222.17 78.7828C222.242 78.7713 222.316 78.7884 222.376 78.8305C227.797 82.7993 229.891 94.8376 224.215 105.776C219.736 114.418 221.144 121.29 222.165 126.306C222.834 129.562 223.362 132.141 222.042 133.998C221.003 135.467 218.865 136.374 215.31 136.866H215.301Z" fill="#263238"/>
<path d="M170.931 121.625C170.375 121.623 169.82 121.588 169.268 121.52C169.232 121.515 169.197 121.504 169.166 121.486C169.134 121.468 169.107 121.444 169.085 121.415C169.063 121.387 169.046 121.354 169.037 121.319C169.028 121.284 169.025 121.247 169.03 121.212C169.035 121.176 169.046 121.141 169.064 121.109C169.082 121.078 169.106 121.05 169.135 121.028C169.163 121.006 169.196 120.99 169.231 120.981C169.266 120.971 169.302 120.969 169.338 120.974C171.838 121.282 173.65 120.912 174.874 119.839C177.162 117.824 177.197 113.608 177.223 108.724C177.223 103.198 177.302 96.9411 180.884 92.6731C180.907 92.6454 180.935 92.6225 180.967 92.6057C180.999 92.5889 181.034 92.5786 181.07 92.5753C181.106 92.5721 181.142 92.5759 181.177 92.5867C181.211 92.5974 181.243 92.6148 181.271 92.6379C181.299 92.661 181.322 92.6894 181.339 92.7214C181.355 92.7533 181.366 92.7883 181.369 92.8242C181.372 92.8602 181.368 92.8964 181.358 92.9309C181.347 92.9654 181.329 92.9974 181.306 93.0251C177.848 97.1435 177.786 103.295 177.786 108.733C177.786 113.74 177.725 118.07 175.252 120.252C174.033 121.232 172.492 121.721 170.931 121.625Z" fill="#263238"/>
<path d="M257.303 276.856C251.434 276.786 249.128 276.416 246.426 276.46C243.725 276.504 243.082 276.98 240.266 276.856C238.366 276.777 238.357 274.516 239.087 272.967C239.659 271.752 240.363 270.529 241.014 269.016L248.459 269.561C249.462 272.395 254.443 273.609 258.808 274.612C260.542 275.026 259.653 276.883 257.303 276.856Z" fill="#66B8B0"/>
<path d="M218.486 168.749C218.486 168.749 238.181 185.689 258.086 203.658C266.499 211.27 248.855 269.306 248.855 269.306C248.486 270.547 241.921 268.778 240.935 267.802C240.935 267.802 239.932 222.754 244.2 213.682C200.059 202.523 193.16 180.849 193.16 180.849L196.328 167.402L218.486 168.749Z" fill="#263238"/>
<path opacity="0.2" d="M196.073 186.191C198.544 189.644 201.471 192.747 204.776 195.413C209.176 190.265 207.944 181.949 207.944 181.949L196.073 186.191Z" fill="black"/>
<path d="M250.386 266.799C250.263 267.679 250.052 269.236 249.937 270.389C249.92 270.576 249.832 270.749 249.691 270.873C249.551 270.997 249.368 271.063 249.181 271.058C246.236 270.827 243.319 270.32 240.469 269.544C240.331 269.506 240.21 269.425 240.123 269.312C240.036 269.2 239.987 269.062 239.985 268.919L239.923 265.707C239.923 265.603 239.944 265.5 239.986 265.404C240.028 265.308 240.089 265.222 240.166 265.152C240.244 265.081 240.335 265.028 240.434 264.995C240.533 264.962 240.638 264.95 240.741 264.959L249.823 266.059C249.909 266.069 249.993 266.096 250.068 266.139C250.144 266.182 250.21 266.239 250.263 266.308C250.315 266.378 250.354 266.457 250.375 266.541C250.396 266.625 250.4 266.713 250.386 266.799Z" fill="#263238"/>
<path opacity="0.3" d="M250.386 266.799C250.263 267.679 250.052 269.236 249.937 270.389C249.92 270.576 249.832 270.749 249.691 270.873C249.551 270.997 249.368 271.063 249.181 271.058C246.236 270.827 243.319 270.32 240.469 269.544C240.331 269.506 240.21 269.425 240.123 269.312C240.036 269.2 239.987 269.062 239.985 268.919L239.923 265.707C239.923 265.603 239.944 265.5 239.986 265.404C240.028 265.308 240.089 265.222 240.166 265.152C240.244 265.081 240.335 265.028 240.434 264.995C240.533 264.962 240.638 264.95 240.741 264.959L249.823 266.059C249.909 266.069 249.993 266.096 250.068 266.139C250.144 266.182 250.21 266.239 250.263 266.308C250.315 266.378 250.354 266.457 250.375 266.541C250.396 266.625 250.4 266.713 250.386 266.799Z" fill="white"/>
<path d="M171.134 318.948C165.167 318.948 163.214 316.704 159.878 316.088C157.062 315.56 156.314 315.806 154.044 315.41C152.143 315.076 151.994 313.773 153.164 311.846C153.928 310.514 154.575 309.118 155.1 307.675L164.146 308.273C165.088 310.693 167.262 315.612 170.579 316.193C173.703 316.8 173.51 318.948 171.134 318.948Z" fill="#66B8B0"/>
<path d="M217.122 168.696C217.122 168.696 196.31 205.7 187.933 228.588C179.133 252.63 165.123 291.948 164.111 308.272C162.615 308.985 157.705 308.712 155.065 307.674C155.065 307.674 152.618 251.354 169.558 228.791C173.598 180.47 180.303 172.744 187.431 166.856L217.122 168.696Z" fill="#263238"/>
<path d="M165.202 304.937C165.094 306.052 165.065 307.172 165.114 308.29C165.126 308.485 165.061 308.676 164.933 308.823C164.804 308.97 164.623 309.06 164.428 309.073C161.058 309.381 156.358 308.299 154.871 307.929C154.733 307.895 154.61 307.816 154.521 307.704C154.432 307.593 154.382 307.456 154.378 307.313L154.264 304.163C154.263 304.059 154.283 303.957 154.323 303.861C154.363 303.766 154.423 303.68 154.498 303.609C154.573 303.538 154.663 303.483 154.76 303.448C154.858 303.413 154.961 303.399 155.065 303.406L164.604 304.225C164.69 304.231 164.775 304.255 164.852 304.295C164.929 304.334 164.997 304.389 165.053 304.455C165.109 304.522 165.151 304.598 165.176 304.681C165.202 304.764 165.211 304.851 165.202 304.937Z" fill="#263238"/>
<path opacity="0.3" d="M165.202 304.937C165.094 306.052 165.065 307.172 165.114 308.29C165.126 308.485 165.061 308.676 164.933 308.823C164.804 308.97 164.623 309.06 164.428 309.073C161.058 309.381 156.358 308.299 154.871 307.929C154.733 307.895 154.61 307.816 154.521 307.704C154.432 307.593 154.382 307.456 154.378 307.313L154.264 304.163C154.263 304.059 154.283 303.957 154.323 303.861C154.363 303.766 154.423 303.68 154.498 303.609C154.573 303.538 154.663 303.483 154.76 303.448C154.858 303.413 154.961 303.399 155.065 303.406L164.604 304.225C164.69 304.231 164.775 304.255 164.852 304.295C164.929 304.334 164.997 304.389 165.053 304.455C165.109 304.522 165.151 304.598 165.176 304.681C165.202 304.764 165.211 304.851 165.202 304.937Z" fill="white"/>
<path d="M222.64 132.396C223.52 134.059 224.47 135.916 225.438 137.676C226.406 139.436 227.383 141.196 228.369 142.912C230.358 146.37 232.434 149.758 234.661 152.952L233.464 151.888C234.347 152.508 235.321 152.989 236.35 153.313C237.596 153.731 238.873 154.049 240.17 154.264C241.525 154.51 242.933 154.677 244.367 154.809C245.802 154.941 247.306 155.02 248.679 155.108H248.864C249.436 155.141 249.978 155.372 250.398 155.761C250.818 156.151 251.089 156.674 251.165 157.241C251.241 157.809 251.117 158.385 250.814 158.871C250.512 159.357 250.049 159.722 249.506 159.904C247.934 160.428 246.325 160.834 244.693 161.119C243.052 161.411 241.394 161.59 239.73 161.656C237.963 161.724 236.195 161.617 234.45 161.339C232.48 161.042 230.575 160.411 228.818 159.473C228.452 159.274 228.127 159.008 227.858 158.69L227.621 158.408C226.222 156.736 224.858 155.029 223.608 153.278C222.358 151.527 221.135 149.758 220 147.998C218.865 146.238 217.765 144.364 216.726 142.507C215.688 140.65 214.702 138.811 213.761 136.778C213.266 135.623 213.232 134.323 213.664 133.143C214.097 131.963 214.964 130.993 216.087 130.431C217.211 129.869 218.507 129.758 219.71 130.12C220.914 130.482 221.933 131.29 222.561 132.378L222.64 132.396Z" fill="#FFB573"/>
<path d="M217.782 125.294C223.529 127.186 224.461 129.764 227.612 139.286C225.517 144.997 217.052 147.892 217.052 147.892C217.052 147.892 207.055 131.612 217.782 125.294Z" fill="#66B8B0"/>
<path d="M225.65 137.685C225.324 140.836 224.514 144.593 222.816 151.976C221.496 158.242 221.478 170.456 219.366 171.099C215.31 173.105 205.154 172.331 187.431 166.857C187.994 157.705 189.059 151.492 186.014 130.496C185.823 129.395 185.879 128.265 186.179 127.189C186.479 126.113 187.015 125.117 187.748 124.274C188.482 123.431 189.394 122.762 190.418 122.316C191.443 121.87 192.554 121.658 193.67 121.696C194.955 121.696 196.31 121.801 197.692 121.924C202.566 122.218 207.413 122.862 212.194 123.852C213.752 124.204 215.362 124.617 216.894 125.04C219.59 125.81 221.937 127.491 223.533 129.797C225.13 132.102 225.878 134.89 225.65 137.685Z" fill="#66B8B0"/>
<path d="M163.61 174.081L165.37 172.471C165.697 172.171 165.948 171.798 166.101 171.381C166.254 170.965 166.305 170.517 166.25 170.077L165.766 165.88C165.673 165.055 165.385 164.263 164.926 163.572C164.467 162.88 163.85 162.308 163.126 161.902L162.246 161.4C159.104 163.873 157.529 168.854 157.529 168.854L156.922 170.227C156.788 170.504 156.711 170.806 156.695 171.113C156.679 171.421 156.725 171.728 156.829 172.018C156.933 172.308 157.093 172.574 157.301 172.802C157.509 173.029 157.76 173.213 158.039 173.342L160.741 174.574C161.216 174.776 161.739 174.838 162.248 174.75C162.757 174.663 163.23 174.431 163.61 174.081Z" fill="#FFB573"/>
<path d="M255.983 152.944L253.73 152.064C253.313 151.907 252.865 151.852 252.422 151.904C251.98 151.956 251.556 152.114 251.187 152.364L247.667 154.722C246.976 155.187 246.407 155.81 246.007 156.541C245.608 157.271 245.389 158.087 245.37 158.92V159.967C249.005 161.621 254.17 160.724 254.17 160.724L255.666 160.636C255.974 160.625 256.277 160.554 256.557 160.426C256.837 160.299 257.09 160.117 257.299 159.891C257.508 159.665 257.671 159.4 257.778 159.111C257.884 158.822 257.932 158.514 257.919 158.207L257.778 155.241C257.738 154.724 257.546 154.231 257.227 153.823C256.907 153.414 256.475 153.109 255.983 152.944Z" fill="#FFB573"/>
<path d="M191.259 133.329L190.133 133.848L188.901 134.411C188.082 134.807 187.273 135.221 186.463 135.643C184.835 136.523 183.251 137.403 181.693 138.327C180.136 139.251 178.631 140.281 177.17 141.328C175.709 142.375 174.354 143.519 173.034 144.69L173.615 143.95C173.186 144.581 172.809 145.247 172.489 145.939C172.101 146.74 171.741 147.611 171.389 148.5C170.685 150.26 169.998 152.143 169.365 154.035C168.731 155.927 168.089 157.846 167.464 159.764L165.563 165.546C165.379 166.113 164.995 166.595 164.482 166.901C163.969 167.207 163.363 167.316 162.775 167.209C162.188 167.101 161.66 166.784 161.289 166.316C160.918 165.848 160.729 165.262 160.758 164.666C160.855 162.545 161.049 160.486 161.286 158.409C161.524 156.332 161.823 154.264 162.166 152.187C162.509 150.11 162.958 148.025 163.53 145.913C163.812 144.857 164.12 143.801 164.507 142.692C164.916 141.471 165.441 140.293 166.073 139.172C166.184 138.988 166.311 138.815 166.452 138.653L166.663 138.433C168.113 136.835 169.665 135.332 171.309 133.936C172.93 132.558 174.629 131.274 176.396 130.09C178.14 128.908 179.946 127.821 181.808 126.834C182.741 126.342 183.682 125.875 184.641 125.418C185.125 125.198 185.601 124.969 186.102 124.758C186.604 124.546 187.061 124.362 187.686 124.124C188.885 123.645 190.223 123.656 191.414 124.155C192.604 124.654 193.551 125.6 194.049 126.791C194.548 127.981 194.559 129.32 194.08 130.518C193.601 131.716 192.67 132.678 191.488 133.197L191.259 133.329Z" fill="#FFB573"/>
<path d="M199.76 123.984C195.448 120.895 192.826 120.56 182.389 125.092C181.148 131.657 185.214 141.293 185.214 141.293C185.214 141.293 199.1 134.06 199.76 123.984Z" fill="#66B8B0"/>
<path d="M200.886 105.697C201.529 110.528 201.942 119.284 198.493 121.995C198.493 121.995 202.998 121.916 211.613 128.964C214.843 125.444 212.995 123.922 212.995 123.922C207.865 121.977 208.225 118.096 209.343 114.55L200.886 105.697Z" fill="#FFB573"/>
<path d="M209.792 127.538C206.65 127.538 205.058 132.105 205.058 132.105C205.058 132.105 197.507 126.086 196.478 121.853C197.48 121.449 198.461 120.994 199.417 120.489C199.417 120.489 208.226 125.514 209.792 127.538Z" fill="white"/>
<path d="M212.802 127.424C212.802 127.424 215.178 128.304 215.961 131.824C217.571 125.118 214.43 124.062 214.43 124.062C213.642 123.472 212.664 123.196 211.684 123.288C212.326 123.736 212.79 124.396 212.995 125.153C213.199 125.909 213.131 126.713 212.802 127.424Z" fill="white"/>
<path opacity="0.2" d="M204.336 109.305L209.334 114.585C209.062 115.41 208.865 116.258 208.745 117.119C206.774 116.565 204.169 114.004 204.081 111.839C204.009 110.986 204.096 110.127 204.336 109.305Z" fill="black"/>
<path d="M195.465 98.6659C197.225 106.181 197.868 109.393 202.382 112.825C209.167 117.982 217.976 114.638 218.451 106.859C218.873 99.8187 215.864 88.7307 207.891 86.6187C206.202 86.1108 204.407 86.0632 202.693 86.4808C200.979 86.8983 199.408 87.7659 198.141 88.994C196.874 90.222 195.959 91.7659 195.488 93.4662C195.018 95.1665 195.01 96.9616 195.465 98.6659Z" fill="#FFB573"/>
<path d="M196.935 104.069C199.698 102.714 202.629 96.0522 198.695 92.9018C201.942 93.509 205.665 92.6378 209.106 89.9802C213.594 86.4602 220.202 95.1986 218.029 90.0682C214.896 82.6762 205.454 80.8282 196.909 86.9706C188.364 93.113 188.971 100.584 196.935 104.069Z" fill="#263238"/>
<path d="M194.595 102.564C194.565 102.561 194.536 102.548 194.514 102.528C194.492 102.508 194.476 102.481 194.471 102.452C194.465 102.422 194.468 102.391 194.481 102.364C194.494 102.337 194.515 102.314 194.542 102.3C196.742 101.35 206.079 99.3608 206.475 99.2816C206.492 99.2764 206.511 99.275 206.53 99.2777C206.548 99.2803 206.566 99.2868 206.582 99.2968C206.598 99.3067 206.611 99.32 206.622 99.3356C206.632 99.3512 206.639 99.3688 206.642 99.3872C206.647 99.4221 206.639 99.4577 206.62 99.487C206.6 99.5163 206.57 99.5372 206.536 99.5456C206.439 99.5456 196.856 101.614 194.647 102.555L194.595 102.564Z" fill="white"/>
<path opacity="0.2" d="M205.92 99.4399C204.977 99.0251 203.908 98.9998 202.946 99.3695C203.923 99.5859 204.933 99.6098 205.92 99.4399Z" fill="black"/>
<path opacity="0.2" d="M205.841 100.108C205.383 100.012 204.91 100.016 204.454 100.121C203.998 100.226 203.57 100.429 203.201 100.716C204.114 100.701 205.013 100.494 205.841 100.108Z" fill="black"/>
<path d="M207.557 99.3345C207.68 99.9769 208.111 100.452 208.525 100.399C208.938 100.347 209.167 99.7921 209.044 99.1497C208.921 98.5073 208.481 98.0409 208.076 98.0849C207.671 98.1289 207.434 98.7009 207.557 99.3345Z" fill="#263238"/>
<path d="M215.283 98.4987C215.406 99.1323 215.847 99.6075 216.251 99.5635C216.656 99.5195 216.894 98.9475 216.77 98.3139C216.647 97.6803 216.216 97.1963 215.802 97.2491C215.389 97.3019 215.16 97.8563 215.283 98.4987Z" fill="#263238"/>
<path d="M215.6 97.3104L217.026 96.6768C217.026 96.6768 216.48 97.9704 215.6 97.3104Z" fill="#263238"/>
<path d="M213.84 99.7217C214.602 101.157 215.542 102.491 216.638 103.69C216.339 103.942 215.986 104.124 215.607 104.223C215.228 104.322 214.832 104.336 214.447 104.262L213.84 99.7217Z" fill="#ED893E"/>
<path d="M211.068 107.105C211.422 107.135 211.779 107.135 212.133 107.105C212.157 107.102 212.18 107.093 212.201 107.081C212.222 107.068 212.24 107.052 212.254 107.032C212.268 107.012 212.278 106.989 212.283 106.966C212.288 106.942 212.287 106.917 212.282 106.893C212.274 106.843 212.246 106.797 212.205 106.766C212.165 106.735 212.113 106.721 212.062 106.726C211.266 106.823 210.458 106.741 209.697 106.487C208.936 106.233 208.241 105.812 207.662 105.257C207.645 105.239 207.625 105.225 207.602 105.216C207.579 105.206 207.555 105.201 207.53 105.201C207.506 105.201 207.481 105.206 207.459 105.216C207.436 105.225 207.416 105.239 207.398 105.257C207.365 105.292 207.346 105.34 207.346 105.389C207.346 105.438 207.365 105.485 207.398 105.521C208.388 106.477 209.693 107.041 211.068 107.105Z" fill="#263238"/>
<path d="M193.679 105.397C194.103 106.003 194.648 106.513 195.28 106.896C195.912 107.279 196.616 107.527 197.349 107.624C199.179 107.773 199.575 105.644 198.642 103.752C197.806 102.053 195.844 99.9151 194.242 100.654C192.641 101.393 192.491 103.84 193.679 105.397Z" fill="#FFB573"/>
<path d="M205.084 94.4859C205.133 94.4859 205.182 94.4748 205.226 94.4535C205.27 94.4322 205.309 94.4011 205.339 94.3627C205.622 94.0002 205.99 93.7133 206.411 93.5275C206.832 93.3417 207.292 93.2629 207.75 93.2979C207.798 93.3053 207.847 93.3028 207.893 93.2907C207.94 93.2786 207.984 93.257 208.022 93.2273C208.06 93.1976 208.091 93.1604 208.114 93.118C208.137 93.0757 208.151 93.0291 208.155 92.9811C208.159 92.88 208.127 92.7809 208.064 92.7018C208.001 92.6227 207.911 92.5688 207.812 92.5499C207.233 92.4986 206.65 92.5915 206.116 92.8203C205.582 93.0491 205.112 93.4066 204.75 93.8611C204.707 93.9211 204.682 93.9918 204.678 94.0653C204.673 94.1387 204.689 94.212 204.724 94.2769C204.758 94.3418 204.81 94.3957 204.874 94.4326C204.938 94.4695 205.01 94.488 205.084 94.4859Z" fill="#263238"/>
<path d="M216.709 94.1597C216.756 94.1649 216.804 94.1606 216.849 94.147C216.894 94.1334 216.936 94.1108 216.973 94.0805C217.008 94.0461 217.036 94.005 217.055 93.9597C217.074 93.9143 217.084 93.8657 217.084 93.8165C217.084 93.7673 217.074 93.7186 217.055 93.6733C217.036 93.628 217.008 93.5869 216.973 93.5525C216.593 93.0749 216.107 92.6915 215.555 92.4321C215.002 92.1726 214.397 92.0441 213.787 92.0565C213.739 92.0604 213.691 92.0747 213.649 92.0983C213.606 92.122 213.569 92.1544 213.54 92.1936C213.51 92.2327 213.49 92.2776 213.48 92.3253C213.469 92.373 213.469 92.4224 213.479 92.4701C213.494 92.5696 213.546 92.6598 213.624 92.7233C213.702 92.7867 213.801 92.8188 213.902 92.8133C214.385 92.8081 214.864 92.9141 215.3 93.1231C215.737 93.3322 216.119 93.6386 216.418 94.0189C216.453 94.0623 216.498 94.0975 216.548 94.1218C216.598 94.1461 216.653 94.1591 216.709 94.1597Z" fill="#263238"/>
<path d="M209.942 103.321C208.085 103.321 206.474 101.349 206.298 98.8238C206.192 97.6343 206.466 96.4417 207.082 95.4182C207.325 94.9844 207.668 94.6151 208.083 94.341C208.498 94.067 208.972 93.8962 209.466 93.843C211.411 93.711 213.118 95.7262 213.303 98.3398C213.488 100.953 212.054 103.18 210.126 103.312L209.942 103.321ZM209.651 94.1598H209.493C209.04 94.2118 208.606 94.3705 208.227 94.6229C207.847 94.8754 207.533 95.2143 207.31 95.6118C206.726 96.5853 206.467 97.7197 206.571 98.8502C206.738 101.305 208.331 103.197 210.091 103.083C211.851 102.969 213.18 100.857 213.013 98.4014C212.846 95.9462 211.367 94.1598 209.651 94.1598Z" fill="white"/>
<path d="M218.17 102.846C216.313 102.846 214.694 100.884 214.518 98.358C214.415 97.1688 214.689 95.9775 215.301 94.9524C215.546 94.5184 215.891 94.1491 216.307 93.8751C216.723 93.6012 217.199 93.4305 217.694 93.3772C219.622 93.2452 221.346 95.2604 221.522 97.8652C221.625 99.0545 221.351 100.246 220.739 101.271C220.495 101.706 220.151 102.076 219.734 102.35C219.318 102.624 218.841 102.794 218.346 102.846H218.17ZM217.879 93.65H217.712C217.259 93.7019 216.825 93.8607 216.446 94.1131C216.066 94.3655 215.752 94.7045 215.53 95.102C214.953 96.0786 214.695 97.2104 214.79 98.3404C214.958 100.716 216.454 102.573 218.17 102.573H218.328C218.781 102.523 219.216 102.366 219.596 102.113C219.976 101.86 220.289 101.52 220.51 101.121C221.09 100.149 221.349 99.0191 221.25 97.8916C221.082 95.5068 219.586 93.65 217.879 93.65Z" fill="white"/>
<path d="M214.72 98.7185C214.696 98.7172 214.674 98.7101 214.654 98.6978C214.634 98.6855 214.617 98.6684 214.606 98.6481C214.271 98.1201 213.294 98.6921 213.286 98.6921C213.271 98.7017 213.254 98.7081 213.236 98.7111C213.219 98.714 213.201 98.7134 213.184 98.7093C213.167 98.7052 213.15 98.6977 213.136 98.6872C213.122 98.6766 213.11 98.6634 213.101 98.6481C213.078 98.6225 213.066 98.5897 213.066 98.5557C213.066 98.5217 213.078 98.4889 213.101 98.4633C213.154 98.4633 214.315 97.7417 214.79 98.4633C214.801 98.4778 214.809 98.4945 214.813 98.5123C214.816 98.53 214.816 98.5484 214.812 98.5661C214.808 98.5837 214.8 98.6002 214.788 98.6144C214.777 98.6286 214.763 98.6401 214.746 98.6481C214.747 98.661 214.745 98.6739 214.74 98.686C214.736 98.698 214.729 98.7091 214.72 98.7185Z" fill="white"/>
<path d="M207.9 98.1463L209.317 97.5215C209.317 97.5215 208.78 98.8151 207.9 98.1463Z" fill="#263238"/>
</svg>
