<svg width="22" height="28" viewBox="0 0 22 28" fill="none" xmlns="http://www.w3.org/2000/svg">
<path d="M11 5.79315C9.9595 5.79315 8.94236 6.1046 8.07722 6.68811C7.21207 7.27162 6.53777 8.10099 6.13959 9.07134C5.74141 10.0417 5.63723 11.1094 5.84022 12.1395C6.04321 13.1697 6.54426 14.1159 7.28 14.8585C8.01575 15.6012 8.95315 16.107 9.97365 16.3119C10.9942 16.5168 12.0519 16.4116 13.0132 16.0097C13.9745 15.6078 14.7962 14.9271 15.3743 14.0538C15.9523 13.1805 16.2609 12.1538 16.2609 11.1035C16.2593 9.69563 15.7045 8.34583 14.7182 7.35029C13.732 6.35475 12.3948 5.79475 11 5.79315ZM11 13.5173C10.527 13.5173 10.0647 13.3758 9.67146 13.1105C9.27821 12.8453 8.97171 12.4683 8.79072 12.0273C8.60973 11.5862 8.56238 11.1009 8.65464 10.6326C8.74691 10.1644 8.97466 9.73429 9.30909 9.39671C9.64352 9.05914 10.0696 8.82924 10.5335 8.7361C10.9973 8.64297 11.4782 8.69077 11.9151 8.87346C12.3521 9.05616 12.7255 9.36555 12.9883 9.7625C13.2511 10.1594 13.3913 10.6261 13.3913 11.1035C13.3913 11.7437 13.1394 12.3577 12.6909 12.8104C12.2425 13.263 11.6342 13.5173 11 13.5173ZM11 0C8.08359 0.00319464 5.28754 1.17405 3.22532 3.25568C1.16311 5.3373 0.00316485 8.15968 0 11.1035C0 20.4402 9.7613 27.445 10.1774 27.7383C10.4185 27.9086 10.7057 28 11 28C11.2943 28 11.5815 27.9086 11.8226 27.7383C13.6714 26.363 15.3629 24.7843 16.8659 23.0314C20.2245 19.1379 22 15.0103 22 11.1035C21.9968 8.15968 20.8369 5.3373 18.7747 3.25568C16.7125 1.17405 13.9164 0.00319464 11 0ZM14.7424 21.0859C13.6024 22.4077 12.3501 23.6264 11 24.7283C9.64987 23.6264 8.39764 22.4077 7.25761 21.0859C5.26087 18.7517 2.86957 15.1237 2.86957 11.1035C2.86957 8.92692 3.72616 6.83944 5.25091 5.30034C6.77567 3.76123 8.84367 2.89657 11 2.89657C13.1563 2.89657 15.2243 3.76123 16.7491 5.30034C18.2738 6.83944 19.1304 8.92692 19.1304 11.1035C19.1304 15.1237 16.7391 18.7517 14.7424 21.0859Z" fill="white"/>
</svg>
