<svg width="19" height="29" viewBox="0 0 19 29" fill="none" xmlns="http://www.w3.org/2000/svg">
<path d="M3.75 0.5C2.88805 0.5 2.0614 0.84241 1.4519 1.4519C0.84241 2.0614 0.5 2.88805 0.5 3.75V25.25C0.5 26.112 0.84241 26.9386 1.4519 27.5481C2.0614 28.1576 2.88805 28.5 3.75 28.5H15.25C16.112 28.5 16.9386 28.1576 17.5481 27.5481C18.1576 26.9386 18.5 26.112 18.5 25.25V3.75C18.5 2.88805 18.1576 2.0614 17.5481 1.4519C16.9386 0.84241 16.112 0.5 15.25 0.5H3.75ZM2.5 3.75C2.5 3.06 3.06 2.5 3.75 2.5H15.25C15.94 2.5 16.5 3.06 16.5 3.75V25.25C16.5 25.94 15.94 26.5 15.25 26.5H3.75C3.06 26.5 2.5 25.94 2.5 25.25V3.75ZM7.5 22.5C7.23478 22.5 6.98043 22.6054 6.79289 22.7929C6.60536 22.9804 6.5 23.2348 6.5 23.5C6.5 23.7652 6.60536 24.0196 6.79289 24.2071C6.98043 24.3946 7.23478 24.5 7.5 24.5H11.5C11.7652 24.5 12.0196 24.3946 12.2071 24.2071C12.3946 24.0196 12.5 23.7652 12.5 23.5C12.5 23.2348 12.3946 22.9804 12.2071 22.7929C12.0196 22.6054 11.7652 22.5 11.5 22.5H7.5Z" fill="white" stroke="white"/>
</svg>
