<svg width="500" height="500" viewBox="0 0 500 500" fill="none" xmlns="http://www.w3.org/2000/svg">
<path d="M421.22 334.53C425.846 316.477 426.691 297.661 423.702 279.266C420.713 260.87 413.954 243.29 403.85 227.63C398.61 219.63 392.32 212 384.04 207.19C375.76 202.38 365.18 200.76 356.52 204.84C346.67 209.48 341.37 220.02 335.6 229.25C329.83 238.48 321.24 247.87 310.36 247.45C303.88 247.2 298.12 243.45 292.89 239.61C239.32 200.36 201.14 139.53 140.13 113.3C126.63 107.49 110.75 103.68 97.5396 110.13C83.0596 117.2 76.4696 134.42 74.9996 150.47C72.6696 175.47 79.5396 200.68 91.2996 222.83C103.06 244.98 119.56 264.28 137.3 282.02C183.2 328.02 240.3 365.38 304.3 376.14C325.74 379.74 348.04 380.27 368.98 374.39C389.92 368.51 409.41 355.72 420.56 337.04C420.47 338.64 421.22 334.53 421.22 334.53Z" fill="#40DCFF"/>
<g opacity="0.9">
<path d="M421.22 334.53C425.846 316.477 426.691 297.661 423.702 279.266C420.713 260.87 413.954 243.29 403.85 227.63C398.61 219.63 392.32 212 384.04 207.19C375.76 202.38 365.18 200.76 356.52 204.84C346.67 209.48 341.37 220.02 335.6 229.25C329.83 238.48 321.24 247.87 310.36 247.45C303.88 247.2 298.12 243.45 292.89 239.61C239.32 200.36 201.14 139.53 140.13 113.3C126.63 107.49 110.75 103.68 97.5396 110.13C83.0596 117.2 76.4696 134.42 74.9996 150.47C72.6696 175.47 79.5396 200.68 91.2996 222.83C103.06 244.98 119.56 264.28 137.3 282.02C183.2 328.02 240.3 365.38 304.3 376.14C325.74 379.74 348.04 380.27 368.98 374.39C389.92 368.51 409.41 355.72 420.56 337.04C420.47 338.64 421.22 334.53 421.22 334.53Z" fill="white"/>
</g>
<path d="M250 427.01C357.083 427.01 443.89 421.942 443.89 415.69C443.89 409.438 357.083 404.37 250 404.37C142.918 404.37 56.1104 409.438 56.1104 415.69C56.1104 421.942 142.918 427.01 250 427.01Z" fill="#F5F5F5"/>
<path d="M196.45 321.89C196.354 322.85 195.909 323.741 195.199 324.394C194.489 325.046 193.564 325.415 192.6 325.43C192.147 325.439 191.697 325.35 191.28 325.171C190.863 324.992 190.49 324.726 190.184 324.391C189.878 324.056 189.648 323.66 189.507 323.228C189.367 322.797 189.32 322.341 189.37 321.89C189.48 320.936 189.929 320.054 190.636 319.404C191.343 318.754 192.26 318.38 193.22 318.35C193.673 318.342 194.123 318.43 194.54 318.609C194.956 318.789 195.33 319.054 195.636 319.389C195.941 319.724 196.172 320.121 196.313 320.552C196.453 320.983 196.5 321.439 196.45 321.89Z" fill="#40DCFF"/>
<path d="M198.769 319.48C198.67 319.475 198.572 319.45 198.482 319.405C198.393 319.36 198.314 319.297 198.251 319.22C198.188 319.142 198.142 319.053 198.115 318.956C198.089 318.86 198.084 318.759 198.099 318.66C198.279 316.66 196.209 315.03 193.389 315.03C190.569 315.03 188.149 317.45 188.049 318.66C188.035 318.873 187.944 319.073 187.794 319.224C187.643 319.375 187.442 319.466 187.229 319.48C187.13 319.475 187.032 319.45 186.942 319.405C186.853 319.36 186.774 319.297 186.711 319.22C186.648 319.142 186.602 319.053 186.575 318.956C186.549 318.86 186.544 318.759 186.559 318.66C186.769 316.28 190.029 313.38 193.559 313.38C197.089 313.38 199.869 315.7 199.609 318.66C199.595 318.876 199.501 319.079 199.346 319.23C199.191 319.382 198.986 319.471 198.769 319.48Z" fill="#40DCFF"/>
<path d="M200.74 314.84C200.64 314.836 200.542 314.81 200.453 314.766C200.363 314.721 200.284 314.658 200.221 314.58C200.158 314.503 200.112 314.413 200.086 314.316C200.059 314.22 200.054 314.119 200.07 314.02C200.24 312.02 197.39 310.39 193.71 310.39C189.85 310.39 186.81 312.93 186.71 314.02C186.696 314.233 186.605 314.434 186.454 314.584C186.303 314.735 186.102 314.826 185.89 314.84C185.79 314.836 185.692 314.81 185.603 314.766C185.513 314.721 185.434 314.658 185.371 314.58C185.308 314.503 185.262 314.413 185.236 314.316C185.209 314.22 185.204 314.119 185.22 314.02C185.43 311.64 189.45 308.74 193.85 308.74C198.5 308.74 201.85 311.01 201.55 314.02C201.536 314.231 201.446 314.431 201.298 314.581C201.149 314.732 200.951 314.824 200.74 314.84Z" fill="#40DCFF"/>
<path d="M202.67 310.6C202.569 310.596 202.47 310.57 202.38 310.525C202.29 310.479 202.211 310.415 202.147 310.337C202.084 310.258 202.038 310.167 202.012 310.069C201.987 309.971 201.983 309.869 202 309.77C202.15 308.02 199 306.15 194 306.15C189 306.15 185.44 308.84 185.36 309.77C185.351 309.984 185.263 310.187 185.113 310.34C184.964 310.493 184.763 310.585 184.55 310.6C184.449 310.596 184.35 310.57 184.259 310.525C184.169 310.479 184.089 310.415 184.024 310.337C183.96 310.259 183.913 310.168 183.887 310.07C183.86 309.972 183.854 309.87 183.87 309.77C184.08 307.4 188.87 304.5 194.15 304.5C199.83 304.5 203.77 306.72 203.5 309.77C203.488 309.986 203.397 310.19 203.243 310.344C203.09 310.497 202.886 310.588 202.67 310.6Z" fill="#40DCFF"/>
<path d="M374.6 271.96H109.14L123.86 103.67H389.32L374.6 271.96Z" fill="#40DCFF"/>
<path d="M371 285.13H109.35C107.629 285.16 105.922 284.823 104.341 284.142C102.761 283.461 101.343 282.451 100.183 281.18C99.0235 279.908 98.1478 278.404 97.6144 276.768C97.081 275.132 96.9022 273.401 97.0899 271.69L111.72 104.46C112.095 100.819 113.788 97.4407 116.481 94.9615C119.174 92.4824 122.68 91.0734 126.34 90.9999H387.93C389.651 90.9698 391.358 91.3064 392.939 91.9875C394.519 92.6686 395.937 93.6785 397.096 94.95C398.256 96.2215 399.132 97.7254 399.665 99.3617C400.199 100.998 400.378 102.729 400.19 104.44L385.56 271.69C385.182 275.317 383.495 278.683 380.815 281.156C378.135 283.63 374.646 285.043 371 285.13Z" fill="#263238"/>
<path d="M370.99 271.96H120.24L134.97 103.67H385.71L370.99 271.96Z" fill="#40DCFF"/>
<path d="M370.94 272.02H120.22L134.94 103.74H385.66L370.94 272.02Z" fill="white"/>
<path d="M383.8 125.07H133.07L134.94 103.74H385.66L383.8 125.07Z" fill="#40DCFF"/>
<path d="M246.965 181.612C250.141 178.572 250.458 173.749 247.674 170.841C244.89 167.933 240.058 168.04 236.883 171.08C233.707 174.12 233.39 178.942 236.174 181.85C238.958 184.758 243.789 184.652 246.965 181.612Z" fill="#40DCFF"/>
<path d="M147.523 213.177C150.688 210.143 151.002 205.334 148.224 202.435C145.446 199.537 140.628 199.646 137.463 202.679C134.297 205.712 133.984 210.521 136.762 213.42C139.54 216.319 144.358 216.21 147.523 213.177Z" fill="#263238"/>
<path d="M223.89 223.85C223.677 225.914 222.717 227.828 221.19 229.232C219.662 230.636 217.674 231.432 215.6 231.47C214.624 231.487 213.656 231.296 212.76 230.91C211.864 230.524 211.06 229.952 210.403 229.231C209.745 228.51 209.249 227.657 208.946 226.729C208.644 225.802 208.543 224.82 208.65 223.85C208.862 221.786 209.822 219.872 211.35 218.468C212.877 217.064 214.865 216.268 216.94 216.23C217.915 216.213 218.883 216.404 219.779 216.79C220.675 217.176 221.479 217.749 222.137 218.469C222.794 219.19 223.291 220.043 223.593 220.971C223.895 221.899 223.996 222.88 223.89 223.85Z" fill="#40DCFF"/>
<path d="M142.75 163.78L143.46 162.45C144.054 162.845 144.747 163.063 145.46 163.08C146.21 163.08 146.52 162.87 146.55 162.56C146.64 161.56 142.94 162.28 143.15 159.91C143.25 158.77 144.26 157.83 146.15 157.83C146.942 157.816 147.725 158.009 148.42 158.39L147.75 159.74C147.226 159.427 146.63 159.255 146.02 159.24C145.26 159.24 144.96 159.5 144.93 159.82C144.85 160.82 148.54 160.06 148.34 162.42C148.24 163.54 147.22 164.49 145.34 164.49C144.426 164.511 143.526 164.264 142.75 163.78Z" fill="#263238"/>
<path d="M173.24 164.36L173.51 160.97L171.63 163.73H170.82L169.42 161.06L169.13 164.36H167.46L168 158H169.49L171.41 161.7L174 158H175.49L174.95 164.4L173.24 164.36Z" fill="#263238"/>
<path d="M194.38 159.4H192.38L192.51 157.96H198.24L198.12 159.4H196.12L195.68 164.4H193.87L194.38 159.4Z" fill="#263238"/>
<path d="M227.08 158L224.45 164.4H222.51L221.63 160.51L220 164.36H218.06L216.54 157.96H218.41L219.34 162.05L221.05 157.96H222.71L223.64 162.08L225.35 157.96L227.08 158Z" fill="#263238"/>
<path d="M242.189 159.4H240.189L240.319 157.96H246.049L245.999 159.4H243.999L243.559 164.4H241.749L242.189 159.4Z" fill="#263238"/>
<path d="M266.54 159.36L266.42 160.77H269.25L269.12 162.17H266.3L266.11 164.36H264.3L264.86 157.96H269.86L269.73 159.36H266.54Z" fill="#263238"/>
<path d="M287.8 163.78L288.52 162.45C289.128 162.854 289.84 163.073 290.57 163.08C291.32 163.08 291.63 162.87 291.66 162.56C291.75 161.56 288.05 162.28 288.25 159.91C288.35 158.77 289.37 157.83 291.25 157.83C292.042 157.816 292.824 158.009 293.52 158.39L292.85 159.74C292.325 159.428 291.73 159.256 291.12 159.24C290.36 159.24 290.06 159.5 290.03 159.82C289.95 160.82 293.64 160.06 293.43 162.42C293.34 163.54 292.32 164.49 290.43 164.49C289.503 164.514 288.589 164.268 287.8 163.78Z" fill="#263238"/>
<path d="M194.18 173.72L193.62 180.12H191.81L192.25 175.12H191.06L191.18 173.72H194.18Z" fill="#263238"/>
<path d="M219.85 178.68L219.72 180.12H214.72L214.82 178.98L217.41 176.74C217.97 176.27 218.07 175.98 218.09 175.74C218.11 175.5 217.87 175.08 217.32 175.08C217.086 175.079 216.855 175.135 216.648 175.243C216.441 175.351 216.263 175.508 216.13 175.7L214.85 174.95C215.165 174.516 215.583 174.167 216.066 173.934C216.55 173.702 217.084 173.594 217.62 173.62C219.09 173.62 220.04 174.38 219.93 175.57C219.876 175.974 219.736 176.363 219.519 176.708C219.301 177.053 219.012 177.347 218.67 177.57L217.36 178.68H219.85Z" fill="#263238"/>
<path d="M243.79 178.11C243.69 179.2 242.79 180.24 240.79 180.24C239.938 180.258 239.097 180.04 238.36 179.61L239.14 178.25C239.649 178.6 240.253 178.785 240.87 178.78C241.48 178.78 241.87 178.54 241.94 178.11C242.01 177.68 241.71 177.49 241.02 177.49H240.26L240.36 176.35L241.61 175.12H239.1L239.23 173.72H243.85L243.75 174.85L242.3 176.28C242.519 176.301 242.731 176.365 242.924 176.469C243.118 176.573 243.289 176.714 243.427 176.884C243.566 177.054 243.669 177.25 243.732 177.46C243.794 177.671 243.814 177.892 243.79 178.11Z" fill="#263238"/>
<path d="M268.73 178.89H267.73L267.62 180.12H265.86L265.96 178.89H262.58L262.69 177.71L265.91 173.71H267.78L264.85 177.45H266.15L266.24 176.36H268L267.9 177.45H268.9L268.73 178.89Z" fill="#263238"/>
<path d="M291.7 178.06C291.6 179.2 290.65 180.24 288.7 180.24C287.851 180.259 287.012 180.041 286.28 179.61L287.05 178.25C287.559 178.6 288.163 178.785 288.78 178.78C289.39 178.78 289.78 178.53 289.86 178.11C289.94 177.69 289.65 177.46 288.67 177.46H287L287.64 173.72H291.72L291.6 175.12H289L288.84 176.05H289.27C291.14 176.05 291.8 176.93 291.7 178.06Z" fill="#263238"/>
<path d="M145.71 193.82C145.624 194.462 145.295 195.046 144.791 195.452C144.286 195.858 143.645 196.054 143 196C141.21 196 140.13 194.92 140.31 192.85C140.317 192.375 140.42 191.906 140.612 191.471C140.803 191.036 141.08 190.643 141.426 190.317C141.772 189.991 142.18 189.737 142.625 189.571C143.07 189.405 143.545 189.33 144.02 189.35C144.664 189.325 145.302 189.485 145.86 189.81L145.09 191.11C144.752 190.878 144.348 190.762 143.94 190.78C143.513 190.757 143.093 190.899 142.767 191.176C142.442 191.453 142.235 191.845 142.19 192.27C142.616 191.943 143.143 191.777 143.68 191.8C143.952 191.772 144.228 191.805 144.486 191.896C144.744 191.988 144.979 192.136 145.173 192.329C145.367 192.522 145.516 192.756 145.609 193.014C145.702 193.272 145.736 193.547 145.71 193.82ZM143.95 193.9C143.963 193.791 143.951 193.68 143.915 193.576C143.878 193.473 143.819 193.378 143.741 193.301C143.662 193.224 143.568 193.166 143.463 193.131C143.359 193.096 143.248 193.085 143.14 193.1C142.907 193.083 142.676 193.159 142.499 193.31C142.321 193.462 142.21 193.677 142.19 193.91C142.14 194.38 142.46 194.71 143.01 194.71C143.128 194.725 143.249 194.716 143.364 194.683C143.479 194.65 143.586 194.594 143.679 194.518C143.772 194.442 143.848 194.348 143.903 194.242C143.958 194.136 143.991 194.019 144 193.9H143.95Z" fill="#263238"/>
<path d="M170.13 189.48L170.03 190.61L167.32 195.87H165.32L167.91 190.87H166.23L166.14 191.87H164.6L164.81 189.45L170.13 189.48Z" fill="#263238"/>
<path d="M195.179 194C195.079 195.23 193.879 196 192.179 196C190.479 196 189.469 195.22 189.579 194C189.603 193.686 189.708 193.384 189.883 193.123C190.058 192.862 190.298 192.651 190.579 192.51C190.378 192.365 190.219 192.169 190.119 191.943C190.018 191.716 189.981 191.466 190.009 191.22C190.109 190.09 191.209 189.36 192.719 189.36C194.229 189.36 195.209 190.09 195.109 191.22C195.084 191.482 194.998 191.734 194.859 191.958C194.721 192.182 194.533 192.37 194.309 192.51C194.591 192.637 194.826 192.849 194.982 193.116C195.138 193.383 195.207 193.692 195.179 194ZM193.369 193.95C193.369 193.45 193.049 193.15 192.479 193.15C192.241 193.125 192.002 193.194 191.815 193.344C191.628 193.494 191.507 193.712 191.479 193.95C191.479 194.44 191.789 194.74 192.369 194.74C192.607 194.763 192.845 194.692 193.031 194.542C193.218 194.393 193.339 194.177 193.369 193.94V193.95ZM191.879 191.3C191.879 191.72 192.119 191.97 192.579 191.97C192.678 191.981 192.778 191.972 192.873 191.945C192.968 191.917 193.057 191.87 193.134 191.808C193.212 191.746 193.276 191.669 193.323 191.582C193.37 191.494 193.399 191.399 193.409 191.3C193.409 190.88 193.149 190.63 192.699 190.63C192.503 190.61 192.308 190.668 192.154 190.792C192.001 190.915 191.902 191.094 191.879 191.29V191.3Z" fill="#263238"/>
<path d="M219 192.5C218.993 192.976 218.89 193.446 218.697 193.882C218.505 194.318 218.227 194.71 217.88 195.037C217.533 195.363 217.124 195.616 216.678 195.782C216.231 195.947 215.756 196.022 215.28 196C214.639 196.024 214.004 195.864 213.45 195.54L214.22 194.24C214.558 194.472 214.961 194.588 215.37 194.57C215.793 194.588 216.208 194.446 216.53 194.171C216.853 193.897 217.06 193.511 217.11 193.09C216.684 193.409 216.162 193.571 215.63 193.55C215.362 193.573 215.092 193.537 214.839 193.444C214.586 193.352 214.356 193.205 214.165 193.015C213.975 192.824 213.828 192.595 213.736 192.342C213.643 192.089 213.607 191.819 213.63 191.55C213.715 190.912 214.041 190.33 214.542 189.925C215.042 189.52 215.678 189.321 216.32 189.37C218.11 189.35 219.19 190.43 219 192.5ZM217.13 191.44C217.13 190.97 216.86 190.64 216.31 190.64C216.078 190.624 215.849 190.699 215.673 190.851C215.497 191.003 215.388 191.218 215.37 191.45C215.357 191.559 215.369 191.67 215.405 191.774C215.441 191.877 215.501 191.971 215.579 192.049C215.657 192.126 215.752 192.184 215.856 192.219C215.96 192.254 216.071 192.265 216.18 192.25C216.415 192.27 216.648 192.195 216.827 192.043C217.007 191.892 217.12 191.675 217.14 191.44H217.13Z" fill="#263238"/>
<path d="M240.61 189.48L240.05 195.87H238.24L238.68 190.87H237.49L237.61 189.48H240.61Z" fill="#263238"/>
<path d="M241.29 192.67C241.47 190.56 242.77 189.35 244.41 189.35C246.05 189.35 247.11 190.56 246.93 192.67C246.75 194.78 245.45 196 243.82 196C242.19 196 241.11 194.79 241.29 192.67ZM245.11 192.67C245.23 191.33 244.85 190.83 244.28 190.83C243.71 190.83 243.23 191.33 243.11 192.67C242.99 194.01 243.37 194.52 243.95 194.52C244.53 194.52 245 194 245.11 192.67Z" fill="#263238"/>
<path d="M264.51 189.48L263.95 195.87H262.14L262.58 190.87H261.39L261.52 189.48H264.51Z" fill="#263238"/>
<path d="M268.22 189.48L267.66 195.87H265.85L266.29 190.87H265.1L265.22 189.48H268.22Z" fill="#263238"/>
<path d="M288.42 189.48L287.86 195.87H286.05L286.49 190.87H285.3L285.42 189.48H288.42Z" fill="#263238"/>
<path d="M293.89 194.44L293.76 195.87H288.76L288.86 194.74L291.45 192.5C292.01 192.03 292.11 191.73 292.13 191.5C292.13 191.09 291.91 190.84 291.36 190.84C291.126 190.839 290.895 190.895 290.688 191.003C290.481 191.111 290.303 191.268 290.17 191.46L288.89 190.71C289.205 190.275 289.623 189.926 290.106 189.694C290.59 189.462 291.124 189.354 291.66 189.38C293.13 189.38 294.08 190.14 293.97 191.32C293.917 191.724 293.777 192.113 293.559 192.458C293.342 192.803 293.052 193.097 292.71 193.32L291.4 194.44H293.89Z" fill="#263238"/>
<path d="M142 205.23L141.44 211.63H139.63L140.07 206.63H138.88L139 205.23H142Z" fill="white"/>
<path d="M147.48 209.63C147.39 210.71 146.48 211.76 144.48 211.76C143.626 211.781 142.783 211.559 142.05 211.12L142.83 209.76C143.335 210.109 143.936 210.294 144.55 210.29C145.17 210.29 145.55 210.06 145.63 209.63C145.71 209.2 145.4 209 144.7 209H144L144.1 207.86L145.35 206.63H142.8L142.92 205.23H147.55L147.45 206.36L146 207.79C146.219 207.811 146.431 207.876 146.625 207.98C146.819 208.085 146.989 208.227 147.127 208.398C147.265 208.57 147.368 208.767 147.428 208.979C147.489 209.19 147.506 209.412 147.48 209.63Z" fill="white"/>
<path d="M166.3 205.23L165.74 211.63H163.93L164.36 206.63H163.18L163.3 205.23H166.3Z" fill="#263238"/>
<path d="M172.84 210.4H171.84L171.73 211.63H170L170.1 210.4H166.72L166.82 209.22L170.04 205.22H171.92L169 209H170.29L170.39 207.91H172.1L172 209H173L172.84 210.4Z" fill="#263238"/>
<path d="M191.42 205.23L190.86 211.63H189.05L189.49 206.63H188.3L188.42 205.23H191.42Z" fill="#263238"/>
<path d="M197 209.57C196.9 210.71 195.95 211.76 194 211.76C193.149 211.782 192.309 211.56 191.58 211.12L192.35 209.76C192.856 210.108 193.456 210.293 194.07 210.29C194.69 210.29 195.07 210.05 195.16 209.62C195.25 209.19 195 209 194 209H192.26L192.91 205.26H197L196.87 206.66H194.3L194.13 207.59H194.56C196.47 207.56 197.13 208.44 197 209.57Z" fill="#263238"/>
<path d="M215.32 205.23L214.76 211.63H213L213.43 206.63H212.2L212.33 205.23H215.32Z" fill="#263238"/>
<path d="M221.38 209.57C221.295 210.211 220.968 210.795 220.466 211.202C219.964 211.609 219.325 211.809 218.68 211.76C216.89 211.76 215.81 210.68 215.99 208.6C215.998 208.125 216.1 207.656 216.292 207.221C216.484 206.786 216.761 206.393 217.107 206.067C217.453 205.741 217.86 205.487 218.306 205.321C218.751 205.155 219.225 205.08 219.7 205.1C220.346 205.078 220.984 205.241 221.54 205.57L220.77 206.87C220.434 206.635 220.03 206.519 219.62 206.54C219.193 206.517 218.774 206.659 218.448 206.936C218.123 207.213 217.916 207.605 217.87 208.03C218.295 207.701 218.823 207.531 219.36 207.55C219.632 207.525 219.905 207.561 220.161 207.654C220.418 207.746 220.65 207.894 220.843 208.087C221.036 208.28 221.184 208.512 221.277 208.769C221.369 209.025 221.405 209.298 221.38 209.57ZM219.62 209.65C219.633 209.541 219.621 209.43 219.585 209.326C219.549 209.223 219.49 209.128 219.411 209.051C219.333 208.974 219.238 208.916 219.134 208.881C219.03 208.846 218.919 208.835 218.81 208.85C218.57 208.825 218.33 208.896 218.142 209.048C217.955 209.2 217.835 209.42 217.81 209.66C217.797 209.771 217.809 209.884 217.846 209.99C217.884 210.096 217.945 210.192 218.025 210.27C218.105 210.348 218.203 210.407 218.309 210.442C218.416 210.476 218.529 210.486 218.64 210.47C218.759 210.484 218.879 210.473 218.994 210.439C219.108 210.405 219.215 210.347 219.307 210.271C219.398 210.194 219.473 210.099 219.527 209.993C219.581 209.886 219.613 209.769 219.62 209.65Z" fill="#263238"/>
<path d="M239.23 205.23L238.67 211.63H236.86L237.3 206.63H236.11L236.23 205.23H239.23Z" fill="#263238"/>
<path d="M245.39 205.23L245.29 206.36L242.58 211.63H240.58L243.17 206.63H241.49L241.4 207.63H239.86L240.07 205.21L245.39 205.23Z" fill="#263238"/>
<path d="M263.13 205.23L262.58 211.63H260.77L261.2 206.63H260L260.13 205.23H263.13Z" fill="#263238"/>
<path d="M269.219 209.74C269.119 210.97 267.919 211.74 266.219 211.74C264.519 211.74 263.509 210.95 263.619 209.74C263.646 209.427 263.752 209.126 263.927 208.866C264.102 208.605 264.34 208.393 264.619 208.25C264.419 208.107 264.26 207.913 264.16 207.688C264.06 207.463 264.022 207.215 264.049 206.97C264.149 205.83 265.249 205.1 266.759 205.1C268.269 205.1 269.249 205.83 269.149 206.97C269.122 207.23 269.036 207.481 268.897 207.703C268.759 207.924 268.571 208.112 268.349 208.25C268.63 208.379 268.864 208.591 269.02 208.857C269.176 209.124 269.245 209.432 269.219 209.74ZM267.409 209.69C267.409 209.2 267.089 208.9 266.519 208.9C266.283 208.875 266.045 208.943 265.858 209.091C265.671 209.239 265.55 209.454 265.519 209.69C265.519 210.18 265.829 210.49 266.409 210.49C266.647 210.51 266.883 210.438 267.069 210.29C267.255 210.141 267.377 209.926 267.409 209.69ZM265.92 207.05C265.92 207.47 266.159 207.72 266.619 207.72C266.718 207.731 266.818 207.723 266.913 207.695C267.008 207.667 267.097 207.621 267.174 207.558C267.252 207.496 267.316 207.419 267.363 207.332C267.41 207.245 267.44 207.149 267.449 207.05C267.449 206.62 267.189 206.37 266.739 206.37C266.641 206.36 266.541 206.37 266.447 206.399C266.352 206.429 266.264 206.476 266.188 206.539C266.112 206.602 266.049 206.68 266.003 206.768C265.956 206.856 265.928 206.951 265.92 207.05Z" fill="#263238"/>
<path d="M287 205.23L286.44 211.63H284.63L285.07 206.63H283.88L284 205.23H287Z" fill="#263238"/>
<path d="M293.05 208.25C293.044 208.727 292.942 209.198 292.75 209.635C292.558 210.072 292.28 210.466 291.933 210.793C291.586 211.12 291.177 211.375 290.73 211.541C290.283 211.707 289.807 211.782 289.33 211.76C288.688 211.781 288.053 211.617 287.5 211.29L288.27 209.99C288.605 210.226 289.01 210.343 289.42 210.32C289.844 210.341 290.259 210.199 290.583 209.924C290.906 209.649 291.112 209.262 291.16 208.84C290.735 209.162 290.213 209.328 289.68 209.31C289.412 209.331 289.143 209.294 288.89 209.201C288.638 209.108 288.409 208.961 288.219 208.771C288.029 208.581 287.882 208.352 287.789 208.1C287.696 207.847 287.659 207.578 287.68 207.31C287.763 206.67 288.088 206.086 288.588 205.679C289.089 205.271 289.726 205.071 290.37 205.12C292.15 205.1 293.23 206.18 293.05 208.25ZM291.18 207.2C291.23 206.72 290.91 206.39 290.36 206.39C290.128 206.373 289.899 206.449 289.723 206.601C289.547 206.753 289.438 206.968 289.42 207.2C289.405 207.31 289.416 207.422 289.451 207.527C289.487 207.632 289.546 207.727 289.624 207.806C289.703 207.884 289.798 207.943 289.903 207.979C290.008 208.014 290.12 208.025 290.23 208.01C290.463 208.027 290.693 207.951 290.871 207.8C291.049 207.648 291.16 207.433 291.18 207.2Z" fill="#263238"/>
<path d="M142.37 226L142.25 227.43H137.25L137.35 226.3L140 224C140.56 223.52 140.66 223.23 140.68 223C140.7 222.77 140.46 222.34 139.91 222.34C139.676 222.339 139.446 222.395 139.238 222.503C139.031 222.611 138.853 222.768 138.72 222.96L137.44 222.21C137.756 221.776 138.174 221.428 138.657 221.196C139.141 220.964 139.674 220.855 140.21 220.88C141.68 220.88 142.63 221.64 142.52 222.82C142.467 223.224 142.326 223.613 142.109 223.958C141.891 224.303 141.602 224.597 141.26 224.82L139.9 226H142.37Z" fill="#263238"/>
<path d="M143.05 224.18C143.23 222.07 144.53 220.86 146.17 220.86C147.81 220.86 148.87 222.07 148.69 224.18C148.51 226.29 147.21 227.51 145.58 227.51C143.95 227.51 142.87 226.29 143.05 224.18ZM146.87 224.18C146.99 222.84 146.61 222.34 146.04 222.34C145.47 222.34 145.04 222.84 144.87 224.18C144.7 225.52 145.13 226.03 145.71 226.03C146.29 226.03 146.75 225.53 146.87 224.18Z" fill="#263238"/>
<path d="M166.69 226L166.56 227.43H161.56L161.66 226.3L164.25 224.06C164.8 223.58 164.9 223.29 164.92 223.06C164.94 222.83 164.71 222.4 164.16 222.4C163.924 222.397 163.692 222.452 163.482 222.56C163.273 222.668 163.094 222.826 162.96 223.02L161.68 222.27C161.996 221.837 162.414 221.489 162.897 221.257C163.381 221.025 163.914 220.916 164.45 220.94C165.92 220.94 166.87 221.7 166.77 222.88C166.714 223.285 166.571 223.673 166.352 224.018C166.133 224.363 165.842 224.657 165.5 224.88L164.2 226H166.69Z" fill="#263238"/>
<path d="M170.4 221L169.84 227.4H168L168.43 222.4H167.25L167.37 221H170.4Z" fill="#263238"/>
<path d="M191.81 226L191.68 227.43H186.68L186.78 226.3L189.37 224.06C189.93 223.58 190.03 223.29 190.05 223.06C190.07 222.83 189.83 222.4 189.28 222.4C189.046 222.399 188.815 222.455 188.608 222.563C188.401 222.671 188.223 222.828 188.09 223.02L186.81 222.27C187.125 221.836 187.544 221.488 188.027 221.256C188.51 221.024 189.044 220.915 189.58 220.94C191.05 220.94 192 221.7 191.89 222.88C191.836 223.285 191.696 223.673 191.479 224.018C191.261 224.363 190.971 224.657 190.63 224.88L189.34 226H191.81Z" fill="#263238"/>
<path d="M197.29 226L197.16 227.43H192.16L192.26 226.3L194.85 224.06C195.4 223.58 195.5 223.29 195.53 223.06C195.56 222.83 195.31 222.4 194.76 222.4C194.525 222.4 194.294 222.456 194.085 222.564C193.876 222.672 193.696 222.828 193.56 223.02L192.29 222.27C192.604 221.837 193.02 221.488 193.502 221.256C193.984 221.024 194.516 220.915 195.05 220.94C196.53 220.94 197.47 221.7 197.37 222.88C197.316 223.286 197.175 223.675 196.955 224.02C196.736 224.365 196.444 224.659 196.1 224.88L194.8 226H197.29Z" fill="#263238"/>
<path d="M215.71 226L215.59 227.43H210.59L210.69 226.3L213.3 224C213.85 223.52 213.95 223.23 213.97 223C213.99 222.77 213.76 222.34 213.21 222.34C212.974 222.337 212.742 222.392 212.533 222.5C212.323 222.608 212.144 222.766 212.01 222.96L210.73 222.21C211.046 221.777 211.464 221.429 211.948 221.197C212.431 220.965 212.964 220.856 213.5 220.88C214.97 220.88 215.92 221.64 215.82 222.82C215.764 223.225 215.622 223.613 215.403 223.958C215.183 224.303 214.893 224.597 214.55 224.82L213.25 225.94L215.71 226Z" fill="#263238"/>
<path d="M221.22 225.38C221.13 226.47 220.22 227.51 218.22 227.51C217.367 227.529 216.526 227.311 215.79 226.88L216.57 225.52C217.076 225.869 217.676 226.054 218.29 226.05C218.91 226.05 219.29 225.81 219.37 225.38C219.45 224.95 219.14 224.76 218.44 224.76H217.68L217.78 223.62L219.03 222.38H216.51L216.63 220.98H221.26L221.16 222.12L219.71 223.54C219.931 223.559 220.146 223.621 220.343 223.725C220.539 223.828 220.713 223.969 220.854 224.141C220.994 224.313 221.099 224.511 221.162 224.723C221.225 224.936 221.245 225.159 221.22 225.38Z" fill="#263238"/>
<path d="M239.62 226L239.49 227.43H234.49L234.59 226.3L237.2 224C237.76 223.52 237.86 223.23 237.88 223C237.9 222.77 237.66 222.34 237.11 222.34C236.876 222.339 236.646 222.395 236.439 222.503C236.231 222.611 236.053 222.768 235.92 222.96L234.64 222.21C234.955 221.775 235.373 221.426 235.857 221.194C236.341 220.962 236.874 220.854 237.41 220.88C238.88 220.88 239.83 221.64 239.72 222.82C239.667 223.224 239.527 223.612 239.309 223.958C239.092 224.303 238.802 224.597 238.46 224.82L237.15 226H239.62Z" fill="#263238"/>
<path d="M246.12 226.16H245.12L245.01 227.38H243.3L243.41 226.16H240L240.1 224.98L243.32 220.98H245.19L242.26 224.72H243.56L243.65 223.64H245.36L245.27 224.72H246.22L246.12 226.16Z" fill="#263238"/>
<path d="M263.519 226L263.399 227.43H258.399L258.499 226.3L261.089 224.06C261.639 223.58 261.739 223.29 261.759 223.06C261.779 222.83 261.549 222.4 260.999 222.4C260.764 222.397 260.531 222.452 260.322 222.56C260.113 222.668 259.933 222.826 259.799 223.02L258.519 222.27C258.836 221.837 259.254 221.489 259.737 221.257C260.221 221.025 260.754 220.916 261.289 220.94C262.759 220.94 263.709 221.7 263.609 222.88C263.554 223.285 263.411 223.673 263.192 224.018C262.973 224.363 262.682 224.657 262.339 224.88L261.039 226H263.519Z" fill="#263238"/>
<path d="M269.14 225.33C269.04 226.47 268.09 227.51 266.14 227.51C265.29 227.531 264.452 227.312 263.72 226.88L264.49 225.52C264.995 225.869 265.596 226.054 266.21 226.05C266.83 226.05 267.21 225.8 267.3 225.37C267.39 224.94 267.09 224.72 266.11 224.72H264.37L265 221H269.08L268.95 222.4H266.38L266.21 223.34H266.64C268.58 223.32 269.24 224.19 269.14 225.33Z" fill="#263238"/>
<path d="M287.43 226L287.3 227.43H282.3L282.4 226.3L285 224C285.56 223.52 285.65 223.23 285.68 223C285.71 222.77 285.46 222.34 284.91 222.34C284.676 222.339 284.446 222.395 284.238 222.503C284.031 222.611 283.853 222.768 283.72 222.96L282.44 222.21C282.755 221.775 283.173 221.426 283.657 221.194C284.14 220.962 284.674 220.854 285.21 220.88C286.68 220.88 287.63 221.64 287.52 222.82C287.466 223.224 287.326 223.612 287.109 223.958C286.891 224.303 286.602 224.597 286.26 224.82L285 226H287.43Z" fill="#263238"/>
<path d="M293.48 225.33C293.395 225.97 293.067 226.553 292.565 226.959C292.062 227.365 291.423 227.562 290.78 227.51C288.99 227.51 287.91 226.43 288.09 224.36C288.097 223.885 288.2 223.416 288.392 222.981C288.584 222.546 288.861 222.154 289.206 221.827C289.552 221.501 289.96 221.248 290.405 221.081C290.851 220.915 291.325 220.84 291.8 220.86C292.444 220.835 293.083 220.995 293.64 221.32L292.87 222.62C292.532 222.388 292.129 222.273 291.72 222.29C291.293 222.267 290.873 222.409 290.548 222.686C290.222 222.963 290.015 223.355 289.97 223.78C290.397 223.455 290.924 223.289 291.46 223.31C291.732 223.284 292.006 223.318 292.263 223.41C292.52 223.502 292.754 223.65 292.947 223.843C293.14 224.036 293.288 224.27 293.38 224.527C293.472 224.784 293.506 225.058 293.48 225.33ZM291.72 225.41C291.735 225.3 291.724 225.188 291.688 225.083C291.653 224.978 291.594 224.883 291.515 224.804C291.437 224.726 291.342 224.667 291.237 224.631C291.131 224.596 291.02 224.585 290.91 224.6C290.79 224.585 290.668 224.594 290.551 224.628C290.435 224.661 290.327 224.718 290.233 224.795C290.14 224.872 290.063 224.967 290.007 225.074C289.951 225.182 289.918 225.299 289.91 225.42C289.91 225.89 290.18 226.22 290.73 226.22C290.849 226.235 290.969 226.226 291.084 226.193C291.199 226.16 291.307 226.104 291.399 226.028C291.492 225.953 291.568 225.859 291.623 225.752C291.678 225.646 291.711 225.53 291.72 225.41Z" fill="#263238"/>
<path d="M141 241.7L140.88 243.14H135.88L136 242L138.59 239.77C139.14 239.29 139.24 239 139.26 238.77C139.28 238.54 139.04 238.12 138.5 238.12C138.264 238.116 138.031 238.17 137.821 238.278C137.612 238.387 137.433 238.545 137.3 238.74L136 238C136.314 237.564 136.731 237.213 137.215 236.979C137.699 236.745 138.233 236.635 138.77 236.66C140.24 236.66 141.19 237.42 141.08 238.61C141.028 239.015 140.889 239.404 140.671 239.75C140.454 240.095 140.163 240.389 139.82 240.61L138.51 241.72L141 241.7Z" fill="#263238"/>
<path d="M147.15 236.74L147.05 237.87L144.33 243.14H142.33L144.92 238.14H143.24L143.15 239.14H141.61L141.82 236.72L147.15 236.74Z" fill="#263238"/>
<path d="M165.31 241.7L165.18 243.14H160.18L160.28 242L162.87 239.77C163.42 239.29 163.52 239 163.55 238.77C163.58 238.54 163.33 238.12 162.78 238.12C162.544 238.117 162.312 238.172 162.102 238.28C161.893 238.388 161.714 238.546 161.58 238.74L160.31 237.99C160.621 237.553 161.036 237.201 161.519 236.967C162.001 236.733 162.534 236.624 163.07 236.65C164.55 236.65 165.49 237.41 165.39 238.6C165.334 239.005 165.191 239.393 164.972 239.738C164.753 240.083 164.462 240.377 164.12 240.6L162.82 241.71L165.31 241.7Z" fill="#263238"/>
<path d="M171.4 241.26C171.29 242.48 170.1 243.26 168.4 243.26C166.7 243.26 165.69 242.47 165.79 241.26C165.816 240.947 165.921 240.646 166.096 240.385C166.271 240.124 166.51 239.912 166.79 239.77C166.588 239.626 166.428 239.43 166.328 239.203C166.227 238.976 166.19 238.726 166.22 238.48C166.31 237.34 167.42 236.61 168.93 236.61C170.44 236.61 171.41 237.34 171.32 238.48C171.294 238.742 171.208 238.994 171.069 239.217C170.93 239.441 170.743 239.63 170.52 239.77C170.803 239.897 171.039 240.108 171.197 240.375C171.354 240.642 171.425 240.951 171.4 241.26ZM169.59 241.2C169.59 240.71 169.27 240.41 168.7 240.41C168.463 240.384 168.226 240.453 168.039 240.601C167.852 240.748 167.73 240.963 167.7 241.2C167.7 241.69 168.01 242 168.59 242C168.827 242.02 169.064 241.948 169.25 241.799C169.436 241.651 169.558 241.436 169.59 241.2ZM168.1 238.56C168.1 238.98 168.34 239.23 168.8 239.23C168.899 239.241 168.998 239.232 169.094 239.205C169.189 239.177 169.278 239.13 169.355 239.068C169.432 239.006 169.496 238.929 169.543 238.842C169.591 238.754 169.62 238.659 169.63 238.56C169.63 238.13 169.36 237.88 168.92 237.88C168.821 237.87 168.722 237.88 168.627 237.909C168.533 237.938 168.445 237.986 168.368 238.049C168.292 238.112 168.229 238.19 168.183 238.278C168.137 238.365 168.109 238.461 168.1 238.56Z" fill="#263238"/>
<path d="M190.43 241.7L190.31 243.14H185.31L185.4 242L188 239.77C188.55 239.29 188.65 239 188.67 238.77C188.69 238.54 188.45 238.12 187.91 238.12C187.674 238.115 187.441 238.17 187.231 238.278C187.022 238.386 186.842 238.545 186.71 238.74L185.43 237.99C185.743 237.554 186.161 237.203 186.645 236.969C187.128 236.735 187.663 236.625 188.2 236.65C189.67 236.65 190.62 237.41 190.51 238.6C190.458 239.005 190.319 239.394 190.101 239.739C189.883 240.085 189.593 240.379 189.25 240.6L188 241.7H190.43Z" fill="#263238"/>
<path d="M196.449 239.77C196.442 240.246 196.339 240.716 196.146 241.152C195.954 241.587 195.676 241.98 195.329 242.306C194.982 242.633 194.574 242.886 194.127 243.052C193.68 243.217 193.205 243.291 192.729 243.27C192.087 243.29 191.452 243.127 190.899 242.8L191.669 241.5C192.005 241.736 192.41 241.853 192.819 241.83C193.243 241.85 193.659 241.709 193.982 241.434C194.305 241.159 194.512 240.771 194.559 240.35C194.133 240.669 193.612 240.835 193.079 240.82C192.811 240.843 192.541 240.807 192.288 240.714C192.035 240.622 191.805 240.475 191.615 240.285C191.424 240.094 191.278 239.864 191.185 239.611C191.093 239.358 191.057 239.088 191.079 238.82C191.162 238.18 191.487 237.596 191.988 237.188C192.488 236.781 193.126 236.581 193.769 236.63C195.549 236.61 196.629 237.69 196.449 239.77ZM194.579 238.71C194.593 238.599 194.58 238.487 194.544 238.382C194.507 238.278 194.447 238.182 194.368 238.104C194.288 238.026 194.193 237.967 194.087 237.932C193.982 237.896 193.87 237.885 193.759 237.9C193.528 237.883 193.298 237.959 193.122 238.111C192.946 238.263 192.837 238.478 192.819 238.71C192.803 238.819 192.812 238.931 192.846 239.036C192.88 239.141 192.938 239.237 193.016 239.316C193.094 239.394 193.189 239.454 193.294 239.489C193.398 239.525 193.51 239.535 193.619 239.52C193.853 239.537 194.085 239.461 194.264 239.31C194.443 239.159 194.557 238.943 194.579 238.71Z" fill="#263238"/>
<path d="M214.369 241.14C214.269 242.22 213.319 243.27 211.369 243.27C210.517 243.286 209.676 243.069 208.939 242.64L209.719 241.27C210.228 241.62 210.832 241.805 211.449 241.8C212.059 241.8 212.449 241.57 212.519 241.14C212.589 240.71 212.289 240.52 211.599 240.52H210.839L210.939 239.37L212.189 238.14H209.669L209.789 236.74H214.409L214.309 237.87L212.859 239.3C213.081 239.318 213.296 239.381 213.492 239.484C213.689 239.588 213.862 239.729 214.003 239.901C214.144 240.072 214.249 240.27 214.312 240.483C214.375 240.696 214.394 240.919 214.369 241.14Z" fill="#263238"/>
<path d="M215.06 239.94C215.25 237.83 216.54 236.61 218.18 236.61C219.82 236.61 220.88 237.83 220.7 239.94C220.52 242.05 219.22 243.27 217.59 243.27C215.96 243.27 214.88 242.05 215.06 239.94ZM218.88 239.94C219 238.6 218.62 238.09 218.05 238.09C217.48 238.09 217 238.6 216.88 239.94C216.76 241.28 217.14 241.79 217.72 241.79C218.3 241.79 218.76 241.28 218.88 239.94Z" fill="#263238"/>
<path d="M148.2 134.48L144.82 137.92L147.56 141.72L148.2 134.48Z" fill="#263238"/>
<path d="M296.61 134.48L299.38 137.92L295.97 141.72L296.61 134.48Z" fill="#263238"/>
<path d="M252.24 141.72H191.57L192.2 134.48H252.87L252.24 141.72Z" fill="#263238"/>
<path d="M370.94 272.02H302.09L314.95 125.07H383.8L370.94 272.02Z" fill="#40DCFF"/>
<path d="M370.94 272.02H302.09L314.95 125.07H383.8L370.94 272.02Z" fill="black"/>
<path d="M327 184H320.3C319.914 184.007 319.531 183.933 319.175 183.782C318.82 183.631 318.501 183.406 318.238 183.123C317.976 182.84 317.776 182.504 317.652 182.138C317.528 181.772 317.484 181.384 317.52 181L319.66 156.6C319.75 155.784 320.135 155.028 320.743 154.476C321.351 153.924 322.139 153.612 322.96 153.6H329.67C330.056 153.594 330.438 153.669 330.793 153.821C331.148 153.973 331.467 154.198 331.729 154.48C331.991 154.763 332.191 155.098 332.315 155.463C332.439 155.829 332.485 156.216 332.45 156.6L330.32 181C330.228 181.819 329.839 182.575 329.228 183.128C328.616 183.68 327.824 183.991 327 184Z" fill="white"/>
<path d="M327 171.13C326.9 172.22 326 173.26 324 173.26C323.148 173.278 322.307 173.06 321.57 172.63L322.35 171.27C322.859 171.62 323.463 171.806 324.08 171.8C324.69 171.8 325.08 171.56 325.15 171.13C325.22 170.7 324.92 170.51 324.23 170.51H323.47L323.57 169.37L324.82 168.13H322.29L322.42 166.73H327.04L326.94 167.87L325.49 169.29C325.711 169.309 325.927 169.371 326.123 169.475C326.319 169.578 326.493 169.719 326.634 169.891C326.775 170.063 326.88 170.261 326.943 170.473C327.006 170.686 327.025 170.909 327 171.13Z" fill="#263238"/>
<path d="M368.55 184H335.78C335.394 184.007 335.01 183.933 334.655 183.782C334.299 183.631 333.98 183.406 333.718 183.123C333.455 182.84 333.255 182.504 333.132 182.138C333.008 181.772 332.963 181.384 333 181L335.13 156.6C335.224 155.784 335.612 155.029 336.221 154.478C336.83 153.926 337.618 153.614 338.44 153.6H371.22C371.605 153.594 371.987 153.669 372.341 153.821C372.696 153.973 373.014 154.198 373.275 154.481C373.537 154.764 373.735 155.099 373.859 155.464C373.982 155.829 374.026 156.216 373.99 156.6L371.86 181C371.765 181.816 371.378 182.57 370.769 183.122C370.16 183.674 369.371 183.986 368.55 184Z" fill="#40DCFF"/>
<path d="M365.3 221.09H332.53C332.144 221.096 331.761 221.02 331.407 220.868C331.052 220.717 330.733 220.492 330.471 220.209C330.209 219.926 330.009 219.591 329.885 219.226C329.761 218.861 329.715 218.474 329.75 218.09L331.89 193.69C331.984 192.873 332.372 192.119 332.981 191.567C333.59 191.016 334.378 190.704 335.2 190.69H368C368.385 190.684 368.768 190.759 369.123 190.911C369.477 191.063 369.796 191.287 370.058 191.57C370.32 191.853 370.52 192.188 370.644 192.553C370.769 192.918 370.815 193.306 370.78 193.69L368.64 218.09C368.545 218.911 368.153 219.669 367.537 220.222C366.922 220.774 366.126 221.083 365.3 221.09Z" fill="#263238"/>
<path d="M362.059 258.19H329.279C328.894 258.196 328.512 258.121 328.158 257.969C327.804 257.817 327.485 257.592 327.224 257.309C326.963 257.026 326.764 256.691 326.641 256.326C326.518 255.961 326.473 255.574 326.509 255.19L328.639 230.79C328.734 229.974 329.122 229.22 329.73 228.668C330.339 228.116 331.128 227.804 331.949 227.79H364.719C365.106 227.783 365.489 227.857 365.844 228.008C366.2 228.159 366.519 228.384 366.782 228.667C367.044 228.95 367.244 229.286 367.368 229.652C367.491 230.018 367.536 230.406 367.499 230.79L365.359 255.19C365.269 256.006 364.884 256.762 364.277 257.314C363.669 257.866 362.881 258.178 362.059 258.19Z" fill="#40DCFF"/>
<path d="M323.77 221.09H317.06C316.674 221.096 316.292 221.02 315.938 220.869C315.584 220.717 315.266 220.492 315.004 220.209C314.743 219.926 314.544 219.591 314.421 219.226C314.298 218.86 314.253 218.473 314.29 218.09L316.42 193.69C316.514 192.874 316.902 192.119 317.511 191.567C318.12 191.016 318.908 190.704 319.73 190.69H326.44C326.825 190.684 327.207 190.759 327.561 190.911C327.916 191.063 328.234 191.288 328.495 191.571C328.757 191.854 328.955 192.189 329.078 192.554C329.202 192.919 329.246 193.306 329.21 193.69L327.08 218.09C326.985 218.906 326.598 219.66 325.989 220.212C325.38 220.764 324.591 221.076 323.77 221.09Z" fill="white"/>
<path d="M320.36 201.81L319.8 208.21H318L318.44 203.21H317.25L317.37 201.81H320.36Z" fill="#263238"/>
<path d="M325.86 206.21C325.77 207.3 324.86 208.34 322.86 208.34C322.007 208.359 321.166 208.141 320.43 207.71L321.2 206.35C321.711 206.694 322.313 206.878 322.93 206.88C323.54 206.88 323.93 206.64 324 206.21C324.07 205.78 323.78 205.59 323.08 205.59H322.32L322.42 204.45L323.67 203.21H321.15L321.27 201.81H325.9L325.8 202.95L324.35 204.37C324.571 204.387 324.787 204.449 324.984 204.552C325.181 204.655 325.356 204.796 325.497 204.968C325.638 205.14 325.743 205.339 325.805 205.552C325.867 205.766 325.886 205.989 325.86 206.21Z" fill="#263238"/>
<path d="M320.52 258.19H313.82C313.434 258.197 313.05 258.123 312.695 257.972C312.339 257.821 312.02 257.596 311.758 257.313C311.495 257.029 311.295 256.694 311.172 256.328C311.048 255.962 311.003 255.574 311.04 255.19L313.17 230.79C313.264 229.974 313.652 229.219 314.261 228.668C314.87 228.116 315.658 227.804 316.48 227.79H323.19C323.575 227.784 323.958 227.859 324.313 228.011C324.667 228.163 324.986 228.387 325.248 228.67C325.51 228.953 325.71 229.288 325.834 229.653C325.959 230.019 326.005 230.406 325.97 230.79L323.83 255.19C323.735 256.006 323.348 256.76 322.739 257.312C322.13 257.864 321.341 258.176 320.52 258.19Z" fill="white"/>
<path d="M369.45 142.23H328.07L328.75 134.48H370.12L369.45 142.23Z" fill="white"/>
<path d="M226 114.78C226.107 113.654 226.641 112.611 227.493 111.867C228.345 111.123 229.45 110.734 230.58 110.78C231.19 110.743 231.799 110.855 232.355 111.108C232.911 111.361 233.397 111.746 233.77 112.23L232.27 113.49C232.078 113.209 231.82 112.979 231.518 112.822C231.216 112.665 230.88 112.585 230.54 112.59C229.939 112.576 229.357 112.799 228.92 113.211C228.482 113.622 228.223 114.19 228.2 114.79C228.15 115.068 228.163 115.355 228.239 115.627C228.316 115.9 228.453 116.152 228.641 116.364C228.828 116.575 229.062 116.742 229.323 116.85C229.585 116.959 229.867 117.007 230.15 116.99C230.514 116.985 230.872 116.901 231.2 116.744C231.528 116.587 231.818 116.36 232.05 116.08L233.32 117.34C232.885 117.815 232.352 118.19 231.758 118.44C231.165 118.69 230.524 118.81 229.88 118.79C229.347 118.837 228.811 118.765 228.31 118.578C227.809 118.391 227.356 118.095 226.984 117.71C226.612 117.326 226.33 116.863 226.16 116.356C225.99 115.849 225.935 115.311 226 114.78Z" fill="white"/>
<path d="M239.32 117.13H236.07L235.33 118.63H233.11L237.18 110.93H239.33L242.06 118.63H239.8L239.32 117.13ZM238.83 115.52L238.05 113.06L236.85 115.52H238.83Z" fill="white"/>
<path d="M243.35 110.93H245.53L245.01 116.93H248.68L248.53 118.66H242.68L243.35 110.93Z" fill="white"/>
<path d="M255.72 116.94L255.57 118.63H249.39L250.06 110.93H256.06L255.91 112.61H252.03L251.92 113.91H255.34L255.2 115.53H251.78L251.65 116.94H255.72Z" fill="white"/>
<path d="M264.78 110.93L264.11 118.63H262.31L259.31 114.52L258.95 118.63H256.82L257.49 110.93H259.29L262.29 115.03L262.65 110.93H264.78Z" fill="white"/>
<path d="M266.32 110.93H270C272.55 110.93 274.17 112.41 274 114.78C273.83 117.15 271.91 118.63 269.36 118.63H265.72L266.32 110.93ZM269.32 116.93C269.615 116.951 269.912 116.914 270.193 116.819C270.474 116.724 270.733 116.573 270.955 116.377C271.177 116.18 271.357 115.941 271.485 115.674C271.613 115.406 271.686 115.116 271.7 114.82C271.746 114.541 271.727 114.256 271.645 113.986C271.563 113.716 271.419 113.469 271.226 113.264C271.032 113.058 270.794 112.901 270.529 112.803C270.264 112.705 269.98 112.67 269.7 112.7H268.33L267.96 116.93H269.32Z" fill="white"/>
<path d="M279.91 117.13H276.66L275.92 118.63H273.7L277.77 110.93H279.92L282.65 118.63H280.39L279.91 117.13ZM279.42 115.52L278.64 113.06L277.44 115.52H279.42Z" fill="white"/>
<path d="M286.81 116.58H285.63L285.45 118.58H283.27L283.94 110.88H287.46C289.56 110.88 290.79 111.96 290.63 113.73C290.596 114.254 290.417 114.759 290.113 115.188C289.81 115.617 289.393 115.954 288.91 116.16L290.36 118.58H288L286.81 116.58ZM287.18 112.64H286L285.8 114.9H287C287.91 114.9 288.39 114.48 288.45 113.78C288.51 113.08 288.08 112.64 287.18 112.64Z" fill="white"/>
<path d="M147 117.29H146C145.796 117.294 145.593 117.255 145.406 117.174C145.218 117.094 145.05 116.975 144.912 116.824C144.774 116.674 144.669 116.496 144.605 116.302C144.541 116.108 144.519 115.903 144.54 115.7L144.63 114.7C144.674 114.269 144.874 113.87 145.193 113.577C145.512 113.284 145.927 113.118 146.36 113.11H147.36C147.564 113.106 147.767 113.146 147.954 113.226C148.142 113.306 148.311 113.426 148.449 113.576C148.587 113.726 148.691 113.904 148.755 114.098C148.819 114.292 148.841 114.497 148.82 114.7L148.73 115.7C148.686 116.131 148.486 116.531 148.167 116.824C147.848 117.117 147.433 117.283 147 117.29Z" fill="white"/>
<path d="M153.3 117.29H152.3C152.096 117.294 151.894 117.254 151.707 117.174C151.519 117.094 151.351 116.974 151.214 116.824C151.077 116.673 150.973 116.495 150.911 116.301C150.848 116.107 150.827 115.902 150.85 115.7L150.94 114.7C150.984 114.269 151.184 113.869 151.503 113.576C151.822 113.283 152.237 113.117 152.67 113.11H153.67C153.874 113.106 154.076 113.145 154.263 113.225C154.45 113.306 154.618 113.425 154.755 113.576C154.893 113.726 154.996 113.905 155.059 114.098C155.122 114.292 155.143 114.497 155.12 114.7L155.04 115.7C154.994 116.131 154.791 116.531 154.471 116.824C154.15 117.117 153.734 117.282 153.3 117.29Z" fill="white"/>
<path d="M159.57 117.29H158.57C158.367 117.294 158.164 117.254 157.977 117.174C157.79 117.094 157.622 116.974 157.485 116.824C157.347 116.673 157.244 116.495 157.181 116.301C157.118 116.107 157.097 115.902 157.12 115.7L157.21 114.7C157.252 114.27 157.45 113.87 157.767 113.577C158.085 113.284 158.498 113.117 158.93 113.11H159.93C160.134 113.106 160.336 113.145 160.524 113.225C160.711 113.306 160.879 113.425 161.016 113.576C161.153 113.726 161.257 113.905 161.32 114.098C161.382 114.292 161.403 114.497 161.38 114.7L161.29 115.7C161.249 116.13 161.05 116.529 160.733 116.822C160.416 117.116 160.002 117.282 159.57 117.29Z" fill="white"/>
<path d="M317.92 245.75L317.79 247.18H312.79L312.89 246.05L315.48 243.81C316.03 243.33 316.13 243.04 316.16 242.81C316.16 242.39 315.94 242.15 315.39 242.15C315.155 242.149 314.923 242.205 314.714 242.313C314.505 242.421 314.325 242.578 314.19 242.77L312.92 242.02C313.231 241.583 313.647 241.232 314.129 240.998C314.611 240.763 315.145 240.654 315.68 240.68C317.15 240.68 318.1 241.44 318 242.63C317.944 243.035 317.802 243.423 317.583 243.768C317.364 244.113 317.073 244.407 316.73 244.63L315.43 245.75H317.92Z" fill="#263238"/>
<path d="M323.43 245.18C323.33 246.27 322.38 247.31 320.43 247.31C319.577 247.328 318.736 247.11 318 246.68L318.78 245.32C319.29 245.666 319.893 245.851 320.51 245.85C321.12 245.85 321.51 245.61 321.58 245.18C321.65 244.75 321.35 244.56 320.66 244.56H319.9L320 243.41L321.25 242.18H318.72L318.85 240.78H323.47L323.37 241.92L321.92 243.34C322.141 243.358 322.356 243.421 322.553 243.524C322.749 243.628 322.923 243.769 323.064 243.941C323.204 244.112 323.309 244.31 323.372 244.523C323.435 244.736 323.455 244.959 323.43 245.18Z" fill="#263238"/>
<path d="M366.97 165.97H339.95L340.04 164.97H367.06L366.97 165.97Z" fill="white"/>
<path d="M353.06 170.48H339.56L339.64 169.48H353.15L353.06 170.48Z" fill="white"/>
<path d="M360.48 240.12H333.46L333.55 239.12H360.57L360.48 240.12Z" fill="white"/>
<path d="M346.58 244.64H333.07L333.15 243.64H346.66L346.58 244.64Z" fill="white"/>
<path d="M363.749 202.8H336.729L336.809 201.8H363.829L363.749 202.8Z" fill="white"/>
<path d="M349.84 207.31H336.33L336.42 206.31H349.93L349.84 207.31Z" fill="white"/>
<path d="M367.23 158.72C367.82 157.3 367.44 156.27 368.84 156.27C370.24 156.27 369.53 157.27 370.03 158.72C370.29 159.43 369.35 159.3 368.58 159.3C367.81 159.3 366.92 159.45 367.23 158.72Z" fill="white"/>
<path d="M368.8 156.73C368.741 156.73 368.683 156.718 368.629 156.694C368.576 156.671 368.527 156.636 368.488 156.593C368.448 156.55 368.418 156.498 368.4 156.443C368.381 156.387 368.374 156.328 368.38 156.27C368.394 156.146 368.453 156.031 368.544 155.947C368.636 155.862 368.755 155.814 368.88 155.81C368.939 155.808 368.998 155.819 369.052 155.842C369.107 155.865 369.156 155.899 369.196 155.943C369.236 155.987 369.266 156.039 369.284 156.095C369.302 156.151 369.307 156.211 369.3 156.27C369.29 156.395 369.233 156.512 369.14 156.598C369.047 156.683 368.926 156.73 368.8 156.73ZM368.86 156.05C368.8 156.052 368.743 156.075 368.699 156.115C368.655 156.156 368.627 156.21 368.62 156.27C368.617 156.298 368.62 156.326 368.629 156.352C368.638 156.379 368.652 156.404 368.671 156.424C368.69 156.445 368.713 156.462 368.738 156.473C368.764 156.484 368.792 156.49 368.82 156.49C368.88 156.488 368.937 156.465 368.981 156.424C369.025 156.384 369.053 156.329 369.06 156.27C369.063 156.242 369.06 156.214 369.051 156.187C369.042 156.16 369.028 156.136 369.009 156.115C368.99 156.095 368.967 156.078 368.941 156.067C368.916 156.055 368.888 156.05 368.86 156.05Z" fill="white"/>
<path d="M363.999 196C364.589 194.58 364.209 193.56 365.609 193.56C367.009 193.56 366.299 194.56 366.799 196C367.059 196.71 366.12 196.59 365.35 196.59C364.58 196.59 363.659 196.71 363.999 196Z" fill="white"/>
<path d="M365.54 194C365.481 194 365.423 193.988 365.37 193.964C365.316 193.941 365.268 193.906 365.228 193.863C365.188 193.82 365.158 193.768 365.14 193.713C365.121 193.657 365.114 193.598 365.12 193.54C365.132 193.415 365.19 193.299 365.282 193.214C365.375 193.13 365.495 193.082 365.62 193.08C365.679 193.078 365.738 193.089 365.793 193.112C365.847 193.135 365.896 193.169 365.936 193.213C365.976 193.257 366.006 193.309 366.024 193.365C366.042 193.421 366.047 193.481 366.04 193.54C366.028 193.665 365.97 193.78 365.878 193.865C365.786 193.95 365.665 193.998 365.54 194ZM365.6 193.32C365.54 193.322 365.483 193.345 365.439 193.385C365.395 193.426 365.367 193.48 365.36 193.54C365.357 193.568 365.36 193.596 365.369 193.622C365.378 193.649 365.392 193.674 365.411 193.694C365.43 193.715 365.453 193.732 365.479 193.743C365.504 193.754 365.532 193.76 365.56 193.76C365.62 193.758 365.677 193.735 365.721 193.694C365.765 193.654 365.793 193.599 365.8 193.54C365.804 193.511 365.803 193.482 365.794 193.454C365.786 193.426 365.772 193.4 365.753 193.379C365.734 193.357 365.711 193.339 365.684 193.327C365.658 193.315 365.629 193.309 365.6 193.31V193.32Z" fill="white"/>
<path d="M360.71 233.23C361.3 231.81 360.92 230.78 362.32 230.78C363.72 230.78 363.01 231.78 363.51 233.23C363.77 233.93 362.83 233.81 362.06 233.81C361.29 233.81 360.4 234 360.71 233.23Z" fill="white"/>
<path d="M362.28 231.24C362.222 231.24 362.164 231.228 362.11 231.205C362.056 231.181 362.008 231.147 361.968 231.103C361.929 231.06 361.899 231.009 361.88 230.953C361.861 230.897 361.855 230.838 361.86 230.78C361.875 230.656 361.933 230.542 362.025 230.457C362.117 230.373 362.236 230.324 362.36 230.32C362.419 230.318 362.478 230.329 362.533 230.352C362.587 230.375 362.636 230.41 362.676 230.453C362.716 230.497 362.746 230.549 362.764 230.605C362.782 230.662 362.788 230.721 362.78 230.78C362.768 230.905 362.71 231.021 362.618 231.105C362.526 231.19 362.406 231.238 362.28 231.24ZM362.34 230.56C362.281 230.562 362.224 230.585 362.18 230.626C362.136 230.666 362.107 230.721 362.1 230.78C362.098 230.808 362.101 230.836 362.109 230.863C362.118 230.889 362.132 230.914 362.151 230.935C362.17 230.955 362.193 230.972 362.219 230.983C362.245 230.994 362.272 231 362.3 231C362.361 231 362.419 230.978 362.463 230.937C362.508 230.896 362.535 230.84 362.54 230.78C362.543 230.752 362.54 230.724 362.531 230.697C362.522 230.671 362.508 230.646 362.489 230.625C362.47 230.605 362.447 230.588 362.422 230.577C362.396 230.566 362.368 230.56 362.34 230.56Z" fill="white"/>
<path opacity="0.2" d="M156.84 91.1099L104.99 285.04H122.44L173.72 91.1099H156.84Z" fill="white"/>
<path opacity="0.2" d="M183.76 91.1099L131.91 285.04H166.51L217.79 91.1099H183.76Z" fill="white"/>
<path opacity="0.4" d="M123.765 186.06C124.705 182.077 122.238 178.086 118.255 177.146C114.272 176.206 110.281 178.673 109.341 182.656C108.401 186.639 110.868 190.63 114.851 191.57C118.834 192.51 122.824 190.043 123.765 186.06Z" fill="white"/>
<path opacity="0.4" d="M389.43 184.37C389.43 185.104 389.212 185.822 388.804 186.432C388.396 187.042 387.816 187.518 387.137 187.798C386.459 188.079 385.712 188.152 384.992 188.008C384.272 187.864 383.611 187.509 383.093 186.989C382.574 186.47 382.222 185.808 382.08 185.087C381.938 184.367 382.013 183.621 382.295 182.943C382.577 182.265 383.054 181.687 383.666 181.28C384.277 180.874 384.996 180.658 385.73 180.66C386.217 180.66 386.698 180.756 387.148 180.942C387.598 181.129 388.006 181.402 388.35 181.747C388.693 182.092 388.966 182.501 389.151 182.951C389.336 183.401 389.431 183.883 389.43 184.37Z" fill="white"/>
<path d="M337.7 118.7C337.664 119.054 337.499 119.382 337.238 119.623C336.976 119.864 336.636 120.002 336.28 120.01C336.113 120.012 335.947 119.979 335.793 119.912C335.64 119.846 335.502 119.747 335.39 119.623C335.277 119.499 335.192 119.353 335.14 119.194C335.089 119.034 335.072 118.866 335.09 118.7C335.127 118.347 335.292 118.02 335.553 117.78C335.815 117.54 336.155 117.405 336.51 117.4C336.677 117.396 336.843 117.428 336.996 117.493C337.15 117.559 337.288 117.656 337.401 117.779C337.513 117.903 337.598 118.048 337.65 118.207C337.702 118.366 337.719 118.534 337.7 118.7Z" fill="white"/>
<path d="M339.139 114.82L338.509 115.89C337.787 115.578 337.006 115.425 336.219 115.44C335.507 115.438 334.803 115.596 334.159 115.9L333.649 114.83C334.509 114.431 335.446 114.224 336.394 114.224C337.343 114.224 338.279 114.431 339.139 114.83V114.82Z" fill="white"/>
<path d="M340.91 111.8L340.27 112.88C339.073 112.318 337.762 112.044 336.44 112.08C335.16 112.081 333.898 112.375 332.75 112.94L332.25 111.88C333.586 111.216 335.058 110.874 336.55 110.88C338.056 110.834 339.551 111.149 340.91 111.8Z" fill="white"/>
<path d="M342.69 108.73L342.05 109.84C340.376 109.021 338.522 108.635 336.66 108.72C334.806 108.703 332.974 109.121 331.31 109.94L330.82 108.94C332.669 108.022 334.706 107.546 336.77 107.55C338.811 107.451 340.844 107.856 342.69 108.73Z" fill="white"/>
<path d="M360.36 120.22C359.537 120.233 358.721 120.071 357.965 119.745C357.209 119.419 356.531 118.936 355.976 118.328C355.421 117.72 355.002 117.001 354.745 116.219C354.489 115.436 354.402 114.608 354.49 113.79C354.671 112.048 355.482 110.433 356.772 109.248C358.061 108.064 359.74 107.392 361.49 107.36V107.64C359.817 107.67 358.214 108.313 356.983 109.447C355.752 110.58 354.979 112.125 354.81 113.79C354.725 114.573 354.807 115.364 355.052 116.113C355.296 116.861 355.697 117.549 356.227 118.131C356.758 118.713 357.406 119.175 358.129 119.487C358.852 119.798 359.633 119.953 360.42 119.94L360.36 120.22Z" fill="white"/>
<path d="M360.59 120.47H360.34C359.483 120.49 358.632 120.326 357.844 119.989C357.055 119.652 356.349 119.15 355.771 118.517C355.193 117.884 354.757 117.135 354.493 116.32C354.229 115.504 354.143 114.641 354.24 113.79C354.43 111.982 355.273 110.305 356.612 109.075C357.951 107.845 359.692 107.146 361.51 107.11H361.76L361.69 107.89H361.44C359.835 107.921 358.297 108.538 357.116 109.625C355.936 110.712 355.193 112.193 355.03 113.79C354.948 114.541 355.026 115.301 355.26 116.019C355.494 116.737 355.878 117.397 356.387 117.955C356.896 118.513 357.518 118.957 358.212 119.256C358.905 119.555 359.655 119.703 360.41 119.69H360.66L360.59 120.47Z" fill="white"/>
<path d="M360.359 120.22V119.94C362.032 119.909 363.636 119.266 364.867 118.133C366.098 117 366.871 115.455 367.039 113.79C367.125 113.007 367.042 112.215 366.798 111.467C366.554 110.718 366.153 110.03 365.622 109.449C365.092 108.867 364.443 108.405 363.721 108.093C362.998 107.781 362.217 107.627 361.429 107.64V107.36C362.253 107.345 363.07 107.506 363.826 107.831C364.582 108.157 365.26 108.64 365.814 109.249C366.369 109.857 366.787 110.577 367.042 111.36C367.296 112.143 367.381 112.972 367.289 113.79C367.113 115.521 366.312 117.128 365.036 118.311C363.761 119.494 362.099 120.173 360.359 120.22Z" fill="white"/>
<path d="M360.34 120.47H360.09L360.16 119.69H360.41C362.015 119.659 363.552 119.042 364.733 117.955C365.914 116.868 366.656 115.386 366.82 113.79C366.902 113.039 366.824 112.279 366.59 111.561C366.356 110.843 365.972 110.183 365.463 109.624C364.954 109.066 364.332 108.623 363.638 108.324C362.944 108.025 362.195 107.877 361.44 107.89H361.19L361.26 107.11H361.51C362.366 107.091 363.216 107.256 364.003 107.594C364.79 107.931 365.496 108.433 366.073 109.066C366.649 109.699 367.084 110.448 367.348 111.263C367.611 112.077 367.697 112.939 367.6 113.79C367.415 115.598 366.574 117.275 365.236 118.506C363.899 119.737 362.157 120.435 360.34 120.47Z" fill="white"/>
<path d="M364.21 113.79H363.93C364.11 111.71 363.3 108.92 361.39 107.62L361.56 107.38C363.55 108.74 364.4 111.63 364.21 113.79Z" fill="white"/>
<path d="M364.44 114H363.66V113.75C363.83 111.75 363.05 109.04 361.21 107.75L361.02 107.62L361.5 106.96L361.69 107.09C363.75 108.49 364.69 111.48 364.44 113.71V114Z" fill="white"/>
<path d="M360.46 120L360.32 119.76C361.333 119.053 362.181 118.136 362.806 117.071C363.431 116.006 363.818 114.819 363.94 113.59H364.23C364.099 114.866 363.695 116.1 363.044 117.206C362.394 118.312 361.512 119.265 360.46 120Z" fill="white"/>
<path d="M360.35 120.35L359.99 119.69L360.21 119.56C361.191 118.872 362.01 117.979 362.611 116.943C363.211 115.907 363.58 114.753 363.69 113.56V113.31H364.47V113.56C364.334 114.88 363.914 116.155 363.239 117.298C362.564 118.44 361.65 119.423 360.56 120.18L360.35 120.35Z" fill="white"/>
<path d="M357.92 113.79H357.64C357.769 112.513 358.172 111.279 358.823 110.172C359.474 109.066 360.356 108.113 361.41 107.38L361.54 107.62C360.529 108.328 359.682 109.246 359.058 110.311C358.433 111.375 358.045 112.562 357.92 113.79Z" fill="white"/>
<path d="M358.15 114H357.37V113.75C357.505 112.431 357.923 111.156 358.596 110.013C359.269 108.871 360.181 107.887 361.27 107.13L361.49 107L361.86 107.66L361.64 107.79C360.659 108.478 359.839 109.371 359.236 110.407C358.633 111.443 358.263 112.597 358.15 113.79V114Z" fill="white"/>
<path d="M360.3 120C358.3 118.64 357.47 115.75 357.65 113.59H357.94C357.76 115.67 358.57 118.46 360.48 119.76L360.3 120Z" fill="white"/>
<path d="M360.35 120.35L360.15 120.22C358.09 118.82 357.21 115.83 357.4 113.6V113.35H358.18V113.6C358 115.6 358.78 118.31 360.62 119.6L360.82 119.73L360.35 120.35Z" fill="white"/>
<path d="M360.509 120.08H360.229L361.329 107.5H361.619L360.509 120.08Z" fill="white"/>
<path d="M360.74 120.33H359.96L361.11 107.25H361.89L360.74 120.33Z" fill="white"/>
<path d="M366.53 110.58H355.88L355.91 110.3H366.55L366.53 110.58Z" fill="white"/>
<path d="M366.759 110.83H355.609L355.679 110.05H366.819L366.759 110.83Z" fill="white"/>
<path d="M367.19 114.04H354.62L354.64 113.76H367.21L367.19 114.04Z" fill="white"/>
<path d="M367.42 114.29H354.34L354.41 113.51H367.49L367.42 114.29Z" fill="white"/>
<path d="M365.78 117.49H355.42L355.44 117.21H365.81L365.78 117.49Z" fill="white"/>
<path d="M366.01 117.74H355.14L355.21 116.96H366.08L366.01 117.74Z" fill="white"/>
<path d="M247.54 410.78L254.65 404.88L236.71 387.85L229.05 394.39L247.54 410.78Z" fill="#CB7A63"/>
<path d="M260.43 402.6C259.617 402.355 258.745 402.397 257.96 402.72C257.48 402.86 256.96 403.02 256.54 403.19C256.12 403.36 255.87 403.44 255.61 403.55L254.81 403.9C254.767 403.916 254.729 403.945 254.703 403.982C254.676 404.02 254.661 404.064 254.66 404.11C254.649 404.143 254.649 404.178 254.66 404.21C254.696 404.263 254.749 404.302 254.81 404.32C255.822 404.589 256.856 404.763 257.9 404.84C258.409 404.909 258.926 404.872 259.42 404.73H259.49C259.772 404.639 260.043 404.519 260.3 404.37C260.463 404.238 260.591 404.067 260.673 403.874C260.754 403.68 260.788 403.47 260.77 403.26C260.774 403.13 260.746 403.001 260.686 402.886C260.626 402.77 260.538 402.672 260.43 402.6ZM260.33 403.25C260.352 403.392 260.335 403.536 260.28 403.669C260.225 403.801 260.135 403.916 260.02 404C259.782 404.176 259.503 404.289 259.21 404.33C258.808 404.404 258.397 404.424 257.99 404.39C257.355 404.359 256.724 404.282 256.1 404.16L255.63 404.06C256.476 403.656 257.365 403.347 258.28 403.14C258.767 403.022 259.261 402.939 259.76 402.89C259.911 402.886 260.06 402.924 260.19 403C260.232 403.027 260.267 403.064 260.292 403.107C260.316 403.151 260.329 403.2 260.33 403.25Z" fill="#40DCFF"/>
<path d="M257.159 398.85C256.931 398.887 256.712 398.971 256.518 399.096C256.323 399.222 256.157 399.387 256.029 399.58C255.949 399.699 255.882 399.827 255.829 399.96C255.439 401.116 255.363 402.355 255.609 403.55C255.609 403.55 255.609 403.6 255.609 403.6C255.615 403.641 255.632 403.68 255.658 403.712C255.685 403.744 255.72 403.767 255.759 403.78C255.781 403.79 255.805 403.795 255.829 403.795C255.854 403.795 255.877 403.79 255.899 403.78C255.935 403.776 255.967 403.758 255.989 403.73C256.182 403.559 256.362 403.375 256.529 403.18C256.846 402.805 257.13 402.403 257.379 401.98C257.999 400.98 258.439 399.84 258.169 399.25C258.069 399 257.809 398.74 257.159 398.85ZM257.759 399.44C257.929 399.83 257.589 400.72 257.089 401.6C256.785 402.138 256.423 402.641 256.009 403.1C255.871 402.197 255.919 401.275 256.149 400.39C256.208 400.198 256.295 400.016 256.409 399.85C256.572 399.604 256.816 399.423 257.099 399.34H257.239C257.659 399.24 257.739 399.4 257.759 399.44Z" fill="#40DCFF"/>
<path d="M253.73 404.45L244.79 409C244.619 409.081 244.483 409.22 244.406 409.392C244.329 409.565 244.316 409.759 244.37 409.94L247.01 418.31C247.073 418.509 247.175 418.693 247.311 418.851C247.446 419.009 247.612 419.139 247.799 419.232C247.985 419.325 248.188 419.38 248.396 419.394C248.604 419.407 248.813 419.379 249.01 419.31L249.17 419.25C264.48 413.86 269.17 410.05 270.78 409.18C275.34 406.69 272.78 403.46 271.07 403.86C263.43 405.69 260.87 405.22 257.56 404.37C256.295 404.092 254.982 404.12 253.73 404.45Z" fill="#263238"/>
<path opacity="0.2" d="M236.71 387.86L245.8 395.91L238.14 402.45L229.05 394.4L236.71 387.86Z" fill="black"/>
<path d="M233.89 402.39L245.31 391.85L242.8 387.43L229.58 398.78L233.89 402.39Z" fill="#40DCFF"/>
<path d="M240.999 389L239.469 390.32L237.189 392.32L235.819 393.49L231.819 396.91L231.049 397.57C231.049 397.57 214.769 388.4 205.709 380.57C199.499 375.2 198.939 373.21 198.279 373.71C189.529 380.37 163.629 403.39 148.939 415.37C148.469 415.43 147.989 415.47 147.509 415.51C139.669 416.08 133.509 415.23 128.709 413.4C128.659 407.03 134.099 392.16 134.549 390.72C134.549 390.72 156.209 369.18 191.319 350.96C191.659 350.79 192.019 350.64 192.379 350.49C192.739 350.34 193.289 350.1 193.749 349.94C195.468 349.254 197.283 348.842 199.129 348.72C200.685 348.658 202.238 348.902 203.699 349.44C204.535 349.734 205.348 350.092 206.129 350.51C206.816 350.868 207.484 351.262 208.129 351.69C209.209 352.38 210.259 353.15 211.259 353.91C213.499 355.64 230.459 377.48 239.579 387.56C240.109 388 240.559 388.53 240.999 389Z" fill="#40DCFF"/>
<path d="M240.999 389L239.469 390.32L237.189 392.32L235.819 393.49L231.819 396.91L231.049 397.57C231.049 397.57 214.769 388.4 205.709 380.57C199.499 375.2 198.939 373.21 198.279 373.71C189.529 380.37 163.629 403.39 148.939 415.37C148.469 415.43 147.989 415.47 147.509 415.51C139.669 416.08 133.509 415.23 128.709 413.4C128.659 407.03 134.099 392.16 134.549 390.72C134.549 390.72 156.209 369.18 191.319 350.96C191.659 350.79 192.019 350.64 192.379 350.49C192.739 350.34 193.289 350.1 193.749 349.94C195.468 349.254 197.283 348.842 199.129 348.72C200.685 348.658 202.238 348.902 203.699 349.44C204.535 349.734 205.348 350.092 206.129 350.51C206.816 350.868 207.484 351.262 208.129 351.69C209.209 352.38 210.259 353.15 211.259 353.91C213.499 355.64 230.459 377.48 239.579 387.56C240.109 388 240.559 388.53 240.999 389Z" fill="black"/>
<path d="M251.639 415.26L259.349 407.74L244.429 389L235.109 394.5L251.639 415.26Z" fill="#CB7A63"/>
<path d="M267.219 405.43C266.359 405.13 264.609 406.09 263.219 406.94L262.329 407.53L262.189 407.63L261.589 408.06C261.545 408.085 261.51 408.124 261.49 408.171C261.47 408.218 261.466 408.271 261.479 408.32C261.492 408.37 261.52 408.414 261.56 408.446C261.599 408.479 261.648 408.498 261.699 408.5C262.62 408.535 263.543 408.505 264.459 408.41L265.059 408.34C265.724 408.292 266.366 408.071 266.919 407.7C267.114 407.571 267.297 407.427 267.469 407.27C267.614 407.096 267.713 406.889 267.757 406.667C267.8 406.445 267.787 406.216 267.719 406C267.685 405.874 267.621 405.757 267.535 405.658C267.448 405.559 267.34 405.481 267.219 405.43ZM267.219 406.14C267.271 406.285 267.283 406.441 267.255 406.592C267.227 406.743 267.16 406.884 267.059 407C266.647 407.409 266.114 407.675 265.539 407.76C264.863 407.918 264.173 408.012 263.479 408.04C263.159 408.04 262.819 408.04 262.479 408.04L262.809 407.78L263.049 407.61C264.122 406.857 265.302 406.27 266.549 405.87C266.703 405.825 266.866 405.825 267.019 405.87C267.086 405.879 267.147 405.911 267.193 405.96C267.238 406.01 267.265 406.073 267.269 406.14H267.219Z" fill="#40DCFF"/>
<path d="M262.94 402.25C262.714 402.34 262.508 402.475 262.336 402.647C262.164 402.819 262.03 403.024 261.94 403.25C261.31 404.79 262.24 407.15 262.4 407.52C262.417 407.561 262.445 407.596 262.48 407.622C262.515 407.648 262.556 407.665 262.6 407.67C262.649 407.685 262.701 407.685 262.75 407.67C262.767 407.668 262.784 407.661 262.798 407.651C262.812 407.64 262.823 407.626 262.83 407.61C262.991 407.397 263.132 407.17 263.25 406.93C263.99 405.54 264.68 403.22 264.08 402.42C263.92 402.2 263.59 402 262.94 402.25ZM262.69 406.96C262.42 406.17 261.94 404.5 262.38 403.46C262.492 403.163 262.709 402.917 262.99 402.77L263.12 402.7C263.55 402.53 263.66 402.7 263.7 402.7C264.13 403.32 263.47 405.68 262.69 407V406.96Z" fill="#40DCFF"/>
<path opacity="0.2" d="M243.65 387.85L250.67 396.84L241.17 402.13L234.04 393.38L243.65 387.85Z" fill="black"/>
<path d="M249.54 391.87L247.59 392.97L244.24 394.86L241.24 396.54L238.15 398.28L237 399L236.26 398.46L235.63 398C234.89 397.45 233.87 396.68 232.63 395.74C226.42 390.83 215.37 381.19 212.08 372.42C209.95 374.96 207.47 378.2 204.49 381.65C181.31 408.56 156.55 427.53 122.55 419.36C107.78 415.81 108.34 395.36 108.34 395.36C108.34 387.63 114.07 379.68 114.07 379.68L159.3 383.19C165.56 375.59 178.1 363.69 190.93 356.19C191.23 356 191.54 355.82 191.85 355.66C192.16 355.5 192.62 355.22 193 355.01C196.867 352.821 201.001 351.14 205.3 350.01C206.18 349.8 207.05 349.61 207.9 349.49C208.781 349.356 209.669 349.269 210.56 349.23C216.64 348.95 221.92 351.23 225.5 357.28L248.87 390.96L249.54 391.87Z" fill="#40DCFF"/>
<path opacity="0.5" d="M249.54 391.87L247.59 392.97L244.24 394.86L241.24 396.54L238.15 398.28L237 399L236.26 398.46L235.63 398C234.89 397.45 233.87 396.68 232.63 395.74C226.42 390.83 215.37 381.19 212.08 372.42C209.95 374.96 207.47 378.2 204.49 381.65C181.31 408.56 156.55 427.53 122.55 419.36C107.78 415.81 108.34 395.36 108.34 395.36C108.34 387.63 114.07 379.68 114.07 379.68L159.3 383.19C165.56 375.59 178.1 363.69 190.93 356.19C191.23 356 191.54 355.82 191.85 355.66C192.16 355.5 192.62 355.22 193 355.01C196.867 352.821 201.001 351.14 205.3 350.01C206.18 349.8 207.05 349.61 207.9 349.49C208.781 349.356 209.669 349.269 210.56 349.23C216.64 348.95 221.92 351.23 225.5 357.28L248.87 390.96L249.54 391.87Z" fill="black"/>
<path d="M235.08 401.1L250.02 393.63L248.74 388.32L231.71 396.09L235.08 401.1Z" fill="#40DCFF"/>
<path d="M258.749 406.93L248.449 410.05C248.254 410.105 248.085 410.228 247.971 410.397C247.858 410.565 247.807 410.768 247.829 410.97L249.079 420.31C249.155 420.746 249.398 421.135 249.757 421.395C250.116 421.654 250.561 421.764 250.999 421.7H251.179C268.379 418.83 274.059 415.7 275.909 415.04C281.199 413.25 279.079 409.36 277.209 409.47C268.779 409.99 266.159 409.02 262.819 407.47C261.528 406.958 260.13 406.773 258.749 406.93Z" fill="#263238"/>
<path d="M207.059 358.1H175.059C174.849 358.104 174.641 358.063 174.447 357.981C174.254 357.898 174.081 357.774 173.939 357.619C173.797 357.464 173.69 357.28 173.624 357.081C173.559 356.881 173.537 356.669 173.559 356.46L175.339 336C175.384 335.556 175.589 335.144 175.917 334.841C176.246 334.539 176.673 334.368 177.119 334.36H209.119C209.33 334.356 209.538 334.397 209.732 334.48C209.925 334.563 210.098 334.686 210.24 334.841C210.382 334.996 210.489 335.18 210.555 335.38C210.62 335.58 210.642 335.791 210.619 336L208.829 356.47C208.781 356.91 208.575 357.317 208.25 357.617C207.925 357.917 207.502 358.088 207.059 358.1Z" fill="#263238"/>
<path opacity="0.9" d="M207.07 356.49H176.38L178.19 335.89H208.87L207.07 356.49Z" fill="white"/>
<path opacity="0.4" d="M176.83 345.32C176.83 345.501 176.776 345.677 176.676 345.827C176.575 345.977 176.433 346.093 176.266 346.162C176.099 346.23 175.915 346.248 175.739 346.212C175.562 346.176 175.4 346.088 175.273 345.96C175.146 345.832 175.06 345.669 175.026 345.492C174.992 345.314 175.012 345.131 175.082 344.965C175.152 344.799 175.271 344.657 175.422 344.559C175.572 344.46 175.749 344.408 175.93 344.41C176.049 344.41 176.167 344.434 176.277 344.48C176.386 344.526 176.486 344.593 176.57 344.677C176.653 344.762 176.72 344.862 176.764 344.973C176.809 345.083 176.831 345.201 176.83 345.32Z" fill="black"/>
<path opacity="0.4" d="M209.4 344.86C209.4 344.949 209.374 345.036 209.324 345.11C209.275 345.184 209.204 345.242 209.122 345.276C209.04 345.31 208.95 345.319 208.862 345.302C208.775 345.284 208.695 345.241 208.632 345.178C208.569 345.115 208.526 345.035 208.509 344.948C208.491 344.861 208.5 344.77 208.534 344.688C208.568 344.606 208.626 344.535 208.7 344.486C208.774 344.437 208.861 344.41 208.95 344.41C209.069 344.41 209.184 344.458 209.268 344.542C209.353 344.626 209.4 344.741 209.4 344.86Z" fill="black"/>
<path d="M131.539 299C132.679 305.26 131.019 313.65 126.609 317.76C131.609 327.26 139.079 336.46 146.089 344.56C156.009 328.64 147.499 318.29 147.499 318.29C140.549 316.54 140.759 313.72 142.029 308.9L131.539 299Z" fill="#CB7A63"/>
<path d="M126.939 315.05C127.667 313.442 128.914 312.125 130.479 311.31C131.999 310.42 146.479 312.09 150.029 313.79C152.132 314.762 153.807 316.469 154.739 318.59L126.939 315.05Z" fill="#40DCFF"/>
<path d="M167.729 293.8L174.169 296.8C174.694 298.483 174.878 300.255 174.709 302.01C174.339 304.21 173.349 304.94 169.709 303.42C166.469 299.32 167.729 293.8 167.729 293.8Z" fill="#CB7A63"/>
<path d="M171.999 289.73L172.719 291.27L173.999 292C174.33 292.204 174.589 292.507 174.738 292.866C174.887 293.225 174.919 293.622 174.829 294L174.16 296.76L167.729 293.76L168.949 291.33C170.069 289.62 170.949 289.13 171.889 289.58L171.999 289.73Z" fill="#CB7A63"/>
<path d="M165.17 329.92C168.86 321.83 170.41 318.04 174.43 303.07L169.09 302.47C163.74 316.78 157.6 322.85 157.6 322.85C157.6 322.85 127.48 317.78 123.74 319.55C117.68 322.41 120.92 328.66 124.74 330.24C128.56 331.82 150.13 335.37 160.11 334.14C161.245 333.93 162.306 333.431 163.192 332.692C164.078 331.953 164.759 330.998 165.17 329.92Z" fill="#CB7A63"/>
<path d="M188.37 296.26L188.35 296.28L188.34 296.27L188.37 296.26Z" fill="black"/>
<path d="M165.619 330.06C171.679 349.65 151.509 352.47 156.619 383.98L114.109 379.63C116.459 363.39 121.799 367.63 118.049 336.04C117.729 333.37 117.599 325.79 121.219 319.37C122.615 316.856 124.837 314.902 127.509 313.84C130.849 312.55 144.509 315.61 150.709 316.84C157.609 316.73 164.669 327.59 165.619 330.06Z" fill="#40DCFF"/>
<path d="M156.71 292.39C156.31 293.11 156.39 293.85 156.84 294.1C157.29 294.35 157.97 294 158.36 293.3C158.75 292.6 158.68 291.84 158.23 291.59C157.78 291.34 157.09 291.7 156.71 292.39Z" fill="#263238"/>
<path d="M158 291.52L159.93 291.96C159.93 291.96 158.36 292.79 158 291.52Z" fill="#263238"/>
<path d="M156.83 293.86C157.2 295.762 157.832 297.603 158.71 299.33C158.259 299.539 157.767 299.648 157.27 299.648C156.773 299.648 156.281 299.539 155.83 299.33L156.83 293.86Z" fill="#A02724"/>
<path d="M159.749 287.39C159.825 287.362 159.892 287.315 159.944 287.254C159.997 287.192 160.033 287.119 160.049 287.04C160.073 286.918 160.047 286.792 159.978 286.689C159.909 286.586 159.801 286.514 159.679 286.49C158.955 286.337 158.205 286.36 157.492 286.557C156.779 286.753 156.123 287.118 155.579 287.62C155.526 287.658 155.481 287.707 155.448 287.763C155.415 287.819 155.393 287.881 155.385 287.946C155.377 288.011 155.383 288.077 155.402 288.139C155.421 288.202 155.453 288.26 155.495 288.309C155.538 288.359 155.59 288.399 155.649 288.427C155.708 288.456 155.773 288.471 155.838 288.473C155.903 288.475 155.968 288.463 156.029 288.439C156.089 288.414 156.144 288.377 156.189 288.33L156.249 288.27C156.686 287.882 157.207 287.602 157.772 287.452C158.336 287.303 158.928 287.288 159.499 287.41C159.583 287.429 159.67 287.422 159.749 287.39Z" fill="#263238"/>
<path d="M131.12 285.41C129.97 295.1 129.27 299.18 133.22 304.98C139.16 313.7 151.34 312.98 155.35 303.85C158.97 295.6 160.25 281.14 151.56 275.62C149.649 274.39 147.456 273.67 145.189 273.528C142.921 273.386 140.655 273.826 138.606 274.808C136.557 275.789 134.794 277.279 133.483 279.135C132.173 280.99 131.359 283.151 131.12 285.41Z" fill="#CB7A63"/>
<path d="M155.59 303.27C154.871 302.608 154.343 301.766 154.06 300.83C154.051 300.778 154.061 300.725 154.089 300.681C154.116 300.636 154.16 300.604 154.21 300.59C154.26 300.58 154.312 300.589 154.357 300.615C154.401 300.64 154.434 300.681 154.45 300.73C154.703 301.535 155.15 302.266 155.75 302.86L155.59 303.27Z" fill="#263238"/>
<path d="M162.72 282.25C162.74 283.252 162.384 284.226 161.721 284.978C161.058 285.729 160.136 286.205 159.14 286.31C157.84 289.83 154.24 295.2 151.08 293.17C152.92 293.11 156.28 288.94 153.44 285.68C151.36 283.3 148.54 277.05 153.44 275.52C157.23 274.34 162.71 278.41 162.72 282.25Z" fill="#263238"/>
<path d="M154.229 278.3C152.859 272.63 144.689 268.21 138.859 268.39C133.029 268.57 127.669 271.76 123.399 275.73C121.179 277.79 119.109 280.19 118.319 283.12C117.529 286.05 118.319 289.57 120.879 291.22C111.579 300.39 118.499 304.11 119.879 303.48C120.079 305.78 118.509 307.14 116.399 308.65C114.519 309.99 114.049 311.58 113.399 313.79C112.749 316 113.399 318.79 115.399 319.79C115.256 319.448 115.186 319.079 115.195 318.708C115.203 318.337 115.289 317.972 115.447 317.636C115.606 317.301 115.833 317.002 116.114 316.76C116.395 316.518 116.724 316.337 117.079 316.23C116.583 317.383 116.446 318.658 116.686 319.89C116.927 321.121 117.534 322.252 118.428 323.132C119.322 324.013 120.461 324.604 121.696 324.826C122.931 325.049 124.204 324.893 125.349 324.38C124.429 324.15 123.139 323.25 122.989 322.31C125.63 323.441 128.43 324.156 131.289 324.43C134.159 324.54 137.219 323.61 138.989 321.35C139.099 319.71 141.319 318.07 142.989 318.13C143.813 318.184 144.588 318.543 145.163 319.136C145.737 319.729 146.071 320.515 146.099 321.34C147.919 320.94 148.669 318.93 148.769 317.08C148.809 316.093 148.509 315.123 147.919 314.33C147.584 313.936 147.173 313.614 146.711 313.382C146.249 313.15 145.745 313.013 145.229 312.98C144.342 312.722 143.592 312.126 143.139 311.32C142.967 310.867 142.918 310.377 142.997 309.899C143.076 309.422 143.281 308.973 143.589 308.6C150.819 298.28 147.409 291.86 147.889 290.6C148.369 289.34 150.689 290.96 150.689 290.96C152.789 288.31 154.999 281.6 154.229 278.3Z" fill="#263238"/>
<path d="M143.5 292.48C143.32 294.727 144.04 296.953 145.5 298.67C147.45 300.94 150.08 299.59 150.91 296.89C151.67 294.46 151.56 290.35 148.91 289.07C146.26 287.79 143.74 289.74 143.5 292.48Z" fill="#CB7A63"/>
<path d="M114.11 376.35L112.64 380.07C112.46 380.35 112.79 380.68 113.27 380.73L157.05 385.23C157.43 385.23 157.77 385.11 157.82 384.87L157.24 380.7C157.3 380.45 156.98 380.19 156.56 380.15L114.85 376.15C114.719 376.118 114.583 376.119 114.454 376.154C114.324 376.189 114.206 376.257 114.11 376.35Z" fill="#40DCFF"/>
<path d="M152.45 385.12H151.29C151.06 385.12 150.88 385 150.9 384.86L151.51 379.86C151.51 379.72 151.73 379.6 151.96 379.6H153.12C153.35 379.6 153.53 379.72 153.51 379.87L152.9 384.87C152.88 385 152.68 385.12 152.45 385.12Z" fill="#263238"/>
<path d="M136.799 383.34H135.639C135.419 383.34 135.239 383.21 135.259 383.07L135.869 378.07C135.869 377.93 136.089 377.82 136.319 377.82H137.479C137.699 377.82 137.889 377.94 137.859 378.1L137.259 383.05C137.239 383.24 136.999 383.34 136.799 383.34Z" fill="#40DCFF"/>
<path d="M136.799 383.34H135.639C135.419 383.34 135.239 383.21 135.259 383.07L135.869 378.07C135.869 377.93 136.089 377.82 136.319 377.82H137.479C137.699 377.82 137.889 377.94 137.859 378.1L137.259 383.05C137.239 383.24 136.999 383.34 136.799 383.34Z" fill="#263238"/>
<path opacity="0.2" d="M147.24 328.65C147.24 328.65 144.35 333.02 149.4 346.18L151.53 351.55C152.23 353.33 158.71 350.72 160.91 347.84C160.91 347.84 150.21 339.42 147.24 328.65Z" fill="black"/>
<path d="M197.299 355L205.179 350.27L205.119 357.48C205.119 357.48 199.119 362.41 196.459 358.48C196.459 358.5 195.569 355.74 197.299 355Z" fill="#CB7A63"/>
<path d="M210.75 352.58L210.42 355.2C210.372 355.596 210.199 355.966 209.926 356.256C209.652 356.546 209.292 356.74 208.9 356.81L205.09 357.48L205.15 350.27L208.98 350.51C209.222 350.518 209.461 350.573 209.682 350.674C209.903 350.774 210.102 350.917 210.267 351.095C210.433 351.272 210.561 351.481 210.646 351.708C210.73 351.936 210.769 352.178 210.76 352.42C210.761 352.474 210.758 352.527 210.75 352.58Z" fill="#CB7A63"/>
<path d="M161.05 359.64C163.71 364.4 167.76 368.64 172.94 370.33C179.04 372.33 193.08 364.4 199.46 359.39C199.46 356.93 198.93 356.27 196.56 355.62C196.56 355.62 189.77 359.39 177.71 360.62C173.81 361.02 171.78 356.83 169.19 350.78C167.9 347.78 162.9 329.66 161.19 326.84C158.49 322.31 148.94 324.1 151.33 334.47C152.36 338.86 158.88 355.75 161.05 359.64Z" fill="#CB7A63"/>
<path d="M162.36 323.5C168.12 330.3 169.94 341.28 169.94 341.28L153.56 348.62C153.56 348.62 144.42 331.62 147.1 326.42C149.2 322.42 152.45 320 156.29 320.25C157.468 320.354 158.614 320.696 159.657 321.254C160.7 321.813 161.619 322.577 162.36 323.5Z" fill="#40DCFF"/>
<path d="M119.55 381.76L118.39 381.64C118.17 381.59 118 381.49 118.03 381.34L119.03 376.45C119.03 376.3 119.27 376.21 119.5 376.23L120.66 376.35C120.88 376.35 121.05 376.51 121.02 376.65L120.02 381.55C119.982 381.638 119.913 381.708 119.826 381.747C119.739 381.786 119.64 381.791 119.55 381.76Z" fill="#263238"/>
<path d="M114.9 375.617L114.804 376.613L156.518 380.659L156.614 379.663L114.9 375.617Z" fill="#263238"/>
</svg>
