<svg width="36" height="29" viewBox="0 0 36 29" fill="none" xmlns="http://www.w3.org/2000/svg">
<path d="M5.5 7.5C5.5 6.74788 5.64549 6.00313 5.92818 5.30827C6.21086 4.6134 6.62519 3.98203 7.14752 3.45021C7.66985 2.91838 8.28995 2.49651 8.97241 2.20869C9.65486 1.92087 10.3863 1.77273 11.125 1.77273C11.8637 1.77273 12.5951 1.92087 13.2776 2.20869C13.9601 2.49651 14.5801 2.91838 15.1025 3.45021C15.6248 3.98203 16.0391 4.6134 16.3218 5.30827C16.6045 6.00313 16.75 6.74788 16.75 7.5C16.75 9.01897 16.1574 10.4757 15.1025 11.5498C14.0476 12.6239 12.6168 13.2273 11.125 13.2273C9.63316 13.2273 8.20242 12.6239 7.14752 11.5498C6.09263 10.4757 5.5 9.01897 5.5 7.5ZM11.125 0.5C9.30164 0.5 7.55295 1.2375 6.26364 2.55025C4.97433 3.86301 4.25 5.64348 4.25 7.5C4.25 9.35651 4.97433 11.137 6.26364 12.4497C7.55295 13.7625 9.30164 14.5 11.125 14.5C12.9484 14.5 14.697 13.7625 15.9864 12.4497C17.2757 11.137 18 9.35651 18 7.5C18 5.64348 17.2757 3.86301 15.9864 2.55025C14.697 1.2375 12.9484 0.5 11.125 0.5ZM23 9.40909C23 8.39645 23.3951 7.42528 24.0983 6.70923C24.8016 5.99318 25.7554 5.59091 26.75 5.59091C27.7446 5.59091 28.6984 5.99318 29.4017 6.70923C30.1049 7.42528 30.5 8.39645 30.5 9.40909C30.5 10.4217 30.1049 11.3929 29.4017 12.109C28.6984 12.825 27.7446 13.2273 26.75 13.2273C25.7554 13.2273 24.8016 12.825 24.0983 12.109C23.3951 11.3929 23 10.4217 23 9.40909ZM26.75 4.31818C25.4239 4.31818 24.1521 4.85454 23.2145 5.80927C22.2768 6.764 21.75 8.0589 21.75 9.40909C21.75 10.7593 22.2768 12.0542 23.2145 13.0089C24.1521 13.9636 25.4239 14.5 26.75 14.5C28.0761 14.5 29.3479 13.9636 30.2855 13.0089C31.2232 12.0542 31.75 10.7593 31.75 9.40909C31.75 8.0589 31.2232 6.764 30.2855 5.80927C29.3479 4.85454 28.0761 4.31818 26.75 4.31818ZM4.25 17.0455C3.25544 17.0455 2.30161 17.4477 1.59835 18.1638C0.895088 18.8798 0.5 19.851 0.5 20.8636C0.5 22.284 1.02125 24.2109 2.64875 25.7802C4.28 27.3533 6.95 28.5 11.1237 28.5C15.2975 28.5 17.97 27.3545 19.6012 25.7802C21.2288 24.2109 21.75 22.284 21.75 20.8636C21.75 19.851 21.3549 18.8798 20.6517 18.1638C19.9484 17.4477 18.9946 17.0455 18 17.0455H4.25ZM1.75 20.8636C1.75 20.1885 2.01339 19.5411 2.48223 19.0637C2.95107 18.5864 3.58696 18.3182 4.25 18.3182H18C18.663 18.3182 19.2989 18.5864 19.7678 19.0637C20.2366 19.5411 20.5 20.1885 20.5 20.8636C20.5 21.9887 20.0837 23.5618 18.7425 24.8562C17.405 26.1467 15.075 27.2273 11.125 27.2273C7.175 27.2273 4.845 26.1455 3.5075 24.8562C2.16625 23.5618 1.75 21.9887 1.75 20.8636ZM22.9537 24.1575C22.7954 24.541 22.6029 24.9228 22.3762 25.3029C23.5337 25.7064 24.9725 25.9545 26.75 25.9545C30.3025 25.9545 32.5012 24.9656 33.8175 23.7145C35.12 22.4775 35.5 21.0342 35.5 20.2273C35.5 19.3834 35.1708 18.5741 34.5847 17.9774C33.9987 17.3807 33.2038 17.0455 32.375 17.0455H22.1925C22.5275 17.4273 22.8137 17.8549 23.04 18.3182H32.375C32.8723 18.3182 33.3492 18.5193 33.7008 18.8773C34.0525 19.2354 34.25 19.7209 34.25 20.2273C34.25 20.6944 34.005 21.7965 32.9638 22.7855C31.9375 23.7616 30.0725 24.6818 26.75 24.6818C25.1812 24.6818 23.9375 24.4769 22.9537 24.1575Z" fill="white" stroke="white"/>
</svg>
