<svg width="32" height="20" viewBox="0 0 32 20" fill="none" xmlns="http://www.w3.org/2000/svg">
<path d="M1.95284 9.144C1.95284 6.392 2.40084 4.248 3.29684 2.712C4.19284 1.16 5.76084 0.383999 8.00084 0.383999C10.2248 0.383999 11.7848 1.16 12.6808 2.712C13.5768 4.248 14.0248 6.392 14.0248 9.144C14.0248 11.944 13.5768 14.12 12.6808 15.672C11.7848 17.224 10.2248 18 8.00084 18C5.76084 18 4.19284 17.224 3.29684 15.672C2.40084 14.12 1.95284 11.944 1.95284 9.144ZM11.8648 9.144C11.8648 7.752 11.7688 6.576 11.5768 5.616C11.4008 4.64 11.0248 3.856 10.4488 3.264C9.88884 2.672 9.07284 2.376 8.00084 2.376C6.91284 2.376 6.08084 2.672 5.50484 3.264C4.94484 3.856 4.56884 4.64 4.37684 5.616C4.20084 6.576 4.11284 7.752 4.11284 9.144C4.11284 10.584 4.20084 11.792 4.37684 12.768C4.56884 13.744 4.94484 14.528 5.50484 15.12C6.08084 15.712 6.91284 16.008 8.00084 16.008C9.07284 16.008 9.88884 15.712 10.4488 15.12C11.0248 14.528 11.4008 13.744 11.5768 12.768C11.7688 11.792 11.8648 10.584 11.8648 9.144Z" fill="white"/>
<path d="M20.1071 11.9789C20.5235 11.9789 20.9237 11.9067 21.2973 11.7641C21.677 11.6188 22.0157 11.3958 22.288 11.112C22.567 10.8255 22.7922 10.46 22.9573 10.0249C23.12 9.59356 23.2028 9.0818 23.2028 8.50284C23.2028 7.91888 23.122 7.40213 22.9628 6.96711C22.8016 6.52937 22.5783 6.16065 22.2984 5.87049C22.0274 5.58404 21.6884 5.35903 21.3077 5.21297C20.5506 4.92644 19.6354 4.93144 18.8946 5.21343C18.5142 5.36028 18.1752 5.58516 17.9034 5.87095C17.623 6.16292 17.3997 6.5321 17.2405 6.96802C17.0808 7.40122 17 7.91797 17 8.50375C17 9.08271 17.0808 9.59446 17.2405 10.0249C17.3997 10.4577 17.623 10.8237 17.9039 11.1129C18.1764 11.3966 18.5153 11.6194 18.8951 11.7645C19.2798 11.9088 19.6917 11.9817 20.1071 11.9789ZM17.8901 9.83286C17.7595 9.46732 17.6935 9.0205 17.6935 8.50375C17.6935 7.98699 17.76 7.53836 17.8906 7.16964C18.0193 6.80137 18.1952 6.49668 18.4116 6.26419C18.617 6.03981 18.8771 5.86337 19.1706 5.74925C19.4673 5.63634 19.7855 5.57906 20.1066 5.58078C20.4284 5.58078 20.7394 5.63754 21.0307 5.7497C21.3243 5.8635 21.5846 6.03963 21.7902 6.26373C22.0076 6.49804 22.1835 6.80273 22.3122 7.16918C22.4433 7.54063 22.5093 7.98972 22.5093 8.50329C22.5093 9.01686 22.4428 9.46414 22.3127 9.83241C22.1835 10.1952 22.0086 10.4963 21.7912 10.7274C21.5853 10.9493 21.3249 11.1227 21.0317 11.2333C20.4334 11.4506 19.7679 11.4506 19.1696 11.2333C18.8768 11.1224 18.6168 10.9491 18.4111 10.7274C18.1947 10.4981 18.0193 10.197 17.8901 9.83286ZM30.7536 13.9882C30.5894 13.5509 30.3647 13.1836 30.0847 12.8957C29.812 12.6124 29.4734 12.3895 29.0941 12.2436C28.3469 11.9598 27.441 11.9598 26.6869 12.2436C26.3053 12.3883 25.9646 12.6113 25.6908 12.8957C25.4113 13.1836 25.1876 13.5514 25.0259 13.9891C24.8672 14.4232 24.7864 14.9395 24.7864 15.5239C24.7864 16.1015 24.8672 16.6133 25.0264 17.0456C25.1876 17.4797 25.4108 17.8461 25.6913 18.1336C25.9652 18.4178 26.3059 18.6407 26.6874 18.7852C27.0704 18.9277 27.4798 19.0007 27.8929 19C28.3015 19.0013 28.7063 18.9283 29.0842 18.7852C29.4645 18.6393 29.8045 18.4168 30.0793 18.134C30.3627 17.8457 30.5899 17.4802 30.7541 17.046C30.9172 16.6147 31 16.1024 31 15.5239C30.9995 14.9395 30.9167 14.4228 30.7536 13.9882ZM30.1094 16.8535C29.9803 17.2168 29.8048 17.5197 29.5874 17.7531C29.3828 17.9771 29.1224 18.1522 28.8284 18.2635C28.2458 18.481 27.5391 18.481 26.9624 18.2635C26.6702 18.1515 26.4116 17.9765 26.2083 17.7531C25.9919 17.5206 25.816 17.2181 25.6864 16.8535C25.5557 16.4871 25.4897 16.0398 25.4897 15.5235C25.4897 15.0072 25.5562 14.5586 25.6869 14.1894C25.816 13.822 25.9914 13.5178 26.2083 13.2848C26.4227 13.0546 26.6765 12.8812 26.9634 12.7694C27.258 12.6575 27.5738 12.6004 27.8924 12.6014C28.2212 12.6014 28.5361 12.6582 28.8269 12.7694C29.1208 12.8834 29.3812 13.0599 29.5869 13.2844C29.8043 13.5196 29.9803 13.8238 30.1089 14.1894C30.24 14.5608 30.306 15.0104 30.306 15.5235C30.306 16.0366 30.24 16.4848 30.1094 16.8535ZM29.0882 5.15303C29.0142 5.14969 28.9408 5.16559 28.8762 5.1989C28.8296 5.22614 28.7854 5.26292 28.7436 5.30924L18.2134 18.8456H18.8281C18.8949 18.8473 18.961 18.8333 19.0203 18.8049C19.0797 18.7765 19.1302 18.7348 19.1672 18.6835L29.6919 5.15303H29.0882Z" fill="white" stroke="white"/>
</svg>
