<svg width="29" height="30" viewBox="0 0 29 30" fill="none" xmlns="http://www.w3.org/2000/svg">
<path d="M19.5 15.0215C21.0707 14.4085 22.9485 14.4083 24.5078 15.0225H24.5098C25.3079 15.3409 26.0225 15.8282 26.5996 16.4492L26.8164 16.6943C27.3081 17.2838 27.7015 17.9955 27.9951 18.8066C28.3338 19.7424 28.499 20.8361 28.5 22.0479L28.4922 22.4932C28.4558 23.5179 28.2918 24.4502 27.9951 25.2637C27.6591 26.1853 27.1874 26.9763 26.5879 27.6094L26.5889 27.6104C26.0078 28.2303 25.2905 28.7167 24.4902 29.0352L24.4883 29.0361C23.7009 29.3454 22.8579 29.5016 22.0078 29.499L22.0059 29.5V29.499C21.1487 29.5002 20.2988 29.3442 19.5029 29.0371L19.5 29.0361C18.6958 28.7202 17.9757 28.2318 17.3955 27.6074V27.6064C16.8011 26.9738 16.3382 26.1799 16.0088 25.2598V25.2588C15.6785 24.3287 15.5166 23.246 15.5166 22.0479C15.5166 20.8369 15.6778 19.746 16.0068 18.8125L16.0078 18.8105C16.3386 17.8817 16.8021 17.0831 17.3955 16.4492C17.9753 15.8253 18.6954 15.3375 19.499 15.0215H19.5ZM26.4775 0.805664L25.877 1.60645L5.5791 28.667L5.57812 28.666C5.4587 28.8325 5.30097 28.967 5.11816 29.0576C4.93397 29.1489 4.73044 29.1937 4.52539 29.1904V29.1914H2.33984L2.94043 28.3916L23.248 1.31836L23.2588 1.30371L23.2705 1.29102C23.3795 1.16555 23.5044 1.05517 23.6455 0.969727L23.6562 0.962891L23.668 0.957031C23.8659 0.851136 24.0888 0.80124 24.3125 0.807617V0.805664H26.4775ZM22.0049 16.7031C21.4545 16.7013 20.9093 16.8023 20.4014 17.002C19.9221 17.1956 19.4954 17.4975 19.1309 17.9033C18.7672 18.3084 18.4589 18.8537 18.2266 19.5391V19.54C17.997 20.2129 17.8731 21.0528 17.873 22.0469C17.873 23.0415 17.9966 23.8785 18.2256 24.5449C18.4585 25.2243 18.7673 25.7667 19.1309 26.1719L19.1348 26.1768C19.473 26.5622 19.905 26.8663 20.3955 27.0615L20.585 27.1299C21.5423 27.4485 22.6838 27.4261 23.6279 27.0615C24.1223 26.8674 24.5593 26.5629 24.9004 26.1758L24.9033 26.1719C25.2686 25.7651 25.5774 25.2222 25.8096 24.5449L25.8906 24.2861C26.0679 23.662 26.1621 22.9114 26.1621 22.0469C26.1621 21.0591 26.0382 20.2175 25.8076 19.54V19.5391C25.5766 18.8584 25.2674 18.3122 24.9014 17.9014L24.9004 17.8994C24.5563 17.51 24.1181 17.2025 23.6221 17.0029V17.002C23.1235 16.8046 22.5796 16.7031 22.0068 16.7031H22.0049ZM4.4707 0.961914C6.01647 0.35181 7.9121 0.341521 9.49023 0.960938H9.49219C10.2938 1.27987 11.01 1.77225 11.584 2.40039C12.1777 3.03855 12.641 3.83798 12.9707 4.7666V4.76758C13.3008 5.70307 13.4629 6.79559 13.4629 8.00586C13.4629 9.2077 13.2969 10.2912 12.959 11.2207V11.2217C12.6219 12.1427 12.1547 12.9329 11.5645 13.5625L11.5654 13.5635C10.9887 14.1868 10.2727 14.6755 9.47266 14.9932H9.47168C8.69134 15.302 7.85788 15.4567 6.99512 15.457H6.99316L6.99219 15.458V15.457C6.12956 15.4626 5.27378 15.3063 4.47363 14.9951L4.4707 14.9941C3.67074 14.6771 2.95497 14.189 2.37793 13.5664V13.5674C1.78239 12.9314 1.31859 12.1369 0.992188 11.2168L0.993164 11.2158C0.662013 10.2891 0.500029 9.20738 0.5 8.00781C0.5 6.79453 0.661797 5.70207 0.993164 4.76953C1.31931 3.84362 1.78208 3.04357 2.37598 2.40234C2.95142 1.77547 3.66691 1.28358 4.46777 0.962891L4.4707 0.961914ZM6.98828 2.66113C6.43263 2.65807 5.88256 2.76169 5.37012 2.96387L5.36914 2.96289C4.87526 3.16266 4.44045 3.47113 4.09766 3.85938L4.09473 3.8623C3.73199 4.2665 3.42264 4.81253 3.19141 5.49902L3.19043 5.50098C2.96101 6.17272 2.83789 7.01284 2.83789 8.00781C2.83791 8.87899 2.93146 9.62756 3.1084 10.2461L3.18945 10.5029V10.5039C3.42144 11.1824 3.72924 11.7207 4.09082 12.1182L4.09375 12.1211C4.43735 12.505 4.87375 12.8073 5.36719 13.001H5.36621C6.40254 13.3898 7.55536 13.3894 8.5918 13.001C9.08583 12.8079 9.52347 12.5053 9.86719 12.1211L9.87012 12.1191C10.2341 11.7178 10.5404 11.179 10.7725 10.5029C11.001 9.83176 11.125 8.99482 11.125 8.00684C11.125 7.1415 11.0306 6.38919 10.8525 5.76074L10.7715 5.49902C10.5403 4.81611 10.2306 4.26879 9.86523 3.86035L9.86426 3.8584C9.52031 3.46974 9.08324 3.1621 8.58789 2.96289C8.08692 2.76292 7.55007 2.66113 6.99121 2.66113H6.98828Z" fill="white" stroke="white"/>
</svg>
