<svg width="20" height="20" viewBox="0 0 20 20" fill="none" xmlns="http://www.w3.org/2000/svg">
<path d="M10 19C11.1821 19.0015 12.3529 18.7693 13.445 18.3169C14.5371 17.8646 15.5291 17.2008 16.3639 16.3639C17.2008 15.5291 17.8646 14.5371 18.3169 13.445C18.7693 12.3529 19.0015 11.1821 19 10C19.0015 8.8179 18.7693 7.64715 18.3169 6.55503C17.8646 5.46291 17.2008 4.47093 16.3639 3.63611C15.5291 2.79918 14.5371 2.13546 13.445 1.68307C12.3529 1.23068 11.1821 0.998549 10 1.00001C8.8179 0.998549 7.64715 1.23068 6.55503 1.68307C5.46291 2.13546 4.47093 2.79918 3.63611 3.63611C2.79918 4.47093 2.13546 5.46291 1.68307 6.55503C1.23068 7.64715 0.998549 8.8179 1.00001 10C0.998549 11.1821 1.23068 12.3529 1.68307 13.445C2.13546 14.5371 2.79918 15.5291 3.63611 16.3639C4.47093 17.2008 5.46291 17.8646 6.55503 18.3169C7.64715 18.7693 8.8179 19.0015 10 19Z" stroke="#40DCFF" stroke-width="2" stroke-linejoin="round"/>
<path d="M6.40039 9.9998L9.10039 12.6998L14.5004 7.2998" stroke="#40DCFF" stroke-width="2" stroke-linecap="round" stroke-linejoin="round"/>
</svg>
