<svg width="16" height="22" viewBox="0 0 16 22" fill="none" xmlns="http://www.w3.org/2000/svg">
<path d="M14.7501 3.75L7.75006 0.75L0.750061 3.75L4.25006 5.25V7.25M14.7501 3.75L11.2501 5.25V7.25M14.7501 3.75V7.75M4.25006 7.25C4.25006 7.25 5.41706 6.75 7.75006 6.75C10.0831 6.75 11.2501 7.25 11.2501 7.25M4.25006 7.25V8.25C4.25006 8.70963 4.34059 9.16475 4.51648 9.58939C4.69237 10.014 4.95018 10.3999 5.27519 10.7249C5.60019 11.0499 5.98603 11.3077 6.41067 11.4836C6.83531 11.6595 7.29043 11.75 7.75006 11.75C8.20969 11.75 8.66481 11.6595 9.08945 11.4836C9.51409 11.3077 9.89993 11.0499 10.2249 10.7249C10.5499 10.3999 10.8077 10.014 10.9836 9.58939C11.1595 9.16475 11.2501 8.70963 11.2501 8.25V7.25M3.53306 15.453C2.43306 16.138 -0.452939 17.535 1.30406 19.284C2.16306 20.14 3.12006 20.75 4.32106 20.75H11.1791C12.3811 20.75 13.3371 20.139 14.1961 19.284C15.9531 17.535 13.0681 16.138 11.9671 15.454C10.7011 14.6674 9.24046 14.2505 7.75006 14.2505C6.25966 14.2505 4.79897 14.6674 3.53306 15.454" stroke="#407BFF" stroke-width="1.5" stroke-linecap="round" stroke-linejoin="round"/>
</svg>
