<svg width="500" height="500" viewBox="0 0 500 500" fill="none" xmlns="http://www.w3.org/2000/svg">
<path d="M201 84.8597C237.44 78.8597 275.06 89.7397 300 119.19C324.94 148.64 334.69 186.05 351.69 219.77C367 250 400.31 270.34 406.53 305.13C412.53 338.53 392.47 376.06 356.93 380.59C335.58 383.32 314.3 374.64 296.76 363.13C259.12 338.43 224.22 346.25 183.33 354.86C155.73 360.67 125.51 354.58 104.54 335.06C80.7104 312.87 76.8804 279.54 79.5404 248.66C84.6904 188.94 112.54 119.95 170.54 94.0397C180.26 89.6903 190.496 86.6052 201 84.8597Z" fill="#40DCFF"/>
<path opacity="0.9" d="M201 84.8597C237.44 78.8597 275.06 89.7397 300 119.19C324.94 148.64 334.69 186.05 351.69 219.77C367 250 400.31 270.34 406.53 305.13C412.53 338.53 392.47 376.06 356.93 380.59C335.58 383.32 314.3 374.64 296.76 363.13C259.12 338.43 224.22 346.25 183.33 354.86C155.73 360.67 125.51 354.58 104.54 335.06C80.7104 312.87 76.8804 279.54 79.5404 248.66C84.6904 188.94 112.54 119.95 170.54 94.0397C180.26 89.6903 190.496 86.6052 201 84.8597Z" fill="white"/>
<path d="M250 427.56C357.083 427.56 443.89 422.492 443.89 416.24C443.89 409.988 357.083 404.92 250 404.92C142.918 404.92 56.1104 409.988 56.1104 416.24C56.1104 422.492 142.918 427.56 250 427.56Z" fill="#F5F5F5"/>
<path d="M280.93 116.46V412.93C280.931 413.504 280.818 414.073 280.597 414.603C280.377 415.132 280.052 415.613 279.644 416.016C279.235 416.419 278.75 416.737 278.217 416.951C277.684 417.164 277.114 417.269 276.54 417.26H138.54C138.029 417.268 137.522 417.174 137.048 416.983C136.574 416.792 136.143 416.509 135.78 416.15C135.405 415.775 135.108 415.329 134.908 414.838C134.707 414.347 134.606 413.82 134.61 413.29V116.1C134.575 115.171 134.91 114.265 135.542 113.583C136.174 112.9 137.051 112.496 137.98 112.46H177.16C177.707 112.47 178.239 112.643 178.688 112.957C179.136 113.27 179.482 113.71 179.68 114.22L181.31 118.22C181.509 118.729 181.854 119.167 182.303 119.479C182.752 119.791 183.284 119.962 183.83 119.97H231.83C232.373 119.967 232.904 119.801 233.353 119.495C233.802 119.188 234.149 118.755 234.35 118.25L235.98 114.25C236.177 113.738 236.521 113.296 236.97 112.981C237.419 112.666 237.952 112.491 238.5 112.48H277.12C278.144 112.529 279.11 112.969 279.819 113.709C280.528 114.45 280.926 115.435 280.93 116.46Z" fill="#40DCFF"/>
<g opacity="0.1">
<path d="M200.45 120L158.33 277.73L157.86 279.5L157.1 282.34L156.62 284.11L134.62 366.49V266.79L175.83 112.43H177.17C177.719 112.439 178.252 112.612 178.702 112.925C179.153 113.239 179.5 113.679 179.7 114.19L181.32 118.19C181.519 118.698 181.865 119.135 182.314 119.445C182.763 119.755 183.295 119.924 183.84 119.93L200.45 120Z" fill="white"/>
<path d="M280.94 200.529V300.239L254.67 398.629L254.03 401.029L249.7 417.259H223.08L227.41 401.039L228.11 398.429L231.59 385.389L232.28 382.789L233.68 377.569L234.37 374.959L235.76 369.749L236.45 367.139L258.35 285.129V285.119L259.37 281.329V281.319L280.94 200.529Z" fill="white"/>
<path d="M214.87 120L173 276.74L172.74 277.68L170.46 286.27L170.2 287.21L135.8 416.15C135.424 415.773 135.127 415.326 134.926 414.833C134.725 414.34 134.624 413.812 134.63 413.28V398.12L164.24 287.21L164.49 286.27L166.78 277.68L167.03 276.74L208.89 120H214.87Z" fill="white"/>
</g>
<path opacity="0.3" d="M280.93 131.79H134.63V404.14H280.93V131.79Z" fill="white"/>
<path opacity="0.5" d="M278.73 166.47H136.71V201.14H278.73V166.47Z" fill="white"/>
<g opacity="0.2">
<path d="M196.79 176.42H143.92C143.522 176.42 143.141 176.262 142.859 175.981C142.578 175.699 142.42 175.318 142.42 174.92C142.42 174.522 142.578 174.141 142.859 173.859C143.141 173.578 143.522 173.42 143.92 173.42H196.79C197.188 173.42 197.569 173.578 197.851 173.859C198.132 174.141 198.29 174.522 198.29 174.92C198.29 175.318 198.132 175.699 197.851 175.981C197.569 176.262 197.188 176.42 196.79 176.42Z" fill="#40DCFF"/>
<path d="M251.83 183.41H143.42C143.155 183.41 142.9 183.305 142.713 183.117C142.525 182.93 142.42 182.675 142.42 182.41C142.42 182.145 142.525 181.891 142.713 181.703C142.9 181.516 143.155 181.41 143.42 181.41H251.83C252.095 181.41 252.349 181.516 252.537 181.703C252.725 181.891 252.83 182.145 252.83 182.41C252.83 182.675 252.725 182.93 252.537 183.117C252.349 183.305 252.095 183.41 251.83 183.41Z" fill="#40DCFF"/>
<path d="M251.83 188.8H143.42C143.155 188.8 142.9 188.694 142.713 188.507C142.525 188.319 142.42 188.065 142.42 187.8C142.42 187.535 142.525 187.28 142.713 187.093C142.9 186.905 143.155 186.8 143.42 186.8H251.83C252.095 186.8 252.349 186.905 252.537 187.093C252.725 187.28 252.83 187.535 252.83 187.8C252.83 188.065 252.725 188.319 252.537 188.507C252.349 188.694 252.095 188.8 251.83 188.8Z" fill="#40DCFF"/>
<path d="M231.83 194.2H143.42C143.155 194.2 142.9 194.095 142.713 193.907C142.525 193.72 142.42 193.465 142.42 193.2C142.42 192.935 142.525 192.681 142.713 192.493C142.9 192.306 143.155 192.2 143.42 192.2H231.83C232.095 192.2 232.349 192.306 232.537 192.493C232.725 192.681 232.83 192.935 232.83 193.2C232.83 193.465 232.725 193.72 232.537 193.907C232.349 194.095 232.095 194.2 231.83 194.2Z" fill="#40DCFF"/>
</g>
<path opacity="0.5" d="M278.79 202.34H136.77V237.01H278.79V202.34Z" fill="white"/>
<g opacity="0.2">
<path d="M196.85 212.279H144C143.602 212.279 143.221 212.121 142.939 211.84C142.658 211.559 142.5 211.177 142.5 210.779C142.5 210.381 142.658 210 142.939 209.719C143.221 209.437 143.602 209.279 144 209.279H196.88C197.278 209.279 197.659 209.437 197.941 209.719C198.222 210 198.38 210.381 198.38 210.779C198.38 211.177 198.222 211.559 197.941 211.84C197.659 212.121 197.278 212.279 196.88 212.279H196.85Z" fill="#40DCFF"/>
<path d="M251.89 219.27H143.47C143.205 219.27 142.95 219.164 142.763 218.977C142.575 218.789 142.47 218.535 142.47 218.27C142.47 218.004 142.575 217.75 142.763 217.562C142.95 217.375 143.205 217.27 143.47 217.27H251.89C252.155 217.27 252.409 217.375 252.597 217.562C252.784 217.75 252.89 218.004 252.89 218.27C252.89 218.535 252.784 218.789 252.597 218.977C252.409 219.164 252.155 219.27 251.89 219.27Z" fill="#40DCFF"/>
<path d="M251.89 224.669H143.47C143.205 224.669 142.95 224.564 142.763 224.376C142.575 224.189 142.47 223.934 142.47 223.669C142.47 223.404 142.575 223.149 142.763 222.962C142.95 222.774 143.205 222.669 143.47 222.669H251.89C252.155 222.669 252.409 222.774 252.597 222.962C252.784 223.149 252.89 223.404 252.89 223.669C252.89 223.934 252.784 224.189 252.597 224.376C252.409 224.564 252.155 224.669 251.89 224.669Z" fill="#40DCFF"/>
<path d="M231.89 230.069H143.47C143.205 230.069 142.95 229.964 142.763 229.776C142.575 229.589 142.47 229.335 142.47 229.069C142.47 228.804 142.575 228.55 142.763 228.362C142.95 228.175 143.205 228.069 143.47 228.069H231.89C232.155 228.069 232.409 228.175 232.597 228.362C232.784 228.55 232.89 228.804 232.89 229.069C232.89 229.335 232.784 229.589 232.597 229.776C232.409 229.964 232.155 230.069 231.89 230.069Z" fill="#40DCFF"/>
</g>
<path opacity="0.5" d="M278.85 238.199H136.83V272.869H278.85V238.199Z" fill="white"/>
<g opacity="0.6">
<path d="M196.91 248.14H144C143.602 248.14 143.221 247.982 142.939 247.7C142.658 247.419 142.5 247.037 142.5 246.64C142.5 246.242 142.658 245.86 142.939 245.579C143.221 245.298 143.602 245.14 144 245.14H196.88C197.278 245.14 197.659 245.298 197.941 245.579C198.222 245.86 198.38 246.242 198.38 246.64C198.38 247.037 198.222 247.419 197.941 247.7C197.659 247.982 197.278 248.14 196.88 248.14H196.91Z" fill="#40DCFF"/>
<path d="M251.94 255.13H143.53C143.265 255.13 143.011 255.025 142.823 254.837C142.636 254.649 142.53 254.395 142.53 254.13C142.53 253.865 142.636 253.61 142.823 253.423C143.011 253.235 143.265 253.13 143.53 253.13H251.94C252.205 253.13 252.46 253.235 252.647 253.423C252.835 253.61 252.94 253.865 252.94 254.13C252.94 254.395 252.835 254.649 252.647 254.837C252.46 255.025 252.205 255.13 251.94 255.13Z" fill="#40DCFF"/>
<path d="M251.94 260.529H143.53C143.265 260.529 143.011 260.424 142.823 260.236C142.636 260.049 142.53 259.795 142.53 259.529C142.53 259.264 142.636 259.01 142.823 258.822C143.011 258.635 143.265 258.529 143.53 258.529H251.94C252.205 258.529 252.46 258.635 252.647 258.822C252.835 259.01 252.94 259.264 252.94 259.529C252.94 259.795 252.835 260.049 252.647 260.236C252.46 260.424 252.205 260.529 251.94 260.529Z" fill="#40DCFF"/>
<path d="M231.94 265.93H143.53C143.265 265.93 143.011 265.824 142.823 265.637C142.636 265.449 142.53 265.195 142.53 264.93C142.53 264.664 142.636 264.41 142.823 264.223C143.011 264.035 143.265 263.93 143.53 263.93H231.94C232.205 263.93 232.46 264.035 232.647 264.223C232.835 264.41 232.94 264.664 232.94 264.93C232.94 265.195 232.835 265.449 232.647 265.637C232.46 265.824 232.205 265.93 231.94 265.93Z" fill="#40DCFF"/>
</g>
<path opacity="0.5" d="M278.9 274.069H136.88V308.739H278.9V274.069Z" fill="white"/>
<g opacity="0.6">
<path d="M197 284H144.09C143.692 284 143.31 283.842 143.029 283.561C142.748 283.279 142.59 282.898 142.59 282.5C142.59 282.102 142.748 281.721 143.029 281.439C143.31 281.158 143.692 281 144.09 281H197C197.398 281 197.779 281.158 198.061 281.439C198.342 281.721 198.5 282.102 198.5 282.5C198.5 282.898 198.342 283.279 198.061 283.561C197.779 283.842 197.398 284 197 284Z" fill="#40DCFF"/>
<path d="M252 291H143.59C143.325 291 143.07 290.895 142.883 290.707C142.695 290.52 142.59 290.265 142.59 290C142.59 289.735 142.695 289.48 142.883 289.293C143.07 289.105 143.325 289 143.59 289H252C252.265 289 252.519 289.105 252.707 289.293C252.894 289.48 253 289.735 253 290C253 290.265 252.894 290.52 252.707 290.707C252.519 290.895 252.265 291 252 291Z" fill="#40DCFF"/>
<path d="M252 296.4H143.59C143.325 296.4 143.07 296.295 142.883 296.108C142.695 295.92 142.59 295.666 142.59 295.4C142.59 295.135 142.695 294.881 142.883 294.693C143.07 294.506 143.325 294.4 143.59 294.4H252C252.265 294.4 252.519 294.506 252.707 294.693C252.894 294.881 253 295.135 253 295.4C253 295.666 252.894 295.92 252.707 296.108C252.519 296.295 252.265 296.4 252 296.4Z" fill="#40DCFF"/>
<path d="M232 301.8H143.59C143.325 301.8 143.07 301.694 142.883 301.507C142.695 301.319 142.59 301.065 142.59 300.8C142.59 300.535 142.695 300.28 142.883 300.093C143.07 299.905 143.325 299.8 143.59 299.8H232C232.265 299.8 232.519 299.905 232.707 300.093C232.894 300.28 233 300.535 233 300.8C233 301.065 232.894 301.319 232.707 301.507C232.519 301.694 232.265 301.8 232 301.8Z" fill="#40DCFF"/>
</g>
<path opacity="0.5" d="M278.959 309.93H136.939V344.6H278.959V309.93Z" fill="white"/>
<g opacity="0.6">
<path d="M197 319.87H144.14C143.742 319.87 143.36 319.712 143.079 319.431C142.798 319.149 142.64 318.768 142.64 318.37C142.64 317.972 142.798 317.591 143.079 317.309C143.36 317.028 143.742 316.87 144.14 316.87H197C197.397 316.87 197.779 317.028 198.06 317.309C198.342 317.591 198.5 317.972 198.5 318.37C198.5 318.768 198.342 319.149 198.06 319.431C197.779 319.712 197.397 319.87 197 319.87Z" fill="#40DCFF"/>
<path d="M252.06 326.86H143.64C143.374 326.86 143.12 326.755 142.933 326.567C142.745 326.38 142.64 326.126 142.64 325.86C142.64 325.595 142.745 325.341 142.933 325.153C143.12 324.966 143.374 324.86 143.64 324.86H252.06C252.325 324.86 252.579 324.966 252.767 325.153C252.954 325.341 253.06 325.595 253.06 325.86C253.06 326.126 252.954 326.38 252.767 326.567C252.579 326.755 252.325 326.86 252.06 326.86Z" fill="#40DCFF"/>
<path d="M252.06 332.26H143.64C143.374 332.26 143.12 332.154 142.933 331.967C142.745 331.779 142.64 331.525 142.64 331.26C142.64 330.995 142.745 330.74 142.933 330.553C143.12 330.365 143.374 330.26 143.64 330.26H252.06C252.325 330.26 252.579 330.365 252.767 330.553C252.954 330.74 253.06 330.995 253.06 331.26C253.06 331.525 252.954 331.779 252.767 331.967C252.579 332.154 252.325 332.26 252.06 332.26Z" fill="#40DCFF"/>
<path d="M232.06 337.66H143.64C143.374 337.66 143.12 337.555 142.933 337.367C142.745 337.18 142.64 336.925 142.64 336.66C142.64 336.395 142.745 336.141 142.933 335.953C143.12 335.765 143.374 335.66 143.64 335.66H232.06C232.325 335.66 232.579 335.765 232.767 335.953C232.954 336.141 233.06 336.395 233.06 336.66C233.06 336.925 232.954 337.18 232.767 337.367C232.579 337.555 232.325 337.66 232.06 337.66Z" fill="#40DCFF"/>
</g>
<path opacity="0.5" d="M279.02 345.79H137V380.46H279.02V345.79Z" fill="white"/>
<g opacity="0.6">
<path d="M197.08 355.739H144.2C143.802 355.739 143.421 355.581 143.14 355.3C142.858 355.019 142.7 354.637 142.7 354.239C142.7 353.841 142.858 353.46 143.14 353.179C143.421 352.897 143.802 352.739 144.2 352.739H197.08C197.478 352.739 197.86 352.897 198.141 353.179C198.422 353.46 198.58 353.841 198.58 354.239C198.58 354.637 198.422 355.019 198.141 355.3C197.86 355.581 197.478 355.739 197.08 355.739Z" fill="#40DCFF"/>
<path d="M252.11 362.729H143.7C143.435 362.729 143.181 362.624 142.993 362.437C142.806 362.249 142.7 361.995 142.7 361.729C142.7 361.464 142.806 361.21 142.993 361.022C143.181 360.835 143.435 360.729 143.7 360.729H252.11C252.375 360.729 252.63 360.835 252.817 361.022C253.005 361.21 253.11 361.464 253.11 361.729C253.11 361.995 253.005 362.249 252.817 362.437C252.63 362.624 252.375 362.729 252.11 362.729Z" fill="#40DCFF"/>
<path d="M252.11 368.119H143.7C143.435 368.119 143.181 368.014 142.993 367.826C142.806 367.639 142.7 367.384 142.7 367.119C142.7 366.854 142.806 366.6 142.993 366.412C143.181 366.225 143.435 366.119 143.7 366.119H252.11C252.375 366.119 252.63 366.225 252.817 366.412C253.005 366.6 253.11 366.854 253.11 367.119C253.11 367.384 253.005 367.639 252.817 367.826C252.63 368.014 252.375 368.119 252.11 368.119Z" fill="#40DCFF"/>
<path d="M232.11 373.52H143.7C143.435 373.52 143.181 373.414 142.993 373.227C142.806 373.039 142.7 372.785 142.7 372.52C142.7 372.254 142.806 372 142.993 371.812C143.181 371.625 143.435 371.52 143.7 371.52H232.11C232.375 371.52 232.63 371.625 232.817 371.812C233.005 372 233.11 372.254 233.11 372.52C233.11 372.785 233.005 373.039 232.817 373.227C232.63 373.414 232.375 373.52 232.11 373.52Z" fill="#40DCFF"/>
</g>
<path d="M238.77 188.38C238.704 188.38 238.64 188.366 238.58 188.34C238.519 188.315 238.465 188.277 238.42 188.23L234.35 184.16C234.302 184.115 234.264 184.061 234.238 184.001C234.212 183.941 234.198 183.876 234.198 183.81C234.198 183.744 234.212 183.68 234.238 183.619C234.264 183.559 234.302 183.505 234.35 183.46L238.42 179.39C238.466 179.343 238.522 179.306 238.582 179.281C238.643 179.255 238.709 179.242 238.775 179.242C238.841 179.242 238.906 179.255 238.967 179.281C239.028 179.306 239.083 179.343 239.13 179.39C239.221 179.484 239.273 179.609 239.273 179.74C239.273 179.871 239.221 179.997 239.13 180.09L235.41 183.81L239.13 187.53C239.221 187.624 239.273 187.749 239.273 187.88C239.273 188.011 239.221 188.137 239.13 188.23C239.034 188.326 238.905 188.38 238.77 188.38Z" fill="#40DCFF"/>
<path d="M228.77 188.38C228.704 188.38 228.64 188.366 228.58 188.34C228.519 188.315 228.465 188.277 228.42 188.23L224.35 184.16C224.302 184.115 224.264 184.061 224.238 184.001C224.212 183.941 224.198 183.876 224.198 183.81C224.198 183.744 224.212 183.68 224.238 183.619C224.264 183.559 224.302 183.505 224.35 183.46L228.42 179.39C228.466 179.343 228.522 179.306 228.582 179.281C228.643 179.255 228.709 179.242 228.775 179.242C228.841 179.242 228.906 179.255 228.967 179.281C229.028 179.306 229.083 179.343 229.13 179.39C229.221 179.484 229.273 179.609 229.273 179.74C229.273 179.871 229.221 179.997 229.13 180.09L225.41 183.81L229.13 187.53C229.221 187.624 229.273 187.749 229.273 187.88C229.273 188.011 229.221 188.137 229.13 188.23C229.034 188.326 228.905 188.38 228.77 188.38Z" fill="#40DCFF"/>
<path d="M233.77 188.38C233.704 188.38 233.64 188.366 233.58 188.34C233.519 188.315 233.465 188.277 233.42 188.23L229.35 184.16C229.302 184.115 229.264 184.061 229.238 184.001C229.212 183.941 229.198 183.876 229.198 183.81C229.198 183.744 229.212 183.68 229.238 183.619C229.264 183.559 229.302 183.505 229.35 183.46L233.42 179.39C233.466 179.343 233.522 179.306 233.582 179.281C233.643 179.255 233.709 179.242 233.775 179.242C233.841 179.242 233.906 179.255 233.967 179.281C234.028 179.306 234.083 179.343 234.13 179.39C234.221 179.484 234.273 179.609 234.273 179.74C234.273 179.871 234.221 179.997 234.13 180.09L230.41 183.81L234.13 187.53C234.221 187.624 234.273 187.749 234.273 187.88C234.273 188.011 234.221 188.137 234.13 188.23C234.034 188.326 233.905 188.38 233.77 188.38Z" fill="#40DCFF"/>
<path d="M214.17 215.1C214.302 215.101 214.428 215.155 214.52 215.25L218.59 219.32C218.637 219.366 218.674 219.421 218.7 219.482C218.725 219.543 218.738 219.609 218.738 219.675C218.738 219.741 218.725 219.806 218.7 219.867C218.674 219.928 218.637 219.983 218.59 220.03L214.52 224.1C214.426 224.194 214.298 224.247 214.165 224.247C214.032 224.247 213.904 224.194 213.81 224.1C213.716 224.005 213.663 223.878 213.663 223.745C213.663 223.611 213.716 223.484 213.81 223.39L217.53 219.67L213.81 216C213.718 215.904 213.666 215.777 213.666 215.645C213.666 215.512 213.718 215.385 213.81 215.29C213.854 215.235 213.908 215.19 213.97 215.157C214.032 215.124 214.1 215.105 214.17 215.1Z" fill="#40DCFF"/>
<path d="M224.17 215.1C224.302 215.101 224.428 215.155 224.52 215.25L228.59 219.32C228.637 219.366 228.674 219.421 228.7 219.482C228.725 219.543 228.738 219.609 228.738 219.675C228.738 219.741 228.725 219.806 228.7 219.867C228.674 219.928 228.637 219.983 228.59 220.03L224.52 224.1C224.426 224.194 224.298 224.247 224.165 224.247C224.032 224.247 223.904 224.194 223.81 224.1C223.716 224.005 223.663 223.878 223.663 223.745C223.663 223.611 223.716 223.484 223.81 223.39L227.53 219.67L223.81 216C223.718 215.904 223.666 215.777 223.666 215.645C223.666 215.512 223.718 215.385 223.81 215.29C223.854 215.235 223.908 215.19 223.97 215.157C224.032 215.124 224.1 215.105 224.17 215.1Z" fill="#40DCFF"/>
<path d="M219.17 215.1C219.302 215.101 219.428 215.155 219.52 215.25L223.59 219.32C223.637 219.366 223.674 219.421 223.7 219.482C223.725 219.543 223.738 219.609 223.738 219.675C223.738 219.741 223.725 219.806 223.7 219.867C223.674 219.928 223.637 219.983 223.59 220.03L219.52 224.1C219.426 224.194 219.298 224.247 219.165 224.247C219.032 224.247 218.904 224.194 218.81 224.1C218.716 224.005 218.663 223.878 218.663 223.745C218.663 223.611 218.716 223.484 218.81 223.39L222.53 219.67L218.81 216C218.718 215.904 218.666 215.777 218.666 215.645C218.666 215.512 218.718 215.385 218.81 215.29C218.854 215.235 218.908 215.19 218.97 215.157C219.032 215.124 219.1 215.105 219.17 215.1Z" fill="#40DCFF"/>
<path d="M278.74 166.47H244.07V201.14H278.74V166.47Z" fill="#40DCFF"/>
<path opacity="0.2" d="M278.74 166.47H244.07V201.14H278.74V166.47Z" fill="black"/>
<path d="M266.06 193.07H256.74L255.74 179.37H267.06L266.06 193.07Z" fill="white"/>
<path d="M267.37 176.59H255.43L255.09 178.37H267.71L267.37 176.59Z" fill="white"/>
<path d="M263.75 175.94H263V174.94H259.8V175.94H259.05V174.55C259.052 174.452 259.092 174.36 259.161 174.291C259.23 174.222 259.322 174.182 259.42 174.18H263.42C263.518 174.18 263.612 174.219 263.681 174.288C263.751 174.357 263.79 174.452 263.79 174.55L263.75 175.94Z" fill="white"/>
<path d="M147.11 156C146.978 155.998 146.852 155.944 146.76 155.85L142.69 151.78C142.597 151.687 142.543 151.561 142.54 151.43C142.542 151.295 142.596 151.166 142.69 151.07L146.76 147C146.854 146.905 146.982 146.853 147.115 146.853C147.248 146.853 147.376 146.905 147.47 147C147.564 147.094 147.617 147.221 147.617 147.355C147.617 147.488 147.564 147.615 147.47 147.71L143.75 151.43L147.47 155.14C147.562 155.235 147.614 155.362 147.614 155.495C147.614 155.627 147.562 155.754 147.47 155.85C147.375 155.945 147.245 155.999 147.11 156Z" fill="white"/>
<path d="M272.52 148.68H265.2C265.068 148.68 264.94 148.627 264.847 148.533C264.753 148.439 264.7 148.312 264.7 148.18C264.703 148.048 264.756 147.922 264.849 147.829C264.943 147.736 265.068 147.682 265.2 147.68H272.52C272.653 147.68 272.78 147.732 272.874 147.826C272.968 147.92 273.02 148.047 273.02 148.18C273.02 148.312 272.968 148.439 272.874 148.533C272.78 148.627 272.653 148.68 272.52 148.68Z" fill="white"/>
<path d="M272.52 151.939H265.2C265.068 151.937 264.943 151.883 264.849 151.79C264.756 151.697 264.703 151.571 264.7 151.439C264.7 151.307 264.753 151.18 264.847 151.086C264.94 150.992 265.068 150.939 265.2 150.939H272.52C272.653 150.939 272.78 150.992 272.874 151.086C272.968 151.18 273.02 151.307 273.02 151.439C273.02 151.572 272.968 151.699 272.874 151.793C272.78 151.887 272.653 151.939 272.52 151.939Z" fill="white"/>
<path d="M272.52 155.189H265.2C265.068 155.189 264.94 155.137 264.847 155.043C264.753 154.949 264.7 154.822 264.7 154.689C264.7 154.557 264.753 154.43 264.847 154.336C264.94 154.242 265.068 154.189 265.2 154.189H272.52C272.653 154.189 272.78 154.242 272.874 154.336C272.968 154.43 273.02 154.557 273.02 154.689C273.02 154.822 272.968 154.949 272.874 155.043C272.78 155.137 272.653 155.189 272.52 155.189Z" fill="white"/>
<path opacity="0.6" d="M152.82 124.399H154.86V121.679H152.82V124.399Z" fill="white"/>
<path opacity="0.6" d="M149.5 124.399H151.54V120.779H149.5V124.399Z" fill="white"/>
<path opacity="0.6" d="M146.17 124.41H148.21V119.88H146.17V124.41Z" fill="white"/>
<path opacity="0.6" d="M142.86 124.399H144.9V118.959H142.86V124.399Z" fill="white"/>
<path opacity="0.6" d="M262.26 120.689H261.05V123.409H262.26V120.689Z" fill="white"/>
<path opacity="0.6" d="M263.08 124.41H272.71V119.71H263.08V124.41Z" fill="white"/>
<path d="M207.78 393C207.649 393 207.523 392.95 207.43 392.86L203.36 388.78C203.312 388.735 203.274 388.68 203.248 388.62C203.221 388.56 203.208 388.495 203.208 388.43C203.208 388.364 203.221 388.299 203.248 388.239C203.274 388.179 203.312 388.124 203.36 388.08C203.406 388.033 203.461 387.995 203.522 387.97C203.583 387.945 203.649 387.932 203.715 387.932C203.781 387.932 203.846 387.945 203.907 387.97C203.968 387.995 204.023 388.033 204.07 388.08L207.78 391.79L211.5 388.08C211.546 388.033 211.601 387.995 211.662 387.97C211.723 387.945 211.789 387.932 211.855 387.932C211.921 387.932 211.986 387.945 212.047 387.97C212.108 387.995 212.163 388.033 212.21 388.08C212.301 388.173 212.352 388.299 212.352 388.43C212.352 388.56 212.301 388.686 212.21 388.78L208.14 392.86C208.042 392.951 207.913 393.001 207.78 393Z" fill="white"/>
<path d="M188.63 150.999C188.612 150.385 188.778 149.779 189.107 149.259C189.435 148.739 189.911 148.329 190.474 148.081C191.037 147.833 191.661 147.759 192.266 147.868C192.871 147.977 193.43 148.264 193.871 148.692C194.313 149.121 194.616 149.671 194.743 150.273C194.869 150.874 194.814 151.5 194.583 152.07C194.352 152.64 193.956 153.128 193.446 153.472C192.936 153.815 192.335 153.999 191.72 153.999C191.319 154.011 190.919 153.943 190.545 153.797C190.17 153.652 189.829 153.433 189.54 153.153C189.252 152.873 189.023 152.539 188.867 152.169C188.711 151.799 188.63 151.401 188.63 150.999ZM194.17 150.999C194.178 150.508 194.04 150.026 193.772 149.614C193.505 149.202 193.121 148.88 192.669 148.687C192.217 148.495 191.718 148.441 191.236 148.533C190.754 148.626 190.31 148.86 189.961 149.206C189.612 149.552 189.375 149.993 189.279 150.475C189.182 150.956 189.232 151.456 189.42 151.909C189.609 152.362 189.929 152.749 190.338 153.02C190.748 153.291 191.229 153.433 191.72 153.429C192.043 153.439 192.364 153.383 192.664 153.264C192.965 153.146 193.238 152.967 193.467 152.74C193.696 152.513 193.876 152.241 193.997 151.942C194.118 151.643 194.177 151.322 194.17 150.999Z" fill="white"/>
<path d="M200.789 150.05C200.789 151.3 199.879 152.05 198.389 152.05H196.809V153.91H196.189V148H198.389C199.879 148 200.789 148.79 200.789 150.05ZM200.169 150.05C200.169 149.11 199.549 148.57 198.369 148.57H196.809V151.51H198.369C199.549 151.51 200.169 151 200.169 150.05Z" fill="white"/>
<path d="M203.09 148.57H201V148H205.75V148.54H203.69V153.88H203.07L203.09 148.57Z" fill="white"/>
<path d="M206.76 148H207.38V153.88H206.76V148Z" fill="white"/>
<path d="M208.78 150.999C208.762 150.385 208.928 149.779 209.256 149.259C209.585 148.739 210.061 148.329 210.623 148.081C211.186 147.833 211.81 147.759 212.415 147.868C213.021 147.977 213.58 148.264 214.021 148.692C214.462 149.121 214.765 149.671 214.892 150.273C215.019 150.874 214.963 151.5 214.732 152.07C214.501 152.64 214.105 153.128 213.595 153.472C213.085 153.815 212.485 153.999 211.87 153.999C211.468 154.011 211.068 153.943 210.694 153.797C210.319 153.652 209.978 153.433 209.69 153.153C209.402 152.873 209.173 152.539 209.016 152.169C208.86 151.799 208.779 151.401 208.78 150.999ZM214.33 150.999C214.338 150.509 214.199 150.027 213.932 149.615C213.665 149.204 213.282 148.881 212.831 148.688C212.379 148.495 211.881 148.441 211.399 148.533C210.917 148.624 210.473 148.857 210.124 149.202C209.775 149.547 209.537 149.988 209.439 150.469C209.342 150.95 209.39 151.449 209.577 151.902C209.764 152.356 210.082 152.743 210.491 153.015C210.899 153.287 211.379 153.431 211.87 153.429C212.193 153.439 212.514 153.383 212.815 153.264C213.116 153.146 213.39 152.968 213.62 152.741C213.85 152.514 214.031 152.242 214.153 151.943C214.275 151.643 214.335 151.323 214.33 150.999Z" fill="white"/>
<path d="M221.25 148V153.88H220.74L217 149.14V153.91H216.38V148H216.89L220.68 152.77V148H221.25Z" fill="white"/>
<path d="M222.61 153.19L222.85 152.71C223.384 153.184 224.076 153.441 224.79 153.43C225.89 153.43 226.37 152.97 226.37 152.43C226.37 150.82 222.75 151.81 222.75 149.63C222.75 148.77 223.42 148.02 224.91 148.02C225.558 148.01 226.194 148.191 226.74 148.54L226.53 149.04C226.049 148.724 225.486 148.554 224.91 148.55C223.84 148.55 223.36 149.03 223.36 149.61C223.36 151.23 226.98 150.25 226.98 152.39C226.98 153.26 226.29 154 224.79 154C223.987 154.019 223.207 153.729 222.61 153.19Z" fill="white"/>
<path d="M206.57 202.34H171.9V237.01H206.57V202.34Z" fill="#40DCFF"/>
<path d="M184.18 210.42H183.43V228.93H184.18V210.42Z" fill="white"/>
<path d="M185.189 211.8V217.9C188.349 220.22 191.509 215.58 194.669 217.9V211.8C191.509 209.48 188.349 214.12 185.189 211.8Z" fill="white"/>
<path d="M171.5 202.34H136.83V237.01H171.5V202.34Z" fill="#40DCFF"/>
<path opacity="0.15" d="M171.5 202.34H136.83V237.01H171.5V202.34Z" fill="white"/>
<path d="M147.79 221.45C148.718 221.45 149.47 220.698 149.47 219.77C149.47 218.842 148.718 218.09 147.79 218.09C146.863 218.09 146.11 218.842 146.11 219.77C146.11 220.698 146.863 221.45 147.79 221.45Z" fill="white"/>
<path d="M154.16 221.349C155.087 221.349 155.839 220.597 155.839 219.669C155.839 218.741 155.087 217.989 154.16 217.989C153.232 217.989 152.479 218.741 152.479 219.669C152.479 220.597 153.232 221.349 154.16 221.349Z" fill="white"/>
<path d="M160.53 221.259C161.457 221.259 162.21 220.507 162.21 219.579C162.21 218.652 161.457 217.899 160.53 217.899C159.602 217.899 158.85 218.652 158.85 219.579C158.85 220.507 159.602 221.259 160.53 221.259Z" fill="white"/>
<path d="M412.5 223.2C410.45 231.74 402.5 239.59 396.73 244.38C394.67 246.075 392.524 247.664 390.3 249.14L386 240.65C386 240.65 399.7 227 399.56 223.2C399.42 219.4 388.64 207.88 388.64 207.88L392.82 194.39L397.18 180.31C405.81 188.72 415.85 209.33 412.5 223.2Z" fill="#40DCFF"/>
<path opacity="0.2" d="M396.73 244.38C394.67 246.076 392.524 247.665 390.3 249.14L386 240.65C386 240.65 399.7 227 399.56 223.2C399.42 219.4 388.64 207.88 388.64 207.88L392.82 194.39L396.54 192.7C396.54 192.7 408.77 227.18 396.73 244.38Z" fill="black"/>
<path d="M395.93 408.53H405.25C405.401 408.53 405.548 408.582 405.666 408.676C405.784 408.771 405.866 408.902 405.9 409.05L407.41 415.89C407.472 416.183 407.416 416.488 407.252 416.74C407.089 416.991 406.833 417.167 406.54 417.23C406.457 417.239 406.373 417.239 406.29 417.23C403.29 417.18 401.08 417 397.29 417C394.96 417 387.92 417.24 384.7 417.24C381.48 417.24 381.06 414.06 382.38 413.77C388.29 412.48 392.74 410.69 394.64 408.99C394.995 408.677 395.457 408.512 395.93 408.53Z" fill="#263238"/>
<path d="M348.58 408.529H357.9C358.053 408.53 358.2 408.581 358.32 408.675C358.44 408.77 358.524 408.901 358.56 409.049L360.07 415.889C360.132 416.183 360.076 416.488 359.913 416.74C359.75 416.991 359.493 417.167 359.2 417.229C359.117 417.239 359.033 417.239 358.95 417.229C355.95 417.179 353.74 416.999 349.95 416.999C347.62 416.999 340.58 417.239 337.36 417.239C334.14 417.239 333.72 414.059 335.04 413.769C340.95 412.479 345.4 410.689 347.29 408.989C347.646 408.678 348.107 408.513 348.58 408.529Z" fill="#263238"/>
<path d="M405.91 409.09H394.64C394.64 409.09 387.9 377.59 381.47 352.23C378.59 340.85 375.76 330.7 373.64 325.23C366.87 307.68 362.44 285.23 362.44 285.23C362.44 285.23 362.68 302.11 356.49 325.23C356.49 325.23 361.09 344.46 360.09 410.97L345.91 409.79C345.91 409.79 335.75 347.79 330.78 325.25C325.81 302.71 323.9 259.16 331.89 235.99L392.28 241.29C392.28 241.29 397.18 267.69 400.99 318.19C401 318.11 408 377 405.91 409.09Z" fill="#263238"/>
<path opacity="0.5" d="M405.91 409.09H394.64C394.64 409.09 387.9 377.59 381.47 352.23C378.59 340.85 375.76 330.7 373.64 325.23C366.87 307.68 362.44 285.23 362.44 285.23C362.44 285.23 362.68 302.11 356.49 325.23C356.49 325.23 361.09 344.46 360.09 410.97L345.91 409.79C345.91 409.79 335.75 347.79 330.78 325.25C325.81 302.71 323.9 259.16 331.89 235.99L392.28 241.29C392.28 241.29 397.18 267.69 400.99 318.19C401 318.11 408 377 405.91 409.09Z" fill="white"/>
<path opacity="0.2" d="M381.469 352.189C378.589 340.809 375.759 330.659 373.639 325.189C366.869 307.639 362.439 285.189 362.439 285.189C362.439 285.189 373.129 274.349 374.639 260.439C374.639 260.439 380.719 271.159 375.699 286.669C375.699 286.579 380.419 319.099 381.469 352.189Z" fill="black"/>
<path d="M362.81 148.55C362.81 149.22 362.37 149.74 361.93 149.71C361.49 149.68 361.17 149.1 361.22 148.43C361.27 147.76 361.66 147.24 362.1 147.27C362.54 147.3 362.85 147.87 362.81 148.55Z" fill="#263238"/>
<path d="M362.369 150.14C361.201 152.015 359.781 153.721 358.149 155.21C358.543 155.621 359.021 155.941 359.552 156.146C360.082 156.352 360.652 156.439 361.219 156.4L362.369 150.14Z" fill="#D58745"/>
<path d="M364.44 146.85C364.37 146.87 364.295 146.87 364.225 146.851C364.154 146.831 364.09 146.793 364.04 146.74C363.703 146.378 363.286 146.099 362.823 145.925C362.36 145.752 361.862 145.688 361.37 145.74C361.268 145.758 361.163 145.735 361.078 145.678C360.992 145.62 360.932 145.531 360.91 145.43C360.9 145.379 360.9 145.327 360.91 145.277C360.92 145.226 360.94 145.178 360.969 145.135C360.998 145.092 361.035 145.056 361.078 145.027C361.121 144.999 361.169 144.98 361.22 144.97C361.842 144.895 362.473 144.968 363.061 145.181C363.65 145.395 364.181 145.744 364.61 146.2C364.683 146.275 364.724 146.375 364.724 146.48C364.724 146.585 364.683 146.685 364.61 146.76C364.562 146.804 364.503 146.835 364.44 146.85Z" fill="#263238"/>
<path d="M385.31 149.63C384.54 155.56 384.2 159.75 382.39 163.08C381.971 163.84 381.479 164.557 380.92 165.22C380.496 165.721 380.034 166.189 379.54 166.62C377.929 168.075 375.905 168.994 373.75 169.25C369.84 170.17 364.14 169.14 361.06 165C360.26 163.919 359.679 162.693 359.35 161.39C357.83 155.65 360.65 153.74 361.35 151.87C361.44 151.17 361.54 150.48 361.66 149.79C361.38 146.48 363.2 141.6 366.15 140.04C367.351 138.762 368.853 137.806 370.52 137.26C371.927 136.785 373.413 136.592 374.895 136.693C376.377 136.794 377.824 137.186 379.153 137.848C380.483 138.51 381.669 139.427 382.643 140.548C383.617 141.669 384.36 142.971 384.83 144.38C385.397 146.068 385.562 147.866 385.31 149.63Z" fill="#EBB376"/>
<path d="M365.109 140.75C365.109 140.75 362.599 136.98 367.569 135.46C372.539 133.94 382.889 136.61 385.989 141.15C392.719 150.97 382.219 163.38 382.219 163.38C382.219 163.38 379.979 161.73 373.169 163.1C373.169 163.1 368.029 162.69 366.849 157.89C366.113 155.213 366.113 152.387 366.849 149.71C366.28 149.248 365.819 148.666 365.499 148.006C365.179 147.346 365.009 146.623 364.999 145.89C364.919 143.31 368.129 140.74 368.129 140.74C367.655 140.523 367.14 140.411 366.618 140.413C366.097 140.415 365.582 140.53 365.109 140.75Z" fill="#263238"/>
<path d="M373.56 156.74C372.328 158.42 370.479 159.542 368.42 159.86C365.69 160.26 364.67 157.74 365.71 155.34C366.71 153.21 369.22 150.34 371.82 151.09C374.42 151.84 375.05 154.66 373.56 156.74Z" fill="#EBB376"/>
<path opacity="0.2" d="M382.39 163.08C381.971 163.84 381.479 164.557 380.92 165.22C380.496 165.721 380.034 166.189 379.54 166.62C377.929 168.075 375.905 168.994 373.75 169.25C369.84 170.17 364.14 169.14 361.06 165C366.36 166.9 372.18 165.17 372.18 165.17C372.18 165.17 377.32 163.82 382.39 163.08Z" fill="black"/>
<path d="M387.91 175.48C381.91 178.48 366.55 176.85 366.55 176.85L358.72 171.85C362.63 171.5 363.28 170.85 364.72 169.75C367.06 168 368.72 165.37 367.92 162.98C367.92 162.98 367.92 162.92 367.92 162.9C370.091 161.831 372.38 161.019 374.74 160.48C382.63 159.18 384.19 160.35 384.19 160.35C383.75 164.9 382 171.93 387.91 175.48Z" fill="#EBB376"/>
<path d="M360.78 171.17C360.78 171.17 367.15 167.48 377.36 169.81C387.57 172.14 387.41 176.76 387.41 176.76L360.78 171.17Z" fill="#40DCFF"/>
<path opacity="0.2" d="M360.78 171.17C360.78 171.17 367.15 167.48 377.36 169.81C387.57 172.14 387.41 176.76 387.41 176.76L360.78 171.17Z" fill="black"/>
<path d="M394.77 227.69C394.77 227.69 396.1 233.69 392.7 242.69L331.89 235.94C331.89 235.94 325.96 225.18 337.11 206.55C337.79 205.41 338.53 204.24 339.34 203.04C339.34 203.04 340.75 195.4 342.6 188.33C343.91 183.33 345.46 178.54 346.87 177.07C350.3 173.53 360.87 168.83 375.87 171.54C390.87 174.25 397.18 180.34 397.18 180.34L394.77 227.69Z" fill="#40DCFF"/>
<path d="M331.33 234.54L330.31 238.3L393.8 243.92V240.27L331.33 234.54Z" fill="#40DCFF"/>
<path opacity="0.2" d="M331.33 234.54L330.31 238.3L393.8 243.92V240.27L331.33 234.54Z" fill="black"/>
<path opacity="0.2" d="M351.759 189C351.759 189 348.029 204.21 337.109 206.52C337.789 205.38 338.529 204.21 339.339 203.01C339.339 203.01 340.749 195.37 342.599 188.3L351.759 189Z" fill="black"/>
<path d="M289.53 184L285.53 182.29C285.53 182.29 285.58 180.48 284.74 179.87C283.9 179.26 275.07 180.05 273.5 180.25C271.93 180.45 272.96 184.41 274.38 186.99C275.8 189.57 284.38 188.05 284.8 186.99L288.43 189.05L289.53 184Z" fill="#EBB376"/>
<path d="M291.76 183C297.82 181 322.07 181.45 322.07 181.45L353.34 173.45C353.34 173.45 358.89 190.07 340.87 201.6C340.87 201.6 302.11 203.04 288.74 190.81L291.76 183Z" fill="#40DCFF"/>
<path d="M288.79 182.03L285.63 189.08L288.74 190.77L291.76 182.95L288.79 182.03Z" fill="#40DCFF"/>
<path opacity="0.2" d="M288.79 182.03L285.63 189.08L288.74 190.77L291.76 182.95L288.79 182.03Z" fill="black"/>
</svg>
